G04 #@! TF.GenerationSoftware,KiCad,Pcbnew,10.0.1*
G04 #@! TF.CreationDate,2026-04-26T13:57:47+02:00*
G04 #@! TF.ProjectId,JoystickBoardDilder,4a6f7973-7469-4636-9b42-6f6172644469,1*
G04 #@! TF.SameCoordinates,Original*
G04 #@! TF.FileFunction,Legend,Top*
G04 #@! TF.FilePolarity,Positive*
%FSLAX46Y46*%
G04 Gerber Fmt 4.6, Leading zero omitted, Abs format (unit mm)*
G04 Created by KiCad (PCBNEW 10.0.1) date 2026-04-26 13:57:47*
%MOMM*%
%LPD*%
G01*
G04 APERTURE LIST*
%ADD10C,0.100000*%
%ADD11C,0.150000*%
%ADD12C,0.200000*%
%ADD13C,0.120000*%
%ADD14C,0.250000*%
%ADD15C,0.060000*%
%ADD16C,1.700000*%
%ADD17R,1.700000X1.700000*%
%ADD18R,2.000000X1.400000*%
G04 APERTURE END LIST*
D10*
X111775312Y-58977180D02*
X111727693Y-59024800D01*
X111727693Y-59024800D02*
X111584836Y-59072419D01*
X111584836Y-59072419D02*
X111489598Y-59072419D01*
X111489598Y-59072419D02*
X111346741Y-59024800D01*
X111346741Y-59024800D02*
X111251503Y-58929561D01*
X111251503Y-58929561D02*
X111203884Y-58834323D01*
X111203884Y-58834323D02*
X111156265Y-58643847D01*
X111156265Y-58643847D02*
X111156265Y-58500990D01*
X111156265Y-58500990D02*
X111203884Y-58310514D01*
X111203884Y-58310514D02*
X111251503Y-58215276D01*
X111251503Y-58215276D02*
X111346741Y-58120038D01*
X111346741Y-58120038D02*
X111489598Y-58072419D01*
X111489598Y-58072419D02*
X111584836Y-58072419D01*
X111584836Y-58072419D02*
X111727693Y-58120038D01*
X111727693Y-58120038D02*
X111775312Y-58167657D01*
X97775312Y-58997180D02*
X97727693Y-59044800D01*
X97727693Y-59044800D02*
X97584836Y-59092419D01*
X97584836Y-59092419D02*
X97489598Y-59092419D01*
X97489598Y-59092419D02*
X97346741Y-59044800D01*
X97346741Y-59044800D02*
X97251503Y-58949561D01*
X97251503Y-58949561D02*
X97203884Y-58854323D01*
X97203884Y-58854323D02*
X97156265Y-58663847D01*
X97156265Y-58663847D02*
X97156265Y-58520990D01*
X97156265Y-58520990D02*
X97203884Y-58330514D01*
X97203884Y-58330514D02*
X97251503Y-58235276D01*
X97251503Y-58235276D02*
X97346741Y-58140038D01*
X97346741Y-58140038D02*
X97489598Y-58092419D01*
X97489598Y-58092419D02*
X97584836Y-58092419D01*
X97584836Y-58092419D02*
X97727693Y-58140038D01*
X97727693Y-58140038D02*
X97775312Y-58187657D01*
X98346741Y-59092419D02*
X98251503Y-59044800D01*
X98251503Y-59044800D02*
X98203884Y-58997180D01*
X98203884Y-58997180D02*
X98156265Y-58901942D01*
X98156265Y-58901942D02*
X98156265Y-58616228D01*
X98156265Y-58616228D02*
X98203884Y-58520990D01*
X98203884Y-58520990D02*
X98251503Y-58473371D01*
X98251503Y-58473371D02*
X98346741Y-58425752D01*
X98346741Y-58425752D02*
X98489598Y-58425752D01*
X98489598Y-58425752D02*
X98584836Y-58473371D01*
X98584836Y-58473371D02*
X98632455Y-58520990D01*
X98632455Y-58520990D02*
X98680074Y-58616228D01*
X98680074Y-58616228D02*
X98680074Y-58901942D01*
X98680074Y-58901942D02*
X98632455Y-58997180D01*
X98632455Y-58997180D02*
X98584836Y-59044800D01*
X98584836Y-59044800D02*
X98489598Y-59092419D01*
X98489598Y-59092419D02*
X98346741Y-59092419D01*
X99108646Y-59092419D02*
X99108646Y-58425752D01*
X99108646Y-58520990D02*
X99156265Y-58473371D01*
X99156265Y-58473371D02*
X99251503Y-58425752D01*
X99251503Y-58425752D02*
X99394360Y-58425752D01*
X99394360Y-58425752D02*
X99489598Y-58473371D01*
X99489598Y-58473371D02*
X99537217Y-58568609D01*
X99537217Y-58568609D02*
X99537217Y-59092419D01*
X99537217Y-58568609D02*
X99584836Y-58473371D01*
X99584836Y-58473371D02*
X99680074Y-58425752D01*
X99680074Y-58425752D02*
X99822931Y-58425752D01*
X99822931Y-58425752D02*
X99918170Y-58473371D01*
X99918170Y-58473371D02*
X99965789Y-58568609D01*
X99965789Y-58568609D02*
X99965789Y-59092419D01*
X101580074Y-58972419D02*
X101103884Y-58972419D01*
X101103884Y-58972419D02*
X101103884Y-57972419D01*
X109275312Y-59092419D02*
X108941979Y-58616228D01*
X108703884Y-59092419D02*
X108703884Y-58092419D01*
X108703884Y-58092419D02*
X109084836Y-58092419D01*
X109084836Y-58092419D02*
X109180074Y-58140038D01*
X109180074Y-58140038D02*
X109227693Y-58187657D01*
X109227693Y-58187657D02*
X109275312Y-58282895D01*
X109275312Y-58282895D02*
X109275312Y-58425752D01*
X109275312Y-58425752D02*
X109227693Y-58520990D01*
X109227693Y-58520990D02*
X109180074Y-58568609D01*
X109180074Y-58568609D02*
X109084836Y-58616228D01*
X109084836Y-58616228D02*
X108703884Y-58616228D01*
X103603884Y-59092419D02*
X103603884Y-58092419D01*
X103603884Y-58092419D02*
X103841979Y-58092419D01*
X103841979Y-58092419D02*
X103984836Y-58140038D01*
X103984836Y-58140038D02*
X104080074Y-58235276D01*
X104080074Y-58235276D02*
X104127693Y-58330514D01*
X104127693Y-58330514D02*
X104175312Y-58520990D01*
X104175312Y-58520990D02*
X104175312Y-58663847D01*
X104175312Y-58663847D02*
X104127693Y-58854323D01*
X104127693Y-58854323D02*
X104080074Y-58949561D01*
X104080074Y-58949561D02*
X103984836Y-59044800D01*
X103984836Y-59044800D02*
X103841979Y-59092419D01*
X103841979Y-59092419D02*
X103603884Y-59092419D01*
X105803884Y-58172419D02*
X105803884Y-58981942D01*
X105803884Y-58981942D02*
X105851503Y-59077180D01*
X105851503Y-59077180D02*
X105899122Y-59124800D01*
X105899122Y-59124800D02*
X105994360Y-59172419D01*
X105994360Y-59172419D02*
X106184836Y-59172419D01*
X106184836Y-59172419D02*
X106280074Y-59124800D01*
X106280074Y-59124800D02*
X106327693Y-59077180D01*
X106327693Y-59077180D02*
X106375312Y-58981942D01*
X106375312Y-58981942D02*
X106375312Y-58172419D01*
X106851503Y-59172419D02*
X106851503Y-58172419D01*
X106851503Y-58172419D02*
X107232455Y-58172419D01*
X107232455Y-58172419D02*
X107327693Y-58220038D01*
X107327693Y-58220038D02*
X107375312Y-58267657D01*
X107375312Y-58267657D02*
X107422931Y-58362895D01*
X107422931Y-58362895D02*
X107422931Y-58505752D01*
X107422931Y-58505752D02*
X107375312Y-58600990D01*
X107375312Y-58600990D02*
X107327693Y-58648609D01*
X107327693Y-58648609D02*
X107232455Y-58696228D01*
X107232455Y-58696228D02*
X106851503Y-58696228D01*
D11*
X96707200Y-65004761D02*
X96754819Y-64861904D01*
X96754819Y-64861904D02*
X96754819Y-64623809D01*
X96754819Y-64623809D02*
X96707200Y-64528571D01*
X96707200Y-64528571D02*
X96659580Y-64480952D01*
X96659580Y-64480952D02*
X96564342Y-64433333D01*
X96564342Y-64433333D02*
X96469104Y-64433333D01*
X96469104Y-64433333D02*
X96373866Y-64480952D01*
X96373866Y-64480952D02*
X96326247Y-64528571D01*
X96326247Y-64528571D02*
X96278628Y-64623809D01*
X96278628Y-64623809D02*
X96231009Y-64814285D01*
X96231009Y-64814285D02*
X96183390Y-64909523D01*
X96183390Y-64909523D02*
X96135771Y-64957142D01*
X96135771Y-64957142D02*
X96040533Y-65004761D01*
X96040533Y-65004761D02*
X95945295Y-65004761D01*
X95945295Y-65004761D02*
X95850057Y-64957142D01*
X95850057Y-64957142D02*
X95802438Y-64909523D01*
X95802438Y-64909523D02*
X95754819Y-64814285D01*
X95754819Y-64814285D02*
X95754819Y-64576190D01*
X95754819Y-64576190D02*
X95802438Y-64433333D01*
X95754819Y-64099999D02*
X96754819Y-63861904D01*
X96754819Y-63861904D02*
X96040533Y-63671428D01*
X96040533Y-63671428D02*
X96754819Y-63480952D01*
X96754819Y-63480952D02*
X95754819Y-63242857D01*
X96754819Y-62338095D02*
X96754819Y-62909523D01*
X96754819Y-62623809D02*
X95754819Y-62623809D01*
X95754819Y-62623809D02*
X95897676Y-62719047D01*
X95897676Y-62719047D02*
X95992914Y-62814285D01*
X95992914Y-62814285D02*
X96040533Y-62909523D01*
X96754819Y-61909523D02*
X95754819Y-61909523D01*
X96231009Y-61909523D02*
X96231009Y-61338095D01*
X96754819Y-61338095D02*
X95754819Y-61338095D01*
X96707200Y-60480952D02*
X96754819Y-60576190D01*
X96754819Y-60576190D02*
X96754819Y-60766666D01*
X96754819Y-60766666D02*
X96707200Y-60861904D01*
X96707200Y-60861904D02*
X96611961Y-60909523D01*
X96611961Y-60909523D02*
X96231009Y-60909523D01*
X96231009Y-60909523D02*
X96135771Y-60861904D01*
X96135771Y-60861904D02*
X96088152Y-60766666D01*
X96088152Y-60766666D02*
X96088152Y-60576190D01*
X96088152Y-60576190D02*
X96135771Y-60480952D01*
X96135771Y-60480952D02*
X96231009Y-60433333D01*
X96231009Y-60433333D02*
X96326247Y-60433333D01*
X96326247Y-60433333D02*
X96421485Y-60909523D01*
X96754819Y-59576190D02*
X96231009Y-59576190D01*
X96231009Y-59576190D02*
X96135771Y-59623809D01*
X96135771Y-59623809D02*
X96088152Y-59719047D01*
X96088152Y-59719047D02*
X96088152Y-59909523D01*
X96088152Y-59909523D02*
X96135771Y-60004761D01*
X96707200Y-59576190D02*
X96754819Y-59671428D01*
X96754819Y-59671428D02*
X96754819Y-59909523D01*
X96754819Y-59909523D02*
X96707200Y-60004761D01*
X96707200Y-60004761D02*
X96611961Y-60052380D01*
X96611961Y-60052380D02*
X96516723Y-60052380D01*
X96516723Y-60052380D02*
X96421485Y-60004761D01*
X96421485Y-60004761D02*
X96373866Y-59909523D01*
X96373866Y-59909523D02*
X96373866Y-59671428D01*
X96373866Y-59671428D02*
X96326247Y-59576190D01*
X96754819Y-58671428D02*
X95754819Y-58671428D01*
X96707200Y-58671428D02*
X96754819Y-58766666D01*
X96754819Y-58766666D02*
X96754819Y-58957142D01*
X96754819Y-58957142D02*
X96707200Y-59052380D01*
X96707200Y-59052380D02*
X96659580Y-59099999D01*
X96659580Y-59099999D02*
X96564342Y-59147618D01*
X96564342Y-59147618D02*
X96278628Y-59147618D01*
X96278628Y-59147618D02*
X96183390Y-59099999D01*
X96183390Y-59099999D02*
X96135771Y-59052380D01*
X96135771Y-59052380D02*
X96088152Y-58957142D01*
X96088152Y-58957142D02*
X96088152Y-58766666D01*
X96088152Y-58766666D02*
X96135771Y-58671428D01*
X96707200Y-57814285D02*
X96754819Y-57909523D01*
X96754819Y-57909523D02*
X96754819Y-58099999D01*
X96754819Y-58099999D02*
X96707200Y-58195237D01*
X96707200Y-58195237D02*
X96611961Y-58242856D01*
X96611961Y-58242856D02*
X96231009Y-58242856D01*
X96231009Y-58242856D02*
X96135771Y-58195237D01*
X96135771Y-58195237D02*
X96088152Y-58099999D01*
X96088152Y-58099999D02*
X96088152Y-57909523D01*
X96088152Y-57909523D02*
X96135771Y-57814285D01*
X96135771Y-57814285D02*
X96231009Y-57766666D01*
X96231009Y-57766666D02*
X96326247Y-57766666D01*
X96326247Y-57766666D02*
X96421485Y-58242856D01*
X96754819Y-57338094D02*
X96088152Y-57338094D01*
X96278628Y-57338094D02*
X96183390Y-57290475D01*
X96183390Y-57290475D02*
X96135771Y-57242856D01*
X96135771Y-57242856D02*
X96088152Y-57147618D01*
X96088152Y-57147618D02*
X96088152Y-57052380D01*
X96754819Y-56195237D02*
X96754819Y-56766665D01*
X96754819Y-56480951D02*
X95754819Y-56480951D01*
X95754819Y-56480951D02*
X95897676Y-56576189D01*
X95897676Y-56576189D02*
X95992914Y-56671427D01*
X95992914Y-56671427D02*
X96040533Y-56766665D01*
X103696667Y-45057200D02*
X103839524Y-45104819D01*
X103839524Y-45104819D02*
X104077619Y-45104819D01*
X104077619Y-45104819D02*
X104172857Y-45057200D01*
X104172857Y-45057200D02*
X104220476Y-45009580D01*
X104220476Y-45009580D02*
X104268095Y-44914342D01*
X104268095Y-44914342D02*
X104268095Y-44819104D01*
X104268095Y-44819104D02*
X104220476Y-44723866D01*
X104220476Y-44723866D02*
X104172857Y-44676247D01*
X104172857Y-44676247D02*
X104077619Y-44628628D01*
X104077619Y-44628628D02*
X103887143Y-44581009D01*
X103887143Y-44581009D02*
X103791905Y-44533390D01*
X103791905Y-44533390D02*
X103744286Y-44485771D01*
X103744286Y-44485771D02*
X103696667Y-44390533D01*
X103696667Y-44390533D02*
X103696667Y-44295295D01*
X103696667Y-44295295D02*
X103744286Y-44200057D01*
X103744286Y-44200057D02*
X103791905Y-44152438D01*
X103791905Y-44152438D02*
X103887143Y-44104819D01*
X103887143Y-44104819D02*
X104125238Y-44104819D01*
X104125238Y-44104819D02*
X104268095Y-44152438D01*
X104601429Y-44104819D02*
X104839524Y-45104819D01*
X104839524Y-45104819D02*
X105030000Y-44390533D01*
X105030000Y-44390533D02*
X105220476Y-45104819D01*
X105220476Y-45104819D02*
X105458572Y-44104819D01*
X106363333Y-45104819D02*
X105791905Y-45104819D01*
X106077619Y-45104819D02*
X106077619Y-44104819D01*
X106077619Y-44104819D02*
X105982381Y-44247676D01*
X105982381Y-44247676D02*
X105887143Y-44342914D01*
X105887143Y-44342914D02*
X105791905Y-44390533D01*
D12*
X109792219Y-50640326D02*
X108792219Y-50640326D01*
X108792219Y-50640326D02*
X108792219Y-50402231D01*
X108792219Y-50402231D02*
X108839838Y-50259374D01*
X108839838Y-50259374D02*
X108935076Y-50164136D01*
X108935076Y-50164136D02*
X109030314Y-50116517D01*
X109030314Y-50116517D02*
X109220790Y-50068898D01*
X109220790Y-50068898D02*
X109363647Y-50068898D01*
X109363647Y-50068898D02*
X109554123Y-50116517D01*
X109554123Y-50116517D02*
X109649361Y-50164136D01*
X109649361Y-50164136D02*
X109744600Y-50259374D01*
X109744600Y-50259374D02*
X109792219Y-50402231D01*
X109792219Y-50402231D02*
X109792219Y-50640326D01*
X106941101Y-56576980D02*
X106893482Y-56624600D01*
X106893482Y-56624600D02*
X106750625Y-56672219D01*
X106750625Y-56672219D02*
X106655387Y-56672219D01*
X106655387Y-56672219D02*
X106512530Y-56624600D01*
X106512530Y-56624600D02*
X106417292Y-56529361D01*
X106417292Y-56529361D02*
X106369673Y-56434123D01*
X106369673Y-56434123D02*
X106322054Y-56243647D01*
X106322054Y-56243647D02*
X106322054Y-56100790D01*
X106322054Y-56100790D02*
X106369673Y-55910314D01*
X106369673Y-55910314D02*
X106417292Y-55815076D01*
X106417292Y-55815076D02*
X106512530Y-55719838D01*
X106512530Y-55719838D02*
X106655387Y-55672219D01*
X106655387Y-55672219D02*
X106750625Y-55672219D01*
X106750625Y-55672219D02*
X106893482Y-55719838D01*
X106893482Y-55719838D02*
X106941101Y-55767457D01*
X100878409Y-53106993D02*
X100926028Y-52964136D01*
X100926028Y-52964136D02*
X100973647Y-52916517D01*
X100973647Y-52916517D02*
X101068885Y-52868898D01*
X101068885Y-52868898D02*
X101211742Y-52868898D01*
X101211742Y-52868898D02*
X101306980Y-52916517D01*
X101306980Y-52916517D02*
X101354600Y-52964136D01*
X101354600Y-52964136D02*
X101402219Y-53059374D01*
X101402219Y-53059374D02*
X101402219Y-53440326D01*
X101402219Y-53440326D02*
X100402219Y-53440326D01*
X100402219Y-53440326D02*
X100402219Y-53106993D01*
X100402219Y-53106993D02*
X100449838Y-53011755D01*
X100449838Y-53011755D02*
X100497457Y-52964136D01*
X100497457Y-52964136D02*
X100592695Y-52916517D01*
X100592695Y-52916517D02*
X100687933Y-52916517D01*
X100687933Y-52916517D02*
X100783171Y-52964136D01*
X100783171Y-52964136D02*
X100830790Y-53011755D01*
X100830790Y-53011755D02*
X100878409Y-53106993D01*
X100878409Y-53106993D02*
X100878409Y-53440326D01*
X103782054Y-48036504D02*
X104258244Y-48036504D01*
X103686816Y-48322219D02*
X104020149Y-47322219D01*
X104020149Y-47322219D02*
X104353482Y-48322219D01*
G04 #@! TO.C,SW1Header1*
D13*
X99950000Y-59220000D02*
X112760000Y-59220000D01*
X112760000Y-61980000D02*
X112760000Y-59220000D01*
X99950000Y-61980000D02*
X99950000Y-59220000D01*
X99950000Y-61980000D02*
X112760000Y-61980000D01*
X98680000Y-61980000D02*
X97300000Y-61980000D01*
X97300000Y-61980000D02*
X97300000Y-60600000D01*
G04 #@! TO.C,SW1*
D14*
X107270000Y-51900000D02*
G75*
G02*
X102690000Y-51900000I-2290000J0D01*
G01*
X102690000Y-51900000D02*
G75*
G02*
X107270000Y-51900000I2290000J0D01*
G01*
X108280000Y-51900000D02*
G75*
G02*
X101680000Y-51900000I-3300000J0D01*
G01*
X101680000Y-51900000D02*
G75*
G02*
X108280000Y-51900000I3300000J0D01*
G01*
X109170000Y-55710000D02*
G75*
G02*
X107910000Y-55710000I-630000J0D01*
G01*
X107910000Y-55710000D02*
G75*
G02*
X109170000Y-55710000I630000J0D01*
G01*
X102060000Y-55710000D02*
G75*
G02*
X100780000Y-55710000I-640000J0D01*
G01*
X100780000Y-55710000D02*
G75*
G02*
X102060000Y-55710000I640000J0D01*
G01*
X109170000Y-48090000D02*
G75*
G02*
X107910000Y-48090000I-630000J0D01*
G01*
X107910000Y-48090000D02*
G75*
G02*
X109170000Y-48090000I630000J0D01*
G01*
X102060000Y-48090000D02*
G75*
G02*
X100780000Y-48090000I-640000J0D01*
G01*
X100780000Y-48090000D02*
G75*
G02*
X102060000Y-48090000I640000J0D01*
G01*
D15*
X99210000Y-57000000D02*
G75*
G02*
X99150000Y-57000000I-30000J0D01*
G01*
X99150000Y-57000000D02*
G75*
G02*
X99210000Y-57000000I30000J0D01*
G01*
D14*
X110080000Y-47670000D02*
X110080000Y-46800000D01*
X110080000Y-51470000D02*
X110080000Y-49630000D01*
X110080000Y-54170000D02*
X110080000Y-53230000D01*
X110080000Y-57000000D02*
X110080000Y-56130000D01*
X99880000Y-56130000D02*
X99880000Y-57000000D01*
X99880000Y-53230000D02*
X99880000Y-54170000D01*
X99880000Y-49630000D02*
X99880000Y-51470000D01*
X99880000Y-46800000D02*
X99880000Y-47670000D01*
X104470000Y-56220000D02*
X104980000Y-56730000D01*
X104730000Y-56220000D02*
X104470000Y-56220000D01*
X104730000Y-55710000D02*
X104730000Y-56220000D01*
X105230000Y-55710000D02*
X104730000Y-55710000D01*
X105230000Y-56220000D02*
X105230000Y-55710000D01*
X105490000Y-56220000D02*
X105230000Y-56220000D01*
X104980000Y-56730000D02*
X105490000Y-56220000D01*
X103710000Y-53170000D02*
X103710000Y-50630000D01*
X106250000Y-53170000D02*
X103710000Y-53170000D01*
X106250000Y-50630000D02*
X106250000Y-53170000D01*
X103710000Y-50630000D02*
X106250000Y-50630000D01*
X110080000Y-57000000D02*
X99880000Y-57000000D01*
X99880000Y-46800000D02*
X110080000Y-46800000D01*
X105490000Y-47580000D02*
X104980000Y-47070000D01*
X105230000Y-47580000D02*
X105490000Y-47580000D01*
X105230000Y-48090000D02*
X105230000Y-47580000D01*
X104730000Y-48090000D02*
X105230000Y-48090000D01*
X104730000Y-47580000D02*
X104730000Y-48090000D01*
X104470000Y-47580000D02*
X104730000Y-47580000D01*
X104980000Y-47070000D02*
X104470000Y-47580000D01*
G04 #@! TD*
%LPC*%
D16*
G04 #@! TO.C,SW1Header1*
X111380000Y-60600000D03*
X108840000Y-60600000D03*
X106300000Y-60600000D03*
X103760000Y-60600000D03*
X101220000Y-60600000D03*
D17*
X98680000Y-60600000D03*
G04 #@! TD*
D18*
G04 #@! TO.C,SW1*
X99300000Y-48650000D03*
X110760000Y-52350000D03*
X99300000Y-52350000D03*
X110760000Y-48650000D03*
X110760000Y-55150000D03*
X99300000Y-55150000D03*
G04 #@! TD*
%LPD*%
M02*
