%TF.GenerationSoftware,KiCad,Pcbnew,9.0.2*%
%TF.CreationDate,2025-06-28T16:23:08+05:30*%
%TF.ProjectId,ESP32 PCB,45535033-3220-4504-9342-2e6b69636164,rev?*%
%TF.SameCoordinates,Original*%
%TF.FileFunction,Copper,L1,Top*%
%TF.FilePolarity,Positive*%
%FSLAX46Y46*%
G04 Gerber Fmt 4.6, Leading zero omitted, Abs format (unit mm)*
G04 Created by KiCad (PCBNEW 9.0.2) date 2025-06-28 16:23:08*
%MOMM*%
%LPD*%
G01*
G04 APERTURE LIST*
G04 Aperture macros list*
%AMRoundRect*
0 Rectangle with rounded corners*
0 $1 Rounding radius*
0 $2 $3 $4 $5 $6 $7 $8 $9 X,Y pos of 4 corners*
0 Add a 4 corners polygon primitive as box body*
4,1,4,$2,$3,$4,$5,$6,$7,$8,$9,$2,$3,0*
0 Add four circle primitives for the rounded corners*
1,1,$1+$1,$2,$3*
1,1,$1+$1,$4,$5*
1,1,$1+$1,$6,$7*
1,1,$1+$1,$8,$9*
0 Add four rect primitives between the rounded corners*
20,1,$1+$1,$2,$3,$4,$5,0*
20,1,$1+$1,$4,$5,$6,$7,0*
20,1,$1+$1,$6,$7,$8,$9,0*
20,1,$1+$1,$8,$9,$2,$3,0*%
G04 Aperture macros list end*
%TA.AperFunction,SMDPad,CuDef*%
%ADD10O,1.600000X0.600000*%
%TD*%
%TA.AperFunction,SMDPad,CuDef*%
%ADD11R,1.800000X1.800000*%
%TD*%
%TA.AperFunction,SMDPad,CuDef*%
%ADD12R,0.900000X0.300000*%
%TD*%
%TA.AperFunction,SMDPad,CuDef*%
%ADD13R,0.400000X0.400000*%
%TD*%
%TA.AperFunction,SMDPad,CuDef*%
%ADD14R,0.300000X0.900000*%
%TD*%
%TA.AperFunction,SMDPad,CuDef*%
%ADD15RoundRect,0.250000X0.450000X-0.262500X0.450000X0.262500X-0.450000X0.262500X-0.450000X-0.262500X0*%
%TD*%
%TA.AperFunction,SMDPad,CuDef*%
%ADD16C,1.000000*%
%TD*%
%TA.AperFunction,SMDPad,CuDef*%
%ADD17RoundRect,0.250000X-0.250000X-0.475000X0.250000X-0.475000X0.250000X0.475000X-0.250000X0.475000X0*%
%TD*%
%TA.AperFunction,SMDPad,CuDef*%
%ADD18R,0.550000X0.570000*%
%TD*%
%TA.AperFunction,SMDPad,CuDef*%
%ADD19R,1.000000X1.400000*%
%TD*%
%TA.AperFunction,SMDPad,CuDef*%
%ADD20R,0.300000X1.200000*%
%TD*%
%TA.AperFunction,ComponentPad*%
%ADD21C,0.650000*%
%TD*%
%TA.AperFunction,SMDPad,CuDef*%
%ADD22R,0.200000X1.000000*%
%TD*%
%TA.AperFunction,ComponentPad*%
%ADD23O,1.050000X2.100000*%
%TD*%
%TA.AperFunction,SMDPad,CuDef*%
%ADD24RoundRect,0.250000X0.250000X0.475000X-0.250000X0.475000X-0.250000X-0.475000X0.250000X-0.475000X0*%
%TD*%
%TA.AperFunction,SMDPad,CuDef*%
%ADD25RoundRect,0.250000X0.262500X0.450000X-0.262500X0.450000X-0.262500X-0.450000X0.262500X-0.450000X0*%
%TD*%
%TA.AperFunction,ComponentPad*%
%ADD26R,1.700000X1.700000*%
%TD*%
%TA.AperFunction,ComponentPad*%
%ADD27C,1.700000*%
%TD*%
%TA.AperFunction,SMDPad,CuDef*%
%ADD28R,1.400000X1.000000*%
%TD*%
%TA.AperFunction,SMDPad,CuDef*%
%ADD29R,1.230000X1.800000*%
%TD*%
%TA.AperFunction,SMDPad,CuDef*%
%ADD30R,0.910000X2.810000*%
%TD*%
%TA.AperFunction,SMDPad,CuDef*%
%ADD31RoundRect,0.250000X0.475000X-0.250000X0.475000X0.250000X-0.475000X0.250000X-0.475000X-0.250000X0*%
%TD*%
%TA.AperFunction,SMDPad,CuDef*%
%ADD32RoundRect,0.250000X-0.262500X-0.450000X0.262500X-0.450000X0.262500X0.450000X-0.262500X0.450000X0*%
%TD*%
%TA.AperFunction,SMDPad,CuDef*%
%ADD33R,1.200000X1.470000*%
%TD*%
%TA.AperFunction,SMDPad,CuDef*%
%ADD34R,0.950000X2.150000*%
%TD*%
%TA.AperFunction,SMDPad,CuDef*%
%ADD35R,3.250000X2.150000*%
%TD*%
%TA.AperFunction,SMDPad,CuDef*%
%ADD36R,1.000000X5.500000*%
%TD*%
%TA.AperFunction,SMDPad,CuDef*%
%ADD37R,1.600000X3.000000*%
%TD*%
%TA.AperFunction,SMDPad,CuDef*%
%ADD38R,1.800000X1.230000*%
%TD*%
%TA.AperFunction,SMDPad,CuDef*%
%ADD39RoundRect,0.250000X-0.450000X0.262500X-0.450000X-0.262500X0.450000X-0.262500X0.450000X0.262500X0*%
%TD*%
%TA.AperFunction,SMDPad,CuDef*%
%ADD40RoundRect,0.062500X0.350000X0.062500X-0.350000X0.062500X-0.350000X-0.062500X0.350000X-0.062500X0*%
%TD*%
%TA.AperFunction,SMDPad,CuDef*%
%ADD41RoundRect,0.062500X0.062500X0.350000X-0.062500X0.350000X-0.062500X-0.350000X0.062500X-0.350000X0*%
%TD*%
%TA.AperFunction,HeatsinkPad*%
%ADD42R,2.500000X2.500000*%
%TD*%
%TA.AperFunction,SMDPad,CuDef*%
%ADD43R,1.100000X0.800000*%
%TD*%
%TA.AperFunction,SMDPad,CuDef*%
%ADD44R,1.100000X1.000000*%
%TD*%
%TA.AperFunction,SMDPad,CuDef*%
%ADD45RoundRect,0.150000X0.150000X-0.587500X0.150000X0.587500X-0.150000X0.587500X-0.150000X-0.587500X0*%
%TD*%
%TA.AperFunction,SMDPad,CuDef*%
%ADD46RoundRect,0.150000X-0.150000X0.512500X-0.150000X-0.512500X0.150000X-0.512500X0.150000X0.512500X0*%
%TD*%
%TA.AperFunction,SMDPad,CuDef*%
%ADD47RoundRect,0.056250X0.168750X-0.188750X0.168750X0.188750X-0.168750X0.188750X-0.168750X-0.188750X0*%
%TD*%
%TA.AperFunction,SMDPad,CuDef*%
%ADD48RoundRect,0.250000X-0.475000X0.250000X-0.475000X-0.250000X0.475000X-0.250000X0.475000X0.250000X0*%
%TD*%
%TA.AperFunction,ComponentPad*%
%ADD49C,1.208000*%
%TD*%
%TA.AperFunction,SMDPad,CuDef*%
%ADD50R,1.500000X0.900000*%
%TD*%
%TA.AperFunction,SMDPad,CuDef*%
%ADD51R,0.700000X0.700000*%
%TD*%
%TA.AperFunction,ComponentPad*%
%ADD52C,0.400000*%
%TD*%
%TA.AperFunction,ComponentPad*%
%ADD53C,0.600000*%
%TD*%
%TA.AperFunction,SMDPad,CuDef*%
%ADD54RoundRect,0.100000X0.100000X-0.495000X0.100000X0.495000X-0.100000X0.495000X-0.100000X-0.495000X0*%
%TD*%
%TA.AperFunction,SMDPad,CuDef*%
%ADD55R,1.000000X1.500000*%
%TD*%
%TA.AperFunction,SMDPad,CuDef*%
%ADD56R,0.700000X1.500000*%
%TD*%
%TA.AperFunction,SMDPad,CuDef*%
%ADD57R,1.500000X2.800000*%
%TD*%
%TA.AperFunction,ViaPad*%
%ADD58C,0.500000*%
%TD*%
%TA.AperFunction,ViaPad*%
%ADD59C,0.600000*%
%TD*%
%TA.AperFunction,Conductor*%
%ADD60C,0.500000*%
%TD*%
%TA.AperFunction,Conductor*%
%ADD61C,1.000000*%
%TD*%
%TA.AperFunction,Conductor*%
%ADD62C,0.200000*%
%TD*%
%TA.AperFunction,Conductor*%
%ADD63C,0.300000*%
%TD*%
%TA.AperFunction,Conductor*%
%ADD64C,0.254000*%
%TD*%
%TA.AperFunction,Conductor*%
%ADD65C,0.800000*%
%TD*%
%TA.AperFunction,Conductor*%
%ADD66C,0.400000*%
%TD*%
%TA.AperFunction,Conductor*%
%ADD67C,0.250000*%
%TD*%
G04 APERTURE END LIST*
D10*
%TO.P,U4,8,VCC*%
%TO.N,+3.3V*%
X212175000Y-100020000D03*
%TO.P,U4,7,~{HOLD}/~{RESET}(IO3)*%
X212175000Y-101290000D03*
%TO.P,U4,6,CLK*%
%TO.N,/ESP32-C3-02/SCLK*%
X212175000Y-102560000D03*
%TO.P,U4,5,DI(IO0)*%
%TO.N,/ESP32-C3-02/MOSI_DI*%
X212175000Y-103830000D03*
%TO.P,U4,4,GND*%
%TO.N,GND*%
X204975000Y-103830000D03*
%TO.P,U4,3,~{WP}(IO2)*%
%TO.N,+3.3V*%
X204975000Y-102560000D03*
%TO.P,U4,2,DO(IO1)*%
%TO.N,Net-(U4-DO(IO1))*%
X204975000Y-101290000D03*
%TO.P,U4,1,~{CS}*%
%TO.N,/ESP32-C3-02/CS*%
X204975000Y-100020000D03*
%TD*%
D11*
%TO.P,U3,21,GND*%
%TO.N,GND*%
X182750000Y-118150000D03*
D12*
%TO.P,U3,20,~{TXT}/GPIO.2*%
%TO.N,Net-(U3-~{TXT}{slash}GPIO.2)*%
X181200000Y-118900000D03*
%TO.P,U3,19,~{RXT}/GPIO.3*%
%TO.N,Net-(U3-~{RXT}{slash}GPIO.3)*%
X181200000Y-118400000D03*
%TO.P,U3,18,TXD*%
%TO.N,/ESP32-C3-02/TX_RX*%
X181200000Y-117900000D03*
%TO.P,U3,17,RXD*%
%TO.N,/ESP32-C3-02/RX_TX*%
X181200000Y-117400000D03*
D13*
%TO.P,U3,16,~{RTS}*%
%TO.N,/ESP32-C3-02/RTS*%
X181500000Y-116900000D03*
D14*
%TO.P,U3,15,~{CTS}*%
%TO.N,/ESP32-C3-02/DTR*%
X182000000Y-116600000D03*
%TO.P,U3,14,SUSPEND*%
%TO.N,unconnected-(U3-SUSPEND-Pad14)*%
X182500000Y-116600000D03*
%TO.P,U3,13,~{WAKEUP}*%
%TO.N,unconnected-(U3-~{WAKEUP}-Pad13)*%
X183000000Y-116600000D03*
%TO.P,U3,12,GND*%
%TO.N,GND*%
X183500000Y-116600000D03*
D13*
%TO.P,U3,11,~{SUSPEND}*%
%TO.N,unconnected-(U3-~{SUSPEND}-Pad11)*%
X184000000Y-116900000D03*
D12*
%TO.P,U3,10,NC*%
%TO.N,unconnected-(U3-NC-Pad10)*%
X184300000Y-117400000D03*
%TO.P,U3,9,~{RST}*%
%TO.N,Net-(U3-~{RST})*%
X184300000Y-117900000D03*
%TO.P,U3,8,VBUS*%
%TO.N,Net-(U3-VBUS)*%
X184300000Y-118400000D03*
%TO.P,U3,7,VREGIN*%
%TO.N,+3.3V*%
X184300000Y-118900000D03*
D13*
%TO.P,U3,6,VDD*%
X184000000Y-119400000D03*
D14*
%TO.P,U3,5,D-*%
%TO.N,/ESP32-C3-02/D-*%
X183500000Y-119700000D03*
%TO.P,U3,4,D+*%
%TO.N,/ESP32-C3-02/D+*%
X183000000Y-119700000D03*
%TO.P,U3,3,GND*%
%TO.N,GND*%
X182500000Y-119700000D03*
%TO.P,U3,2,CLK/GPIO.0*%
%TO.N,unconnected-(U3-CLK{slash}GPIO.0-Pad2)*%
X182000000Y-119700000D03*
D13*
%TO.P,U3,1,RS485/GPIO.1*%
%TO.N,unconnected-(U3-RS485{slash}GPIO.1-Pad1)*%
X181500000Y-119400000D03*
%TD*%
D15*
%TO.P,R5,1*%
%TO.N,/CHARGING POWER GOOD*%
X154375000Y-128412500D03*
%TO.P,R5,2*%
%TO.N,Net-(LED3-K)*%
X154375000Y-126587500D03*
%TD*%
D16*
%TO.P,TP4,1,1*%
%TO.N,/ESP32-C3-02/SCLK*%
X215875000Y-102575000D03*
%TD*%
D17*
%TO.P,C15,1*%
%TO.N,+3.3V*%
X195650000Y-90675000D03*
%TO.P,C15,2*%
%TO.N,GND*%
X197550000Y-90675000D03*
%TD*%
D18*
%TO.P,S1,1*%
%TO.N,GND*%
X205650000Y-136870000D03*
%TO.P,S1,2*%
X208200000Y-136870000D03*
%TO.P,S1,3*%
%TO.N,/ESP32-C3-02/BOOT*%
X205650000Y-138030000D03*
%TO.P,S1,4*%
X208200000Y-138030000D03*
%TD*%
D19*
%TO.P,LED4,1,K*%
%TO.N,Net-(LED4-K)*%
X157025000Y-104860000D03*
%TO.P,LED4,2,A*%
%TO.N,+3.3V*%
X155225000Y-104860000D03*
%TD*%
D20*
%TO.P,J1,A1,GNDA1*%
%TO.N,GND*%
X180450000Y-128015000D03*
%TO.P,J1,A2,SSTXP1*%
%TO.N,unconnected-(J1-SSTXP1-PadA2)*%
X180950000Y-128015000D03*
%TO.P,J1,A3,SSTXN1*%
%TO.N,unconnected-(J1-SSTXN1-PadA3)*%
X181450000Y-128015000D03*
%TO.P,J1,A4,VBUSA1*%
%TO.N,/VBUS*%
X181950000Y-128015000D03*
%TO.P,J1,A5,CC1*%
%TO.N,Net-(J1-CC1)*%
X182450000Y-128015000D03*
%TO.P,J1,A6,DP1*%
%TO.N,/USB_DP*%
X182950000Y-128015000D03*
%TO.P,J1,A7,DN1*%
%TO.N,/USB_DN*%
X183450000Y-128015000D03*
%TO.P,J1,A8,SBU1*%
%TO.N,unconnected-(J1-SBU1-PadA8)*%
X183950000Y-128015000D03*
%TO.P,J1,A9,VBUSA2*%
%TO.N,/VBUS*%
X184450000Y-128015000D03*
%TO.P,J1,A10,SSRXN2*%
%TO.N,unconnected-(J1-SSRXN2-PadA10)*%
X184950000Y-128015000D03*
%TO.P,J1,A11,SSRXP2*%
%TO.N,unconnected-(J1-SSRXP2-PadA11)*%
X185450000Y-128015000D03*
%TO.P,J1,A12,GNDA2*%
%TO.N,GND*%
X185950000Y-128015000D03*
D21*
%TO.P,J1,B1,GNDB1*%
X186000000Y-129265000D03*
%TO.P,J1,B2,SSTXP2*%
%TO.N,unconnected-(J1-SSTXP2-PadB2)*%
X185600000Y-129975000D03*
%TO.P,J1,B3,SSTXN2*%
%TO.N,unconnected-(J1-SSTXN2-PadB3)*%
X184800000Y-129975000D03*
%TO.P,J1,B4,VBUSB1*%
%TO.N,/VBUS*%
X184400000Y-129265000D03*
%TO.P,J1,B5,CC2*%
%TO.N,Net-(J1-CC2)*%
X184000000Y-129975000D03*
%TO.P,J1,B6,DP2*%
%TO.N,/USB_DP*%
X183600000Y-129265000D03*
%TO.P,J1,B7,DN2*%
%TO.N,/USB_DN*%
X182800000Y-129265000D03*
%TO.P,J1,B8,SBU2*%
%TO.N,unconnected-(J1-SBU2-PadB8)*%
X182400000Y-129975000D03*
%TO.P,J1,B9,VBUSB2*%
%TO.N,/VBUS*%
X182000000Y-129265000D03*
%TO.P,J1,B10,SSRXN1*%
%TO.N,unconnected-(J1-SSRXN1-PadB10)*%
X181600000Y-129975000D03*
%TO.P,J1,B11,SSRXP1*%
%TO.N,unconnected-(J1-SSRXP1-PadB11)*%
X180800000Y-129975000D03*
%TO.P,J1,B12,GNDB2*%
%TO.N,GND*%
X180400000Y-129265000D03*
%TO.P,J1,G1,GND/SHIELD*%
X185200000Y-129265000D03*
%TO.P,J1,G2,GND/SHIELD*%
X181200000Y-129265000D03*
D22*
%TO.P,J1,G3,GND/SHIELD*%
X183200000Y-132595000D03*
%TO.P,J1,G4,GND/SHIELD*%
X183200000Y-135695000D03*
D23*
%TO.P,J1,S1,GND/SHIELD*%
X178930000Y-130415000D03*
%TO.P,J1,S2,GND/SHIELD*%
X187470000Y-130415000D03*
%TO.P,J1,S3,GND/SHIELD*%
X178930000Y-135145000D03*
%TO.P,J1,S4,GND/SHIELD*%
X187470000Y-135145000D03*
%TD*%
D24*
%TO.P,C14,1*%
%TO.N,GND*%
X229675000Y-110175000D03*
%TO.P,C14,2*%
%TO.N,+3.3V*%
X227775000Y-110175000D03*
%TD*%
D25*
%TO.P,R29,1*%
%TO.N,/ESP32-C3-02/DTR*%
X199312500Y-130950000D03*
%TO.P,R29,2*%
%TO.N,Net-(Q2-B)*%
X197487500Y-130950000D03*
%TD*%
D15*
%TO.P,R18,1*%
%TO.N,/ESP32-C3-02/sc_SD*%
X235000000Y-110375000D03*
%TO.P,R18,2*%
%TO.N,+3.3V*%
X235000000Y-108550000D03*
%TD*%
D26*
%TO.P,J4,1,Pin_1*%
%TO.N,+3.3V*%
X182630000Y-88000000D03*
D27*
%TO.P,J4,2,Pin_2*%
%TO.N,/ESP32-C3-02/sDA*%
X180090000Y-88000000D03*
%TO.P,J4,3,Pin_3*%
%TO.N,/ESP32-C3-02/SCL*%
X177550000Y-88000000D03*
%TO.P,J4,4,Pin_4*%
%TO.N,GND*%
X175010000Y-88000000D03*
%TD*%
D28*
%TO.P,LED2,1,K*%
%TO.N,Net-(LED2-K)*%
X151500000Y-123650000D03*
%TO.P,LED2,2,A*%
%TO.N,/+5V_USB*%
X151500000Y-121850000D03*
%TD*%
D24*
%TO.P,C20,1*%
%TO.N,/ESP32-C3-02/EN*%
X199350000Y-133850000D03*
%TO.P,C20,2*%
%TO.N,GND*%
X197450000Y-133850000D03*
%TD*%
D29*
%TO.P,C13,1*%
%TO.N,+3.3V*%
X218865000Y-93700000D03*
%TO.P,C13,2*%
%TO.N,GND*%
X218865000Y-96320000D03*
%TD*%
D30*
%TO.P,F1,1,1*%
%TO.N,/VBUS*%
X176245000Y-123575000D03*
%TO.P,F1,2,2*%
%TO.N,/+5V_USB*%
X173005000Y-123575000D03*
%TD*%
D25*
%TO.P,R1X1,1*%
%TO.N,Net-(Jx1-DAT0)*%
X214087500Y-106225000D03*
%TO.P,R1X1,2*%
%TO.N,/ESP32-C3-02/MISO_DO*%
X212262500Y-106225000D03*
%TD*%
D28*
%TO.P,LED1,1,K*%
%TO.N,Net-(LED1-K)*%
X148425000Y-123650000D03*
%TO.P,LED1,2,A*%
%TO.N,/+5V_USB*%
X148425000Y-121850000D03*
%TD*%
D31*
%TO.P,C9,1*%
%TO.N,GND*%
X187000000Y-119175000D03*
%TO.P,C9,2*%
%TO.N,+3.3V*%
X187000000Y-117275000D03*
%TD*%
D25*
%TO.P,R6,1*%
%TO.N,GND*%
X161375000Y-104860000D03*
%TO.P,R6,2*%
%TO.N,Net-(LED4-K)*%
X159550000Y-104860000D03*
%TD*%
D15*
%TO.P,R31,1*%
%TO.N,/ESP32-C3-02/EN*%
X195200000Y-132062500D03*
%TO.P,R31,2*%
%TO.N,+3.3V*%
X195200000Y-130237500D03*
%TD*%
D24*
%TO.P,C19,1*%
%TO.N,/ESP32-C3-02/BOOT*%
X207675000Y-134050000D03*
%TO.P,C19,2*%
%TO.N,GND*%
X205775000Y-134050000D03*
%TD*%
D29*
%TO.P,C3,1*%
%TO.N,+3.3V*%
X160000000Y-108190000D03*
%TO.P,C3,2*%
%TO.N,GND*%
X160000000Y-110810000D03*
%TD*%
D24*
%TO.P,C21,1*%
%TO.N,GND*%
X170375000Y-93625000D03*
%TO.P,C21,2*%
%TO.N,Net-(C21-Pad2)*%
X168475000Y-93625000D03*
%TD*%
D29*
%TO.P,C8,1*%
%TO.N,+3.3V*%
X190000000Y-115640000D03*
%TO.P,C8,2*%
%TO.N,GND*%
X190000000Y-118260000D03*
%TD*%
D32*
%TO.P,R27,1*%
%TO.N,+3.3V*%
X194587500Y-102500000D03*
%TO.P,R27,2*%
%TO.N,/ESP32-C3-02/Photo C*%
X196412500Y-102500000D03*
%TD*%
D15*
%TO.P,R16,1*%
%TO.N,Net-(U3-~{RXT}{slash}GPIO.3)*%
X173225000Y-118350000D03*
%TO.P,R16,2*%
%TO.N,Net-(LED5-K)*%
X173225000Y-116525000D03*
%TD*%
D25*
%TO.P,R14,1*%
%TO.N,/ESP32-C3-02/MISO_DO*%
X210312500Y-106000000D03*
%TO.P,R14,2*%
%TO.N,Net-(U4-DO(IO1))*%
X208487500Y-106000000D03*
%TD*%
D33*
%TO.P,FB1,1*%
%TO.N,+5V*%
X168640000Y-136000000D03*
%TO.P,FB1,2*%
X170360000Y-136000000D03*
%TD*%
D34*
%TO.P,VR1,1,GND*%
%TO.N,GND*%
X163625000Y-111060000D03*
%TO.P,VR1,2,VOUT_2*%
%TO.N,+3.3V*%
X165925000Y-111060000D03*
%TO.P,VR1,3,VIN*%
%TO.N,+5V*%
X168225000Y-111060000D03*
D35*
%TO.P,VR1,4,VOUT_4*%
%TO.N,+3.3V*%
X165925000Y-105260000D03*
%TD*%
D17*
%TO.P,C18,1*%
%TO.N,+3.3V*%
X173900000Y-100610000D03*
%TO.P,C18,2*%
%TO.N,GND*%
X175800000Y-100610000D03*
%TD*%
D31*
%TO.P,C5,1*%
%TO.N,/VBUS*%
X188500000Y-124750000D03*
%TO.P,C5,2*%
%TO.N,GND*%
X188500000Y-122850000D03*
%TD*%
D25*
%TO.P,R25,1*%
%TO.N,Net-(U7-IN+)*%
X170525000Y-98325000D03*
%TO.P,R25,2*%
%TO.N,GND*%
X168700000Y-98325000D03*
%TD*%
D15*
%TO.P,R15,1*%
%TO.N,Net-(U3-~{TXT}{slash}GPIO.2)*%
X176925000Y-118312500D03*
%TO.P,R15,2*%
%TO.N,Net-(LED6-K)*%
X176925000Y-116487500D03*
%TD*%
D32*
%TO.P,R30,1*%
%TO.N,/ESP32-C3-02/RTS*%
X205712500Y-130950000D03*
%TO.P,R30,2*%
%TO.N,Net-(Q3-B)*%
X207537500Y-130950000D03*
%TD*%
%TO.P,R22,1*%
%TO.N,+3.3V*%
X174000000Y-94000000D03*
%TO.P,R22,2*%
%TO.N,Net-(C16-Pad2)*%
X175825000Y-94000000D03*
%TD*%
D36*
%TO.P,J3,1,1*%
%TO.N,GND*%
X151200000Y-135600000D03*
%TO.P,J3,2,2*%
%TO.N,/VBat*%
X153200000Y-135600000D03*
D37*
%TO.P,J3,S1*%
%TO.N,N/C*%
X148800000Y-133350000D03*
%TO.P,J3,S2*%
X155600000Y-133350000D03*
%TD*%
D38*
%TO.P,C12,1*%
%TO.N,+3.3V*%
X225025000Y-109375000D03*
%TO.P,C12,2*%
%TO.N,GND*%
X222405000Y-109375000D03*
%TD*%
D15*
%TO.P,R17,1*%
%TO.N,/ESP32-C3-02/SCLK*%
X219425000Y-102150000D03*
%TO.P,R17,2*%
%TO.N,Net-(U5-IO6)*%
X219425000Y-100325000D03*
%TD*%
D38*
%TO.P,C2,1*%
%TO.N,+5V*%
X167170000Y-114385000D03*
%TO.P,C2,2*%
%TO.N,GND*%
X164550000Y-114385000D03*
%TD*%
D15*
%TO.P,R9,1*%
%TO.N,Net-(U1-PROG1)*%
X159500000Y-128412500D03*
%TO.P,R9,2*%
%TO.N,GND*%
X159500000Y-126587500D03*
%TD*%
%TO.P,R28,1*%
%TO.N,Net-(U7-IN-)*%
X181350000Y-98337500D03*
%TO.P,R28,2*%
%TO.N,/ESP32-C3-02/MIC_OUT*%
X181350000Y-96512500D03*
%TD*%
D39*
%TO.P,R2,1*%
%TO.N,Net-(J1-CC2)*%
X176470000Y-130832500D03*
%TO.P,R2,2*%
%TO.N,GND*%
X176470000Y-132657500D03*
%TD*%
D40*
%TO.P,U1,1,OUT*%
%TO.N,+5V*%
X164162500Y-133612500D03*
%TO.P,U1,2,VPCC*%
%TO.N,/+5V_USB*%
X164162500Y-133112500D03*
%TO.P,U1,3,SEL*%
%TO.N,GND*%
X164162500Y-132612500D03*
%TO.P,U1,4,PROG2*%
%TO.N,/+5V_USB*%
X164162500Y-132112500D03*
%TO.P,U1,5,THERM*%
%TO.N,Net-(U1-THERM)*%
X164162500Y-131612500D03*
D41*
%TO.P,U1,6,~{PG}*%
%TO.N,/CHARGING POWER GOOD*%
X163225000Y-130675000D03*
%TO.P,U1,7,STAT2*%
X162725000Y-130675000D03*
%TO.P,U1,8,STAT1/~{LBO}*%
%TO.N,/CHARGED *%
X162225000Y-130675000D03*
%TO.P,U1,9,~{TE}*%
%TO.N,Net-(U1-~{TE})*%
X161725000Y-130675000D03*
%TO.P,U1,10,V_{SS}*%
%TO.N,GND*%
X161225000Y-130675000D03*
D40*
%TO.P,U1,11,V_{SS}*%
X160287500Y-131612500D03*
%TO.P,U1,12,PROG3*%
%TO.N,Net-(U1-PROG3)*%
X160287500Y-132112500D03*
%TO.P,U1,13,PROG1*%
%TO.N,Net-(U1-PROG1)*%
X160287500Y-132612500D03*
%TO.P,U1,14,V_{BAT}*%
%TO.N,/VBat*%
X160287500Y-133112500D03*
%TO.P,U1,15,V_{BAT}*%
X160287500Y-133612500D03*
D41*
%TO.P,U1,16,V_{BAT_SENSE}*%
X161225000Y-134550000D03*
%TO.P,U1,17,CE*%
%TO.N,/+5V_USB*%
X161725000Y-134550000D03*
%TO.P,U1,18,IN*%
X162225000Y-134550000D03*
%TO.P,U1,19,IN*%
X162725000Y-134550000D03*
%TO.P,U1,20,OUT*%
%TO.N,+5V*%
X163225000Y-134550000D03*
D42*
%TO.P,U1,21,V_{SS}*%
%TO.N,GND*%
X162225000Y-132612500D03*
%TD*%
D15*
%TO.P,R8,1*%
%TO.N,Net-(U1-THERM)*%
X164500000Y-128412500D03*
%TO.P,R8,2*%
%TO.N,GND*%
X164500000Y-126587500D03*
%TD*%
D28*
%TO.P,LED6,1,K*%
%TO.N,Net-(LED6-K)*%
X176000000Y-113962500D03*
%TO.P,LED6,2,A*%
%TO.N,+3.3V*%
X176000000Y-112162500D03*
%TD*%
D43*
%TO.P,Q1,1*%
%TO.N,GND*%
X192970000Y-104825000D03*
%TO.P,Q1,2*%
%TO.N,N/C*%
X192970000Y-105925000D03*
D44*
%TO.P,Q1,3*%
%TO.N,/ESP32-C3-02/Photo C*%
X196480000Y-105375000D03*
%TD*%
D25*
%TO.P,R26,1*%
%TO.N,Net-(U7-IN-)*%
X170412500Y-96000000D03*
%TO.P,R26,2*%
%TO.N,Net-(C21-Pad2)*%
X168587500Y-96000000D03*
%TD*%
D45*
%TO.P,Q2,1,B*%
%TO.N,Net-(Q2-B)*%
X197400000Y-128325000D03*
%TO.P,Q2,2,E*%
%TO.N,/ESP32-C3-02/RTS*%
X199300000Y-128325000D03*
%TO.P,Q2,3,C*%
%TO.N,/ESP32-C3-02/EN*%
X198350000Y-126450000D03*
%TD*%
D28*
%TO.P,LED3,1,K*%
%TO.N,Net-(LED3-K)*%
X154475000Y-123600000D03*
%TO.P,LED3,2,A*%
%TO.N,/+5V_USB*%
X154475000Y-121800000D03*
%TD*%
D24*
%TO.P,C16,1*%
%TO.N,GND*%
X164625000Y-94600000D03*
%TO.P,C16,2*%
%TO.N,Net-(C16-Pad2)*%
X162725000Y-94600000D03*
%TD*%
D17*
%TO.P,C6,1*%
%TO.N,/+5V_USB*%
X161225000Y-137500000D03*
%TO.P,C6,2*%
%TO.N,GND*%
X163125000Y-137500000D03*
%TD*%
D39*
%TO.P,R19,1*%
%TO.N,Net-(U5-IO7)*%
X222115000Y-100312500D03*
%TO.P,R19,2*%
%TO.N,/ESP32-C3-02/MOSI_DI*%
X222115000Y-102137500D03*
%TD*%
%TO.P,R21,1*%
%TO.N,/ESP32-C3-02/SCL*%
X199975000Y-87287500D03*
%TO.P,R21,2*%
%TO.N,+3.3V*%
X199975000Y-89112500D03*
%TD*%
D25*
%TO.P,R24,1*%
%TO.N,+3.3V*%
X170462500Y-100775000D03*
%TO.P,R24,2*%
%TO.N,Net-(U7-IN+)*%
X168637500Y-100775000D03*
%TD*%
D46*
%TO.P,U2,1,I/O1*%
%TO.N,/ESP32-C3-02/D-*%
X184100000Y-122537500D03*
%TO.P,U2,2,GND*%
%TO.N,GND*%
X183150000Y-122537500D03*
%TO.P,U2,3,I/O2*%
%TO.N,/ESP32-C3-02/D+*%
X182200000Y-122537500D03*
%TO.P,U2,4,I/O2*%
%TO.N,/USB_DP*%
X182200000Y-124812500D03*
%TO.P,U2,5,VBUS*%
%TO.N,/VBUS*%
X183150000Y-124812500D03*
%TO.P,U2,6,I/O1*%
%TO.N,/USB_DN*%
X184100000Y-124812500D03*
%TD*%
D17*
%TO.P,C22,1*%
%TO.N,Net-(C22-Pad1)*%
X162600000Y-99500000D03*
%TO.P,C22,2*%
%TO.N,Net-(U7-IN+)*%
X164500000Y-99500000D03*
%TD*%
D16*
%TO.P,TP5,1,1*%
%TO.N,/ESP32-C3-02/CS*%
X207450000Y-97025000D03*
%TD*%
D47*
%TO.P,U6,1,GND*%
%TO.N,GND*%
X195475000Y-86955000D03*
%TO.P,U6,2,CSB*%
%TO.N,+3.3V*%
X196125000Y-86955000D03*
%TO.P,U6,3,SDI*%
%TO.N,/ESP32-C3-02/sDA*%
X196775000Y-86955000D03*
%TO.P,U6,4,SCK*%
%TO.N,/ESP32-C3-02/SCL*%
X197425000Y-86955000D03*
%TO.P,U6,5,SDO*%
%TO.N,GND*%
X197425000Y-88895000D03*
%TO.P,U6,6,VDDIO*%
%TO.N,+3.3V*%
X196775000Y-88895000D03*
%TO.P,U6,7,GND*%
%TO.N,GND*%
X196125000Y-88895000D03*
%TO.P,U6,8,VDD*%
%TO.N,+3.3V*%
X195475000Y-88895000D03*
%TD*%
D48*
%TO.P,C4,1*%
%TO.N,+3.3V*%
X157025000Y-108800000D03*
%TO.P,C4,2*%
%TO.N,GND*%
X157025000Y-110700000D03*
%TD*%
D16*
%TO.P,TP2,1,1*%
%TO.N,/ESP32-C3-02/sc_SD*%
X238850000Y-108600000D03*
%TD*%
D26*
%TO.P,J5,1,Pin_1*%
%TO.N,+3.3V*%
X164125000Y-87450000D03*
D27*
%TO.P,J5,2,Pin_2*%
%TO.N,/ESP32-C3-02/GPIO 8*%
X161585000Y-87450000D03*
%TO.P,J5,3,Pin_3*%
%TO.N,/ESP32-C3-02/GPIO18*%
X159045000Y-87450000D03*
%TO.P,J5,4,Pin_4*%
%TO.N,/ESP32-C3-02/GPIO19*%
X156505000Y-87450000D03*
%TO.P,J5,5,Pin_5*%
%TO.N,GND*%
X153965000Y-87450000D03*
%TD*%
D49*
%TO.P,MK1,GND*%
%TO.N,GND*%
X158500000Y-96050000D03*
%TO.P,MK1,OUT*%
%TO.N,Net-(C22-Pad1)*%
X158500000Y-97950000D03*
%TD*%
D15*
%TO.P,R1,1*%
%TO.N,Net-(J1-CC1)*%
X176520000Y-137057500D03*
%TO.P,R1,2*%
%TO.N,GND*%
X176520000Y-135232500D03*
%TD*%
D39*
%TO.P,R20,1*%
%TO.N,/ESP32-C3-02/sDA*%
X202175000Y-87300000D03*
%TO.P,R20,2*%
%TO.N,+3.3V*%
X202175000Y-89125000D03*
%TD*%
D15*
%TO.P,R4,1*%
%TO.N,/CHARGED *%
X151625000Y-128375000D03*
%TO.P,R4,2*%
%TO.N,Net-(LED2-K)*%
X151625000Y-126550000D03*
%TD*%
D16*
%TO.P,TP1,1,1*%
%TO.N,/ESP32-C3-02/MISO_DO*%
X210425000Y-112300000D03*
%TD*%
D15*
%TO.P,R10,1*%
%TO.N,Net-(U1-PROG3)*%
X157475000Y-128425000D03*
%TO.P,R10,2*%
%TO.N,GND*%
X157475000Y-126600000D03*
%TD*%
D31*
%TO.P,C17,1*%
%TO.N,Net-(U7-IN-)*%
X178200000Y-98325000D03*
%TO.P,C17,2*%
%TO.N,/ESP32-C3-02/MIC_OUT*%
X178200000Y-96425000D03*
%TD*%
D48*
%TO.P,C10,1*%
%TO.N,+3.3V*%
X202575000Y-102575000D03*
%TO.P,C10,2*%
%TO.N,GND*%
X202575000Y-104475000D03*
%TD*%
D45*
%TO.P,Q3,1,B*%
%TO.N,Net-(Q3-B)*%
X205675000Y-127862500D03*
%TO.P,Q3,2,E*%
%TO.N,/ESP32-C3-02/BOOT*%
X207575000Y-127862500D03*
%TO.P,Q3,3,C*%
%TO.N,/ESP32-C3-02/DTR*%
X206625000Y-125987500D03*
%TD*%
D25*
%TO.P,R23,1*%
%TO.N,Net-(C16-Pad2)*%
X164650000Y-97000000D03*
%TO.P,R23,2*%
%TO.N,Net-(C22-Pad1)*%
X162825000Y-97000000D03*
%TD*%
D31*
%TO.P,C11,1*%
%TO.N,GND*%
X222090000Y-94650000D03*
%TO.P,C11,2*%
%TO.N,+3.3V*%
X222090000Y-92750000D03*
%TD*%
D24*
%TO.P,C1,1*%
%TO.N,+5V*%
X166650000Y-117285000D03*
%TO.P,C1,2*%
%TO.N,GND*%
X164750000Y-117285000D03*
%TD*%
D50*
%TO.P,U5,1,3V3*%
%TO.N,+3.3V*%
X224300000Y-92675000D03*
%TO.P,U5,2,EN*%
%TO.N,/ESP32-C3-02/EN*%
X224300000Y-94175000D03*
%TO.P,U5,3,IO4*%
%TO.N,/ESP32-C3-02/sDA*%
X224300000Y-95675000D03*
%TO.P,U5,4,IO5*%
%TO.N,/ESP32-C3-02/MIC_OUT*%
X224300000Y-97175000D03*
%TO.P,U5,5,IO6*%
%TO.N,Net-(U5-IO6)*%
X224300000Y-98675000D03*
%TO.P,U5,6,IO7*%
%TO.N,Net-(U5-IO7)*%
X224300000Y-100175000D03*
%TO.P,U5,7,IO8*%
%TO.N,/ESP32-C3-02/GPIO 8*%
X224300000Y-101675000D03*
%TO.P,U5,8,IO9*%
%TO.N,/ESP32-C3-02/BOOT*%
X224300000Y-103175000D03*
%TO.P,U5,9,GND*%
%TO.N,GND*%
X224300000Y-104675000D03*
%TO.P,U5,10,IO10*%
%TO.N,/ESP32-C3-02/CS*%
X241800000Y-104675000D03*
%TO.P,U5,11,RXD*%
%TO.N,/ESP32-C3-02/TX_RX*%
X241800000Y-103175000D03*
%TO.P,U5,12,TXD*%
%TO.N,/ESP32-C3-02/RX_TX*%
X241800000Y-101675000D03*
%TO.P,U5,13,IO18*%
%TO.N,/ESP32-C3-02/GPIO18*%
X241800000Y-100175000D03*
%TO.P,U5,14,IO19*%
%TO.N,/ESP32-C3-02/GPIO19*%
X241800000Y-98675000D03*
%TO.P,U5,15,IO3*%
%TO.N,/ESP32-C3-02/SCL*%
X241800000Y-97175000D03*
%TO.P,U5,16,IO2*%
%TO.N,/ESP32-C3-02/MISO_DO*%
X241800000Y-95675000D03*
%TO.P,U5,17,IO1*%
%TO.N,/ESP32-C3-02/Photo C*%
X241800000Y-94175000D03*
%TO.P,U5,18,IO0*%
%TO.N,/ESP32-C3-02/sc_SD*%
X241800000Y-92675000D03*
D51*
%TO.P,U5,19,GND*%
%TO.N,GND*%
X232910000Y-97775000D03*
%TO.P,U5,20,GND*%
X234010000Y-97775000D03*
%TO.P,U5,21,GND*%
X235110000Y-97775000D03*
%TO.P,U5,22,GND*%
X232910000Y-98875000D03*
%TO.P,U5,23,GND*%
X234010000Y-98875000D03*
%TO.P,U5,24,GND*%
X235110000Y-98875000D03*
%TO.P,U5,25,GND*%
X232910000Y-99975000D03*
%TO.P,U5,26,GND*%
X234010000Y-99975000D03*
%TO.P,U5,27,GND*%
X235110000Y-99975000D03*
D52*
%TO.P,U5,28,GND*%
X233460000Y-97775000D03*
%TO.P,U5,29,GND*%
X234560000Y-97775000D03*
D53*
%TO.P,U5,30,GND*%
X232910000Y-98325000D03*
D52*
%TO.P,U5,31,GND*%
X234010000Y-98325000D03*
%TO.P,U5,32,GND*%
X235110000Y-98325000D03*
%TO.P,U5,33,GND*%
X233460000Y-98875000D03*
%TO.P,U5,34,GND*%
X234560000Y-98875000D03*
%TO.P,U5,35,GND*%
X232910000Y-99425000D03*
%TO.P,U5,36,GND*%
X234010000Y-99425000D03*
%TO.P,U5,37,GND*%
X235110000Y-99425000D03*
%TO.P,U5,38,GND*%
X233460000Y-99975000D03*
%TO.P,U5,39,GND*%
X234560000Y-99975000D03*
%TD*%
D48*
%TO.P,C7,1*%
%TO.N,Net-(U3-VBUS)*%
X193050000Y-114700000D03*
%TO.P,C7,2*%
%TO.N,GND*%
X193050000Y-116600000D03*
%TD*%
D15*
%TO.P,R7,1*%
%TO.N,Net-(U1-~{TE})*%
X161725000Y-128437500D03*
%TO.P,R7,2*%
%TO.N,GND*%
X161725000Y-126612500D03*
%TD*%
%TO.P,R3,1*%
%TO.N,/CHARGING POWER GOOD*%
X148725000Y-128387500D03*
%TO.P,R3,2*%
%TO.N,Net-(LED1-K)*%
X148725000Y-126562500D03*
%TD*%
D25*
%TO.P,R11,1*%
%TO.N,Net-(U3-VBUS)*%
X194637500Y-121375000D03*
%TO.P,R11,2*%
%TO.N,/VBUS*%
X192812500Y-121375000D03*
%TD*%
D28*
%TO.P,LED5,1,K*%
%TO.N,Net-(LED5-K)*%
X173275000Y-113812500D03*
%TO.P,LED5,2,A*%
%TO.N,+3.3V*%
X173275000Y-112012500D03*
%TD*%
D54*
%TO.P,U7,1,IN+*%
%TO.N,Net-(U7-IN+)*%
X174075000Y-98120000D03*
%TO.P,U7,2,GND*%
%TO.N,GND*%
X174725000Y-98120000D03*
%TO.P,U7,3,IN-*%
%TO.N,Net-(U7-IN-)*%
X175375000Y-98120000D03*
%TO.P,U7,4,OUT*%
%TO.N,/ESP32-C3-02/MIC_OUT*%
X175375000Y-96200000D03*
%TO.P,U7,5,VCC*%
%TO.N,+3.3V*%
X174075000Y-96200000D03*
%TD*%
D16*
%TO.P,TP3,1,1*%
%TO.N,/ESP32-C3-02/MOSI_DI*%
X211750000Y-115550000D03*
%TD*%
D18*
%TO.P,S2,1*%
%TO.N,GND*%
X197425000Y-136670000D03*
%TO.P,S2,2*%
X199975000Y-136670000D03*
%TO.P,S2,3*%
%TO.N,/ESP32-C3-02/EN*%
X197425000Y-137830000D03*
%TO.P,S2,4*%
X199975000Y-137830000D03*
%TD*%
D39*
%TO.P,R13,1*%
%TO.N,+3.3V*%
X183475000Y-112637500D03*
%TO.P,R13,2*%
%TO.N,Net-(U3-~{RST})*%
X183475000Y-114462500D03*
%TD*%
D32*
%TO.P,R12,1*%
%TO.N,GND*%
X192812500Y-118975000D03*
%TO.P,R12,2*%
%TO.N,Net-(U3-VBUS)*%
X194637500Y-118975000D03*
%TD*%
D55*
%TO.P,Jx1,1,CD/DAT3*%
%TO.N,/ESP32-C3-02/sc_SD*%
X235075000Y-112450000D03*
%TO.P,Jx1,2,CMD*%
%TO.N,/ESP32-C3-02/MOSI_DI*%
X232575000Y-112450000D03*
%TO.P,Jx1,3,VSS1*%
%TO.N,GND*%
X230075000Y-112450000D03*
%TO.P,Jx1,4,VDD1*%
%TO.N,+3.3V*%
X227575000Y-112450000D03*
%TO.P,Jx1,5,CLK*%
%TO.N,/ESP32-C3-02/SCLK*%
X225075000Y-112450000D03*
%TO.P,Jx1,6,VSS2*%
%TO.N,GND*%
X222575000Y-112450000D03*
%TO.P,Jx1,7,DAT0*%
%TO.N,Net-(Jx1-DAT0)*%
X220150000Y-112450000D03*
%TO.P,Jx1,8,DAT1*%
%TO.N,GND*%
X218450000Y-112450000D03*
%TO.P,Jx1,9,DAT2*%
X237575000Y-112450000D03*
D56*
%TO.P,Jx1,CD_IND,CD_IND*%
%TO.N,unconnected-(Jx1-PadCD_IND)*%
X217150000Y-112450000D03*
D57*
%TO.P,Jx1,G1,SHIELD_GND*%
%TO.N,GND*%
X214550000Y-114250000D03*
%TO.P,Jx1,G2,SHIELD_GND*%
X239650000Y-114250000D03*
%TO.P,Jx1,G3,SHIELD_GND*%
X241850000Y-135750000D03*
%TO.P,Jx1,G4,SHIELD_GND*%
X214550000Y-135750000D03*
D56*
%TO.P,Jx1,WP,WP*%
%TO.N,unconnected-(Jx1-PadWP)*%
X215950000Y-112450000D03*
%TD*%
D58*
%TO.N,+5V*%
X167025000Y-133975000D03*
X164000000Y-134500000D03*
%TO.N,GND*%
X217500000Y-110500000D03*
X210000000Y-136000000D03*
X194900000Y-116600000D03*
X163275000Y-118500000D03*
X162325000Y-118475000D03*
X216208160Y-96335701D03*
X164625000Y-93000000D03*
X159775000Y-130300000D03*
X197425000Y-89500000D03*
X227000000Y-103500000D03*
X186600000Y-120400000D03*
X158500000Y-126600000D03*
X204007922Y-134545499D03*
X202000000Y-106500000D03*
X230500000Y-114500000D03*
X176500000Y-103000000D03*
X192500000Y-103500000D03*
X161500000Y-102500000D03*
X158325000Y-112875000D03*
X149750000Y-137250000D03*
X189650000Y-120350000D03*
X156550000Y-111675000D03*
X193250000Y-87250000D03*
X161500000Y-113000000D03*
X197000000Y-135500000D03*
X160000000Y-113000000D03*
X163225000Y-116775000D03*
X158025000Y-111700000D03*
X183200000Y-134000000D03*
X179500000Y-120500000D03*
X239000000Y-134000000D03*
X160500000Y-126637500D03*
D59*
X149750000Y-136300000D03*
D58*
X214000000Y-111000000D03*
X190350000Y-122850000D03*
X191500000Y-120500000D03*
X239463767Y-110981809D03*
X163000000Y-126612500D03*
X222000000Y-108000000D03*
X167325000Y-98325000D03*
X217500000Y-134500000D03*
X231000000Y-111000000D03*
X185950000Y-127050000D03*
X162325000Y-116750000D03*
X178750000Y-127750000D03*
X185000000Y-115500000D03*
X181000000Y-123651000D03*
X170375000Y-92125000D03*
X166500000Y-131250000D03*
X165500000Y-137000000D03*
X162425000Y-115175000D03*
X149750000Y-138250000D03*
X194500000Y-135000000D03*
%TO.N,+3.3V*%
X228500000Y-114500000D03*
X152250000Y-105550000D03*
X183500000Y-110500000D03*
X214000000Y-101000000D03*
X195000000Y-100500000D03*
X167033333Y-103400000D03*
X199975000Y-91250000D03*
X163200000Y-103400000D03*
X214500000Y-95000000D03*
X202000000Y-91000000D03*
X194508671Y-128442116D03*
X171500000Y-103500000D03*
X235500000Y-107000000D03*
X193750000Y-90250000D03*
X172500000Y-94000000D03*
X156500000Y-107500000D03*
X163966667Y-103400000D03*
X166266667Y-103400000D03*
X164733333Y-103400000D03*
X167800000Y-103400000D03*
X165500000Y-103400000D03*
X173175000Y-110175000D03*
X202575000Y-101075000D03*
X176775000Y-110275000D03*
X190500000Y-113000000D03*
X190750000Y-87500000D03*
X187500000Y-114500000D03*
X174500000Y-104000000D03*
%TO.N,/VBUS*%
X179250000Y-126750000D03*
X187250000Y-126250000D03*
X183150000Y-126000000D03*
X177750000Y-122500000D03*
X177750000Y-124500000D03*
X177750000Y-123500000D03*
%TO.N,Net-(U3-VBUS)*%
X193800000Y-117800000D03*
X193750000Y-113000000D03*
%TO.N,/ESP32-C3-02/BOOT*%
X228000000Y-105500000D03*
X217574000Y-119574000D03*
%TO.N,/ESP32-C3-02/EN*%
X229500000Y-103999999D03*
X216500000Y-119500000D03*
%TO.N,/USB_DP*%
X181158521Y-125500000D03*
%TO.N,/USB_DN*%
X185500000Y-125000000D03*
%TO.N,/ESP32-C3-02/sDA*%
X234500000Y-94000000D03*
X212000000Y-94250000D03*
%TO.N,/ESP32-C3-02/SCL*%
X215800000Y-92850000D03*
X236612500Y-92862500D03*
%TO.N,/ESP32-C3-02/GPIO 8*%
X170000000Y-88000000D03*
X226000000Y-99000000D03*
%TO.N,/ESP32-C3-02/GPIO19*%
X162500000Y-91750000D03*
X238535586Y-100500000D03*
%TO.N,/ESP32-C3-02/GPIO18*%
X240000000Y-100000000D03*
X171000000Y-89500000D03*
%TO.N,/ESP32-C3-02/sc_SD*%
X243250000Y-92750000D03*
X241900000Y-108600000D03*
%TO.N,/ESP32-C3-02/Photo C*%
X198500000Y-106500000D03*
X239000000Y-93500000D03*
%TO.N,/ESP32-C3-02/RTS*%
X200562500Y-127062500D03*
X180128768Y-116525000D03*
%TO.N,/ESP32-C3-02/DTR*%
X200500000Y-130000000D03*
X181750000Y-113500000D03*
%TO.N,/CHARGING POWER GOOD*%
X155462500Y-129500000D03*
X166250000Y-128750000D03*
%TO.N,/CHARGED *%
X153500000Y-130000000D03*
X163250000Y-129250000D03*
%TO.N,/ESP32-C3-02/RX_TX*%
X180500000Y-110500000D03*
X240000000Y-102000000D03*
%TO.N,/ESP32-C3-02/TX_RX*%
X180000000Y-107750000D03*
X237500000Y-101500000D03*
%TO.N,/+5V_USB*%
X153000000Y-121850000D03*
X171500000Y-125000000D03*
X171500000Y-122550000D03*
X165000000Y-136000000D03*
X167500000Y-130500000D03*
X150000000Y-121850000D03*
X159000000Y-138500000D03*
X166000000Y-132500000D03*
X160250000Y-136000000D03*
X171500000Y-123500000D03*
X162225000Y-136000000D03*
%TD*%
D60*
%TO.N,+3.3V*%
X152940000Y-104860000D02*
X155225000Y-104860000D01*
X152250000Y-105550000D02*
X152940000Y-104860000D01*
D61*
%TO.N,+5V*%
X167025000Y-133975000D02*
X168640000Y-135590000D01*
X167170000Y-114385000D02*
X167170000Y-113725000D01*
X168640000Y-135590000D02*
X168640000Y-136000000D01*
X166650000Y-117285000D02*
X166650000Y-114905000D01*
X169500000Y-121500000D02*
X166650000Y-118650000D01*
X167170000Y-113725000D02*
X168225000Y-112670000D01*
X169500000Y-131500000D02*
X169500000Y-121500000D01*
X166650000Y-118650000D02*
X166650000Y-117285000D01*
X168225000Y-112670000D02*
X168225000Y-111060000D01*
X168640000Y-136000000D02*
X170360000Y-136000000D01*
X166650000Y-114905000D02*
X167170000Y-114385000D01*
X167025000Y-133975000D02*
X169500000Y-131500000D01*
D60*
%TO.N,GND*%
X217801000Y-113651000D02*
X215149000Y-113651000D01*
X218450000Y-111450000D02*
X217500000Y-110500000D01*
X239500000Y-111000000D02*
X240000000Y-111500000D01*
X240000000Y-111500000D02*
X240000000Y-113900000D01*
D62*
X196125000Y-89250000D02*
X196375000Y-89500000D01*
D63*
X187470000Y-130415000D02*
X187470000Y-135145000D01*
D64*
X175543000Y-99043000D02*
X176000000Y-99500000D01*
X202575000Y-104475000D02*
X202000000Y-105050000D01*
D63*
X207887546Y-136299000D02*
X208200000Y-136611454D01*
D60*
X237575000Y-111925000D02*
X238500000Y-111000000D01*
D63*
X205650000Y-136870000D02*
X205650000Y-136611454D01*
X197425000Y-136670000D02*
X197425000Y-136411454D01*
D62*
X229950000Y-112050000D02*
X229675000Y-112050000D01*
D63*
X190000000Y-118610000D02*
X190000000Y-120000000D01*
D64*
X183522000Y-116422000D02*
X184078000Y-116422000D01*
D60*
X238500000Y-111000000D02*
X239500000Y-111000000D01*
X163875000Y-126612500D02*
X163900000Y-126637500D01*
X215149000Y-113651000D02*
X214800000Y-114000000D01*
D63*
X197425000Y-135925000D02*
X197000000Y-135500000D01*
D60*
X181000000Y-123651000D02*
X180849000Y-123651000D01*
D62*
X231000000Y-111000000D02*
X229950000Y-112050000D01*
D64*
X175094946Y-99043000D02*
X175543000Y-99043000D01*
D63*
X197737454Y-136099000D02*
X199662546Y-136099000D01*
D62*
X180265000Y-128015000D02*
X180450000Y-128015000D01*
D60*
X160500000Y-126637500D02*
X161700000Y-126637500D01*
D63*
X209130000Y-136870000D02*
X210000000Y-136000000D01*
D65*
X218865000Y-96320000D02*
X220420000Y-96320000D01*
D60*
X218150000Y-114000000D02*
X217801000Y-113651000D01*
D62*
X229675000Y-110175000D02*
X230075000Y-110575000D01*
D63*
X208200000Y-136870000D02*
X209130000Y-136870000D01*
D62*
X230075000Y-114075000D02*
X230500000Y-114500000D01*
D64*
X182500000Y-119700000D02*
X182500000Y-120500000D01*
D63*
X208200000Y-136611454D02*
X208200000Y-136870000D01*
D60*
X159537500Y-126600000D02*
X159575000Y-126637500D01*
X240000000Y-113900000D02*
X239650000Y-114250000D01*
X214550000Y-114250000D02*
X214550000Y-111550000D01*
D64*
X192970000Y-103970000D02*
X192500000Y-103500000D01*
D63*
X180400000Y-129265000D02*
X181200000Y-129265000D01*
D65*
X218865000Y-96320000D02*
X216180000Y-96320000D01*
D64*
X175800000Y-100610000D02*
X175800000Y-102300000D01*
D60*
X159575000Y-126637500D02*
X160500000Y-126637500D01*
X218450000Y-112450000D02*
X218450000Y-111450000D01*
X240750000Y-135750000D02*
X239000000Y-134000000D01*
D62*
X193545000Y-86955000D02*
X193250000Y-87250000D01*
X196375000Y-89500000D02*
X197425000Y-89500000D01*
D60*
X237575000Y-112450000D02*
X237575000Y-111925000D01*
D63*
X164625000Y-94600000D02*
X164625000Y-93000000D01*
D64*
X174725000Y-98120000D02*
X174725000Y-98673054D01*
D60*
X161700000Y-126637500D02*
X161725000Y-126612500D01*
X216250000Y-135750000D02*
X217500000Y-134500000D01*
X222405000Y-108405000D02*
X222000000Y-108000000D01*
D63*
X176470000Y-132657500D02*
X176687500Y-132657500D01*
D62*
X165000000Y-137500000D02*
X165500000Y-137000000D01*
D63*
X186600000Y-119175000D02*
X186600000Y-120400000D01*
X199975000Y-136411454D02*
X199975000Y-136670000D01*
X205650000Y-136611454D02*
X205962454Y-136299000D01*
D62*
X178750000Y-127750000D02*
X180000000Y-127750000D01*
X162225000Y-132612500D02*
X164162500Y-132612500D01*
D64*
X204330000Y-104475000D02*
X204975000Y-103830000D01*
D63*
X178842500Y-135232500D02*
X178930000Y-135145000D01*
D64*
X174725000Y-98673054D02*
X175094946Y-99043000D01*
D60*
X188500000Y-122850000D02*
X190350000Y-122850000D01*
D63*
X197425000Y-136670000D02*
X197425000Y-135925000D01*
D62*
X196125000Y-88895000D02*
X196125000Y-89250000D01*
X164657898Y-132612500D02*
X164162500Y-132612500D01*
D63*
X199662546Y-136099000D02*
X199975000Y-136411454D01*
D62*
X166020398Y-131250000D02*
X164657898Y-132612500D01*
D60*
X225825000Y-104675000D02*
X227000000Y-103500000D01*
D62*
X163125000Y-137500000D02*
X165000000Y-137500000D01*
X182000000Y-121000000D02*
X180000000Y-121000000D01*
X195475000Y-86955000D02*
X194545000Y-86955000D01*
D60*
X163000000Y-126612500D02*
X163875000Y-126612500D01*
X234560000Y-99975000D02*
X235110000Y-99975000D01*
D63*
X185950000Y-128015000D02*
X185950000Y-129215000D01*
D60*
X161725000Y-126612500D02*
X163000000Y-126612500D01*
D64*
X192970000Y-104825000D02*
X192970000Y-103970000D01*
D60*
X224300000Y-104675000D02*
X225825000Y-104675000D01*
D62*
X161225000Y-131612500D02*
X161225000Y-130675000D01*
D63*
X205775000Y-134050000D02*
X204450000Y-134050000D01*
X192812500Y-119187500D02*
X191500000Y-120500000D01*
D60*
X234560000Y-97775000D02*
X235110000Y-97775000D01*
D63*
X176687500Y-132657500D02*
X178930000Y-130415000D01*
D64*
X176000000Y-99500000D02*
X176000000Y-100410000D01*
D60*
X157475000Y-126600000D02*
X158500000Y-126600000D01*
X233460000Y-98875000D02*
X234010000Y-98875000D01*
D63*
X185950000Y-128015000D02*
X185950000Y-127050000D01*
D62*
X229675000Y-112050000D02*
X230075000Y-112450000D01*
D63*
X204450000Y-134050000D02*
X204000000Y-134500000D01*
D62*
X162225000Y-132612500D02*
X161225000Y-131612500D01*
D64*
X184078000Y-116422000D02*
X185000000Y-115500000D01*
D63*
X197450000Y-133850000D02*
X196300000Y-135000000D01*
D60*
X222405000Y-111430000D02*
X222405000Y-109375000D01*
D63*
X185200000Y-129265000D02*
X186000000Y-129265000D01*
X197425000Y-136411454D02*
X197737454Y-136099000D01*
D64*
X183500000Y-116600000D02*
X183500000Y-117400000D01*
D62*
X197425000Y-89500000D02*
X197425000Y-90550000D01*
D63*
X183200000Y-134000000D02*
X183200000Y-132595000D01*
X185950000Y-129215000D02*
X186000000Y-129265000D01*
D64*
X182500000Y-118400000D02*
X182500000Y-119700000D01*
X202000000Y-105050000D02*
X202000000Y-106500000D01*
D62*
X229675000Y-110175000D02*
X230175000Y-110175000D01*
D60*
X222575000Y-111600000D02*
X222405000Y-111430000D01*
D62*
X197425000Y-88895000D02*
X197425000Y-89500000D01*
D63*
X192812500Y-118975000D02*
X192812500Y-119187500D01*
X183200000Y-135695000D02*
X183200000Y-134000000D01*
D64*
X183522000Y-116600000D02*
X183522000Y-116422000D01*
D60*
X214800000Y-114000000D02*
X214550000Y-114250000D01*
D63*
X170375000Y-93625000D02*
X170375000Y-92125000D01*
D62*
X230075000Y-112450000D02*
X230075000Y-114075000D01*
D60*
X214000000Y-111000000D02*
X214550000Y-111550000D01*
D62*
X166500000Y-131250000D02*
X166020398Y-131250000D01*
D63*
X205962454Y-136299000D02*
X207887546Y-136299000D01*
D62*
X194545000Y-86955000D02*
X193545000Y-86955000D01*
D63*
X193050000Y-116600000D02*
X194900000Y-116600000D01*
X176520000Y-135232500D02*
X178842500Y-135232500D01*
D60*
X232910000Y-99425000D02*
X232910000Y-99975000D01*
X182698999Y-123651000D02*
X181000000Y-123651000D01*
D64*
X182750000Y-118150000D02*
X182500000Y-118400000D01*
D63*
X196300000Y-135000000D02*
X194500000Y-135000000D01*
D60*
X235110000Y-98875000D02*
X235110000Y-99425000D01*
D64*
X175800000Y-102300000D02*
X176500000Y-103000000D01*
D65*
X220420000Y-96320000D02*
X222090000Y-94650000D01*
D60*
X168700000Y-98325000D02*
X167325000Y-98325000D01*
X218450000Y-112450000D02*
X218450000Y-113700000D01*
D62*
X180000000Y-127750000D02*
X180265000Y-128015000D01*
D60*
X161375000Y-104860000D02*
X161375000Y-102699093D01*
X222575000Y-112450000D02*
X222575000Y-111600000D01*
X183150000Y-123199999D02*
X182698999Y-123651000D01*
D62*
X230175000Y-110175000D02*
X231000000Y-111000000D01*
D60*
X218450000Y-113700000D02*
X218150000Y-114000000D01*
X241850000Y-135750000D02*
X240750000Y-135750000D01*
X183150000Y-122537500D02*
X183150000Y-123199999D01*
D64*
X176000000Y-100410000D02*
X175800000Y-100610000D01*
D63*
X190000000Y-120000000D02*
X189650000Y-120350000D01*
D62*
X182500000Y-120500000D02*
X182000000Y-121000000D01*
D63*
X189650000Y-118260000D02*
X190000000Y-118610000D01*
D60*
X215750000Y-135750000D02*
X216250000Y-135750000D01*
D64*
X183500000Y-116600000D02*
X183522000Y-116600000D01*
D62*
X180000000Y-121000000D02*
X179500000Y-120500000D01*
D60*
X222405000Y-109375000D02*
X222405000Y-108405000D01*
X214550000Y-135750000D02*
X215750000Y-135750000D01*
D62*
X197425000Y-90550000D02*
X197550000Y-90675000D01*
D64*
X183500000Y-117400000D02*
X182750000Y-118150000D01*
X202575000Y-104475000D02*
X204330000Y-104475000D01*
D60*
X233460000Y-97775000D02*
X232910000Y-97775000D01*
X158500000Y-126600000D02*
X159537500Y-126600000D01*
D65*
%TO.N,+3.3V*%
X214500000Y-95000000D02*
X217819000Y-95000000D01*
D60*
X157000000Y-108000000D02*
X156500000Y-107500000D01*
D65*
X217819000Y-95000000D02*
X218319000Y-94500000D01*
D60*
X227575000Y-112450000D02*
X227575000Y-113575000D01*
X172500000Y-94000000D02*
X173975000Y-94000000D01*
X227775000Y-110175000D02*
X227775000Y-112250000D01*
X160000000Y-108190000D02*
X157635000Y-108190000D01*
X213710000Y-101290000D02*
X214000000Y-101000000D01*
X170462500Y-102462500D02*
X171500000Y-103500000D01*
X226975000Y-109375000D02*
X227775000Y-110175000D01*
D65*
X218865000Y-93700000D02*
X219815000Y-92750000D01*
D60*
X218865000Y-93954000D02*
X218319000Y-94500000D01*
X202175000Y-90825000D02*
X202000000Y-91000000D01*
X195200000Y-130237500D02*
X195200000Y-129200000D01*
X173900000Y-103400000D02*
X173900000Y-100610000D01*
X189650000Y-113850000D02*
X190500000Y-113000000D01*
D66*
X196775000Y-88895000D02*
X196775000Y-88275000D01*
D63*
X184000000Y-119400000D02*
X184000000Y-119200000D01*
D60*
X194587500Y-100912500D02*
X195000000Y-100500000D01*
X165925000Y-105260000D02*
X165925000Y-111060000D01*
X225025000Y-109375000D02*
X226975000Y-109375000D01*
X187000000Y-115000000D02*
X187000000Y-116875000D01*
X227775000Y-112250000D02*
X227575000Y-112450000D01*
X187500000Y-114500000D02*
X187000000Y-115000000D01*
X189650000Y-115640000D02*
X189650000Y-113850000D01*
X194587500Y-102500000D02*
X194587500Y-100912500D01*
X195200000Y-129200000D02*
X194500000Y-128500000D01*
D63*
X186600000Y-117275000D02*
X186600000Y-117900000D01*
D60*
X183475000Y-112637500D02*
X183475000Y-110525000D01*
X202575000Y-102575000D02*
X202575000Y-101075000D01*
X173000000Y-96000000D02*
X172500000Y-96500000D01*
D63*
X184000000Y-119200000D02*
X184300000Y-118900000D01*
D60*
X157000000Y-108775000D02*
X157000000Y-108000000D01*
X227575000Y-113575000D02*
X228500000Y-114500000D01*
X173875000Y-96000000D02*
X173000000Y-96000000D01*
D63*
X186600000Y-117900000D02*
X185000000Y-119500000D01*
D60*
X172500000Y-99210000D02*
X173900000Y-100610000D01*
X199975000Y-89112500D02*
X199975000Y-91250000D01*
D66*
X196125000Y-88000000D02*
X191250000Y-88000000D01*
X196125000Y-86955000D02*
X196125000Y-88000000D01*
X195105000Y-88895000D02*
X195475000Y-88895000D01*
D60*
X170462500Y-100775000D02*
X170462500Y-102462500D01*
X218865000Y-93700000D02*
X218800000Y-93700000D01*
D65*
X222090000Y-92750000D02*
X224225000Y-92750000D01*
D60*
X235000000Y-108550000D02*
X235000000Y-107500000D01*
D66*
X196500000Y-88000000D02*
X196125000Y-88000000D01*
D60*
X218865000Y-93700000D02*
X218865000Y-93954000D01*
X202590000Y-102560000D02*
X202575000Y-102575000D01*
X157025000Y-108800000D02*
X157000000Y-108775000D01*
X202175000Y-89125000D02*
X202175000Y-90825000D01*
X173175000Y-112162500D02*
X173175000Y-110175000D01*
X195650000Y-90675000D02*
X195475000Y-90500000D01*
X176775000Y-112012500D02*
X176775000Y-110275000D01*
X174500000Y-104000000D02*
X173900000Y-103400000D01*
X187000000Y-116875000D02*
X186600000Y-117275000D01*
D63*
X185000000Y-119500000D02*
X184900000Y-119500000D01*
D60*
X212175000Y-100020000D02*
X212175000Y-101290000D01*
D66*
X193750000Y-90250000D02*
X195105000Y-88895000D01*
D60*
X157635000Y-108190000D02*
X157025000Y-108800000D01*
D65*
X219815000Y-92750000D02*
X222090000Y-92750000D01*
D66*
X196775000Y-88275000D02*
X196500000Y-88000000D01*
D60*
X212175000Y-101290000D02*
X213710000Y-101290000D01*
X174075000Y-96200000D02*
X173875000Y-96000000D01*
X172500000Y-96500000D02*
X172500000Y-99210000D01*
X174075000Y-96200000D02*
X174075000Y-94075000D01*
X224225000Y-92750000D02*
X224300000Y-92675000D01*
X204975000Y-102560000D02*
X202590000Y-102560000D01*
X235000000Y-107500000D02*
X235500000Y-107000000D01*
X174075000Y-94075000D02*
X174000000Y-94000000D01*
D66*
X195475000Y-90500000D02*
X195475000Y-88895000D01*
D63*
X184900000Y-119500000D02*
X184300000Y-118900000D01*
D60*
X174000000Y-96125000D02*
X174075000Y-96200000D01*
D66*
X191250000Y-88000000D02*
X190750000Y-87500000D01*
D63*
%TO.N,/VBUS*%
X184499000Y-127114000D02*
X184886000Y-127114000D01*
X182000000Y-129265000D02*
X181950000Y-129215000D01*
X183150000Y-124812500D02*
X183150000Y-126000000D01*
X186949000Y-126449000D02*
X185551000Y-126449000D01*
X190000000Y-124750000D02*
X190750000Y-124750000D01*
X184450000Y-129215000D02*
X184450000Y-128015000D01*
X192812500Y-123187500D02*
X192812500Y-121375000D01*
X187250000Y-124750000D02*
X188500000Y-124750000D01*
X184499000Y-127501000D02*
X184499000Y-127114000D01*
X181950000Y-127162999D02*
X181950000Y-128015000D01*
X184886000Y-127114000D02*
X185500000Y-126500000D01*
X184400000Y-129265000D02*
X184450000Y-129215000D01*
X181950000Y-129215000D02*
X181950000Y-128015000D01*
X184450000Y-127163000D02*
X184450000Y-128015000D01*
X179451000Y-126549000D02*
X181336001Y-126549000D01*
X191250000Y-124750000D02*
X192812500Y-123187500D01*
X187000000Y-126500000D02*
X186949000Y-126449000D01*
X185500000Y-126500000D02*
X187250000Y-124750000D01*
X185551000Y-126449000D02*
X185500000Y-126500000D01*
X181336001Y-126549000D02*
X181950000Y-127162999D01*
X190750000Y-124750000D02*
X191250000Y-124750000D01*
X179250000Y-126750000D02*
X179451000Y-126549000D01*
X184450000Y-128015000D02*
X184450000Y-127550000D01*
X188500000Y-124750000D02*
X190000000Y-124750000D01*
X184450000Y-127550000D02*
X184499000Y-127501000D01*
X187250000Y-126250000D02*
X187000000Y-126500000D01*
D67*
%TO.N,Net-(U3-VBUS)*%
X195200000Y-114700000D02*
X193050000Y-114700000D01*
X193750000Y-113000000D02*
X193050000Y-113700000D01*
X194637500Y-118637500D02*
X194637500Y-121375000D01*
X192500000Y-113000000D02*
X191500000Y-112000000D01*
X185500000Y-118000000D02*
X185500000Y-117067100D01*
X197000000Y-117500000D02*
X197000000Y-116500000D01*
X185100000Y-118400000D02*
X185500000Y-118000000D01*
X187500000Y-112000000D02*
X186474000Y-113026000D01*
X194975000Y-118975000D02*
X195525000Y-118975000D01*
X197000000Y-116500000D02*
X195200000Y-114700000D01*
X184300000Y-118400000D02*
X185100000Y-118400000D01*
X192500000Y-114150000D02*
X192500000Y-113000000D01*
X185500000Y-117067100D02*
X186474000Y-116093100D01*
X186474000Y-116067100D02*
X186474000Y-114500000D01*
X191500000Y-112000000D02*
X187500000Y-112000000D01*
X186474000Y-113026000D02*
X186474000Y-114526000D01*
X193050000Y-113700000D02*
X193050000Y-114700000D01*
X193050000Y-114700000D02*
X192500000Y-114150000D01*
X195525000Y-118975000D02*
X197000000Y-117500000D01*
X184300000Y-118400000D02*
X184872546Y-118400000D01*
X193800000Y-117800000D02*
X194637500Y-118637500D01*
X193800000Y-117800000D02*
X194975000Y-118975000D01*
%TO.N,Net-(C16-Pad2)*%
X165500000Y-97000000D02*
X166000000Y-96500000D01*
X162725000Y-94600000D02*
X164650000Y-96525000D01*
X167500000Y-91000000D02*
X170500000Y-91000000D01*
X175825000Y-92325000D02*
X175825000Y-94000000D01*
X171000000Y-91500000D02*
X175000000Y-91500000D01*
X164650000Y-97000000D02*
X165500000Y-97000000D01*
X175000000Y-91500000D02*
X175825000Y-92325000D01*
X164650000Y-96525000D02*
X164650000Y-97000000D01*
X166000000Y-92500000D02*
X167500000Y-91000000D01*
X166000000Y-96500000D02*
X166000000Y-92500000D01*
X170500000Y-91000000D02*
X171000000Y-91500000D01*
%TO.N,/ESP32-C3-02/MIC_OUT*%
X220249000Y-98933900D02*
X220249000Y-98883900D01*
X223825000Y-97175000D02*
X224300000Y-97175000D01*
X178687500Y-96512500D02*
X181350000Y-96512500D01*
X209374000Y-96624000D02*
X213476455Y-96624000D01*
X220182900Y-99000000D02*
X220249000Y-98933900D01*
X208250000Y-95500000D02*
X209374000Y-96624000D01*
X178600000Y-96425000D02*
X178687500Y-96512500D01*
X183250000Y-95500000D02*
X208250000Y-95500000D01*
X178200000Y-96425000D02*
X178600000Y-96425000D01*
X222726000Y-98274000D02*
X223825000Y-97175000D01*
X213476455Y-96624000D02*
X215852455Y-99000000D01*
X181009000Y-93259000D02*
X183250000Y-95500000D01*
X175375000Y-96200000D02*
X175600000Y-96425000D01*
X178200000Y-94300000D02*
X179241000Y-93259000D01*
X220249000Y-98883900D02*
X220858900Y-98274000D01*
X178200000Y-96425000D02*
X178200000Y-94300000D01*
X215852455Y-99000000D02*
X220182900Y-99000000D01*
X179241000Y-93259000D02*
X181009000Y-93259000D01*
X175600000Y-96425000D02*
X178200000Y-96425000D01*
X220858900Y-98274000D02*
X222726000Y-98274000D01*
%TO.N,/ESP32-C3-02/BOOT*%
X207575000Y-127862500D02*
X209000000Y-129287500D01*
X213637500Y-127862500D02*
X216000000Y-125500000D01*
X216000000Y-121148000D02*
X217574000Y-119574000D01*
X209000000Y-132725000D02*
X207675000Y-134050000D01*
X209470000Y-138030000D02*
X211000000Y-136500000D01*
X209000000Y-129287500D02*
X209000000Y-132725000D01*
X216000000Y-125500000D02*
X216000000Y-121148000D01*
X211000000Y-135500000D02*
X209500000Y-134000000D01*
X209450000Y-134050000D02*
X207675000Y-134050000D01*
X228000000Y-103000000D02*
X227500000Y-102500000D01*
X211000000Y-136500000D02*
X211000000Y-135500000D01*
X224975000Y-102500000D02*
X224300000Y-103175000D01*
X207575000Y-127862500D02*
X213637500Y-127862500D01*
X205650000Y-138030000D02*
X205650000Y-138565000D01*
X208200000Y-138030000D02*
X209470000Y-138030000D01*
X209500000Y-134000000D02*
X209450000Y-134050000D01*
X208200000Y-138800000D02*
X208200000Y-138030000D01*
X208000000Y-139000000D02*
X208200000Y-138800000D01*
X227500000Y-102500000D02*
X224975000Y-102500000D01*
X205650000Y-138565000D02*
X206085000Y-139000000D01*
X206085000Y-139000000D02*
X208000000Y-139000000D01*
X228000000Y-105500000D02*
X228000000Y-103000000D01*
%TO.N,/ESP32-C3-02/EN*%
X198000000Y-132500000D02*
X199350000Y-133850000D01*
X200670000Y-137830000D02*
X201500000Y-137000000D01*
X223188950Y-95261050D02*
X223188950Y-95011050D01*
X195200000Y-132062500D02*
X196062500Y-132062500D01*
X228500000Y-99350000D02*
X225575000Y-96425000D01*
X201300000Y-123500000D02*
X212500000Y-123500000D01*
X200350000Y-133850000D02*
X199350000Y-133850000D01*
X228500000Y-102999999D02*
X228500000Y-99350000D01*
X198350000Y-126450000D02*
X195050000Y-126450000D01*
X197425000Y-137830000D02*
X197425000Y-138365000D01*
X223188950Y-95011050D02*
X224025000Y-94175000D01*
X194062500Y-132062500D02*
X195200000Y-132062500D01*
X224000000Y-94175000D02*
X224300000Y-94175000D01*
X199975000Y-137830000D02*
X200670000Y-137830000D01*
X193500000Y-128000000D02*
X193500000Y-131500000D01*
X196500000Y-132500000D02*
X198000000Y-132500000D01*
X193500000Y-131500000D02*
X194062500Y-132062500D01*
X212500000Y-123500000D02*
X216500000Y-119500000D01*
X198350000Y-126450000D02*
X201300000Y-123500000D01*
X223000000Y-96050000D02*
X223000000Y-95450000D01*
X223375000Y-96425000D02*
X223000000Y-96050000D01*
X199840000Y-138500000D02*
X199975000Y-138365000D01*
X197425000Y-138365000D02*
X197560000Y-138500000D01*
X229500000Y-103999999D02*
X228500000Y-102999999D01*
X197560000Y-138500000D02*
X199840000Y-138500000D01*
X195050000Y-126450000D02*
X193500000Y-128000000D01*
X201500000Y-137000000D02*
X201500000Y-135000000D01*
X223000000Y-95450000D02*
X223188950Y-95261050D01*
X196062500Y-132062500D02*
X196500000Y-132500000D01*
X224025000Y-94175000D02*
X224300000Y-94175000D01*
X225575000Y-96425000D02*
X223375000Y-96425000D01*
X199975000Y-138365000D02*
X199975000Y-137830000D01*
X201500000Y-135000000D02*
X200350000Y-133850000D01*
%TO.N,Net-(J1-CC2)*%
X175444000Y-133165514D02*
X175774486Y-133496000D01*
X175444000Y-131858500D02*
X175444000Y-133165514D01*
X180479000Y-133496000D02*
X184000000Y-129975000D01*
X176470000Y-130832500D02*
X175444000Y-131858500D01*
X175774486Y-133496000D02*
X180479000Y-133496000D01*
D63*
%TO.N,/USB_DP*%
X180000000Y-125000000D02*
X180920739Y-125000000D01*
X181000000Y-125341479D02*
X180341479Y-125341479D01*
X180341479Y-125341479D02*
X180000000Y-125000000D01*
D62*
X182950000Y-128015000D02*
X183000000Y-128065000D01*
D63*
X181158521Y-125500000D02*
X181000000Y-125341479D01*
D62*
X182200000Y-125806251D02*
X182950000Y-126556251D01*
X183000000Y-128065000D02*
X183000000Y-128200000D01*
D63*
X180920739Y-125000000D02*
X181108239Y-124812500D01*
X181108239Y-124812500D02*
X182200000Y-124812500D01*
D62*
X182200000Y-124812500D02*
X182200000Y-125806251D01*
X182950000Y-126556251D02*
X182950000Y-128015000D01*
%TO.N,/USB_DN*%
X183450000Y-128015000D02*
X183400000Y-128065000D01*
X184100000Y-126000000D02*
X183450000Y-126650000D01*
X183450000Y-126650000D02*
X183450000Y-128015000D01*
D63*
X185500000Y-125000000D02*
X184287500Y-125000000D01*
D62*
X184100000Y-124812500D02*
X184100000Y-126000000D01*
X183400000Y-128065000D02*
X183400000Y-128200000D01*
D63*
X184287500Y-125000000D02*
X184100000Y-124812500D01*
D67*
%TO.N,Net-(J1-CC1)*%
X175000000Y-135537500D02*
X175000000Y-130839196D01*
X180000000Y-125750000D02*
X180323000Y-126073000D01*
X176520000Y-137057500D02*
X175000000Y-135537500D01*
X178250000Y-125500000D02*
X179250000Y-125500000D01*
X181462455Y-126073000D02*
X182450000Y-127060545D01*
X182450000Y-127060545D02*
X182450000Y-128015000D01*
X179500000Y-125750000D02*
X180000000Y-125750000D01*
X180323000Y-126073000D02*
X181462455Y-126073000D01*
X179250000Y-125500000D02*
X179500000Y-125750000D01*
X175000000Y-128750000D02*
X178250000Y-125500000D01*
X175000000Y-130769196D02*
X175000000Y-128750000D01*
D60*
%TO.N,/VBat*%
X159000000Y-135450000D02*
X159000000Y-136000000D01*
X159000000Y-136000000D02*
X158500000Y-136500000D01*
X160287500Y-133612500D02*
X160287500Y-134162500D01*
X158000000Y-136000000D02*
X153600000Y-136000000D01*
X158500000Y-136500000D02*
X158000000Y-136000000D01*
X160287500Y-134162500D02*
X159000000Y-135450000D01*
X153600000Y-136000000D02*
X153200000Y-135600000D01*
D67*
%TO.N,/ESP32-C3-02/sDA*%
X231672825Y-95690000D02*
X231672825Y-96210000D01*
X181000000Y-86150000D02*
X196500000Y-86150000D01*
X228672825Y-97210000D02*
X228672825Y-96450000D01*
X231432825Y-97450000D02*
X231312825Y-97450000D01*
X200825804Y-88500000D02*
X201336696Y-88500000D01*
X205700000Y-86100000D02*
X203300000Y-86100000D01*
X231072825Y-97210000D02*
X231072825Y-96450000D01*
X231072825Y-96450000D02*
X231072825Y-95690000D01*
X196924000Y-87282932D02*
X197641068Y-88000000D01*
X200401804Y-88076000D02*
X200825804Y-88500000D01*
X234500000Y-94000000D02*
X235400000Y-94000000D01*
X230472825Y-95690000D02*
X230472825Y-96450000D01*
X228432825Y-95450000D02*
X228312825Y-95450000D01*
X228672825Y-96210000D02*
X228672825Y-95690000D01*
X230472825Y-96450000D02*
X230472825Y-97210000D01*
X229272825Y-96450000D02*
X229272825Y-97210000D01*
X229632825Y-95450000D02*
X229512825Y-95450000D01*
X227350000Y-96450000D02*
X226600000Y-96450000D01*
X201336696Y-88500000D02*
X201500000Y-88336696D01*
X235400000Y-94000000D02*
X236000000Y-94600000D01*
X236000000Y-94600000D02*
X236000000Y-95700000D01*
X231672825Y-96450000D02*
X231672825Y-97210000D01*
X202300000Y-87050000D02*
X202175000Y-87175000D01*
X180090000Y-88000000D02*
X180090000Y-87060000D01*
X231672825Y-96210000D02*
X231672825Y-96450000D01*
X228672825Y-96450000D02*
X228672825Y-96210000D01*
X197641068Y-88000000D02*
X199224196Y-88000000D01*
X229872825Y-96450000D02*
X229872825Y-95690000D01*
X202350000Y-87050000D02*
X202300000Y-87050000D01*
X227712825Y-96450000D02*
X227350000Y-96450000D01*
X229032825Y-97450000D02*
X228912825Y-97450000D01*
X225600000Y-95450000D02*
X224740000Y-95450000D01*
X202175000Y-87175000D02*
X202175000Y-87300000D01*
X236000000Y-95700000D02*
X235250000Y-96450000D01*
X196924000Y-87104000D02*
X196924000Y-87282932D01*
X199224196Y-88000000D02*
X199300196Y-88076000D01*
X201500000Y-87975000D02*
X202175000Y-87300000D01*
X232272825Y-96210000D02*
X232272825Y-95690000D01*
X206100000Y-92500000D02*
X206100000Y-86500000D01*
X206100000Y-86500000D02*
X205700000Y-86100000D01*
X211250000Y-93500000D02*
X207100000Y-93500000D01*
X203300000Y-86100000D02*
X202350000Y-87050000D01*
X180090000Y-87060000D02*
X181000000Y-86150000D01*
X235250000Y-96450000D02*
X232512825Y-96450000D01*
X227832825Y-96450000D02*
X227712825Y-96450000D01*
X229272825Y-95690000D02*
X229272825Y-96450000D01*
X199300196Y-88076000D02*
X200401804Y-88076000D01*
X201500000Y-88336696D02*
X201500000Y-87975000D01*
X229872825Y-97210000D02*
X229872825Y-96450000D01*
X230232825Y-97450000D02*
X230112825Y-97450000D01*
X196775000Y-86425000D02*
X196775000Y-86955000D01*
X226600000Y-96450000D02*
X225600000Y-95450000D01*
X228072825Y-95690000D02*
X228072825Y-96210000D01*
X232032825Y-95450000D02*
X231912825Y-95450000D01*
X196775000Y-86955000D02*
X196924000Y-87104000D01*
X212000000Y-94250000D02*
X211250000Y-93500000D01*
X196500000Y-86150000D02*
X196775000Y-86425000D01*
X230832825Y-95450000D02*
X230712825Y-95450000D01*
X206100000Y-92500000D02*
G75*
G03*
X207100000Y-93500000I1000000J0D01*
G01*
X230112825Y-97450000D02*
G75*
G02*
X229872800Y-97210000I-25J240000D01*
G01*
X232512825Y-96450000D02*
G75*
G02*
X232272800Y-96210000I-25J240000D01*
G01*
X229872825Y-95690000D02*
G75*
G03*
X229632825Y-95449975I-240025J0D01*
G01*
X231912825Y-95450000D02*
G75*
G03*
X231672800Y-95690000I-25J-240000D01*
G01*
X231672825Y-97210000D02*
G75*
G02*
X231432825Y-97450025I-240025J0D01*
G01*
X228312825Y-95450000D02*
G75*
G03*
X228072800Y-95690000I-25J-240000D01*
G01*
X232272825Y-95690000D02*
G75*
G03*
X232032825Y-95449975I-240025J0D01*
G01*
X230472825Y-97210000D02*
G75*
G02*
X230232825Y-97450025I-240025J0D01*
G01*
X231072825Y-95690000D02*
G75*
G03*
X230832825Y-95449975I-240025J0D01*
G01*
X229512825Y-95450000D02*
G75*
G03*
X229272800Y-95690000I-25J-240000D01*
G01*
X228672825Y-95690000D02*
G75*
G03*
X228432825Y-95449975I-240025J0D01*
G01*
X230712825Y-95450000D02*
G75*
G03*
X230472800Y-95690000I-25J-240000D01*
G01*
X229272825Y-97210000D02*
G75*
G02*
X229032825Y-97450025I-240025J0D01*
G01*
X228072825Y-96210000D02*
G75*
G02*
X227832825Y-96450025I-240025J0D01*
G01*
X231312825Y-97450000D02*
G75*
G02*
X231072800Y-97210000I-25J240000D01*
G01*
X228912825Y-97450000D02*
G75*
G02*
X228672800Y-97210000I-25J240000D01*
G01*
D63*
%TO.N,/ESP32-C3-02/SCL*%
X197000000Y-85400000D02*
X197450000Y-85850000D01*
X197425000Y-86955000D02*
X199642500Y-86955000D01*
X177550000Y-86750000D02*
X178900000Y-85400000D01*
X178900000Y-85400000D02*
X197000000Y-85400000D01*
X199642500Y-86955000D02*
X199975000Y-87287500D01*
X197450000Y-86930000D02*
X197425000Y-86955000D01*
X177550000Y-88000000D02*
X177550000Y-86750000D01*
X199975000Y-87287500D02*
X199975000Y-86175000D01*
X206750000Y-92650000D02*
X206950000Y-92850000D01*
X206050000Y-85400000D02*
X206750000Y-86100000D01*
X206750000Y-86100000D02*
X206750000Y-92650000D01*
X197450000Y-85850000D02*
X197450000Y-86930000D01*
X240700000Y-96950000D02*
X242240000Y-96950000D01*
X200750000Y-85400000D02*
X206050000Y-85400000D01*
X199975000Y-86175000D02*
X200750000Y-85400000D01*
X206950000Y-92850000D02*
X215800000Y-92850000D01*
X236612500Y-92862500D02*
X240700000Y-96950000D01*
D67*
%TO.N,/ESP32-C3-02/GPIO 8*%
X168500000Y-89500000D02*
X163635000Y-89500000D01*
X224600000Y-101675000D02*
X224300000Y-101675000D01*
X163635000Y-89500000D02*
X161585000Y-87450000D01*
X226000000Y-99000000D02*
X226000000Y-100275000D01*
X170000000Y-88000000D02*
X168500000Y-89500000D01*
X226000000Y-100275000D02*
X224600000Y-101675000D01*
%TO.N,/ESP32-C3-02/GPIO19*%
X161250000Y-90500000D02*
X159555000Y-90500000D01*
X239825000Y-98675000D02*
X241800000Y-98675000D01*
X238535586Y-100500000D02*
X238535586Y-99964414D01*
X238535586Y-99964414D02*
X239825000Y-98675000D01*
X159555000Y-90500000D02*
X156505000Y-87450000D01*
X162500000Y-91750000D02*
X161250000Y-90500000D01*
%TO.N,/ESP32-C3-02/GPIO18*%
X241175000Y-100175000D02*
X241800000Y-100175000D01*
X161595000Y-90000000D02*
X159045000Y-87450000D01*
X169000000Y-90000000D02*
X161595000Y-90000000D01*
X171000000Y-89500000D02*
X169500000Y-89500000D01*
X241000000Y-100000000D02*
X241175000Y-100175000D01*
X240000000Y-100000000D02*
X241000000Y-100000000D01*
X169500000Y-89500000D02*
X169000000Y-90000000D01*
%TO.N,/ESP32-C3-02/sc_SD*%
X238300000Y-108600000D02*
X236525000Y-110375000D01*
X241900000Y-108600000D02*
X238300000Y-108600000D01*
X241800000Y-92675000D02*
X241875000Y-92750000D01*
X241875000Y-92750000D02*
X243250000Y-92750000D01*
X235000000Y-110375000D02*
X235000000Y-112375000D01*
X235000000Y-112375000D02*
X235075000Y-112450000D01*
X236525000Y-110375000D02*
X235000000Y-110375000D01*
D63*
%TO.N,/ESP32-C3-02/MOSI_DI*%
X230631150Y-116800000D02*
X231150000Y-116800000D01*
X231609619Y-116340380D02*
X231664365Y-116285635D01*
X228711150Y-115800000D02*
X228831150Y-115800000D01*
X211800000Y-109450889D02*
X211800000Y-109997356D01*
X232575000Y-107175000D02*
X232300000Y-106900000D01*
X229911150Y-115800000D02*
X230031150Y-115800000D01*
X220775000Y-105075000D02*
X222115000Y-103735000D01*
X232575000Y-115375000D02*
X232575000Y-112450000D01*
X231664365Y-116285635D02*
X232575000Y-115375000D01*
X232300000Y-106900000D02*
X222350000Y-106900000D01*
X229071150Y-116040000D02*
X229071150Y-116800000D01*
X222350000Y-106900000D02*
X220800000Y-105350000D01*
X222115000Y-103735000D02*
X222115000Y-102137500D01*
X212800000Y-117000000D02*
X226831150Y-117000000D01*
X213150000Y-104805000D02*
X213150000Y-107300000D01*
X227871150Y-116800000D02*
X227871150Y-117360000D01*
X232575000Y-112450000D02*
X232600000Y-112425000D01*
X220775000Y-105350000D02*
X220775000Y-105075000D01*
X228111150Y-117600000D02*
X228231150Y-117600000D01*
X229671150Y-116560000D02*
X229671150Y-116040000D01*
X232575000Y-112450000D02*
X232575000Y-107175000D01*
X211800000Y-108650000D02*
X211800000Y-109450889D01*
X230271150Y-116040000D02*
X230271150Y-116560000D01*
X227871150Y-116040000D02*
X227871150Y-116560000D01*
X230511150Y-116800000D02*
X230631150Y-116800000D01*
X229671150Y-116800000D02*
X229671150Y-116560000D01*
X211800000Y-109997356D02*
X211800000Y-116000000D01*
X231150000Y-116800000D02*
X231609619Y-116340380D01*
X229071150Y-116800000D02*
X229071150Y-117360000D01*
X228471150Y-116800000D02*
X228471150Y-116040000D01*
X212175000Y-103830000D02*
X213150000Y-104805000D01*
X227871150Y-116560000D02*
X227871150Y-116800000D01*
X213150000Y-107300000D02*
X211800000Y-108650000D01*
X226831150Y-117000000D02*
X227031150Y-116800000D01*
X227511150Y-115800000D02*
X227631150Y-115800000D01*
X229671150Y-117360000D02*
X229671150Y-116800000D01*
X229311150Y-117600000D02*
X229431150Y-117600000D01*
X227271150Y-116560000D02*
X227271150Y-116040000D01*
X220800000Y-105350000D02*
X220775000Y-105350000D01*
X228471150Y-117360000D02*
X228471150Y-116800000D01*
X211800000Y-116000000D02*
X212800000Y-117000000D01*
X227871150Y-117360000D02*
G75*
G03*
X228111150Y-117599950I239950J0D01*
G01*
X230031150Y-115800000D02*
G75*
G02*
X230271200Y-116040000I50J-240000D01*
G01*
X228231150Y-117600000D02*
G75*
G03*
X228471200Y-117360000I50J240000D01*
G01*
X227271150Y-116040000D02*
G75*
G02*
X227511150Y-115800050I239950J0D01*
G01*
X227631150Y-115800000D02*
G75*
G02*
X227871200Y-116040000I50J-240000D01*
G01*
X228471150Y-116040000D02*
G75*
G02*
X228711150Y-115800050I239950J0D01*
G01*
X228831150Y-115800000D02*
G75*
G02*
X229071200Y-116040000I50J-240000D01*
G01*
X229431150Y-117600000D02*
G75*
G03*
X229671200Y-117360000I50J240000D01*
G01*
X229071150Y-117360000D02*
G75*
G03*
X229311150Y-117599950I239950J0D01*
G01*
X229671150Y-116040000D02*
G75*
G02*
X229911150Y-115800050I239950J0D01*
G01*
X230271150Y-116560000D02*
G75*
G03*
X230511150Y-116799950I239950J0D01*
G01*
X227031150Y-116800000D02*
G75*
G03*
X227271200Y-116560000I50J240000D01*
G01*
D67*
%TO.N,Net-(Jx1-DAT0)*%
X220150000Y-111200000D02*
X220150000Y-112450000D01*
X214087500Y-106225000D02*
X215175000Y-106225000D01*
X215175000Y-106225000D02*
X220150000Y-111200000D01*
%TO.N,Net-(LED1-K)*%
X148425000Y-126262500D02*
X148725000Y-126562500D01*
X148425000Y-123650000D02*
X148425000Y-126262500D01*
%TO.N,Net-(LED2-K)*%
X151500000Y-123650000D02*
X151500000Y-126425000D01*
X151500000Y-126425000D02*
X151625000Y-126550000D01*
%TO.N,Net-(LED3-K)*%
X154475000Y-123600000D02*
X154475000Y-126487500D01*
X154475000Y-126487500D02*
X154375000Y-126587500D01*
%TO.N,Net-(LED4-K)*%
X157025000Y-104860000D02*
X159550000Y-104860000D01*
%TO.N,Net-(LED5-K)*%
X173275000Y-116475000D02*
X173225000Y-116525000D01*
X173275000Y-113812500D02*
X173275000Y-116475000D01*
%TO.N,Net-(LED6-K)*%
X176000000Y-113962500D02*
X176000000Y-115562500D01*
X176000000Y-115562500D02*
X176925000Y-116487500D01*
%TO.N,Net-(U7-IN+)*%
X172750000Y-104250000D02*
X175000000Y-106500000D01*
X165775000Y-100775000D02*
X168637500Y-100775000D01*
X176500000Y-104500000D02*
X174676000Y-102676000D01*
X168637500Y-100775000D02*
X170525000Y-98887500D01*
X164500000Y-99500000D02*
X165775000Y-100775000D01*
X174075000Y-99075000D02*
X174075000Y-98120000D01*
X176500000Y-106000000D02*
X176500000Y-104500000D01*
X172750000Y-100550000D02*
X172750000Y-104250000D01*
X174676000Y-99676000D02*
X174075000Y-99075000D01*
X174676000Y-102676000D02*
X174676000Y-99676000D01*
X170525000Y-98325000D02*
X172750000Y-100550000D01*
X170525000Y-98887500D02*
X170525000Y-98325000D01*
X174075000Y-98120000D02*
X174120000Y-98120000D01*
X176000000Y-106500000D02*
X176500000Y-106000000D01*
X175000000Y-106500000D02*
X176000000Y-106500000D01*
X174120000Y-98120000D02*
X174075000Y-98165000D01*
%TO.N,/ESP32-C3-02/Photo C*%
X197500000Y-102500000D02*
X198500000Y-103500000D01*
X196480000Y-105375000D02*
X196480000Y-102567500D01*
X196412500Y-102500000D02*
X197500000Y-102500000D01*
X196480000Y-102567500D02*
X196412500Y-102500000D01*
X239500000Y-93500000D02*
X240175000Y-94175000D01*
X240175000Y-94175000D02*
X241800000Y-94175000D01*
X239000000Y-93500000D02*
X239500000Y-93500000D01*
X198500000Y-103500000D02*
X198500000Y-106500000D01*
%TO.N,/ESP32-C3-02/RTS*%
X180503768Y-116900000D02*
X181500000Y-116900000D01*
X205712500Y-130712500D02*
X205712500Y-130950000D01*
X199300000Y-128325000D02*
X200562500Y-127062500D01*
X180128768Y-116525000D02*
X180503768Y-116900000D01*
X199475000Y-128500000D02*
X201000000Y-128500000D01*
X199300000Y-128325000D02*
X199475000Y-128500000D01*
X204500000Y-129500000D02*
X205712500Y-130712500D01*
X200562500Y-127062500D02*
X200625000Y-127000000D01*
X202000000Y-129500000D02*
X204500000Y-129500000D01*
X201000000Y-128500000D02*
X202000000Y-129500000D01*
%TO.N,Net-(Q2-B)*%
X197487500Y-130950000D02*
X197487500Y-128412500D01*
X197487500Y-130950000D02*
X197550000Y-130950000D01*
X197487500Y-128412500D02*
X197400000Y-128325000D01*
%TO.N,/ESP32-C3-02/DTR*%
X206500000Y-129500000D02*
X205067100Y-129500000D01*
X204666100Y-129099000D02*
X204099000Y-129099000D01*
X203500000Y-128500000D02*
X203500000Y-127000000D01*
X204500000Y-126000000D02*
X205475000Y-126000000D01*
X181400000Y-116000000D02*
X182000000Y-116600000D01*
X206749000Y-131624804D02*
X206749000Y-129749000D01*
X204099000Y-129099000D02*
X203500000Y-128500000D01*
X203500000Y-127000000D02*
X204500000Y-126000000D01*
X199312500Y-130950000D02*
X199312500Y-130687500D01*
X199312500Y-130950000D02*
X200950000Y-130950000D01*
X181400000Y-115400000D02*
X181400000Y-116000000D01*
X200000000Y-130000000D02*
X200500000Y-130000000D01*
X205487500Y-125987500D02*
X206625000Y-125987500D01*
X181750000Y-115050000D02*
X181400000Y-115400000D01*
X200950000Y-130950000D02*
X202500000Y-132500000D01*
X199312500Y-130687500D02*
X200000000Y-130000000D01*
X205873804Y-132500000D02*
X206749000Y-131624804D01*
X181750000Y-113500000D02*
X181750000Y-115050000D01*
X205475000Y-126000000D02*
X205487500Y-125987500D01*
X206749000Y-129749000D02*
X206500000Y-129500000D01*
X202500000Y-132500000D02*
X205873804Y-132500000D01*
X205067100Y-129500000D02*
X204666100Y-129099000D01*
%TO.N,Net-(Q3-B)*%
X205675000Y-127862500D02*
X205862500Y-127862500D01*
X205862500Y-127862500D02*
X207537500Y-129537500D01*
X207537500Y-129537500D02*
X207537500Y-130950000D01*
D63*
%TO.N,/ESP32-C3-02/MISO_DO*%
X241800000Y-95675000D02*
X243175000Y-95675000D01*
X212037500Y-106000000D02*
X210312500Y-106000000D01*
X210650000Y-118050000D02*
X210400000Y-117800000D01*
X210400000Y-117800000D02*
X210400000Y-106087500D01*
X243175000Y-95675000D02*
X243350000Y-95850000D01*
X243350000Y-117900000D02*
X243200000Y-118050000D01*
X212262500Y-106225000D02*
X212037500Y-106000000D01*
X243200000Y-118050000D02*
X210650000Y-118050000D01*
X210400000Y-106087500D02*
X210312500Y-106000000D01*
X243350000Y-95850000D02*
X243350000Y-117900000D01*
D67*
%TO.N,/CHARGING POWER GOOD*%
X154375000Y-128412500D02*
X155462500Y-129500000D01*
X162725000Y-130675000D02*
X163225000Y-130675000D01*
X148725000Y-128387500D02*
X149612500Y-127500000D01*
X153462500Y-127500000D02*
X154375000Y-128412500D01*
X166250000Y-128750000D02*
X164325000Y-130675000D01*
X149612500Y-127500000D02*
X153462500Y-127500000D01*
X164325000Y-130675000D02*
X163225000Y-130675000D01*
%TO.N,/CHARGED *%
X153250000Y-130000000D02*
X151625000Y-128375000D01*
X163250000Y-129250000D02*
X163007056Y-129492944D01*
X163007056Y-129492944D02*
X163007056Y-129500000D01*
X153500000Y-130000000D02*
X153250000Y-130000000D01*
X163007056Y-129500000D02*
X162225000Y-130282056D01*
X162225000Y-130282056D02*
X162225000Y-130675000D01*
%TO.N,Net-(U1-~{TE})*%
X161725000Y-128437500D02*
X161725000Y-130675000D01*
D60*
X161950000Y-128437500D02*
X161975000Y-128412500D01*
D67*
%TO.N,Net-(U1-THERM)*%
X167500000Y-127500000D02*
X168000000Y-128000000D01*
X166426000Y-130074000D02*
X166026844Y-130074000D01*
X166026844Y-130074000D02*
X164488344Y-131612500D01*
X164500000Y-128412500D02*
X165412500Y-127500000D01*
X164488344Y-131612500D02*
X164162500Y-131612500D01*
X165412500Y-127500000D02*
X167500000Y-127500000D01*
X168000000Y-128000000D02*
X168000000Y-128500000D01*
X168000000Y-128500000D02*
X166426000Y-130074000D01*
D60*
X164037500Y-128412500D02*
X164075000Y-128450000D01*
D67*
%TO.N,Net-(U1-PROG1)*%
X156800196Y-127636500D02*
X156499000Y-127937696D01*
X156800196Y-127636500D02*
X158811500Y-127636500D01*
X159756746Y-132612500D02*
X160287500Y-132612500D01*
X156499000Y-127937696D02*
X156499000Y-129354754D01*
X158811500Y-127636500D02*
X159500000Y-128325000D01*
X156499000Y-129354754D02*
X159756746Y-132612500D01*
%TO.N,Net-(U1-PROG3)*%
X157475000Y-128425000D02*
X157475000Y-129763654D01*
X159823846Y-132112500D02*
X160287500Y-132112500D01*
X157475000Y-129763654D02*
X159823846Y-132112500D01*
%TO.N,Net-(U3-~{RST})*%
X186000000Y-116000000D02*
X186000000Y-114043876D01*
X185456124Y-113500000D02*
X184437500Y-113500000D01*
X184374000Y-117826000D02*
X184899000Y-117826000D01*
X184437500Y-113500000D02*
X183475000Y-114462500D01*
X184300000Y-117900000D02*
X184374000Y-117826000D01*
X186000000Y-114043876D02*
X185456124Y-113500000D01*
X185099000Y-117626000D02*
X185099000Y-116901000D01*
X185099000Y-116901000D02*
X186000000Y-116000000D01*
X184899000Y-117826000D02*
G75*
G03*
X185099000Y-117626000I0J200000D01*
G01*
%TO.N,Net-(U4-DO(IO1))*%
X208487500Y-103937500D02*
X205840000Y-101290000D01*
X208487500Y-106000000D02*
X208487500Y-103937500D01*
X205840000Y-101290000D02*
X204975000Y-101290000D01*
%TO.N,Net-(U3-~{TXT}{slash}GPIO.2)*%
X176925000Y-118312500D02*
X177512500Y-118900000D01*
X177512500Y-118900000D02*
X181200000Y-118900000D01*
%TO.N,Net-(U3-~{RXT}{slash}GPIO.3)*%
X175976000Y-117524000D02*
X177976000Y-117524000D01*
X178852000Y-118400000D02*
X181200000Y-118400000D01*
X175500000Y-118000000D02*
X175976000Y-117524000D01*
X173225000Y-118350000D02*
X173575000Y-118000000D01*
X177976000Y-117524000D02*
X178852000Y-118400000D01*
X173575000Y-118000000D02*
X175500000Y-118000000D01*
%TO.N,Net-(U5-IO6)*%
X220650000Y-99050000D02*
X221025000Y-98675000D01*
X220650000Y-99100000D02*
X219425000Y-100325000D01*
X221025000Y-98675000D02*
X224300000Y-98675000D01*
X220650000Y-99050000D02*
X220650000Y-99100000D01*
D63*
%TO.N,/ESP32-C3-02/SCLK*%
X221500000Y-110950000D02*
X219425000Y-108875000D01*
X212175000Y-102560000D02*
X215990000Y-102560000D01*
X219000000Y-102575000D02*
X219425000Y-102150000D01*
X225075000Y-112450000D02*
X225075000Y-114425000D01*
X223800000Y-115700000D02*
X221650000Y-115700000D01*
X221650000Y-115700000D02*
X221500000Y-115550000D01*
D67*
X219425000Y-102150000D02*
X220000000Y-102150000D01*
D63*
X219425000Y-108875000D02*
X219425000Y-102150000D01*
X225075000Y-114425000D02*
X223800000Y-115700000D01*
X215875000Y-102575000D02*
X219000000Y-102575000D01*
X221500000Y-115550000D02*
X221500000Y-110950000D01*
%TO.N,/ESP32-C3-02/CS*%
X222602160Y-101324000D02*
X222926160Y-101000000D01*
X228851000Y-106449000D02*
X230900000Y-104400000D01*
X241525000Y-104400000D02*
X241800000Y-104675000D01*
X204975000Y-100020000D02*
X204975000Y-98625000D01*
X223200000Y-106050000D02*
X223599000Y-106449000D01*
X223200000Y-101200000D02*
X223200000Y-106050000D01*
X217250000Y-101000000D02*
X218601340Y-101000000D01*
X223599000Y-106449000D02*
X228851000Y-106449000D01*
X220110160Y-101138500D02*
X220248660Y-101000000D01*
X221627840Y-101324000D02*
X222602160Y-101324000D01*
X230900000Y-104400000D02*
X241525000Y-104400000D01*
X221303840Y-101000000D02*
X221627840Y-101324000D01*
X218739840Y-101138500D02*
X220110160Y-101138500D01*
X220248660Y-101000000D02*
X221303840Y-101000000D01*
X218601340Y-101000000D02*
X218739840Y-101138500D01*
X204975000Y-98625000D02*
X206550000Y-97050000D01*
X223000000Y-101000000D02*
X223200000Y-101200000D01*
X222926160Y-101000000D02*
X223000000Y-101000000D01*
X206550000Y-97050000D02*
X213300000Y-97050000D01*
X213300000Y-97050000D02*
X217250000Y-101000000D01*
D62*
%TO.N,/ESP32-C3-02/RX_TX*%
X180500000Y-113500000D02*
X180500000Y-110500000D01*
X240500000Y-102000000D02*
X240825000Y-101675000D01*
X240000000Y-102000000D02*
X240500000Y-102000000D01*
X179396388Y-117400000D02*
X178851000Y-116854612D01*
X178851000Y-115149000D02*
X180500000Y-113500000D01*
X240825000Y-101675000D02*
X241800000Y-101675000D01*
X178851000Y-116854612D02*
X178851000Y-115149000D01*
X181200000Y-117400000D02*
X179396388Y-117400000D01*
%TO.N,/ESP32-C3-02/TX_RX*%
X179500000Y-108250000D02*
X179500000Y-114000000D01*
X180000000Y-107750000D02*
X179500000Y-108250000D01*
X239175000Y-103175000D02*
X241800000Y-103175000D01*
X178500000Y-115000000D02*
X178500000Y-117000000D01*
X179500000Y-114000000D02*
X178500000Y-115000000D01*
X179400000Y-117900000D02*
X181200000Y-117900000D01*
X237500000Y-101500000D02*
X239175000Y-103175000D01*
X178500000Y-117000000D02*
X179400000Y-117900000D01*
D67*
%TO.N,Net-(U7-IN-)*%
X175375000Y-97425000D02*
X175375000Y-98120000D01*
X171599000Y-93401000D02*
X173000000Y-92000000D01*
X174800000Y-92900000D02*
X174800000Y-96583124D01*
X175580000Y-98325000D02*
X178200000Y-98325000D01*
X181337500Y-98325000D02*
X181350000Y-98337500D01*
X174800000Y-96850000D02*
X175375000Y-97425000D01*
X178200000Y-98325000D02*
X181337500Y-98325000D01*
X174600000Y-92600000D02*
X174600000Y-92700000D01*
X174800000Y-96583124D02*
X174800000Y-96850000D01*
X173000000Y-92000000D02*
X174000000Y-92000000D01*
X170412500Y-96000000D02*
X171599000Y-94813500D01*
X171599000Y-94813500D02*
X171599000Y-93401000D01*
X170412500Y-95562500D02*
X170412500Y-96000000D01*
X174600000Y-92700000D02*
X174800000Y-92900000D01*
X174000000Y-92000000D02*
X174600000Y-92600000D01*
X175375000Y-98120000D02*
X175580000Y-98325000D01*
%TO.N,Net-(C21-Pad2)*%
X168475000Y-95887500D02*
X168587500Y-96000000D01*
X168475000Y-93625000D02*
X168475000Y-95887500D01*
%TO.N,Net-(C22-Pad1)*%
X160050000Y-99500000D02*
X162600000Y-99500000D01*
X158500000Y-97950000D02*
X160050000Y-99500000D01*
X162600000Y-99400000D02*
X162825000Y-99175000D01*
X162825000Y-99175000D02*
X162825000Y-97000000D01*
X162600000Y-99500000D02*
X162600000Y-99400000D01*
D62*
%TO.N,/+5V_USB*%
X161225000Y-137500000D02*
X160225000Y-138500000D01*
D67*
X153000000Y-121850000D02*
X154425000Y-121850000D01*
X151500000Y-121850000D02*
X153000000Y-121850000D01*
D62*
X161225000Y-135775000D02*
X161725000Y-135275000D01*
X164590798Y-132112500D02*
X164162500Y-132112500D01*
X161725000Y-135275000D02*
X161725000Y-134550000D01*
D67*
X154425000Y-121850000D02*
X154475000Y-121800000D01*
D62*
X161725000Y-134550000D02*
X162225000Y-134550000D01*
D67*
X148425000Y-121850000D02*
X150000000Y-121850000D01*
D62*
X162725000Y-135225000D02*
X162725000Y-134550000D01*
X166203298Y-130500000D02*
X164590798Y-132112500D01*
X164954600Y-133112500D02*
X165567100Y-132500000D01*
D67*
X150000000Y-121850000D02*
X151500000Y-121850000D01*
D62*
X163500000Y-136000000D02*
X162725000Y-135225000D01*
X161225000Y-136975000D02*
X161225000Y-137500000D01*
X162225000Y-134550000D02*
X162225000Y-136000000D01*
X160225000Y-138500000D02*
X159000000Y-138500000D01*
X160475000Y-135775000D02*
X161225000Y-135775000D01*
X160250000Y-136000000D02*
X160475000Y-135775000D01*
X165567100Y-132500000D02*
X166000000Y-132500000D01*
X164162500Y-133112500D02*
X164954600Y-133112500D01*
X167500000Y-130500000D02*
X166203298Y-130500000D01*
X160250000Y-136000000D02*
X161225000Y-136975000D01*
X165000000Y-136000000D02*
X163500000Y-136000000D01*
%TO.N,/ESP32-C3-02/D-*%
X183500000Y-119700000D02*
X183500000Y-121068749D01*
X184150000Y-121718749D02*
X184150000Y-122712500D01*
X183500000Y-121068749D02*
X184150000Y-121718749D01*
%TO.N,/ESP32-C3-02/D+*%
X183000000Y-119700000D02*
X183000000Y-120968749D01*
X183000000Y-120968749D02*
X182250000Y-121718749D01*
X182250000Y-121718749D02*
X182250000Y-122712500D01*
D63*
%TO.N,Net-(U5-IO7)*%
X222115000Y-100312500D02*
X222252500Y-100175000D01*
D67*
X222115000Y-100312500D02*
X224162500Y-100312500D01*
X224162500Y-100312500D02*
X224300000Y-100175000D01*
%TD*%
%TA.AperFunction,Conductor*%
%TO.N,GND*%
G36*
X151193039Y-136019685D02*
G01*
X151238794Y-136072489D01*
X151250000Y-136124000D01*
X151250000Y-138626000D01*
X151230315Y-138693039D01*
X151177511Y-138738794D01*
X151126000Y-138750000D01*
X149124000Y-138750000D01*
X149056961Y-138730315D01*
X149011206Y-138677511D01*
X149000000Y-138626000D01*
X149000000Y-136124000D01*
X149019685Y-136056961D01*
X149072489Y-136011206D01*
X149124000Y-136000000D01*
X151126000Y-136000000D01*
X151193039Y-136019685D01*
G37*
%TD.AperFunction*%
%TD*%
%TA.AperFunction,Conductor*%
%TO.N,/VBat*%
G36*
X160717539Y-132969685D02*
G01*
X160763294Y-133022489D01*
X160774500Y-133074000D01*
X160774500Y-133882252D01*
X160786131Y-133940729D01*
X160786132Y-133940730D01*
X160830447Y-134007052D01*
X160896769Y-134051367D01*
X160896770Y-134051368D01*
X160955247Y-134062999D01*
X160955250Y-134063000D01*
X160955252Y-134063000D01*
X161251000Y-134063000D01*
X161318039Y-134082685D01*
X161363794Y-134135489D01*
X161375000Y-134187000D01*
X161375000Y-135126000D01*
X161355315Y-135193039D01*
X161302511Y-135238794D01*
X161251000Y-135250000D01*
X159624000Y-135250000D01*
X159556961Y-135230315D01*
X159511206Y-135177511D01*
X159500000Y-135126000D01*
X159500000Y-133074000D01*
X159519685Y-133006961D01*
X159572489Y-132961206D01*
X159624000Y-132950000D01*
X160650500Y-132950000D01*
X160717539Y-132969685D01*
G37*
%TD.AperFunction*%
%TD*%
%TA.AperFunction,Conductor*%
%TO.N,GND*%
G36*
X161342539Y-130019685D02*
G01*
X161388294Y-130072489D01*
X161399500Y-130124000D01*
X161399500Y-131050898D01*
X161414760Y-131127618D01*
X161415146Y-131128549D01*
X161415381Y-131130739D01*
X161417143Y-131139596D01*
X161416350Y-131139753D01*
X161422613Y-131198018D01*
X161391338Y-131260497D01*
X161331248Y-131296149D01*
X161300584Y-131300000D01*
X160950000Y-131300000D01*
X160950000Y-131676000D01*
X160947449Y-131684685D01*
X160948738Y-131693647D01*
X160937759Y-131717687D01*
X160930315Y-131743039D01*
X160923474Y-131748966D01*
X160919713Y-131757203D01*
X160897478Y-131771492D01*
X160877511Y-131788794D01*
X160866996Y-131791081D01*
X160860935Y-131794977D01*
X160826000Y-131800000D01*
X160740968Y-131800000D01*
X160716776Y-131797617D01*
X160663403Y-131787000D01*
X160663401Y-131787000D01*
X160330354Y-131787000D01*
X160330353Y-131787000D01*
X160010035Y-131787000D01*
X159942996Y-131767315D01*
X159922354Y-131750681D01*
X159536319Y-131364646D01*
X159502834Y-131303323D01*
X159500000Y-131276965D01*
X159500000Y-130124000D01*
X159519685Y-130056961D01*
X159572489Y-130011206D01*
X159624000Y-130000000D01*
X161275500Y-130000000D01*
X161342539Y-130019685D01*
G37*
%TD.AperFunction*%
%TD*%
%TA.AperFunction,Conductor*%
%TO.N,/+5V_USB*%
G36*
X173693039Y-121769685D02*
G01*
X173738794Y-121822489D01*
X173750000Y-121874000D01*
X173750000Y-125376000D01*
X173730315Y-125443039D01*
X173677511Y-125488794D01*
X173626000Y-125500000D01*
X170874000Y-125500000D01*
X170806961Y-125480315D01*
X170761206Y-125427511D01*
X170750000Y-125376000D01*
X170750000Y-121874000D01*
X170769685Y-121806961D01*
X170822489Y-121761206D01*
X170874000Y-121750000D01*
X173626000Y-121750000D01*
X173693039Y-121769685D01*
G37*
%TD.AperFunction*%
%TD*%
%TA.AperFunction,Conductor*%
%TO.N,+5V*%
G36*
X164843039Y-133494685D02*
G01*
X164888794Y-133547489D01*
X164900000Y-133599000D01*
X164900000Y-135101000D01*
X164880315Y-135168039D01*
X164827511Y-135213794D01*
X164776000Y-135225000D01*
X163201333Y-135225000D01*
X163171892Y-135216355D01*
X163141906Y-135209832D01*
X163136890Y-135206077D01*
X163134294Y-135205315D01*
X163113652Y-135188681D01*
X163111319Y-135186348D01*
X163077834Y-135125025D01*
X163075000Y-135098667D01*
X163075000Y-134187000D01*
X163094685Y-134119961D01*
X163147489Y-134074206D01*
X163199000Y-134063000D01*
X163494750Y-134063000D01*
X163494751Y-134062999D01*
X163509568Y-134060052D01*
X163553229Y-134051368D01*
X163553229Y-134051367D01*
X163553231Y-134051367D01*
X163619552Y-134007052D01*
X163620852Y-134005105D01*
X163624777Y-134001825D01*
X163628184Y-133998419D01*
X163628488Y-133998723D01*
X163674464Y-133960303D01*
X163693702Y-133956297D01*
X163700000Y-133950000D01*
X163700000Y-133599000D01*
X163719685Y-133531961D01*
X163772489Y-133486206D01*
X163824000Y-133475000D01*
X164776000Y-133475000D01*
X164843039Y-133494685D01*
G37*
%TD.AperFunction*%
%TD*%
%TA.AperFunction,Conductor*%
%TO.N,/VBUS*%
G36*
X178193039Y-121769685D02*
G01*
X178238794Y-121822489D01*
X178250000Y-121874000D01*
X178250000Y-125067869D01*
X178244980Y-125084961D01*
X178244985Y-125102777D01*
X178235341Y-125117790D01*
X178230315Y-125134908D01*
X178216853Y-125146572D01*
X178207224Y-125161564D01*
X178177537Y-125180652D01*
X178168109Y-125184959D01*
X178124361Y-125196682D01*
X178055681Y-125236334D01*
X178050323Y-125238783D01*
X177998786Y-125250000D01*
X175374000Y-125250000D01*
X175306961Y-125230315D01*
X175261206Y-125177511D01*
X175250000Y-125126000D01*
X175250000Y-121874000D01*
X175269685Y-121806961D01*
X175322489Y-121761206D01*
X175374000Y-121750000D01*
X178126000Y-121750000D01*
X178193039Y-121769685D01*
G37*
%TD.AperFunction*%
%TD*%
%TA.AperFunction,Conductor*%
%TO.N,GND*%
G36*
X164441846Y-109782523D02*
G01*
X164488200Y-109834803D01*
X164500000Y-109887596D01*
X164500000Y-113250000D01*
X165588829Y-113295368D01*
X165654985Y-113317825D01*
X165698502Y-113372488D01*
X165707635Y-113421799D01*
X165600071Y-118671506D01*
X165599732Y-118678476D01*
X165585576Y-118862506D01*
X165584539Y-118876000D01*
X165583807Y-118885510D01*
X165559039Y-118950842D01*
X165502881Y-118992413D01*
X165460172Y-119000000D01*
X162124000Y-119000000D01*
X162056961Y-118980315D01*
X162011206Y-118927511D01*
X162000000Y-118876000D01*
X162000000Y-113250000D01*
X158124000Y-113250000D01*
X158056961Y-113230315D01*
X158011206Y-113177511D01*
X158000000Y-113126000D01*
X158000000Y-112000000D01*
X155872549Y-112000000D01*
X155805510Y-111980315D01*
X155759755Y-111927511D01*
X155748558Y-111877459D01*
X155726308Y-109986214D01*
X155745202Y-109918947D01*
X155797464Y-109872574D01*
X155848883Y-109860763D01*
X164374587Y-109763604D01*
X164441846Y-109782523D01*
G37*
%TD.AperFunction*%
%TD*%
%TA.AperFunction,Conductor*%
%TO.N,+3.3V*%
G36*
X168943039Y-103019685D02*
G01*
X168988794Y-103072489D01*
X169000000Y-103124000D01*
X169000000Y-106627502D01*
X168980315Y-106694541D01*
X168927511Y-106740296D01*
X168877512Y-106751493D01*
X162972274Y-106823508D01*
X162905000Y-106804642D01*
X162858604Y-106752400D01*
X162846804Y-106702758D01*
X162753327Y-103127241D01*
X162771253Y-103059710D01*
X162822843Y-103012590D01*
X162877285Y-103000000D01*
X168876000Y-103000000D01*
X168943039Y-103019685D01*
G37*
%TD.AperFunction*%
%TD*%
M02*
