M48
; DRILL file {KiCad 9.0.2} date 2025-06-28T16:23:12+0530
; FORMAT={-:-/ absolute / metric / decimal}
; #@! TF.CreationDate,2025-06-28T16:23:12+05:30
; #@! TF.GenerationSoftware,Kicad,Pcbnew,9.0.2
; #@! TF.FileFunction,Plated,1,4,PTH
FMAT,2
METRIC
; #@! TA.AperFunction,Plated,PTH,ViaDrill
T1C0.300
; #@! TA.AperFunction,Plated,PTH,ComponentDrill
T2C0.300
; #@! TA.AperFunction,Plated,PTH,ComponentDrill
T3C0.450
; #@! TA.AperFunction,Plated,PTH,ComponentDrill
T4C0.650
; #@! TA.AperFunction,Plated,PTH,ComponentDrill
T5C0.700
; #@! TA.AperFunction,Plated,PTH,ComponentDrill
T6C1.000
%
G90
G05
T1
X149.75Y-136.3
X149.75Y-137.25
X149.75Y-138.25
X150.0Y-121.85
X152.25Y-105.55
X153.0Y-121.85
X153.5Y-130.0
X155.463Y-129.5
X156.5Y-107.5
X156.55Y-111.675
X158.025Y-111.7
X158.325Y-112.875
X158.5Y-126.6
X159.0Y-138.5
X159.775Y-130.3
X160.0Y-113.0
X160.25Y-136.0
X160.5Y-126.637
X161.5Y-102.5
X161.5Y-113.0
X162.225Y-136.0
X162.325Y-116.75
X162.325Y-118.475
X162.425Y-115.175
X162.5Y-91.75
X163.0Y-126.612
X163.2Y-103.4
X163.225Y-116.775
X163.25Y-129.25
X163.275Y-118.5
X163.967Y-103.4
X164.0Y-134.5
X164.625Y-93.0
X164.733Y-103.4
X165.0Y-136.0
X165.5Y-103.4
X165.5Y-137.0
X166.0Y-132.5
X166.25Y-128.75
X166.267Y-103.4
X166.5Y-131.25
X167.025Y-133.975
X167.033Y-103.4
X167.325Y-98.325
X167.5Y-130.5
X167.8Y-103.4
X170.0Y-88.0
X170.375Y-92.125
X171.0Y-89.5
X171.5Y-103.5
X171.5Y-122.55
X171.5Y-123.5
X171.5Y-125.0
X172.5Y-94.0
X173.175Y-110.175
X174.5Y-104.0
X176.5Y-103.0
X176.775Y-110.275
X177.75Y-122.5
X177.75Y-123.5
X177.75Y-124.5
X178.75Y-127.75
X179.25Y-126.75
X179.5Y-120.5
X180.0Y-107.75
X180.129Y-116.525
X180.5Y-110.5
X181.0Y-123.651
X181.159Y-125.5
X181.75Y-113.5
X183.15Y-126.0
X183.2Y-134.0
X183.5Y-110.5
X185.0Y-115.5
X185.5Y-125.0
X185.95Y-127.05
X186.6Y-120.4
X187.25Y-126.25
X187.5Y-114.5
X189.65Y-120.35
X190.35Y-122.85
X190.5Y-113.0
X190.75Y-87.5
X191.5Y-120.5
X192.5Y-103.5
X193.25Y-87.25
X193.75Y-90.25
X193.75Y-113.0
X193.8Y-117.8
X194.5Y-135.0
X194.509Y-128.442
X194.9Y-116.6
X195.0Y-100.5
X197.0Y-135.5
X197.425Y-89.5
X198.5Y-106.5
X199.975Y-91.25
X200.5Y-130.0
X200.562Y-127.062
X202.0Y-91.0
X202.0Y-106.5
X202.575Y-101.075
X204.008Y-134.545
X210.0Y-136.0
X212.0Y-94.25
X214.0Y-101.0
X214.0Y-111.0
X214.5Y-95.0
X215.8Y-92.85
X216.208Y-96.336
X216.5Y-119.5
X217.5Y-110.5
X217.5Y-134.5
X217.574Y-119.574
X222.0Y-108.0
X226.0Y-99.0
X227.0Y-103.5
X228.0Y-105.5
X228.5Y-114.5
X229.5Y-104.0
X230.5Y-114.5
X231.0Y-111.0
X234.5Y-94.0
X235.5Y-107.0
X236.612Y-92.862
X237.5Y-101.5
X238.536Y-100.5
X239.0Y-93.5
X239.0Y-134.0
X239.464Y-110.982
X240.0Y-100.0
X240.0Y-102.0
X241.9Y-108.6
X243.25Y-92.75
T2
X232.91Y-98.325
X232.91Y-99.425
X233.46Y-97.775
X233.46Y-98.875
X233.46Y-99.975
X234.01Y-98.325
X234.01Y-99.425
X234.56Y-97.775
X234.56Y-98.875
X234.56Y-99.975
X235.11Y-98.325
X235.11Y-99.425
T3
X180.4Y-129.265
X180.8Y-129.975
X181.2Y-129.265
X181.6Y-129.975
X182.0Y-129.265
X182.4Y-129.975
X182.8Y-129.265
X183.6Y-129.265
X184.0Y-129.975
X184.4Y-129.265
X184.8Y-129.975
X185.2Y-129.265
X185.6Y-129.975
X186.0Y-129.265
T5
X158.5Y-96.05
X158.5Y-97.95
T6
X153.965Y-87.45
X156.505Y-87.45
X159.045Y-87.45
X161.585Y-87.45
X164.125Y-87.45
X175.01Y-88.0
X177.55Y-88.0
X180.09Y-88.0
X182.63Y-88.0
T4
G00X178.93Y-130.115
M15
G01X178.93Y-130.715
M16
G05
G00X178.93Y-134.845
M15
G01X178.93Y-135.445
M16
G05
G00X187.47Y-130.115
M15
G01X187.47Y-130.715
M16
G05
G00X187.47Y-134.845
M15
G01X187.47Y-135.445
M16
G05
M30
