%TF.GenerationSoftware,KiCad,Pcbnew,9.0.2*%
%TF.CreationDate,2025-06-28T16:23:08+05:30*%
%TF.ProjectId,ESP32 PCB,45535033-3220-4504-9342-2e6b69636164,rev?*%
%TF.SameCoordinates,Original*%
%TF.FileFunction,Copper,L3,Inr*%
%TF.FilePolarity,Positive*%
%FSLAX46Y46*%
G04 Gerber Fmt 4.6, Leading zero omitted, Abs format (unit mm)*
G04 Created by KiCad (PCBNEW 9.0.2) date 2025-06-28 16:23:08*
%MOMM*%
%LPD*%
G01*
G04 APERTURE LIST*
%TA.AperFunction,ComponentPad*%
%ADD10C,0.650000*%
%TD*%
%TA.AperFunction,ComponentPad*%
%ADD11O,1.050000X2.100000*%
%TD*%
%TA.AperFunction,ComponentPad*%
%ADD12R,1.700000X1.700000*%
%TD*%
%TA.AperFunction,ComponentPad*%
%ADD13C,1.700000*%
%TD*%
%TA.AperFunction,ComponentPad*%
%ADD14C,1.208000*%
%TD*%
%TA.AperFunction,ComponentPad*%
%ADD15C,0.400000*%
%TD*%
%TA.AperFunction,ComponentPad*%
%ADD16C,0.600000*%
%TD*%
%TA.AperFunction,ViaPad*%
%ADD17C,0.500000*%
%TD*%
%TA.AperFunction,ViaPad*%
%ADD18C,0.600000*%
%TD*%
G04 APERTURE END LIST*
D10*
%TO.N,GND*%
%TO.C,J1*%
X186000000Y-129265000D03*
%TO.N,unconnected-(J1-SSTXP2-PadB2)*%
X185600000Y-129975000D03*
%TO.N,unconnected-(J1-SSTXN2-PadB3)*%
X184800000Y-129975000D03*
%TO.N,/VBUS*%
X184400000Y-129265000D03*
%TO.N,Net-(J1-CC2)*%
X184000000Y-129975000D03*
%TO.N,/USB_DP*%
X183600000Y-129265000D03*
%TO.N,/USB_DN*%
X182800000Y-129265000D03*
%TO.N,unconnected-(J1-SBU2-PadB8)*%
X182400000Y-129975000D03*
%TO.N,/VBUS*%
X182000000Y-129265000D03*
%TO.N,unconnected-(J1-SSRXN1-PadB10)*%
X181600000Y-129975000D03*
%TO.N,unconnected-(J1-SSRXP1-PadB11)*%
X180800000Y-129975000D03*
%TO.N,GND*%
X180400000Y-129265000D03*
X185200000Y-129265000D03*
X181200000Y-129265000D03*
D11*
X178930000Y-130415000D03*
X187470000Y-130415000D03*
X178930000Y-135145000D03*
X187470000Y-135145000D03*
%TD*%
D12*
%TO.N,+3.3V*%
%TO.C,J4*%
X182630000Y-88000000D03*
D13*
%TO.N,/ESP32-C3-02/sDA*%
X180090000Y-88000000D03*
%TO.N,/ESP32-C3-02/SCL*%
X177550000Y-88000000D03*
%TO.N,GND*%
X175010000Y-88000000D03*
%TD*%
D12*
%TO.N,+3.3V*%
%TO.C,J5*%
X164125000Y-87450000D03*
D13*
%TO.N,/ESP32-C3-02/GPIO 8*%
X161585000Y-87450000D03*
%TO.N,/ESP32-C3-02/GPIO18*%
X159045000Y-87450000D03*
%TO.N,/ESP32-C3-02/GPIO19*%
X156505000Y-87450000D03*
%TO.N,GND*%
X153965000Y-87450000D03*
%TD*%
D14*
%TO.N,GND*%
%TO.C,MK1*%
X158500000Y-96050000D03*
%TO.N,Net-(C22-Pad1)*%
X158500000Y-97950000D03*
%TD*%
D15*
%TO.N,GND*%
%TO.C,U5*%
X233460000Y-97775000D03*
X234560000Y-97775000D03*
D16*
X232910000Y-98325000D03*
D15*
X234010000Y-98325000D03*
X235110000Y-98325000D03*
X233460000Y-98875000D03*
X234560000Y-98875000D03*
X232910000Y-99425000D03*
X234010000Y-99425000D03*
X235110000Y-99425000D03*
X233460000Y-99975000D03*
X234560000Y-99975000D03*
%TD*%
D17*
%TO.N,+5V*%
X167025000Y-133975000D03*
X164000000Y-134500000D03*
%TO.N,GND*%
X217500000Y-110500000D03*
X210000000Y-136000000D03*
X194900000Y-116600000D03*
X163275000Y-118500000D03*
X162325000Y-118475000D03*
X216208160Y-96335701D03*
X164625000Y-93000000D03*
X159775000Y-130300000D03*
X197425000Y-89500000D03*
X227000000Y-103500000D03*
X186600000Y-120400000D03*
X158500000Y-126600000D03*
X204007922Y-134545499D03*
X202000000Y-106500000D03*
X230500000Y-114500000D03*
X176500000Y-103000000D03*
X192500000Y-103500000D03*
X161500000Y-102500000D03*
X158325000Y-112875000D03*
X149750000Y-137250000D03*
X189650000Y-120350000D03*
X156550000Y-111675000D03*
X193250000Y-87250000D03*
X161500000Y-113000000D03*
X197000000Y-135500000D03*
X160000000Y-113000000D03*
X163225000Y-116775000D03*
X158025000Y-111700000D03*
X183200000Y-134000000D03*
X179500000Y-120500000D03*
X239000000Y-134000000D03*
X160500000Y-126637500D03*
D18*
X149750000Y-136300000D03*
D17*
X214000000Y-111000000D03*
X190350000Y-122850000D03*
X191500000Y-120500000D03*
X239463767Y-110981809D03*
X163000000Y-126612500D03*
X222000000Y-108000000D03*
X167325000Y-98325000D03*
X217500000Y-134500000D03*
X231000000Y-111000000D03*
X185950000Y-127050000D03*
X162325000Y-116750000D03*
X178750000Y-127750000D03*
X185000000Y-115500000D03*
X181000000Y-123651000D03*
X170375000Y-92125000D03*
X166500000Y-131250000D03*
X165500000Y-137000000D03*
X162425000Y-115175000D03*
X149750000Y-138250000D03*
X194500000Y-135000000D03*
%TO.N,+3.3V*%
X228500000Y-114500000D03*
X152250000Y-105550000D03*
X183500000Y-110500000D03*
X214000000Y-101000000D03*
X195000000Y-100500000D03*
X167033333Y-103400000D03*
X199975000Y-91250000D03*
X163200000Y-103400000D03*
X214500000Y-95000000D03*
X202000000Y-91000000D03*
X194508671Y-128442116D03*
X171500000Y-103500000D03*
X235500000Y-107000000D03*
X193750000Y-90250000D03*
X172500000Y-94000000D03*
X156500000Y-107500000D03*
X163966667Y-103400000D03*
X166266667Y-103400000D03*
X164733333Y-103400000D03*
X167800000Y-103400000D03*
X165500000Y-103400000D03*
X173175000Y-110175000D03*
X202575000Y-101075000D03*
X176775000Y-110275000D03*
X190500000Y-113000000D03*
X190750000Y-87500000D03*
X187500000Y-114500000D03*
X174500000Y-104000000D03*
%TO.N,/VBUS*%
X179250000Y-126750000D03*
X187250000Y-126250000D03*
X183150000Y-126000000D03*
X177750000Y-122500000D03*
X177750000Y-124500000D03*
X177750000Y-123500000D03*
%TO.N,Net-(U3-VBUS)*%
X193800000Y-117800000D03*
X193750000Y-113000000D03*
%TO.N,/ESP32-C3-02/BOOT*%
X228000000Y-105500000D03*
X217574000Y-119574000D03*
%TO.N,/ESP32-C3-02/EN*%
X229500000Y-103999999D03*
X216500000Y-119500000D03*
%TO.N,/USB_DP*%
X181158521Y-125500000D03*
%TO.N,/USB_DN*%
X185500000Y-125000000D03*
%TO.N,/ESP32-C3-02/sDA*%
X234500000Y-94000000D03*
X212000000Y-94250000D03*
%TO.N,/ESP32-C3-02/SCL*%
X215800000Y-92850000D03*
X236612500Y-92862500D03*
%TO.N,/ESP32-C3-02/GPIO 8*%
X170000000Y-88000000D03*
X226000000Y-99000000D03*
%TO.N,/ESP32-C3-02/GPIO19*%
X162500000Y-91750000D03*
X238535586Y-100500000D03*
%TO.N,/ESP32-C3-02/GPIO18*%
X240000000Y-100000000D03*
X171000000Y-89500000D03*
%TO.N,/ESP32-C3-02/sc_SD*%
X243250000Y-92750000D03*
X241900000Y-108600000D03*
%TO.N,/ESP32-C3-02/Photo C*%
X198500000Y-106500000D03*
X239000000Y-93500000D03*
%TO.N,/ESP32-C3-02/RTS*%
X200562500Y-127062500D03*
X180128768Y-116525000D03*
%TO.N,/ESP32-C3-02/DTR*%
X200500000Y-130000000D03*
X181750000Y-113500000D03*
%TO.N,/CHARGING POWER GOOD*%
X155462500Y-129500000D03*
X166250000Y-128750000D03*
%TO.N,/CHARGED *%
X153500000Y-130000000D03*
X163250000Y-129250000D03*
%TO.N,/ESP32-C3-02/RX_TX*%
X180500000Y-110500000D03*
X240000000Y-102000000D03*
%TO.N,/ESP32-C3-02/TX_RX*%
X180000000Y-107750000D03*
X237500000Y-101500000D03*
%TO.N,/+5V_USB*%
X153000000Y-121850000D03*
X171500000Y-125000000D03*
X171500000Y-122550000D03*
X165000000Y-136000000D03*
X167500000Y-130500000D03*
X150000000Y-121850000D03*
X159000000Y-138500000D03*
X166000000Y-132500000D03*
X160250000Y-136000000D03*
X171500000Y-123500000D03*
X162225000Y-136000000D03*
%TD*%
%TA.AperFunction,Conductor*%
%TO.N,+3.3V*%
G36*
X206506061Y-84951097D02*
G01*
X206516051Y-84952080D01*
X206643824Y-84964665D01*
X206667652Y-84969404D01*
X206794277Y-85007815D01*
X206816725Y-85017114D01*
X206933406Y-85079482D01*
X206953616Y-85092986D01*
X207055891Y-85176920D01*
X207073079Y-85194108D01*
X207157012Y-85296381D01*
X207170517Y-85316593D01*
X207232883Y-85433271D01*
X207242186Y-85455728D01*
X207280593Y-85582338D01*
X207285335Y-85606180D01*
X207298903Y-85743938D01*
X207299500Y-85756092D01*
X207299500Y-90844486D01*
X207329059Y-91031118D01*
X207387454Y-91210836D01*
X207432631Y-91299500D01*
X207473240Y-91379199D01*
X207584310Y-91532073D01*
X207717927Y-91665690D01*
X207870801Y-91776760D01*
X207934682Y-91809309D01*
X208039163Y-91862545D01*
X208039165Y-91862545D01*
X208039168Y-91862547D01*
X208135497Y-91893846D01*
X208218881Y-91920940D01*
X208405514Y-91950500D01*
X208405519Y-91950500D01*
X208460118Y-91950500D01*
X223960118Y-91950500D01*
X242960118Y-91950500D01*
X242993908Y-91950500D01*
X243006061Y-91951097D01*
X243006234Y-91951114D01*
X243143824Y-91964665D01*
X243167652Y-91969404D01*
X243294277Y-92007815D01*
X243316725Y-92017114D01*
X243432938Y-92079232D01*
X243482781Y-92128193D01*
X243498242Y-92196331D01*
X243474410Y-92262011D01*
X243418853Y-92304379D01*
X243349208Y-92309986D01*
X243342392Y-92308364D01*
X243309310Y-92299500D01*
X243309309Y-92299500D01*
X243190691Y-92299500D01*
X243076114Y-92330201D01*
X243076112Y-92330201D01*
X243076112Y-92330202D01*
X242973387Y-92389511D01*
X242973384Y-92389513D01*
X242889513Y-92473384D01*
X242889511Y-92473387D01*
X242830201Y-92576114D01*
X242799500Y-92690691D01*
X242799500Y-92809309D01*
X242830201Y-92923886D01*
X242889511Y-93026613D01*
X242973387Y-93110489D01*
X243076114Y-93169799D01*
X243190691Y-93200500D01*
X243190694Y-93200500D01*
X243309306Y-93200500D01*
X243309309Y-93200500D01*
X243423886Y-93169799D01*
X243526613Y-93110489D01*
X243587819Y-93049283D01*
X243649142Y-93015798D01*
X243718834Y-93020782D01*
X243774767Y-93062654D01*
X243799184Y-93128118D01*
X243799500Y-93136964D01*
X243799500Y-139243907D01*
X243798903Y-139256061D01*
X243785335Y-139393819D01*
X243780593Y-139417661D01*
X243742186Y-139544271D01*
X243732883Y-139566728D01*
X243670517Y-139683406D01*
X243657068Y-139703549D01*
X243656210Y-139704596D01*
X243598493Y-139743972D01*
X243560301Y-139750000D01*
X191624000Y-139750000D01*
X191556961Y-139730315D01*
X191511206Y-139677511D01*
X191500000Y-139626000D01*
X191500000Y-134940691D01*
X194049500Y-134940691D01*
X194049500Y-135059309D01*
X194080201Y-135173886D01*
X194139511Y-135276613D01*
X194223387Y-135360489D01*
X194326114Y-135419799D01*
X194440691Y-135450500D01*
X194440694Y-135450500D01*
X194559306Y-135450500D01*
X194559309Y-135450500D01*
X194595916Y-135440691D01*
X196549500Y-135440691D01*
X196549500Y-135559309D01*
X196580201Y-135673886D01*
X196639511Y-135776613D01*
X196723387Y-135860489D01*
X196826114Y-135919799D01*
X196940691Y-135950500D01*
X196940694Y-135950500D01*
X197059306Y-135950500D01*
X197059309Y-135950500D01*
X197095916Y-135940691D01*
X209549500Y-135940691D01*
X209549500Y-136059309D01*
X209580201Y-136173886D01*
X209639511Y-136276613D01*
X209723387Y-136360489D01*
X209826114Y-136419799D01*
X209940691Y-136450500D01*
X209940694Y-136450500D01*
X210059306Y-136450500D01*
X210059309Y-136450500D01*
X210173886Y-136419799D01*
X210276613Y-136360489D01*
X210360489Y-136276613D01*
X210419799Y-136173886D01*
X210450500Y-136059309D01*
X210450500Y-135940691D01*
X210419799Y-135826114D01*
X210360489Y-135723387D01*
X210276613Y-135639511D01*
X210173886Y-135580201D01*
X210059309Y-135549500D01*
X209940691Y-135549500D01*
X209826114Y-135580201D01*
X209826112Y-135580201D01*
X209826112Y-135580202D01*
X209723387Y-135639511D01*
X209723384Y-135639513D01*
X209639513Y-135723384D01*
X209639511Y-135723387D01*
X209608780Y-135776615D01*
X209580201Y-135826114D01*
X209549500Y-135940691D01*
X197095916Y-135940691D01*
X197173886Y-135919799D01*
X197276613Y-135860489D01*
X197360489Y-135776613D01*
X197419799Y-135673886D01*
X197450500Y-135559309D01*
X197450500Y-135440691D01*
X197419799Y-135326114D01*
X197360489Y-135223387D01*
X197276613Y-135139511D01*
X197173886Y-135080201D01*
X197059309Y-135049500D01*
X196940691Y-135049500D01*
X196826114Y-135080201D01*
X196826112Y-135080201D01*
X196826112Y-135080202D01*
X196723387Y-135139511D01*
X196723384Y-135139513D01*
X196639513Y-135223384D01*
X196639511Y-135223387D01*
X196608780Y-135276615D01*
X196580201Y-135326114D01*
X196549500Y-135440691D01*
X194595916Y-135440691D01*
X194673886Y-135419799D01*
X194776613Y-135360489D01*
X194860489Y-135276613D01*
X194919799Y-135173886D01*
X194950500Y-135059309D01*
X194950500Y-134940691D01*
X194919799Y-134826114D01*
X194860489Y-134723387D01*
X194776613Y-134639511D01*
X194673886Y-134580201D01*
X194559309Y-134549500D01*
X194440691Y-134549500D01*
X194326114Y-134580201D01*
X194326112Y-134580201D01*
X194326112Y-134580202D01*
X194223387Y-134639511D01*
X194223384Y-134639513D01*
X194139513Y-134723384D01*
X194139511Y-134723387D01*
X194082512Y-134822112D01*
X194080201Y-134826114D01*
X194049500Y-134940691D01*
X191500000Y-134940691D01*
X191500000Y-134486190D01*
X203557422Y-134486190D01*
X203557422Y-134604808D01*
X203588123Y-134719385D01*
X203647433Y-134822112D01*
X203731309Y-134905988D01*
X203834036Y-134965298D01*
X203948613Y-134995999D01*
X203948616Y-134995999D01*
X204067228Y-134995999D01*
X204067231Y-134995999D01*
X204181808Y-134965298D01*
X204284535Y-134905988D01*
X204368411Y-134822112D01*
X204427721Y-134719385D01*
X204458422Y-134604808D01*
X204458422Y-134486190D01*
X204446231Y-134440691D01*
X217049500Y-134440691D01*
X217049500Y-134559309D01*
X217080201Y-134673886D01*
X217139511Y-134776613D01*
X217223387Y-134860489D01*
X217326114Y-134919799D01*
X217440691Y-134950500D01*
X217440694Y-134950500D01*
X217559306Y-134950500D01*
X217559309Y-134950500D01*
X217673886Y-134919799D01*
X217776613Y-134860489D01*
X217860489Y-134776613D01*
X217919799Y-134673886D01*
X217950500Y-134559309D01*
X217950500Y-134440691D01*
X217919799Y-134326114D01*
X217860489Y-134223387D01*
X217776613Y-134139511D01*
X217673886Y-134080201D01*
X217569901Y-134052338D01*
X217566352Y-134051387D01*
X217559309Y-134049500D01*
X217440691Y-134049500D01*
X217326114Y-134080201D01*
X217326112Y-134080201D01*
X217326112Y-134080202D01*
X217223387Y-134139511D01*
X217223384Y-134139513D01*
X217139513Y-134223384D01*
X217139511Y-134223387D01*
X217108780Y-134276615D01*
X217080201Y-134326114D01*
X217049500Y-134440691D01*
X204446231Y-134440691D01*
X204427721Y-134371613D01*
X204368411Y-134268886D01*
X204284535Y-134185010D01*
X204181808Y-134125700D01*
X204067231Y-134094999D01*
X203948613Y-134094999D01*
X203834036Y-134125700D01*
X203834034Y-134125700D01*
X203834034Y-134125701D01*
X203731309Y-134185010D01*
X203731306Y-134185012D01*
X203647435Y-134268883D01*
X203647433Y-134268886D01*
X203594546Y-134360489D01*
X203588123Y-134371613D01*
X203557422Y-134486190D01*
X191500000Y-134486190D01*
X191500000Y-133940691D01*
X238549500Y-133940691D01*
X238549500Y-134059309D01*
X238580201Y-134173886D01*
X238639511Y-134276613D01*
X238723387Y-134360489D01*
X238826114Y-134419799D01*
X238940691Y-134450500D01*
X238940694Y-134450500D01*
X239059306Y-134450500D01*
X239059309Y-134450500D01*
X239173886Y-134419799D01*
X239276613Y-134360489D01*
X239360489Y-134276613D01*
X239419799Y-134173886D01*
X239450500Y-134059309D01*
X239450500Y-133940691D01*
X239419799Y-133826114D01*
X239360489Y-133723387D01*
X239276613Y-133639511D01*
X239173886Y-133580201D01*
X239059309Y-133549500D01*
X238940691Y-133549500D01*
X238826114Y-133580201D01*
X238826112Y-133580201D01*
X238826112Y-133580202D01*
X238723387Y-133639511D01*
X238723384Y-133639513D01*
X238639513Y-133723384D01*
X238639511Y-133723387D01*
X238580201Y-133826114D01*
X238549500Y-133940691D01*
X191500000Y-133940691D01*
X191500000Y-129940691D01*
X200049500Y-129940691D01*
X200049500Y-130059309D01*
X200080201Y-130173886D01*
X200139511Y-130276613D01*
X200223387Y-130360489D01*
X200326114Y-130419799D01*
X200440691Y-130450500D01*
X200440694Y-130450500D01*
X200559306Y-130450500D01*
X200559309Y-130450500D01*
X200673886Y-130419799D01*
X200776613Y-130360489D01*
X200860489Y-130276613D01*
X200919799Y-130173886D01*
X200950500Y-130059309D01*
X200950500Y-129940691D01*
X200919799Y-129826114D01*
X200860489Y-129723387D01*
X200776613Y-129639511D01*
X200673886Y-129580201D01*
X200559309Y-129549500D01*
X200440691Y-129549500D01*
X200326114Y-129580201D01*
X200326112Y-129580201D01*
X200326112Y-129580202D01*
X200223387Y-129639511D01*
X200223384Y-129639513D01*
X200139513Y-129723384D01*
X200139511Y-129723387D01*
X200080201Y-129826114D01*
X200049500Y-129940691D01*
X191500000Y-129940691D01*
X191500000Y-127003191D01*
X200112000Y-127003191D01*
X200112000Y-127121809D01*
X200142701Y-127236386D01*
X200202011Y-127339113D01*
X200285887Y-127422989D01*
X200388614Y-127482299D01*
X200503191Y-127513000D01*
X200503194Y-127513000D01*
X200621806Y-127513000D01*
X200621809Y-127513000D01*
X200736386Y-127482299D01*
X200839113Y-127422989D01*
X200922989Y-127339113D01*
X200982299Y-127236386D01*
X201013000Y-127121809D01*
X201013000Y-127003191D01*
X200982299Y-126888614D01*
X200922989Y-126785887D01*
X200839113Y-126702011D01*
X200736386Y-126642701D01*
X200621809Y-126612000D01*
X200503191Y-126612000D01*
X200388614Y-126642701D01*
X200388612Y-126642701D01*
X200388612Y-126642702D01*
X200285887Y-126702011D01*
X200285884Y-126702013D01*
X200202013Y-126785884D01*
X200202011Y-126785887D01*
X200142701Y-126888614D01*
X200112000Y-127003191D01*
X191500000Y-127003191D01*
X191500000Y-121061539D01*
X191519685Y-120994500D01*
X191572489Y-120948745D01*
X191591896Y-120941768D01*
X191673886Y-120919799D01*
X191776613Y-120860489D01*
X191860489Y-120776613D01*
X191919799Y-120673886D01*
X191950500Y-120559309D01*
X191950500Y-120440691D01*
X191919799Y-120326114D01*
X191860489Y-120223387D01*
X191776613Y-120139511D01*
X191673886Y-120080201D01*
X191559309Y-120049500D01*
X191440691Y-120049500D01*
X191326114Y-120080201D01*
X191326112Y-120080201D01*
X191326112Y-120080202D01*
X191223387Y-120139511D01*
X191223384Y-120139513D01*
X191139513Y-120223384D01*
X191139511Y-120223387D01*
X191100652Y-120290693D01*
X191080201Y-120326114D01*
X191049500Y-120440691D01*
X191049500Y-120559309D01*
X191080201Y-120673886D01*
X191139511Y-120776613D01*
X191139513Y-120776615D01*
X191151217Y-120788319D01*
X191184702Y-120849642D01*
X191179718Y-120919334D01*
X191137846Y-120975267D01*
X191072382Y-120999684D01*
X191063536Y-121000000D01*
X189887941Y-121000000D01*
X189820902Y-120980315D01*
X189775147Y-120927511D01*
X189765203Y-120858353D01*
X189794228Y-120794797D01*
X189825940Y-120768613D01*
X189840011Y-120760489D01*
X189926613Y-120710489D01*
X190010489Y-120626613D01*
X190069799Y-120523886D01*
X190100500Y-120409309D01*
X190100500Y-120290691D01*
X190069799Y-120176114D01*
X190010489Y-120073387D01*
X189926613Y-119989511D01*
X189823886Y-119930201D01*
X189709309Y-119899500D01*
X189590691Y-119899500D01*
X189476114Y-119930201D01*
X189476112Y-119930201D01*
X189476112Y-119930202D01*
X189373387Y-119989511D01*
X189373384Y-119989513D01*
X189289513Y-120073384D01*
X189289511Y-120073387D01*
X189230201Y-120176114D01*
X189199500Y-120290691D01*
X189199500Y-120409309D01*
X189230201Y-120523886D01*
X189289511Y-120626613D01*
X189373387Y-120710489D01*
X189459984Y-120760486D01*
X189474060Y-120768613D01*
X189522275Y-120819181D01*
X189535497Y-120887788D01*
X189509529Y-120952652D01*
X189452615Y-120993180D01*
X189412059Y-121000000D01*
X186924542Y-121000000D01*
X186857503Y-120980315D01*
X186811748Y-120927511D01*
X186801804Y-120858353D01*
X186830829Y-120794797D01*
X186862538Y-120768614D01*
X186876613Y-120760489D01*
X186960489Y-120676613D01*
X187019799Y-120573886D01*
X187050500Y-120459309D01*
X187050500Y-120340691D01*
X187019799Y-120226114D01*
X186960489Y-120123387D01*
X186876613Y-120039511D01*
X186773886Y-119980201D01*
X186659309Y-119949500D01*
X186540691Y-119949500D01*
X186426114Y-119980201D01*
X186426112Y-119980201D01*
X186426112Y-119980202D01*
X186323387Y-120039511D01*
X186323384Y-120039513D01*
X186239513Y-120123384D01*
X186239511Y-120123387D01*
X186180201Y-120226114D01*
X186149500Y-120340691D01*
X186149500Y-120459309D01*
X186180201Y-120573886D01*
X186239511Y-120676613D01*
X186323387Y-120760489D01*
X186337460Y-120768614D01*
X186385674Y-120819180D01*
X186398896Y-120887788D01*
X186372928Y-120952652D01*
X186316014Y-120993180D01*
X186275458Y-121000000D01*
X179936464Y-121000000D01*
X179869425Y-120980315D01*
X179823670Y-120927511D01*
X179813726Y-120858353D01*
X179842751Y-120794797D01*
X179848783Y-120788319D01*
X179860489Y-120776613D01*
X179919799Y-120673886D01*
X179950500Y-120559309D01*
X179950500Y-120440691D01*
X179919799Y-120326114D01*
X179860489Y-120223387D01*
X179776613Y-120139511D01*
X179673886Y-120080201D01*
X179559309Y-120049500D01*
X179440691Y-120049500D01*
X179326114Y-120080201D01*
X179326112Y-120080201D01*
X179326112Y-120080202D01*
X179223387Y-120139511D01*
X179223384Y-120139513D01*
X179139513Y-120223384D01*
X179139511Y-120223387D01*
X179100652Y-120290693D01*
X179080201Y-120326114D01*
X179049500Y-120440691D01*
X179049500Y-120559309D01*
X179080201Y-120673886D01*
X179139511Y-120776613D01*
X179139513Y-120776615D01*
X179151217Y-120788319D01*
X179184702Y-120849642D01*
X179179718Y-120919334D01*
X179137846Y-120975267D01*
X179072382Y-120999684D01*
X179063536Y-121000000D01*
X171124000Y-121000000D01*
X171056961Y-120980315D01*
X171011206Y-120927511D01*
X171000000Y-120876000D01*
X171000000Y-119440691D01*
X216049500Y-119440691D01*
X216049500Y-119559309D01*
X216080201Y-119673886D01*
X216139511Y-119776613D01*
X216223387Y-119860489D01*
X216326114Y-119919799D01*
X216440691Y-119950500D01*
X216440694Y-119950500D01*
X216559306Y-119950500D01*
X216559309Y-119950500D01*
X216673886Y-119919799D01*
X216776613Y-119860489D01*
X216860489Y-119776613D01*
X216916674Y-119679297D01*
X216967241Y-119631082D01*
X217035848Y-119617859D01*
X217100713Y-119643828D01*
X217141241Y-119700742D01*
X217143835Y-119709203D01*
X217154200Y-119747884D01*
X217154200Y-119747885D01*
X217170784Y-119776609D01*
X217213511Y-119850613D01*
X217297387Y-119934489D01*
X217400114Y-119993799D01*
X217514691Y-120024500D01*
X217514694Y-120024500D01*
X217633306Y-120024500D01*
X217633309Y-120024500D01*
X217747886Y-119993799D01*
X217850613Y-119934489D01*
X217934489Y-119850613D01*
X217993799Y-119747886D01*
X218024500Y-119633309D01*
X218024500Y-119514691D01*
X217993799Y-119400114D01*
X217934489Y-119297387D01*
X217850613Y-119213511D01*
X217747886Y-119154201D01*
X217633309Y-119123500D01*
X217514691Y-119123500D01*
X217400114Y-119154201D01*
X217400112Y-119154201D01*
X217400112Y-119154202D01*
X217297387Y-119213511D01*
X217297384Y-119213513D01*
X217213513Y-119297384D01*
X217213506Y-119297393D01*
X217157324Y-119394702D01*
X217106757Y-119442917D01*
X217038149Y-119456139D01*
X216973285Y-119430171D01*
X216932757Y-119373256D01*
X216930167Y-119364810D01*
X216919799Y-119326114D01*
X216860489Y-119223387D01*
X216776613Y-119139511D01*
X216673886Y-119080201D01*
X216559309Y-119049500D01*
X216440691Y-119049500D01*
X216326114Y-119080201D01*
X216326112Y-119080201D01*
X216326112Y-119080202D01*
X216223387Y-119139511D01*
X216223384Y-119139513D01*
X216139513Y-119223384D01*
X216139511Y-119223387D01*
X216080201Y-119326114D01*
X216049500Y-119440691D01*
X171000000Y-119440691D01*
X171000000Y-119000000D01*
X163711464Y-119000000D01*
X163644425Y-118980315D01*
X163598670Y-118927511D01*
X163588726Y-118858353D01*
X163617751Y-118794797D01*
X163623783Y-118788319D01*
X163635489Y-118776613D01*
X163694799Y-118673886D01*
X163725500Y-118559309D01*
X163725500Y-118440691D01*
X163694799Y-118326114D01*
X163635489Y-118223387D01*
X163551613Y-118139511D01*
X163448886Y-118080201D01*
X163334309Y-118049500D01*
X163215691Y-118049500D01*
X163101114Y-118080201D01*
X163101112Y-118080201D01*
X163101112Y-118080202D01*
X162998387Y-118139511D01*
X162998384Y-118139513D01*
X162914513Y-118223384D01*
X162909563Y-118229836D01*
X162908515Y-118229032D01*
X162864030Y-118271444D01*
X162795422Y-118284663D01*
X162730559Y-118258691D01*
X162699831Y-118223227D01*
X162694087Y-118213280D01*
X162685489Y-118198387D01*
X162601613Y-118114511D01*
X162498886Y-118055201D01*
X162384309Y-118024500D01*
X162265691Y-118024500D01*
X162151114Y-118055201D01*
X162151112Y-118055201D01*
X162151112Y-118055202D01*
X162048387Y-118114511D01*
X162048384Y-118114513D01*
X161964513Y-118198384D01*
X161964511Y-118198387D01*
X161905201Y-118301114D01*
X161874500Y-118415691D01*
X161874500Y-118534309D01*
X161905201Y-118648886D01*
X161964511Y-118751613D01*
X161964513Y-118751615D01*
X162001217Y-118788319D01*
X162034702Y-118849642D01*
X162029718Y-118919334D01*
X161987846Y-118975267D01*
X161922382Y-118999684D01*
X161913536Y-119000000D01*
X146324500Y-119000000D01*
X146257461Y-118980315D01*
X146211706Y-118927511D01*
X146200500Y-118876000D01*
X146200500Y-117740691D01*
X193349500Y-117740691D01*
X193349500Y-117859309D01*
X193380201Y-117973886D01*
X193439511Y-118076613D01*
X193523387Y-118160489D01*
X193626114Y-118219799D01*
X193740691Y-118250500D01*
X193740694Y-118250500D01*
X193859306Y-118250500D01*
X193859309Y-118250500D01*
X193973886Y-118219799D01*
X194076613Y-118160489D01*
X194160489Y-118076613D01*
X194219799Y-117973886D01*
X194250500Y-117859309D01*
X194250500Y-117740691D01*
X194219799Y-117626114D01*
X194160489Y-117523387D01*
X194076613Y-117439511D01*
X193973886Y-117380201D01*
X193859309Y-117349500D01*
X193740691Y-117349500D01*
X193626114Y-117380201D01*
X193626112Y-117380201D01*
X193626112Y-117380202D01*
X193523387Y-117439511D01*
X193523384Y-117439513D01*
X193439513Y-117523384D01*
X193439511Y-117523387D01*
X193380201Y-117626114D01*
X193349500Y-117740691D01*
X146200500Y-117740691D01*
X146200500Y-116690691D01*
X161874500Y-116690691D01*
X161874500Y-116809309D01*
X161905201Y-116923886D01*
X161964511Y-117026613D01*
X162048387Y-117110489D01*
X162151114Y-117169799D01*
X162265691Y-117200500D01*
X162265694Y-117200500D01*
X162384306Y-117200500D01*
X162384309Y-117200500D01*
X162498886Y-117169799D01*
X162601613Y-117110489D01*
X162675951Y-117036150D01*
X162737270Y-117002668D01*
X162806962Y-117007652D01*
X162858715Y-117045914D01*
X162858764Y-117045866D01*
X162859084Y-117046186D01*
X162862000Y-117048342D01*
X162864507Y-117051609D01*
X162864510Y-117051612D01*
X162864511Y-117051613D01*
X162948387Y-117135489D01*
X163051114Y-117194799D01*
X163165691Y-117225500D01*
X163165694Y-117225500D01*
X163284306Y-117225500D01*
X163284309Y-117225500D01*
X163398886Y-117194799D01*
X163501613Y-117135489D01*
X163585489Y-117051613D01*
X163644799Y-116948886D01*
X163675500Y-116834309D01*
X163675500Y-116715691D01*
X163644799Y-116601114D01*
X163597715Y-116519562D01*
X163585493Y-116498393D01*
X163585490Y-116498390D01*
X163585489Y-116498387D01*
X163552793Y-116465691D01*
X179678268Y-116465691D01*
X179678268Y-116584309D01*
X179708969Y-116698886D01*
X179768279Y-116801613D01*
X179852155Y-116885489D01*
X179954882Y-116944799D01*
X180069459Y-116975500D01*
X180069462Y-116975500D01*
X180188074Y-116975500D01*
X180188077Y-116975500D01*
X180302654Y-116944799D01*
X180405381Y-116885489D01*
X180489257Y-116801613D01*
X180548567Y-116698886D01*
X180579268Y-116584309D01*
X180579268Y-116540691D01*
X194449500Y-116540691D01*
X194449500Y-116659309D01*
X194480201Y-116773886D01*
X194539511Y-116876613D01*
X194623387Y-116960489D01*
X194726114Y-117019799D01*
X194840691Y-117050500D01*
X194840694Y-117050500D01*
X194959306Y-117050500D01*
X194959309Y-117050500D01*
X195073886Y-117019799D01*
X195176613Y-116960489D01*
X195260489Y-116876613D01*
X195319799Y-116773886D01*
X195350500Y-116659309D01*
X195350500Y-116540691D01*
X195319799Y-116426114D01*
X195260489Y-116323387D01*
X195176613Y-116239511D01*
X195073886Y-116180201D01*
X194959309Y-116149500D01*
X194840691Y-116149500D01*
X194726114Y-116180201D01*
X194726112Y-116180201D01*
X194726112Y-116180202D01*
X194623387Y-116239511D01*
X194623384Y-116239513D01*
X194539513Y-116323384D01*
X194539511Y-116323387D01*
X194480201Y-116426114D01*
X194449500Y-116540691D01*
X180579268Y-116540691D01*
X180579268Y-116465691D01*
X180548567Y-116351114D01*
X180489257Y-116248387D01*
X180405381Y-116164511D01*
X180302654Y-116105201D01*
X180188077Y-116074500D01*
X180069459Y-116074500D01*
X179954882Y-116105201D01*
X179954880Y-116105201D01*
X179954880Y-116105202D01*
X179852155Y-116164511D01*
X179852152Y-116164513D01*
X179768281Y-116248384D01*
X179768279Y-116248387D01*
X179708969Y-116351114D01*
X179678268Y-116465691D01*
X163552793Y-116465691D01*
X163501613Y-116414511D01*
X163398886Y-116355201D01*
X163284309Y-116324500D01*
X163165691Y-116324500D01*
X163051114Y-116355201D01*
X163051112Y-116355201D01*
X163051112Y-116355202D01*
X162948387Y-116414511D01*
X162874051Y-116488847D01*
X162812727Y-116522331D01*
X162743036Y-116517346D01*
X162691284Y-116479085D01*
X162691236Y-116479134D01*
X162690913Y-116478811D01*
X162687998Y-116476656D01*
X162685490Y-116473388D01*
X162601615Y-116389513D01*
X162601613Y-116389511D01*
X162498886Y-116330201D01*
X162384309Y-116299500D01*
X162265691Y-116299500D01*
X162151114Y-116330201D01*
X162151112Y-116330201D01*
X162151112Y-116330202D01*
X162048387Y-116389511D01*
X162048384Y-116389513D01*
X161964513Y-116473384D01*
X161964511Y-116473387D01*
X161925652Y-116540693D01*
X161905201Y-116576114D01*
X161874500Y-116690691D01*
X146200500Y-116690691D01*
X146200500Y-115115691D01*
X161974500Y-115115691D01*
X161974500Y-115234309D01*
X162005201Y-115348886D01*
X162064511Y-115451613D01*
X162148387Y-115535489D01*
X162251114Y-115594799D01*
X162365691Y-115625500D01*
X162365694Y-115625500D01*
X162484306Y-115625500D01*
X162484309Y-115625500D01*
X162598886Y-115594799D01*
X162701613Y-115535489D01*
X162785489Y-115451613D01*
X162791795Y-115440691D01*
X184549500Y-115440691D01*
X184549500Y-115559309D01*
X184580201Y-115673886D01*
X184639511Y-115776613D01*
X184723387Y-115860489D01*
X184826114Y-115919799D01*
X184940691Y-115950500D01*
X184940694Y-115950500D01*
X185059306Y-115950500D01*
X185059309Y-115950500D01*
X185173886Y-115919799D01*
X185276613Y-115860489D01*
X185360489Y-115776613D01*
X185419799Y-115673886D01*
X185450500Y-115559309D01*
X185450500Y-115440691D01*
X185419799Y-115326114D01*
X185360489Y-115223387D01*
X185276613Y-115139511D01*
X185173886Y-115080201D01*
X185059309Y-115049500D01*
X184940691Y-115049500D01*
X184826114Y-115080201D01*
X184826112Y-115080201D01*
X184826112Y-115080202D01*
X184723387Y-115139511D01*
X184723384Y-115139513D01*
X184639513Y-115223384D01*
X184639511Y-115223387D01*
X184580201Y-115326114D01*
X184549500Y-115440691D01*
X162791795Y-115440691D01*
X162832285Y-115370563D01*
X162832285Y-115370562D01*
X162844796Y-115348893D01*
X162844797Y-115348890D01*
X162844798Y-115348887D01*
X162844799Y-115348886D01*
X162875500Y-115234309D01*
X162875500Y-115115691D01*
X162844799Y-115001114D01*
X162785489Y-114898387D01*
X162701613Y-114814511D01*
X162598886Y-114755201D01*
X162484309Y-114724500D01*
X162365691Y-114724500D01*
X162251114Y-114755201D01*
X162251112Y-114755201D01*
X162251112Y-114755202D01*
X162148387Y-114814511D01*
X162148384Y-114814513D01*
X162064513Y-114898384D01*
X162064511Y-114898387D01*
X162005201Y-115001114D01*
X161974500Y-115115691D01*
X146200500Y-115115691D01*
X146200500Y-114135837D01*
X203299500Y-114135837D01*
X203299500Y-114364162D01*
X203335215Y-114589660D01*
X203405770Y-114806803D01*
X203504776Y-115001112D01*
X203509421Y-115010228D01*
X203643621Y-115194937D01*
X203805063Y-115356379D01*
X203989772Y-115490579D01*
X204077907Y-115535486D01*
X204193196Y-115594229D01*
X204193198Y-115594229D01*
X204193201Y-115594231D01*
X204289437Y-115625500D01*
X204410339Y-115664784D01*
X204635838Y-115700500D01*
X204635843Y-115700500D01*
X204864162Y-115700500D01*
X205089660Y-115664784D01*
X205306799Y-115594231D01*
X205510228Y-115490579D01*
X205694937Y-115356379D01*
X205856379Y-115194937D01*
X205871870Y-115173615D01*
X215924500Y-115173615D01*
X215924500Y-115326384D01*
X215954300Y-115476197D01*
X215954302Y-115476205D01*
X216012759Y-115617334D01*
X216012764Y-115617343D01*
X216097629Y-115744351D01*
X216097632Y-115744355D01*
X216205644Y-115852367D01*
X216205648Y-115852370D01*
X216332656Y-115937235D01*
X216332662Y-115937238D01*
X216332663Y-115937239D01*
X216473795Y-115995698D01*
X216623615Y-116025499D01*
X216623619Y-116025500D01*
X216623620Y-116025500D01*
X216776381Y-116025500D01*
X216776382Y-116025499D01*
X216926205Y-115995698D01*
X217067337Y-115937239D01*
X217194352Y-115852370D01*
X217302370Y-115744352D01*
X217387239Y-115617337D01*
X217445698Y-115476205D01*
X217475500Y-115326380D01*
X217475500Y-115173620D01*
X217474202Y-115167094D01*
X217474202Y-115167091D01*
X217470602Y-115148992D01*
X236474500Y-115148992D01*
X236474500Y-115351007D01*
X236513907Y-115549119D01*
X236513909Y-115549127D01*
X236591212Y-115735752D01*
X236591217Y-115735762D01*
X236703441Y-115903718D01*
X236846281Y-116046558D01*
X237014237Y-116158782D01*
X237014241Y-116158784D01*
X237014244Y-116158786D01*
X237200873Y-116236091D01*
X237398992Y-116275499D01*
X237398996Y-116275500D01*
X237398997Y-116275500D01*
X237601004Y-116275500D01*
X237601005Y-116275499D01*
X237799127Y-116236091D01*
X237985756Y-116158786D01*
X238153718Y-116046558D01*
X238296558Y-115903718D01*
X238408786Y-115735756D01*
X238486091Y-115549127D01*
X238525500Y-115351003D01*
X238525500Y-115148997D01*
X238486091Y-114950873D01*
X238408786Y-114764244D01*
X238408784Y-114764241D01*
X238408782Y-114764237D01*
X238296558Y-114596281D01*
X238153718Y-114453441D01*
X237985762Y-114341217D01*
X237985752Y-114341212D01*
X237799127Y-114263909D01*
X237799119Y-114263907D01*
X237601007Y-114224500D01*
X237601003Y-114224500D01*
X237398997Y-114224500D01*
X237398992Y-114224500D01*
X237200880Y-114263907D01*
X237200872Y-114263909D01*
X237014247Y-114341212D01*
X237014237Y-114341217D01*
X236846281Y-114453441D01*
X236703441Y-114596281D01*
X236591217Y-114764237D01*
X236591212Y-114764247D01*
X236513909Y-114950872D01*
X236513907Y-114950880D01*
X236474500Y-115148992D01*
X217470602Y-115148992D01*
X217445699Y-115023802D01*
X217445698Y-115023795D01*
X217387239Y-114882663D01*
X217387238Y-114882662D01*
X217387235Y-114882656D01*
X217302370Y-114755648D01*
X217302367Y-114755644D01*
X217194355Y-114647632D01*
X217194351Y-114647629D01*
X217067343Y-114562764D01*
X217067333Y-114562759D01*
X217029589Y-114547125D01*
X216926205Y-114504302D01*
X216926197Y-114504300D01*
X216776384Y-114474500D01*
X216776380Y-114474500D01*
X216623620Y-114474500D01*
X216623615Y-114474500D01*
X216473802Y-114504300D01*
X216473794Y-114504302D01*
X216332665Y-114562759D01*
X216332656Y-114562764D01*
X216205648Y-114647629D01*
X216205644Y-114647632D01*
X216097632Y-114755644D01*
X216097629Y-114755648D01*
X216012764Y-114882656D01*
X216012759Y-114882665D01*
X215954302Y-115023794D01*
X215954300Y-115023802D01*
X215924500Y-115173615D01*
X205871870Y-115173615D01*
X205990579Y-115010228D01*
X206094231Y-114806799D01*
X206164784Y-114589660D01*
X206171521Y-114547125D01*
X206188379Y-114440691D01*
X230049500Y-114440691D01*
X230049500Y-114559309D01*
X230080201Y-114673886D01*
X230139511Y-114776613D01*
X230223387Y-114860489D01*
X230326114Y-114919799D01*
X230440691Y-114950500D01*
X230440694Y-114950500D01*
X230559306Y-114950500D01*
X230559309Y-114950500D01*
X230673886Y-114919799D01*
X230776613Y-114860489D01*
X230860489Y-114776613D01*
X230919799Y-114673886D01*
X230950500Y-114559309D01*
X230950500Y-114440691D01*
X230919799Y-114326114D01*
X230860489Y-114223387D01*
X230776613Y-114139511D01*
X230673886Y-114080201D01*
X230559309Y-114049500D01*
X230440691Y-114049500D01*
X230326114Y-114080201D01*
X230326112Y-114080201D01*
X230326112Y-114080202D01*
X230223387Y-114139511D01*
X230223384Y-114139513D01*
X230139513Y-114223384D01*
X230139511Y-114223387D01*
X230116117Y-114263907D01*
X230080201Y-114326114D01*
X230049500Y-114440691D01*
X206188379Y-114440691D01*
X206200500Y-114364162D01*
X206200500Y-114135837D01*
X206164784Y-113910339D01*
X206094229Y-113693196D01*
X205990578Y-113489771D01*
X205962046Y-113450500D01*
X205856379Y-113305063D01*
X205694937Y-113143621D01*
X205510228Y-113009421D01*
X205306803Y-112905770D01*
X205089660Y-112835215D01*
X204864162Y-112799500D01*
X204864157Y-112799500D01*
X204635843Y-112799500D01*
X204635838Y-112799500D01*
X204410339Y-112835215D01*
X204193196Y-112905770D01*
X203989771Y-113009421D01*
X203805061Y-113143622D01*
X203643622Y-113305061D01*
X203509421Y-113489771D01*
X203405770Y-113693196D01*
X203335215Y-113910339D01*
X203299500Y-114135837D01*
X146200500Y-114135837D01*
X146200500Y-112815691D01*
X157874500Y-112815691D01*
X157874500Y-112934309D01*
X157905201Y-113048886D01*
X157964511Y-113151613D01*
X158048387Y-113235489D01*
X158151114Y-113294799D01*
X158265691Y-113325500D01*
X158265694Y-113325500D01*
X158384306Y-113325500D01*
X158384309Y-113325500D01*
X158498886Y-113294799D01*
X158601613Y-113235489D01*
X158685489Y-113151613D01*
X158744799Y-113048886D01*
X158773790Y-112940691D01*
X159549500Y-112940691D01*
X159549500Y-113059309D01*
X159580201Y-113173886D01*
X159639511Y-113276613D01*
X159723387Y-113360489D01*
X159826114Y-113419799D01*
X159940691Y-113450500D01*
X159940694Y-113450500D01*
X160059306Y-113450500D01*
X160059309Y-113450500D01*
X160173886Y-113419799D01*
X160276613Y-113360489D01*
X160360489Y-113276613D01*
X160419799Y-113173886D01*
X160450500Y-113059309D01*
X160450500Y-112940691D01*
X161049500Y-112940691D01*
X161049500Y-113059309D01*
X161080201Y-113173886D01*
X161139511Y-113276613D01*
X161223387Y-113360489D01*
X161326114Y-113419799D01*
X161440691Y-113450500D01*
X161440694Y-113450500D01*
X161559306Y-113450500D01*
X161559309Y-113450500D01*
X161595916Y-113440691D01*
X181299500Y-113440691D01*
X181299500Y-113559309D01*
X181330201Y-113673886D01*
X181389511Y-113776613D01*
X181473387Y-113860489D01*
X181576114Y-113919799D01*
X181690691Y-113950500D01*
X181690694Y-113950500D01*
X181809306Y-113950500D01*
X181809309Y-113950500D01*
X181923886Y-113919799D01*
X182026613Y-113860489D01*
X182110489Y-113776613D01*
X182169799Y-113673886D01*
X182200500Y-113559309D01*
X182200500Y-113440691D01*
X182169799Y-113326114D01*
X182110489Y-113223387D01*
X182026613Y-113139511D01*
X181923886Y-113080201D01*
X181819901Y-113052338D01*
X181816352Y-113051387D01*
X181809309Y-113049500D01*
X181690691Y-113049500D01*
X181576114Y-113080201D01*
X181576112Y-113080201D01*
X181576112Y-113080202D01*
X181473387Y-113139511D01*
X181473384Y-113139513D01*
X181389513Y-113223384D01*
X181389511Y-113223387D01*
X181358780Y-113276615D01*
X181330201Y-113326114D01*
X181299500Y-113440691D01*
X161595916Y-113440691D01*
X161673886Y-113419799D01*
X161776613Y-113360489D01*
X161860489Y-113276613D01*
X161919799Y-113173886D01*
X161950500Y-113059309D01*
X161950500Y-112940691D01*
X193299500Y-112940691D01*
X193299500Y-113059309D01*
X193330201Y-113173886D01*
X193389511Y-113276613D01*
X193473387Y-113360489D01*
X193576114Y-113419799D01*
X193690691Y-113450500D01*
X193690694Y-113450500D01*
X193809306Y-113450500D01*
X193809309Y-113450500D01*
X193923886Y-113419799D01*
X194026613Y-113360489D01*
X194110489Y-113276613D01*
X194169799Y-113173886D01*
X194200500Y-113059309D01*
X194200500Y-112940691D01*
X194169799Y-112826114D01*
X194110489Y-112723387D01*
X194026613Y-112639511D01*
X193923886Y-112580201D01*
X193809309Y-112549500D01*
X193690691Y-112549500D01*
X193576114Y-112580201D01*
X193576112Y-112580201D01*
X193576112Y-112580202D01*
X193473387Y-112639511D01*
X193473384Y-112639513D01*
X193389513Y-112723384D01*
X193389511Y-112723387D01*
X193336218Y-112815693D01*
X193330201Y-112826114D01*
X193299500Y-112940691D01*
X161950500Y-112940691D01*
X161919799Y-112826114D01*
X161860489Y-112723387D01*
X161776613Y-112639511D01*
X161673886Y-112580201D01*
X161559309Y-112549500D01*
X161440691Y-112549500D01*
X161326114Y-112580201D01*
X161326112Y-112580201D01*
X161326112Y-112580202D01*
X161223387Y-112639511D01*
X161223384Y-112639513D01*
X161139513Y-112723384D01*
X161139511Y-112723387D01*
X161086218Y-112815693D01*
X161080201Y-112826114D01*
X161049500Y-112940691D01*
X160450500Y-112940691D01*
X160419799Y-112826114D01*
X160360489Y-112723387D01*
X160276613Y-112639511D01*
X160173886Y-112580201D01*
X160059309Y-112549500D01*
X159940691Y-112549500D01*
X159826114Y-112580201D01*
X159826112Y-112580201D01*
X159826112Y-112580202D01*
X159723387Y-112639511D01*
X159723384Y-112639513D01*
X159639513Y-112723384D01*
X159639511Y-112723387D01*
X159586218Y-112815693D01*
X159580201Y-112826114D01*
X159549500Y-112940691D01*
X158773790Y-112940691D01*
X158775500Y-112934309D01*
X158775500Y-112815691D01*
X158744799Y-112701114D01*
X158685489Y-112598387D01*
X158601613Y-112514511D01*
X158498886Y-112455201D01*
X158384309Y-112424500D01*
X158265691Y-112424500D01*
X158151114Y-112455201D01*
X158151112Y-112455201D01*
X158151112Y-112455202D01*
X158048387Y-112514511D01*
X158048384Y-112514513D01*
X157964513Y-112598384D01*
X157964511Y-112598387D01*
X157905201Y-112701114D01*
X157874500Y-112815691D01*
X146200500Y-112815691D01*
X146200500Y-111615691D01*
X156099500Y-111615691D01*
X156099500Y-111734309D01*
X156130201Y-111848886D01*
X156189511Y-111951613D01*
X156273387Y-112035489D01*
X156376114Y-112094799D01*
X156490691Y-112125500D01*
X156490694Y-112125500D01*
X156609306Y-112125500D01*
X156609309Y-112125500D01*
X156723886Y-112094799D01*
X156826613Y-112035489D01*
X156910489Y-111951613D01*
X156969799Y-111848886D01*
X157000500Y-111734309D01*
X157000500Y-111640691D01*
X157574500Y-111640691D01*
X157574500Y-111759309D01*
X157605201Y-111873886D01*
X157664511Y-111976613D01*
X157748387Y-112060489D01*
X157851114Y-112119799D01*
X157965691Y-112150500D01*
X157965694Y-112150500D01*
X158084306Y-112150500D01*
X158084309Y-112150500D01*
X158198886Y-112119799D01*
X158301613Y-112060489D01*
X158385489Y-111976613D01*
X158444799Y-111873886D01*
X158475500Y-111759309D01*
X158475500Y-111640691D01*
X158444799Y-111526114D01*
X158385489Y-111423387D01*
X158301613Y-111339511D01*
X158198886Y-111280201D01*
X158084309Y-111249500D01*
X157965691Y-111249500D01*
X157851114Y-111280201D01*
X157851112Y-111280201D01*
X157851112Y-111280202D01*
X157748387Y-111339511D01*
X157748384Y-111339513D01*
X157664513Y-111423384D01*
X157664511Y-111423387D01*
X157605201Y-111526114D01*
X157574500Y-111640691D01*
X157000500Y-111640691D01*
X157000500Y-111615691D01*
X156969799Y-111501114D01*
X156910489Y-111398387D01*
X156826613Y-111314511D01*
X156723886Y-111255201D01*
X156609309Y-111224500D01*
X156490691Y-111224500D01*
X156376114Y-111255201D01*
X156376112Y-111255201D01*
X156376112Y-111255202D01*
X156273387Y-111314511D01*
X156273384Y-111314513D01*
X156189513Y-111398384D01*
X156189511Y-111398387D01*
X156130201Y-111501114D01*
X156099500Y-111615691D01*
X146200500Y-111615691D01*
X146200500Y-110440691D01*
X180049500Y-110440691D01*
X180049500Y-110559309D01*
X180080201Y-110673886D01*
X180139511Y-110776613D01*
X180223387Y-110860489D01*
X180326114Y-110919799D01*
X180440691Y-110950500D01*
X180440694Y-110950500D01*
X180559306Y-110950500D01*
X180559309Y-110950500D01*
X180595916Y-110940691D01*
X213549500Y-110940691D01*
X213549500Y-111059309D01*
X213580201Y-111173886D01*
X213639511Y-111276613D01*
X213723387Y-111360489D01*
X213826114Y-111419799D01*
X213940691Y-111450500D01*
X213940694Y-111450500D01*
X214059306Y-111450500D01*
X214059309Y-111450500D01*
X214173886Y-111419799D01*
X214276613Y-111360489D01*
X214360489Y-111276613D01*
X214419799Y-111173886D01*
X214450500Y-111059309D01*
X214450500Y-110940691D01*
X214419799Y-110826114D01*
X214360489Y-110723387D01*
X214276613Y-110639511D01*
X214173886Y-110580201D01*
X214069901Y-110552338D01*
X214066352Y-110551387D01*
X214059309Y-110549500D01*
X213940691Y-110549500D01*
X213826114Y-110580201D01*
X213826112Y-110580201D01*
X213826112Y-110580202D01*
X213723387Y-110639511D01*
X213723384Y-110639513D01*
X213639513Y-110723384D01*
X213639511Y-110723387D01*
X213608780Y-110776615D01*
X213580201Y-110826114D01*
X213549500Y-110940691D01*
X180595916Y-110940691D01*
X180673886Y-110919799D01*
X180776613Y-110860489D01*
X180860489Y-110776613D01*
X180919799Y-110673886D01*
X180950500Y-110559309D01*
X180950500Y-110440691D01*
X217049500Y-110440691D01*
X217049500Y-110559309D01*
X217080201Y-110673886D01*
X217139511Y-110776613D01*
X217223387Y-110860489D01*
X217326114Y-110919799D01*
X217440691Y-110950500D01*
X217440694Y-110950500D01*
X217559306Y-110950500D01*
X217559309Y-110950500D01*
X217595916Y-110940691D01*
X230549500Y-110940691D01*
X230549500Y-111059309D01*
X230580201Y-111173886D01*
X230639511Y-111276613D01*
X230723387Y-111360489D01*
X230826114Y-111419799D01*
X230940691Y-111450500D01*
X230940694Y-111450500D01*
X231059306Y-111450500D01*
X231059309Y-111450500D01*
X231173886Y-111419799D01*
X231276613Y-111360489D01*
X231360489Y-111276613D01*
X231419799Y-111173886D01*
X231450500Y-111059309D01*
X231450500Y-110940691D01*
X231445626Y-110922500D01*
X239013267Y-110922500D01*
X239013267Y-111041118D01*
X239043968Y-111155695D01*
X239103278Y-111258422D01*
X239187154Y-111342298D01*
X239289881Y-111401608D01*
X239404458Y-111432309D01*
X239404461Y-111432309D01*
X239523073Y-111432309D01*
X239523076Y-111432309D01*
X239637653Y-111401608D01*
X239740380Y-111342298D01*
X239824256Y-111258422D01*
X239883566Y-111155695D01*
X239914267Y-111041118D01*
X239914267Y-110922500D01*
X239883566Y-110807923D01*
X239824256Y-110705196D01*
X239740380Y-110621320D01*
X239637653Y-110562010D01*
X239523076Y-110531309D01*
X239404458Y-110531309D01*
X239289881Y-110562010D01*
X239289879Y-110562010D01*
X239289879Y-110562011D01*
X239187154Y-110621320D01*
X239187151Y-110621322D01*
X239103280Y-110705193D01*
X239103278Y-110705196D01*
X239062046Y-110776612D01*
X239043968Y-110807923D01*
X239013267Y-110922500D01*
X231445626Y-110922500D01*
X231419799Y-110826114D01*
X231360489Y-110723387D01*
X231276613Y-110639511D01*
X231173886Y-110580201D01*
X231059309Y-110549500D01*
X230940691Y-110549500D01*
X230826114Y-110580201D01*
X230826112Y-110580201D01*
X230826112Y-110580202D01*
X230723387Y-110639511D01*
X230723384Y-110639513D01*
X230639513Y-110723384D01*
X230639511Y-110723387D01*
X230608780Y-110776615D01*
X230580201Y-110826114D01*
X230549500Y-110940691D01*
X217595916Y-110940691D01*
X217673886Y-110919799D01*
X217776613Y-110860489D01*
X217860489Y-110776613D01*
X217919799Y-110673886D01*
X217950500Y-110559309D01*
X217950500Y-110440691D01*
X217919799Y-110326114D01*
X217860489Y-110223387D01*
X217776613Y-110139511D01*
X217673886Y-110080201D01*
X217559309Y-110049500D01*
X217440691Y-110049500D01*
X217326114Y-110080201D01*
X217326112Y-110080201D01*
X217326112Y-110080202D01*
X217223387Y-110139511D01*
X217223384Y-110139513D01*
X217139513Y-110223384D01*
X217139511Y-110223387D01*
X217080201Y-110326114D01*
X217049500Y-110440691D01*
X180950500Y-110440691D01*
X180919799Y-110326114D01*
X180860489Y-110223387D01*
X180776613Y-110139511D01*
X180673886Y-110080201D01*
X180559309Y-110049500D01*
X180440691Y-110049500D01*
X180326114Y-110080201D01*
X180326112Y-110080201D01*
X180326112Y-110080202D01*
X180223387Y-110139511D01*
X180223384Y-110139513D01*
X180139513Y-110223384D01*
X180139511Y-110223387D01*
X180080201Y-110326114D01*
X180049500Y-110440691D01*
X146200500Y-110440691D01*
X146200500Y-108540691D01*
X241449500Y-108540691D01*
X241449500Y-108659309D01*
X241480201Y-108773886D01*
X241539511Y-108876613D01*
X241623387Y-108960489D01*
X241726114Y-109019799D01*
X241840691Y-109050500D01*
X241840694Y-109050500D01*
X241959306Y-109050500D01*
X241959309Y-109050500D01*
X242073886Y-109019799D01*
X242176613Y-108960489D01*
X242260489Y-108876613D01*
X242319799Y-108773886D01*
X242350500Y-108659309D01*
X242350500Y-108540691D01*
X242319799Y-108426114D01*
X242260489Y-108323387D01*
X242176613Y-108239511D01*
X242073886Y-108180201D01*
X241959309Y-108149500D01*
X241840691Y-108149500D01*
X241726114Y-108180201D01*
X241726112Y-108180201D01*
X241726112Y-108180202D01*
X241623387Y-108239511D01*
X241623384Y-108239513D01*
X241539513Y-108323384D01*
X241539511Y-108323387D01*
X241518091Y-108360488D01*
X241480201Y-108426114D01*
X241449500Y-108540691D01*
X146200500Y-108540691D01*
X146200500Y-107690691D01*
X179549500Y-107690691D01*
X179549500Y-107809309D01*
X179580201Y-107923886D01*
X179639511Y-108026613D01*
X179723387Y-108110489D01*
X179826114Y-108169799D01*
X179940691Y-108200500D01*
X179940694Y-108200500D01*
X180059306Y-108200500D01*
X180059309Y-108200500D01*
X180173886Y-108169799D01*
X180276613Y-108110489D01*
X180360489Y-108026613D01*
X180410097Y-107940691D01*
X221549500Y-107940691D01*
X221549500Y-108059309D01*
X221580201Y-108173886D01*
X221639511Y-108276613D01*
X221723387Y-108360489D01*
X221826114Y-108419799D01*
X221940691Y-108450500D01*
X221940694Y-108450500D01*
X222059306Y-108450500D01*
X222059309Y-108450500D01*
X222173886Y-108419799D01*
X222276613Y-108360489D01*
X222360489Y-108276613D01*
X222419799Y-108173886D01*
X222450500Y-108059309D01*
X222450500Y-107940691D01*
X222419799Y-107826114D01*
X222360489Y-107723387D01*
X222276613Y-107639511D01*
X222173886Y-107580201D01*
X222059309Y-107549500D01*
X221940691Y-107549500D01*
X221826114Y-107580201D01*
X221826112Y-107580201D01*
X221826112Y-107580202D01*
X221723387Y-107639511D01*
X221723384Y-107639513D01*
X221639513Y-107723384D01*
X221639511Y-107723387D01*
X221589905Y-107809307D01*
X221580201Y-107826114D01*
X221549500Y-107940691D01*
X180410097Y-107940691D01*
X180419799Y-107923886D01*
X180450500Y-107809309D01*
X180450500Y-107690691D01*
X180419799Y-107576114D01*
X180360489Y-107473387D01*
X180276613Y-107389511D01*
X180173886Y-107330201D01*
X180059309Y-107299500D01*
X179940691Y-107299500D01*
X179826114Y-107330201D01*
X179826112Y-107330201D01*
X179826112Y-107330202D01*
X179723387Y-107389511D01*
X179723384Y-107389513D01*
X179639513Y-107473384D01*
X179639511Y-107473387D01*
X179580201Y-107576114D01*
X179549500Y-107690691D01*
X146200500Y-107690691D01*
X146200500Y-106440691D01*
X198049500Y-106440691D01*
X198049500Y-106559309D01*
X198080201Y-106673886D01*
X198139511Y-106776613D01*
X198223387Y-106860489D01*
X198326114Y-106919799D01*
X198440691Y-106950500D01*
X198440694Y-106950500D01*
X198559306Y-106950500D01*
X198559309Y-106950500D01*
X198673886Y-106919799D01*
X198776613Y-106860489D01*
X198860489Y-106776613D01*
X198919799Y-106673886D01*
X198950500Y-106559309D01*
X198950500Y-106440691D01*
X201549500Y-106440691D01*
X201549500Y-106559309D01*
X201580201Y-106673886D01*
X201639511Y-106776613D01*
X201723387Y-106860489D01*
X201826114Y-106919799D01*
X201940691Y-106950500D01*
X201940694Y-106950500D01*
X202059306Y-106950500D01*
X202059309Y-106950500D01*
X202173886Y-106919799D01*
X202276613Y-106860489D01*
X202360489Y-106776613D01*
X202419799Y-106673886D01*
X202450500Y-106559309D01*
X202450500Y-106440691D01*
X202419799Y-106326114D01*
X202360489Y-106223387D01*
X202276613Y-106139511D01*
X202173886Y-106080201D01*
X202059309Y-106049500D01*
X201940691Y-106049500D01*
X201826114Y-106080201D01*
X201826112Y-106080201D01*
X201826112Y-106080202D01*
X201723387Y-106139511D01*
X201723384Y-106139513D01*
X201639513Y-106223384D01*
X201639511Y-106223387D01*
X201580201Y-106326114D01*
X201549500Y-106440691D01*
X198950500Y-106440691D01*
X198919799Y-106326114D01*
X198860489Y-106223387D01*
X198776613Y-106139511D01*
X198673886Y-106080201D01*
X198559309Y-106049500D01*
X198440691Y-106049500D01*
X198326114Y-106080201D01*
X198326112Y-106080201D01*
X198326112Y-106080202D01*
X198223387Y-106139511D01*
X198223384Y-106139513D01*
X198139513Y-106223384D01*
X198139511Y-106223387D01*
X198080201Y-106326114D01*
X198049500Y-106440691D01*
X146200500Y-106440691D01*
X146200500Y-105440691D01*
X227549500Y-105440691D01*
X227549500Y-105559309D01*
X227580201Y-105673886D01*
X227639511Y-105776613D01*
X227723387Y-105860489D01*
X227826114Y-105919799D01*
X227940691Y-105950500D01*
X227940694Y-105950500D01*
X228059306Y-105950500D01*
X228059309Y-105950500D01*
X228173886Y-105919799D01*
X228276613Y-105860489D01*
X228360489Y-105776613D01*
X228419799Y-105673886D01*
X228450500Y-105559309D01*
X228450500Y-105440691D01*
X228419799Y-105326114D01*
X228360489Y-105223387D01*
X228276613Y-105139511D01*
X228173886Y-105080201D01*
X228059309Y-105049500D01*
X227940691Y-105049500D01*
X227826114Y-105080201D01*
X227826112Y-105080201D01*
X227826112Y-105080202D01*
X227723387Y-105139511D01*
X227723384Y-105139513D01*
X227639513Y-105223384D01*
X227639511Y-105223387D01*
X227580201Y-105326114D01*
X227549500Y-105440691D01*
X146200500Y-105440691D01*
X146200500Y-102440691D01*
X161049500Y-102440691D01*
X161049500Y-102559309D01*
X161080201Y-102673886D01*
X161139511Y-102776613D01*
X161223387Y-102860489D01*
X161326114Y-102919799D01*
X161440691Y-102950500D01*
X161440694Y-102950500D01*
X161559306Y-102950500D01*
X161559309Y-102950500D01*
X161595916Y-102940691D01*
X176049500Y-102940691D01*
X176049500Y-103059309D01*
X176080201Y-103173886D01*
X176139511Y-103276613D01*
X176223387Y-103360489D01*
X176326114Y-103419799D01*
X176440691Y-103450500D01*
X176440694Y-103450500D01*
X176559306Y-103450500D01*
X176559309Y-103450500D01*
X176595916Y-103440691D01*
X192049500Y-103440691D01*
X192049500Y-103559309D01*
X192080201Y-103673886D01*
X192139511Y-103776613D01*
X192223387Y-103860489D01*
X192326114Y-103919799D01*
X192440691Y-103950500D01*
X192440694Y-103950500D01*
X192559306Y-103950500D01*
X192559309Y-103950500D01*
X192673886Y-103919799D01*
X192776613Y-103860489D01*
X192860489Y-103776613D01*
X192919799Y-103673886D01*
X192950500Y-103559309D01*
X192950500Y-103440691D01*
X226549500Y-103440691D01*
X226549500Y-103559309D01*
X226580201Y-103673886D01*
X226639511Y-103776613D01*
X226723387Y-103860489D01*
X226826114Y-103919799D01*
X226940691Y-103950500D01*
X226940694Y-103950500D01*
X227059306Y-103950500D01*
X227059309Y-103950500D01*
X227095920Y-103940690D01*
X229049500Y-103940690D01*
X229049500Y-104059308D01*
X229080201Y-104173885D01*
X229139511Y-104276612D01*
X229223387Y-104360488D01*
X229326114Y-104419798D01*
X229440691Y-104450499D01*
X229440694Y-104450499D01*
X229559306Y-104450499D01*
X229559309Y-104450499D01*
X229673886Y-104419798D01*
X229776613Y-104360488D01*
X229860489Y-104276612D01*
X229919799Y-104173885D01*
X229950500Y-104059308D01*
X229950500Y-103940690D01*
X229919799Y-103826113D01*
X229860489Y-103723386D01*
X229776613Y-103639510D01*
X229673886Y-103580200D01*
X229559309Y-103549499D01*
X229440691Y-103549499D01*
X229326114Y-103580200D01*
X229326112Y-103580200D01*
X229326112Y-103580201D01*
X229223387Y-103639510D01*
X229223384Y-103639512D01*
X229139513Y-103723383D01*
X229139511Y-103723386D01*
X229080201Y-103826113D01*
X229049500Y-103940690D01*
X227095920Y-103940690D01*
X227173886Y-103919799D01*
X227276613Y-103860489D01*
X227360489Y-103776613D01*
X227419799Y-103673886D01*
X227450500Y-103559309D01*
X227450500Y-103440691D01*
X227419799Y-103326114D01*
X227360489Y-103223387D01*
X227276613Y-103139511D01*
X227173886Y-103080201D01*
X227059309Y-103049500D01*
X226940691Y-103049500D01*
X226826114Y-103080201D01*
X226826112Y-103080201D01*
X226826112Y-103080202D01*
X226723387Y-103139511D01*
X226723384Y-103139513D01*
X226639513Y-103223384D01*
X226639511Y-103223387D01*
X226608780Y-103276615D01*
X226580201Y-103326114D01*
X226549500Y-103440691D01*
X192950500Y-103440691D01*
X192919799Y-103326114D01*
X192860489Y-103223387D01*
X192776613Y-103139511D01*
X192673886Y-103080201D01*
X192559309Y-103049500D01*
X192440691Y-103049500D01*
X192326114Y-103080201D01*
X192326112Y-103080201D01*
X192326112Y-103080202D01*
X192223387Y-103139511D01*
X192223384Y-103139513D01*
X192139513Y-103223384D01*
X192139511Y-103223387D01*
X192108780Y-103276615D01*
X192080201Y-103326114D01*
X192049500Y-103440691D01*
X176595916Y-103440691D01*
X176673886Y-103419799D01*
X176776613Y-103360489D01*
X176860489Y-103276613D01*
X176919799Y-103173886D01*
X176950500Y-103059309D01*
X176950500Y-102940691D01*
X176919799Y-102826114D01*
X176860489Y-102723387D01*
X176776613Y-102639511D01*
X176673886Y-102580201D01*
X176559309Y-102549500D01*
X176440691Y-102549500D01*
X176326114Y-102580201D01*
X176326112Y-102580201D01*
X176326112Y-102580202D01*
X176223387Y-102639511D01*
X176223384Y-102639513D01*
X176139513Y-102723384D01*
X176139511Y-102723387D01*
X176108780Y-102776615D01*
X176080201Y-102826114D01*
X176049500Y-102940691D01*
X161595916Y-102940691D01*
X161673886Y-102919799D01*
X161776613Y-102860489D01*
X161860489Y-102776613D01*
X161919799Y-102673886D01*
X161950500Y-102559309D01*
X161950500Y-102440691D01*
X161919799Y-102326114D01*
X161860489Y-102223387D01*
X161776613Y-102139511D01*
X161673886Y-102080201D01*
X161559309Y-102049500D01*
X161440691Y-102049500D01*
X161326114Y-102080201D01*
X161326112Y-102080201D01*
X161326112Y-102080202D01*
X161223387Y-102139511D01*
X161223384Y-102139513D01*
X161139513Y-102223384D01*
X161139511Y-102223387D01*
X161108780Y-102276615D01*
X161080201Y-102326114D01*
X161049500Y-102440691D01*
X146200500Y-102440691D01*
X146200500Y-101440691D01*
X237049500Y-101440691D01*
X237049500Y-101559309D01*
X237080201Y-101673886D01*
X237139511Y-101776613D01*
X237223387Y-101860489D01*
X237326114Y-101919799D01*
X237440691Y-101950500D01*
X237440694Y-101950500D01*
X237559306Y-101950500D01*
X237559309Y-101950500D01*
X237595916Y-101940691D01*
X239549500Y-101940691D01*
X239549500Y-102059309D01*
X239580201Y-102173886D01*
X239639511Y-102276613D01*
X239723387Y-102360489D01*
X239826114Y-102419799D01*
X239940691Y-102450500D01*
X239940694Y-102450500D01*
X240059306Y-102450500D01*
X240059309Y-102450500D01*
X240173886Y-102419799D01*
X240276613Y-102360489D01*
X240360489Y-102276613D01*
X240419799Y-102173886D01*
X240450500Y-102059309D01*
X240450500Y-101940691D01*
X240419799Y-101826114D01*
X240360489Y-101723387D01*
X240276613Y-101639511D01*
X240173886Y-101580201D01*
X240059309Y-101549500D01*
X239940691Y-101549500D01*
X239826114Y-101580201D01*
X239826112Y-101580201D01*
X239826112Y-101580202D01*
X239723387Y-101639511D01*
X239723384Y-101639513D01*
X239639513Y-101723384D01*
X239639511Y-101723387D01*
X239608780Y-101776615D01*
X239580201Y-101826114D01*
X239549500Y-101940691D01*
X237595916Y-101940691D01*
X237673886Y-101919799D01*
X237776613Y-101860489D01*
X237860489Y-101776613D01*
X237919799Y-101673886D01*
X237950500Y-101559309D01*
X237950500Y-101440691D01*
X237919799Y-101326114D01*
X237860489Y-101223387D01*
X237776613Y-101139511D01*
X237673886Y-101080201D01*
X237559309Y-101049500D01*
X237440691Y-101049500D01*
X237326114Y-101080201D01*
X237326112Y-101080201D01*
X237326112Y-101080202D01*
X237223387Y-101139511D01*
X237223384Y-101139513D01*
X237139513Y-101223384D01*
X237139511Y-101223387D01*
X237080201Y-101326114D01*
X237049500Y-101440691D01*
X146200500Y-101440691D01*
X146200500Y-100440691D01*
X238085086Y-100440691D01*
X238085086Y-100559309D01*
X238115787Y-100673886D01*
X238175097Y-100776613D01*
X238258973Y-100860489D01*
X238361700Y-100919799D01*
X238476277Y-100950500D01*
X238476280Y-100950500D01*
X238594892Y-100950500D01*
X238594895Y-100950500D01*
X238709472Y-100919799D01*
X238812199Y-100860489D01*
X238896075Y-100776613D01*
X238955385Y-100673886D01*
X238986086Y-100559309D01*
X238986086Y-100440691D01*
X238955385Y-100326114D01*
X238896075Y-100223387D01*
X238812199Y-100139511D01*
X238709472Y-100080201D01*
X238605487Y-100052338D01*
X238601938Y-100051387D01*
X238594895Y-100049500D01*
X238476277Y-100049500D01*
X238361700Y-100080201D01*
X238361698Y-100080201D01*
X238361698Y-100080202D01*
X238258973Y-100139511D01*
X238258970Y-100139513D01*
X238175099Y-100223384D01*
X238175097Y-100223387D01*
X238144366Y-100276615D01*
X238115787Y-100326114D01*
X238085086Y-100440691D01*
X146200500Y-100440691D01*
X146200500Y-98940691D01*
X225549500Y-98940691D01*
X225549500Y-99059309D01*
X225580201Y-99173886D01*
X225639511Y-99276613D01*
X225723387Y-99360489D01*
X225826114Y-99419799D01*
X225940691Y-99450500D01*
X225940694Y-99450500D01*
X226059306Y-99450500D01*
X226059309Y-99450500D01*
X226173886Y-99419799D01*
X226276613Y-99360489D01*
X226360489Y-99276613D01*
X226419799Y-99173886D01*
X226450500Y-99059309D01*
X226450500Y-98940691D01*
X226419799Y-98826114D01*
X226360489Y-98723387D01*
X226276613Y-98639511D01*
X226173886Y-98580201D01*
X226059309Y-98549500D01*
X225940691Y-98549500D01*
X225826114Y-98580201D01*
X225826112Y-98580201D01*
X225826112Y-98580202D01*
X225723387Y-98639511D01*
X225723384Y-98639513D01*
X225639513Y-98723384D01*
X225639511Y-98723387D01*
X225582419Y-98822273D01*
X225580201Y-98826114D01*
X225549500Y-98940691D01*
X146200500Y-98940691D01*
X146200500Y-97360837D01*
X148349500Y-97360837D01*
X148349500Y-97589162D01*
X148385215Y-97814660D01*
X148455770Y-98031803D01*
X148526396Y-98170413D01*
X148559421Y-98235228D01*
X148693621Y-98419937D01*
X148855063Y-98581379D01*
X149039772Y-98715579D01*
X149097116Y-98744797D01*
X149243196Y-98819229D01*
X149243198Y-98819229D01*
X149243201Y-98819231D01*
X149317438Y-98843352D01*
X149460339Y-98889784D01*
X149685838Y-98925500D01*
X149685843Y-98925500D01*
X149914162Y-98925500D01*
X150139660Y-98889784D01*
X150356799Y-98819231D01*
X150560228Y-98715579D01*
X150744937Y-98581379D01*
X150906379Y-98419937D01*
X151040579Y-98235228D01*
X151144231Y-98031799D01*
X151196557Y-97870759D01*
X157695500Y-97870759D01*
X157695500Y-98029240D01*
X157726414Y-98184656D01*
X157726416Y-98184664D01*
X157787059Y-98331071D01*
X157787064Y-98331080D01*
X157875103Y-98462838D01*
X157875106Y-98462842D01*
X157987157Y-98574893D01*
X157987161Y-98574896D01*
X158118919Y-98662935D01*
X158118928Y-98662940D01*
X158152095Y-98676678D01*
X158265336Y-98723584D01*
X158420759Y-98754499D01*
X158420763Y-98754500D01*
X158420764Y-98754500D01*
X158579237Y-98754500D01*
X158579238Y-98754499D01*
X158734664Y-98723584D01*
X158881074Y-98662939D01*
X159012839Y-98574896D01*
X159124896Y-98462839D01*
X159212939Y-98331074D01*
X159212940Y-98331069D01*
X159212944Y-98331064D01*
X159240021Y-98265693D01*
X159240022Y-98265691D01*
X166874500Y-98265691D01*
X166874500Y-98384309D01*
X166905201Y-98498886D01*
X166964511Y-98601613D01*
X167048387Y-98685489D01*
X167151114Y-98744799D01*
X167265691Y-98775500D01*
X167265694Y-98775500D01*
X167384306Y-98775500D01*
X167384309Y-98775500D01*
X167498886Y-98744799D01*
X167601613Y-98685489D01*
X167685489Y-98601613D01*
X167744799Y-98498886D01*
X167775500Y-98384309D01*
X167775500Y-98265691D01*
X167773736Y-98259108D01*
X232409500Y-98259108D01*
X232409500Y-98390891D01*
X232443608Y-98518187D01*
X232451656Y-98532126D01*
X232509500Y-98632314D01*
X232602686Y-98725500D01*
X232716814Y-98791392D01*
X232775023Y-98806989D01*
X232834683Y-98843352D01*
X232865213Y-98906199D01*
X232856919Y-98975574D01*
X232812434Y-99029453D01*
X232775027Y-99046537D01*
X232755414Y-99051792D01*
X232755410Y-99051794D01*
X232664085Y-99104521D01*
X232589521Y-99179085D01*
X232536794Y-99270410D01*
X232536793Y-99270413D01*
X232509500Y-99372273D01*
X232509500Y-99477727D01*
X232536793Y-99579587D01*
X232589520Y-99670913D01*
X232664087Y-99745480D01*
X232755413Y-99798207D01*
X232857273Y-99825500D01*
X232857275Y-99825500D01*
X232935500Y-99825500D01*
X233002539Y-99845185D01*
X233048294Y-99897989D01*
X233059500Y-99949500D01*
X233059500Y-100027727D01*
X233086793Y-100129587D01*
X233139520Y-100220913D01*
X233214087Y-100295480D01*
X233305413Y-100348207D01*
X233407273Y-100375500D01*
X233407275Y-100375500D01*
X233512725Y-100375500D01*
X233512727Y-100375500D01*
X233614587Y-100348207D01*
X233705913Y-100295480D01*
X233780480Y-100220913D01*
X233833207Y-100129587D01*
X233860500Y-100027727D01*
X233860500Y-99949500D01*
X233863050Y-99940814D01*
X233861762Y-99931853D01*
X233872740Y-99907812D01*
X233880185Y-99882461D01*
X233887025Y-99876533D01*
X233890787Y-99868297D01*
X233913021Y-99854007D01*
X233932989Y-99836706D01*
X233943503Y-99834418D01*
X233949565Y-99830523D01*
X233984500Y-99825500D01*
X234035500Y-99825500D01*
X234102539Y-99845185D01*
X234148294Y-99897989D01*
X234159500Y-99949500D01*
X234159500Y-100027727D01*
X234186793Y-100129587D01*
X234239520Y-100220913D01*
X234314087Y-100295480D01*
X234405413Y-100348207D01*
X234507273Y-100375500D01*
X234507275Y-100375500D01*
X234612725Y-100375500D01*
X234612727Y-100375500D01*
X234714587Y-100348207D01*
X234805913Y-100295480D01*
X234880480Y-100220913D01*
X234933207Y-100129587D01*
X234960500Y-100027727D01*
X234960500Y-99949500D01*
X234963087Y-99940691D01*
X239549500Y-99940691D01*
X239549500Y-100059309D01*
X239580201Y-100173886D01*
X239639511Y-100276613D01*
X239723387Y-100360489D01*
X239826114Y-100419799D01*
X239940691Y-100450500D01*
X239940694Y-100450500D01*
X240059306Y-100450500D01*
X240059309Y-100450500D01*
X240173886Y-100419799D01*
X240276613Y-100360489D01*
X240360489Y-100276613D01*
X240419799Y-100173886D01*
X240450500Y-100059309D01*
X240450500Y-99940691D01*
X240419799Y-99826114D01*
X240360489Y-99723387D01*
X240276613Y-99639511D01*
X240173886Y-99580201D01*
X240059309Y-99549500D01*
X239940691Y-99549500D01*
X239826114Y-99580201D01*
X239826112Y-99580201D01*
X239826112Y-99580202D01*
X239723387Y-99639511D01*
X239723384Y-99639513D01*
X239639513Y-99723384D01*
X239639511Y-99723387D01*
X239583493Y-99820413D01*
X239580201Y-99826114D01*
X239549500Y-99940691D01*
X234963087Y-99940691D01*
X234980185Y-99882461D01*
X235032989Y-99836706D01*
X235084500Y-99825500D01*
X235162725Y-99825500D01*
X235162727Y-99825500D01*
X235264587Y-99798207D01*
X235355913Y-99745480D01*
X235430480Y-99670913D01*
X235483207Y-99579587D01*
X235510500Y-99477727D01*
X235510500Y-99372273D01*
X235483207Y-99270413D01*
X235430480Y-99179087D01*
X235355913Y-99104520D01*
X235264587Y-99051793D01*
X235162727Y-99024500D01*
X235084500Y-99024500D01*
X235075814Y-99021949D01*
X235066853Y-99023238D01*
X235042812Y-99012259D01*
X235017461Y-99004815D01*
X235011533Y-98997974D01*
X235003297Y-98994213D01*
X234989007Y-98971978D01*
X234971706Y-98952011D01*
X234969418Y-98941496D01*
X234965523Y-98935435D01*
X234960500Y-98900500D01*
X234960500Y-98849500D01*
X234980185Y-98782461D01*
X235032989Y-98736706D01*
X235084500Y-98725500D01*
X235162725Y-98725500D01*
X235162727Y-98725500D01*
X235264587Y-98698207D01*
X235355913Y-98645480D01*
X235430480Y-98570913D01*
X235483207Y-98479587D01*
X235510500Y-98377727D01*
X235510500Y-98272273D01*
X235483207Y-98170413D01*
X235430480Y-98079087D01*
X235355913Y-98004520D01*
X235264587Y-97951793D01*
X235162727Y-97924500D01*
X235084500Y-97924500D01*
X235017461Y-97904815D01*
X234971706Y-97852011D01*
X234960500Y-97800500D01*
X234960500Y-97722275D01*
X234960500Y-97722273D01*
X234933207Y-97620413D01*
X234880480Y-97529087D01*
X234805913Y-97454520D01*
X234714587Y-97401793D01*
X234612727Y-97374500D01*
X234507273Y-97374500D01*
X234405413Y-97401793D01*
X234405410Y-97401794D01*
X234314085Y-97454521D01*
X234239521Y-97529085D01*
X234186794Y-97620410D01*
X234186793Y-97620413D01*
X234159500Y-97722273D01*
X234159500Y-97800500D01*
X234156949Y-97809185D01*
X234158238Y-97818147D01*
X234147259Y-97842187D01*
X234139815Y-97867539D01*
X234132974Y-97873466D01*
X234129213Y-97881703D01*
X234106978Y-97895992D01*
X234087011Y-97913294D01*
X234076496Y-97915581D01*
X234070435Y-97919477D01*
X234035500Y-97924500D01*
X233984500Y-97924500D01*
X233917461Y-97904815D01*
X233871706Y-97852011D01*
X233860500Y-97800500D01*
X233860500Y-97722275D01*
X233860500Y-97722273D01*
X233833207Y-97620413D01*
X233780480Y-97529087D01*
X233705913Y-97454520D01*
X233614587Y-97401793D01*
X233512727Y-97374500D01*
X233407273Y-97374500D01*
X233305413Y-97401793D01*
X233305410Y-97401794D01*
X233214085Y-97454521D01*
X233139521Y-97529085D01*
X233086794Y-97620410D01*
X233086793Y-97620413D01*
X233057397Y-97730123D01*
X233054618Y-97729378D01*
X233031975Y-97780575D01*
X232973654Y-97819050D01*
X232937297Y-97824500D01*
X232844108Y-97824500D01*
X232716812Y-97858608D01*
X232602686Y-97924500D01*
X232602683Y-97924502D01*
X232509502Y-98017683D01*
X232509500Y-98017686D01*
X232443608Y-98131812D01*
X232409500Y-98259108D01*
X167773736Y-98259108D01*
X167744799Y-98151114D01*
X167685489Y-98048387D01*
X167601613Y-97964511D01*
X167498886Y-97905201D01*
X167384309Y-97874500D01*
X167265691Y-97874500D01*
X167151114Y-97905201D01*
X167151112Y-97905201D01*
X167151112Y-97905202D01*
X167048387Y-97964511D01*
X167048384Y-97964513D01*
X166964513Y-98048384D01*
X166964511Y-98048387D01*
X166905201Y-98151114D01*
X166874500Y-98265691D01*
X159240022Y-98265691D01*
X159273584Y-98184664D01*
X159304500Y-98029236D01*
X159304500Y-97870764D01*
X159273584Y-97715336D01*
X159212939Y-97568926D01*
X159212938Y-97568925D01*
X159212935Y-97568919D01*
X159124896Y-97437161D01*
X159124893Y-97437157D01*
X159012842Y-97325106D01*
X159012838Y-97325103D01*
X158881080Y-97237064D01*
X158881071Y-97237059D01*
X158734664Y-97176416D01*
X158734656Y-97176414D01*
X158579240Y-97145500D01*
X158579236Y-97145500D01*
X158420764Y-97145500D01*
X158420759Y-97145500D01*
X158265343Y-97176414D01*
X158265335Y-97176416D01*
X158118928Y-97237059D01*
X158118919Y-97237064D01*
X157987161Y-97325103D01*
X157987157Y-97325106D01*
X157875106Y-97437157D01*
X157875103Y-97437161D01*
X157787064Y-97568919D01*
X157787059Y-97568928D01*
X157726416Y-97715335D01*
X157726414Y-97715343D01*
X157695500Y-97870759D01*
X151196557Y-97870759D01*
X151197603Y-97867539D01*
X151210985Y-97826353D01*
X151210985Y-97826352D01*
X151214783Y-97814664D01*
X151214783Y-97814663D01*
X151214784Y-97814660D01*
X151245550Y-97620413D01*
X151250500Y-97589162D01*
X151250500Y-97360837D01*
X151214784Y-97135339D01*
X151144229Y-96918196D01*
X151040578Y-96714771D01*
X151027078Y-96696190D01*
X150906379Y-96530063D01*
X150744937Y-96368621D01*
X150560228Y-96234421D01*
X150356803Y-96130770D01*
X150208560Y-96082603D01*
X150139660Y-96060215D01*
X149914162Y-96024500D01*
X149914157Y-96024500D01*
X149685843Y-96024500D01*
X149685838Y-96024500D01*
X149460339Y-96060215D01*
X149243196Y-96130770D01*
X149039771Y-96234421D01*
X148855061Y-96368622D01*
X148693622Y-96530061D01*
X148559421Y-96714771D01*
X148455770Y-96918196D01*
X148385215Y-97135339D01*
X148349500Y-97360837D01*
X146200500Y-97360837D01*
X146200500Y-95970759D01*
X157695500Y-95970759D01*
X157695500Y-96129240D01*
X157726414Y-96284656D01*
X157726416Y-96284664D01*
X157787059Y-96431071D01*
X157787064Y-96431080D01*
X157875103Y-96562838D01*
X157875106Y-96562842D01*
X157987157Y-96674893D01*
X157987161Y-96674896D01*
X158118919Y-96762935D01*
X158118925Y-96762938D01*
X158118926Y-96762939D01*
X158265336Y-96823584D01*
X158420759Y-96854499D01*
X158420763Y-96854500D01*
X158420764Y-96854500D01*
X158579237Y-96854500D01*
X158579238Y-96854499D01*
X158734664Y-96823584D01*
X158881074Y-96762939D01*
X159012839Y-96674896D01*
X159124896Y-96562839D01*
X159212939Y-96431074D01*
X159273584Y-96284664D01*
X159275229Y-96276392D01*
X215757660Y-96276392D01*
X215757660Y-96395010D01*
X215788361Y-96509587D01*
X215847671Y-96612314D01*
X215931547Y-96696190D01*
X216034274Y-96755500D01*
X216148851Y-96786201D01*
X216148854Y-96786201D01*
X216267466Y-96786201D01*
X216267469Y-96786201D01*
X216382046Y-96755500D01*
X216484773Y-96696190D01*
X216568649Y-96612314D01*
X216627959Y-96509587D01*
X216658660Y-96395010D01*
X216658660Y-96276392D01*
X216627959Y-96161815D01*
X216568649Y-96059088D01*
X216484773Y-95975212D01*
X216382046Y-95915902D01*
X216267469Y-95885201D01*
X216148851Y-95885201D01*
X216034274Y-95915902D01*
X216034272Y-95915902D01*
X216034272Y-95915903D01*
X215931547Y-95975212D01*
X215931544Y-95975214D01*
X215847673Y-96059085D01*
X215847671Y-96059088D01*
X215806286Y-96130769D01*
X215788361Y-96161815D01*
X215757660Y-96276392D01*
X159275229Y-96276392D01*
X159304500Y-96129236D01*
X159304500Y-95970764D01*
X159273584Y-95815336D01*
X159212939Y-95668926D01*
X159212938Y-95668925D01*
X159212935Y-95668919D01*
X159124896Y-95537161D01*
X159124893Y-95537157D01*
X159012842Y-95425106D01*
X159012838Y-95425103D01*
X158881080Y-95337064D01*
X158881071Y-95337059D01*
X158734664Y-95276416D01*
X158734656Y-95276414D01*
X158579240Y-95245500D01*
X158579236Y-95245500D01*
X158420764Y-95245500D01*
X158420759Y-95245500D01*
X158265343Y-95276414D01*
X158265335Y-95276416D01*
X158118928Y-95337059D01*
X158118919Y-95337064D01*
X157987161Y-95425103D01*
X157987157Y-95425106D01*
X157875106Y-95537157D01*
X157875103Y-95537161D01*
X157787064Y-95668919D01*
X157787059Y-95668928D01*
X157726416Y-95815335D01*
X157726414Y-95815343D01*
X157695500Y-95970759D01*
X146200500Y-95970759D01*
X146200500Y-94190691D01*
X211549500Y-94190691D01*
X211549500Y-94309309D01*
X211580201Y-94423886D01*
X211639511Y-94526613D01*
X211723387Y-94610489D01*
X211826114Y-94669799D01*
X211940691Y-94700500D01*
X211940694Y-94700500D01*
X212059306Y-94700500D01*
X212059309Y-94700500D01*
X212173886Y-94669799D01*
X212276613Y-94610489D01*
X212360489Y-94526613D01*
X212419799Y-94423886D01*
X212450500Y-94309309D01*
X212450500Y-94190691D01*
X212419799Y-94076114D01*
X212372715Y-93994562D01*
X212360493Y-93973393D01*
X212360490Y-93973390D01*
X212360489Y-93973387D01*
X212327793Y-93940691D01*
X234049500Y-93940691D01*
X234049500Y-94059309D01*
X234080201Y-94173886D01*
X234139511Y-94276613D01*
X234223387Y-94360489D01*
X234326114Y-94419799D01*
X234440691Y-94450500D01*
X234440694Y-94450500D01*
X234559306Y-94450500D01*
X234559309Y-94450500D01*
X234673886Y-94419799D01*
X234776613Y-94360489D01*
X234860489Y-94276613D01*
X234919799Y-94173886D01*
X234950500Y-94059309D01*
X234950500Y-93940691D01*
X234919799Y-93826114D01*
X234860489Y-93723387D01*
X234776613Y-93639511D01*
X234673886Y-93580201D01*
X234559309Y-93549500D01*
X234440691Y-93549500D01*
X234326114Y-93580201D01*
X234326112Y-93580201D01*
X234326112Y-93580202D01*
X234223387Y-93639511D01*
X234223384Y-93639513D01*
X234139513Y-93723384D01*
X234139511Y-93723387D01*
X234108780Y-93776615D01*
X234080201Y-93826114D01*
X234049500Y-93940691D01*
X212327793Y-93940691D01*
X212276613Y-93889511D01*
X212173886Y-93830201D01*
X212059309Y-93799500D01*
X211940691Y-93799500D01*
X211826114Y-93830201D01*
X211826112Y-93830201D01*
X211826112Y-93830202D01*
X211723387Y-93889511D01*
X211723384Y-93889513D01*
X211639513Y-93973384D01*
X211639511Y-93973387D01*
X211580201Y-94076114D01*
X211549500Y-94190691D01*
X146200500Y-94190691D01*
X146200500Y-92940691D01*
X164174500Y-92940691D01*
X164174500Y-93059309D01*
X164205201Y-93173886D01*
X164264511Y-93276613D01*
X164348387Y-93360489D01*
X164451114Y-93419799D01*
X164565691Y-93450500D01*
X164565694Y-93450500D01*
X164684306Y-93450500D01*
X164684309Y-93450500D01*
X164720916Y-93440691D01*
X238549500Y-93440691D01*
X238549500Y-93559309D01*
X238580201Y-93673886D01*
X238639511Y-93776613D01*
X238723387Y-93860489D01*
X238826114Y-93919799D01*
X238940691Y-93950500D01*
X238940694Y-93950500D01*
X239059306Y-93950500D01*
X239059309Y-93950500D01*
X239173886Y-93919799D01*
X239276613Y-93860489D01*
X239360489Y-93776613D01*
X239419799Y-93673886D01*
X239450500Y-93559309D01*
X239450500Y-93440691D01*
X239419799Y-93326114D01*
X239360489Y-93223387D01*
X239276613Y-93139511D01*
X239173886Y-93080201D01*
X239059309Y-93049500D01*
X238940691Y-93049500D01*
X238826114Y-93080201D01*
X238826112Y-93080201D01*
X238826112Y-93080202D01*
X238723387Y-93139511D01*
X238723384Y-93139513D01*
X238639513Y-93223384D01*
X238639511Y-93223387D01*
X238608780Y-93276615D01*
X238580201Y-93326114D01*
X238549500Y-93440691D01*
X164720916Y-93440691D01*
X164798886Y-93419799D01*
X164901613Y-93360489D01*
X164985489Y-93276613D01*
X165044799Y-93173886D01*
X165075500Y-93059309D01*
X165075500Y-92940691D01*
X165044799Y-92826114D01*
X165024347Y-92790691D01*
X215349500Y-92790691D01*
X215349500Y-92909309D01*
X215380201Y-93023886D01*
X215439511Y-93126613D01*
X215523387Y-93210489D01*
X215626114Y-93269799D01*
X215740691Y-93300500D01*
X215740694Y-93300500D01*
X215859306Y-93300500D01*
X215859309Y-93300500D01*
X215973886Y-93269799D01*
X216076613Y-93210489D01*
X216160489Y-93126613D01*
X216219799Y-93023886D01*
X216250500Y-92909309D01*
X216250500Y-92803191D01*
X236162000Y-92803191D01*
X236162000Y-92921809D01*
X236192701Y-93036386D01*
X236252011Y-93139113D01*
X236335887Y-93222989D01*
X236438614Y-93282299D01*
X236553191Y-93313000D01*
X236553194Y-93313000D01*
X236671807Y-93313000D01*
X236671809Y-93313000D01*
X236786386Y-93282299D01*
X236889113Y-93222989D01*
X236972989Y-93139113D01*
X237032299Y-93036386D01*
X237063000Y-92921809D01*
X237063000Y-92803191D01*
X237032299Y-92688614D01*
X236972989Y-92585887D01*
X236889113Y-92502011D01*
X236786386Y-92442701D01*
X236671809Y-92412000D01*
X236553191Y-92412000D01*
X236438614Y-92442701D01*
X236438612Y-92442701D01*
X236438612Y-92442702D01*
X236335887Y-92502011D01*
X236335884Y-92502013D01*
X236252013Y-92585884D01*
X236252011Y-92585887D01*
X236211809Y-92655519D01*
X236192701Y-92688614D01*
X236162000Y-92803191D01*
X216250500Y-92803191D01*
X216250500Y-92790691D01*
X216219799Y-92676114D01*
X216160489Y-92573387D01*
X216076613Y-92489511D01*
X215973886Y-92430201D01*
X215859309Y-92399500D01*
X215740691Y-92399500D01*
X215626114Y-92430201D01*
X215626112Y-92430201D01*
X215626112Y-92430202D01*
X215523387Y-92489511D01*
X215523384Y-92489513D01*
X215439513Y-92573384D01*
X215439511Y-92573387D01*
X215380201Y-92676114D01*
X215349500Y-92790691D01*
X165024347Y-92790691D01*
X164985489Y-92723387D01*
X164901613Y-92639511D01*
X164798886Y-92580201D01*
X164684309Y-92549500D01*
X164565691Y-92549500D01*
X164451114Y-92580201D01*
X164451112Y-92580201D01*
X164451112Y-92580202D01*
X164348387Y-92639511D01*
X164348384Y-92639513D01*
X164264513Y-92723384D01*
X164264511Y-92723387D01*
X164218435Y-92803193D01*
X164205201Y-92826114D01*
X164174500Y-92940691D01*
X146200500Y-92940691D01*
X146200500Y-91690691D01*
X162049500Y-91690691D01*
X162049500Y-91809309D01*
X162080201Y-91923886D01*
X162139511Y-92026613D01*
X162223387Y-92110489D01*
X162326114Y-92169799D01*
X162440691Y-92200500D01*
X162440694Y-92200500D01*
X162559306Y-92200500D01*
X162559309Y-92200500D01*
X162673886Y-92169799D01*
X162776613Y-92110489D01*
X162821411Y-92065691D01*
X169924500Y-92065691D01*
X169924500Y-92184309D01*
X169955201Y-92298886D01*
X170014511Y-92401613D01*
X170098387Y-92485489D01*
X170201114Y-92544799D01*
X170315691Y-92575500D01*
X170315694Y-92575500D01*
X170434306Y-92575500D01*
X170434309Y-92575500D01*
X170548886Y-92544799D01*
X170651613Y-92485489D01*
X170735489Y-92401613D01*
X170794799Y-92298886D01*
X170825500Y-92184309D01*
X170825500Y-92065691D01*
X170794799Y-91951114D01*
X170735489Y-91848387D01*
X170651613Y-91764511D01*
X170548886Y-91705201D01*
X170434309Y-91674500D01*
X170315691Y-91674500D01*
X170201114Y-91705201D01*
X170201112Y-91705201D01*
X170201112Y-91705202D01*
X170098387Y-91764511D01*
X170098384Y-91764513D01*
X170014513Y-91848384D01*
X170014511Y-91848387D01*
X169970920Y-91923889D01*
X169955201Y-91951114D01*
X169924500Y-92065691D01*
X162821411Y-92065691D01*
X162860489Y-92026613D01*
X162873224Y-92004554D01*
X162878417Y-91995562D01*
X162878417Y-91995561D01*
X162895564Y-91965862D01*
X162919799Y-91923886D01*
X162950500Y-91809309D01*
X162950500Y-91690691D01*
X162919799Y-91576114D01*
X162860489Y-91473387D01*
X162776613Y-91389511D01*
X162673886Y-91330201D01*
X162559309Y-91299500D01*
X162440691Y-91299500D01*
X162326114Y-91330201D01*
X162326112Y-91330201D01*
X162326112Y-91330202D01*
X162223387Y-91389511D01*
X162223384Y-91389513D01*
X162139513Y-91473384D01*
X162139511Y-91473387D01*
X162080201Y-91576114D01*
X162049500Y-91690691D01*
X146200500Y-91690691D01*
X146200500Y-89440691D01*
X170549500Y-89440691D01*
X170549500Y-89559309D01*
X170580201Y-89673886D01*
X170639511Y-89776613D01*
X170723387Y-89860489D01*
X170826114Y-89919799D01*
X170940691Y-89950500D01*
X170940694Y-89950500D01*
X171059306Y-89950500D01*
X171059309Y-89950500D01*
X171173886Y-89919799D01*
X171276613Y-89860489D01*
X171360489Y-89776613D01*
X171419799Y-89673886D01*
X171450500Y-89559309D01*
X171450500Y-89440691D01*
X196974500Y-89440691D01*
X196974500Y-89559309D01*
X197005201Y-89673886D01*
X197064511Y-89776613D01*
X197148387Y-89860489D01*
X197251114Y-89919799D01*
X197365691Y-89950500D01*
X197365694Y-89950500D01*
X197484306Y-89950500D01*
X197484309Y-89950500D01*
X197598886Y-89919799D01*
X197701613Y-89860489D01*
X197785489Y-89776613D01*
X197844799Y-89673886D01*
X197875500Y-89559309D01*
X197875500Y-89440691D01*
X197844799Y-89326114D01*
X197785489Y-89223387D01*
X197701613Y-89139511D01*
X197598886Y-89080201D01*
X197484309Y-89049500D01*
X197365691Y-89049500D01*
X197251114Y-89080201D01*
X197251112Y-89080201D01*
X197251112Y-89080202D01*
X197148387Y-89139511D01*
X197148384Y-89139513D01*
X197064513Y-89223384D01*
X197064511Y-89223387D01*
X197005201Y-89326114D01*
X196974500Y-89440691D01*
X171450500Y-89440691D01*
X171419799Y-89326114D01*
X171360489Y-89223387D01*
X171276613Y-89139511D01*
X171173886Y-89080201D01*
X171059309Y-89049500D01*
X170940691Y-89049500D01*
X170826114Y-89080201D01*
X170826112Y-89080201D01*
X170826112Y-89080202D01*
X170723387Y-89139511D01*
X170723384Y-89139513D01*
X170639513Y-89223384D01*
X170639511Y-89223387D01*
X170580201Y-89326114D01*
X170549500Y-89440691D01*
X146200500Y-89440691D01*
X146200500Y-87346530D01*
X152914500Y-87346530D01*
X152914500Y-87553469D01*
X152954868Y-87756412D01*
X152954870Y-87756420D01*
X153034058Y-87947596D01*
X153149024Y-88119657D01*
X153295342Y-88265975D01*
X153295345Y-88265977D01*
X153467402Y-88380941D01*
X153658580Y-88460130D01*
X153846936Y-88497596D01*
X153861530Y-88500499D01*
X153861534Y-88500500D01*
X153861535Y-88500500D01*
X154068466Y-88500500D01*
X154068467Y-88500499D01*
X154271420Y-88460130D01*
X154462598Y-88380941D01*
X154634655Y-88265977D01*
X154780977Y-88119655D01*
X154895941Y-87947598D01*
X154975130Y-87756420D01*
X155015500Y-87553465D01*
X155015500Y-87346535D01*
X155015499Y-87346530D01*
X155454500Y-87346530D01*
X155454500Y-87553469D01*
X155494868Y-87756412D01*
X155494870Y-87756420D01*
X155574058Y-87947596D01*
X155689024Y-88119657D01*
X155835342Y-88265975D01*
X155835345Y-88265977D01*
X156007402Y-88380941D01*
X156198580Y-88460130D01*
X156386936Y-88497596D01*
X156401530Y-88500499D01*
X156401534Y-88500500D01*
X156401535Y-88500500D01*
X156608466Y-88500500D01*
X156608467Y-88500499D01*
X156811420Y-88460130D01*
X157002598Y-88380941D01*
X157174655Y-88265977D01*
X157320977Y-88119655D01*
X157435941Y-87947598D01*
X157515130Y-87756420D01*
X157555500Y-87553465D01*
X157555500Y-87346535D01*
X157555499Y-87346530D01*
X157994500Y-87346530D01*
X157994500Y-87553469D01*
X158034868Y-87756412D01*
X158034870Y-87756420D01*
X158114058Y-87947596D01*
X158229024Y-88119657D01*
X158375342Y-88265975D01*
X158375345Y-88265977D01*
X158547402Y-88380941D01*
X158738580Y-88460130D01*
X158926936Y-88497596D01*
X158941530Y-88500499D01*
X158941534Y-88500500D01*
X158941535Y-88500500D01*
X159148466Y-88500500D01*
X159148467Y-88500499D01*
X159351420Y-88460130D01*
X159542598Y-88380941D01*
X159714655Y-88265977D01*
X159860977Y-88119655D01*
X159975941Y-87947598D01*
X160055130Y-87756420D01*
X160095500Y-87553465D01*
X160095500Y-87346535D01*
X160095499Y-87346530D01*
X160534500Y-87346530D01*
X160534500Y-87553469D01*
X160574868Y-87756412D01*
X160574870Y-87756420D01*
X160654058Y-87947596D01*
X160769024Y-88119657D01*
X160915342Y-88265975D01*
X160915345Y-88265977D01*
X161087402Y-88380941D01*
X161278580Y-88460130D01*
X161466936Y-88497596D01*
X161481530Y-88500499D01*
X161481534Y-88500500D01*
X161481535Y-88500500D01*
X161688466Y-88500500D01*
X161688467Y-88500499D01*
X161891420Y-88460130D01*
X162082598Y-88380941D01*
X162254655Y-88265977D01*
X162400977Y-88119655D01*
X162515941Y-87947598D01*
X162536439Y-87898112D01*
X162580279Y-87843708D01*
X162646573Y-87821643D01*
X162714273Y-87838922D01*
X162761884Y-87890059D01*
X162775000Y-87945564D01*
X162775000Y-88347844D01*
X162781401Y-88407372D01*
X162781403Y-88407379D01*
X162831645Y-88542086D01*
X162831649Y-88542093D01*
X162917809Y-88657187D01*
X162917812Y-88657190D01*
X163032906Y-88743350D01*
X163032913Y-88743354D01*
X163167620Y-88793596D01*
X163167627Y-88793598D01*
X163227155Y-88799999D01*
X163227172Y-88800000D01*
X163875000Y-88800000D01*
X163875000Y-87883012D01*
X163932007Y-87915925D01*
X164059174Y-87950000D01*
X164190826Y-87950000D01*
X164317993Y-87915925D01*
X164375000Y-87883012D01*
X164375000Y-88800000D01*
X165022828Y-88800000D01*
X165022844Y-88799999D01*
X165082372Y-88793598D01*
X165082379Y-88793596D01*
X165217086Y-88743354D01*
X165217093Y-88743350D01*
X165332187Y-88657190D01*
X165332190Y-88657187D01*
X165418350Y-88542093D01*
X165418354Y-88542086D01*
X165468596Y-88407379D01*
X165468598Y-88407372D01*
X165474999Y-88347844D01*
X165475000Y-88347827D01*
X165475000Y-87940691D01*
X169549500Y-87940691D01*
X169549500Y-88059309D01*
X169580201Y-88173886D01*
X169639511Y-88276613D01*
X169723387Y-88360489D01*
X169826114Y-88419799D01*
X169940691Y-88450500D01*
X169940694Y-88450500D01*
X170059306Y-88450500D01*
X170059309Y-88450500D01*
X170173886Y-88419799D01*
X170276613Y-88360489D01*
X170360489Y-88276613D01*
X170419799Y-88173886D01*
X170450500Y-88059309D01*
X170450500Y-87940691D01*
X170438667Y-87896530D01*
X173959500Y-87896530D01*
X173959500Y-88103469D01*
X173999868Y-88306412D01*
X173999870Y-88306420D01*
X174065939Y-88465925D01*
X174079059Y-88497598D01*
X174136541Y-88583626D01*
X174194024Y-88669657D01*
X174340342Y-88815975D01*
X174340345Y-88815977D01*
X174512402Y-88930941D01*
X174703580Y-89010130D01*
X174901508Y-89049500D01*
X174906530Y-89050499D01*
X174906534Y-89050500D01*
X174906535Y-89050500D01*
X175113466Y-89050500D01*
X175113467Y-89050499D01*
X175316420Y-89010130D01*
X175507598Y-88930941D01*
X175679655Y-88815977D01*
X175825977Y-88669655D01*
X175940941Y-88497598D01*
X176020130Y-88306420D01*
X176060500Y-88103465D01*
X176060500Y-87896535D01*
X176060499Y-87896530D01*
X176499500Y-87896530D01*
X176499500Y-88103469D01*
X176539868Y-88306412D01*
X176539870Y-88306420D01*
X176605939Y-88465925D01*
X176619059Y-88497598D01*
X176676541Y-88583626D01*
X176734024Y-88669657D01*
X176880342Y-88815975D01*
X176880345Y-88815977D01*
X177052402Y-88930941D01*
X177243580Y-89010130D01*
X177441508Y-89049500D01*
X177446530Y-89050499D01*
X177446534Y-89050500D01*
X177446535Y-89050500D01*
X177653466Y-89050500D01*
X177653467Y-89050499D01*
X177856420Y-89010130D01*
X178047598Y-88930941D01*
X178219655Y-88815977D01*
X178365977Y-88669655D01*
X178480941Y-88497598D01*
X178560130Y-88306420D01*
X178600500Y-88103465D01*
X178600500Y-87896535D01*
X178600499Y-87896530D01*
X179039500Y-87896530D01*
X179039500Y-88103469D01*
X179079868Y-88306412D01*
X179079870Y-88306420D01*
X179145939Y-88465925D01*
X179159059Y-88497598D01*
X179216541Y-88583626D01*
X179274024Y-88669657D01*
X179420342Y-88815975D01*
X179420345Y-88815977D01*
X179592402Y-88930941D01*
X179783580Y-89010130D01*
X179981508Y-89049500D01*
X179986530Y-89050499D01*
X179986534Y-89050500D01*
X179986535Y-89050500D01*
X180193466Y-89050500D01*
X180193467Y-89050499D01*
X180396420Y-89010130D01*
X180587598Y-88930941D01*
X180759655Y-88815977D01*
X180905977Y-88669655D01*
X181020941Y-88497598D01*
X181041439Y-88448112D01*
X181085279Y-88393708D01*
X181151573Y-88371643D01*
X181219273Y-88388922D01*
X181266884Y-88440059D01*
X181280000Y-88495564D01*
X181280000Y-88897844D01*
X181286401Y-88957372D01*
X181286403Y-88957379D01*
X181336645Y-89092086D01*
X181336649Y-89092093D01*
X181422809Y-89207187D01*
X181422812Y-89207190D01*
X181537906Y-89293350D01*
X181537913Y-89293354D01*
X181672620Y-89343596D01*
X181672627Y-89343598D01*
X181732155Y-89349999D01*
X181732172Y-89350000D01*
X182380000Y-89350000D01*
X182380000Y-88433012D01*
X182437007Y-88465925D01*
X182564174Y-88500000D01*
X182695826Y-88500000D01*
X182822993Y-88465925D01*
X182880000Y-88433012D01*
X182880000Y-89350000D01*
X183527828Y-89350000D01*
X183527844Y-89349999D01*
X183587372Y-89343598D01*
X183587379Y-89343596D01*
X183660346Y-89316382D01*
X183722086Y-89293354D01*
X183722093Y-89293350D01*
X183837187Y-89207190D01*
X183837190Y-89207187D01*
X183923350Y-89092093D01*
X183923354Y-89092086D01*
X183973596Y-88957379D01*
X183973598Y-88957372D01*
X183979999Y-88897844D01*
X183980000Y-88897827D01*
X183980000Y-88250000D01*
X183063012Y-88250000D01*
X183095925Y-88192993D01*
X183130000Y-88065826D01*
X183130000Y-87934174D01*
X183095925Y-87807007D01*
X183063012Y-87750000D01*
X183980000Y-87750000D01*
X183980000Y-87190691D01*
X192799500Y-87190691D01*
X192799500Y-87309309D01*
X192830201Y-87423886D01*
X192889511Y-87526613D01*
X192973387Y-87610489D01*
X193076114Y-87669799D01*
X193190691Y-87700500D01*
X193190694Y-87700500D01*
X193309306Y-87700500D01*
X193309309Y-87700500D01*
X193423886Y-87669799D01*
X193526613Y-87610489D01*
X193610489Y-87526613D01*
X193669799Y-87423886D01*
X193700500Y-87309309D01*
X193700500Y-87190691D01*
X193669799Y-87076114D01*
X193610489Y-86973387D01*
X193526613Y-86889511D01*
X193423886Y-86830201D01*
X193309309Y-86799500D01*
X193190691Y-86799500D01*
X193076114Y-86830201D01*
X193076112Y-86830201D01*
X193076112Y-86830202D01*
X192973387Y-86889511D01*
X192973384Y-86889513D01*
X192889513Y-86973384D01*
X192889511Y-86973387D01*
X192830201Y-87076114D01*
X192799500Y-87190691D01*
X183980000Y-87190691D01*
X183980000Y-87102172D01*
X183979999Y-87102155D01*
X183973598Y-87042627D01*
X183973596Y-87042620D01*
X183923354Y-86907913D01*
X183923350Y-86907906D01*
X183837190Y-86792812D01*
X183837187Y-86792809D01*
X183722093Y-86706649D01*
X183722086Y-86706645D01*
X183587379Y-86656403D01*
X183587372Y-86656401D01*
X183527844Y-86650000D01*
X182880000Y-86650000D01*
X182880000Y-87566988D01*
X182822993Y-87534075D01*
X182695826Y-87500000D01*
X182564174Y-87500000D01*
X182437007Y-87534075D01*
X182380000Y-87566988D01*
X182380000Y-86650000D01*
X181732155Y-86650000D01*
X181672627Y-86656401D01*
X181672620Y-86656403D01*
X181537913Y-86706645D01*
X181537906Y-86706649D01*
X181422812Y-86792809D01*
X181422809Y-86792812D01*
X181336649Y-86907906D01*
X181336645Y-86907913D01*
X181286403Y-87042620D01*
X181286401Y-87042627D01*
X181280000Y-87102155D01*
X181280000Y-87504435D01*
X181260315Y-87571474D01*
X181207511Y-87617229D01*
X181138353Y-87627173D01*
X181074797Y-87598148D01*
X181041439Y-87551888D01*
X181030970Y-87526615D01*
X181020941Y-87502402D01*
X180905977Y-87330345D01*
X180905975Y-87330342D01*
X180759657Y-87184024D01*
X180637130Y-87102155D01*
X180587598Y-87069059D01*
X180472718Y-87021474D01*
X180396420Y-86989870D01*
X180396412Y-86989868D01*
X180193469Y-86949500D01*
X180193465Y-86949500D01*
X179986535Y-86949500D01*
X179986530Y-86949500D01*
X179783587Y-86989868D01*
X179783579Y-86989870D01*
X179592403Y-87069058D01*
X179420342Y-87184024D01*
X179274024Y-87330342D01*
X179159058Y-87502403D01*
X179079870Y-87693579D01*
X179079868Y-87693587D01*
X179039500Y-87896530D01*
X178600499Y-87896530D01*
X178560130Y-87693580D01*
X178480941Y-87502402D01*
X178365977Y-87330345D01*
X178365975Y-87330342D01*
X178219657Y-87184024D01*
X178097130Y-87102155D01*
X178047598Y-87069059D01*
X177932718Y-87021474D01*
X177856420Y-86989870D01*
X177856412Y-86989868D01*
X177653469Y-86949500D01*
X177653465Y-86949500D01*
X177446535Y-86949500D01*
X177446530Y-86949500D01*
X177243587Y-86989868D01*
X177243579Y-86989870D01*
X177052403Y-87069058D01*
X176880342Y-87184024D01*
X176734024Y-87330342D01*
X176619058Y-87502403D01*
X176539870Y-87693579D01*
X176539868Y-87693587D01*
X176499500Y-87896530D01*
X176060499Y-87896530D01*
X176020130Y-87693580D01*
X175940941Y-87502402D01*
X175825977Y-87330345D01*
X175825975Y-87330342D01*
X175679657Y-87184024D01*
X175557130Y-87102155D01*
X175507598Y-87069059D01*
X175392718Y-87021474D01*
X175316420Y-86989870D01*
X175316412Y-86989868D01*
X175113469Y-86949500D01*
X175113465Y-86949500D01*
X174906535Y-86949500D01*
X174906530Y-86949500D01*
X174703587Y-86989868D01*
X174703579Y-86989870D01*
X174512403Y-87069058D01*
X174340342Y-87184024D01*
X174194024Y-87330342D01*
X174079058Y-87502403D01*
X173999870Y-87693579D01*
X173999868Y-87693587D01*
X173959500Y-87896530D01*
X170438667Y-87896530D01*
X170419799Y-87826114D01*
X170360489Y-87723387D01*
X170276613Y-87639511D01*
X170173886Y-87580201D01*
X170059309Y-87549500D01*
X169940691Y-87549500D01*
X169826114Y-87580201D01*
X169826112Y-87580201D01*
X169826112Y-87580202D01*
X169723387Y-87639511D01*
X169723384Y-87639513D01*
X169639513Y-87723384D01*
X169639511Y-87723387D01*
X169591233Y-87807007D01*
X169580201Y-87826114D01*
X169549500Y-87940691D01*
X165475000Y-87940691D01*
X165475000Y-87700000D01*
X164558012Y-87700000D01*
X164590925Y-87642993D01*
X164625000Y-87515826D01*
X164625000Y-87384174D01*
X164590925Y-87257007D01*
X164558012Y-87200000D01*
X165475000Y-87200000D01*
X165475000Y-86552172D01*
X165474999Y-86552155D01*
X165468598Y-86492627D01*
X165468596Y-86492620D01*
X165418354Y-86357913D01*
X165418350Y-86357906D01*
X165332190Y-86242812D01*
X165332187Y-86242809D01*
X165217093Y-86156649D01*
X165217086Y-86156645D01*
X165082379Y-86106403D01*
X165082372Y-86106401D01*
X165022844Y-86100000D01*
X164375000Y-86100000D01*
X164375000Y-87016988D01*
X164317993Y-86984075D01*
X164190826Y-86950000D01*
X164059174Y-86950000D01*
X163932007Y-86984075D01*
X163875000Y-87016988D01*
X163875000Y-86100000D01*
X163227155Y-86100000D01*
X163167627Y-86106401D01*
X163167620Y-86106403D01*
X163032913Y-86156645D01*
X163032906Y-86156649D01*
X162917812Y-86242809D01*
X162917809Y-86242812D01*
X162831649Y-86357906D01*
X162831645Y-86357913D01*
X162781403Y-86492620D01*
X162781401Y-86492627D01*
X162775000Y-86552155D01*
X162775000Y-86954435D01*
X162755315Y-87021474D01*
X162702511Y-87067229D01*
X162633353Y-87077173D01*
X162569797Y-87048148D01*
X162536439Y-87001888D01*
X162515941Y-86952403D01*
X162515941Y-86952402D01*
X162400977Y-86780345D01*
X162400975Y-86780342D01*
X162254657Y-86634024D01*
X162132130Y-86552155D01*
X162082598Y-86519059D01*
X161891420Y-86439870D01*
X161891412Y-86439868D01*
X161688469Y-86399500D01*
X161688465Y-86399500D01*
X161481535Y-86399500D01*
X161481530Y-86399500D01*
X161278587Y-86439868D01*
X161278579Y-86439870D01*
X161087403Y-86519058D01*
X160915342Y-86634024D01*
X160769024Y-86780342D01*
X160654058Y-86952403D01*
X160574870Y-87143579D01*
X160574868Y-87143587D01*
X160534500Y-87346530D01*
X160095499Y-87346530D01*
X160055130Y-87143580D01*
X159975941Y-86952402D01*
X159860977Y-86780345D01*
X159860975Y-86780342D01*
X159714657Y-86634024D01*
X159592130Y-86552155D01*
X159542598Y-86519059D01*
X159351420Y-86439870D01*
X159351412Y-86439868D01*
X159148469Y-86399500D01*
X159148465Y-86399500D01*
X158941535Y-86399500D01*
X158941530Y-86399500D01*
X158738587Y-86439868D01*
X158738579Y-86439870D01*
X158547403Y-86519058D01*
X158375342Y-86634024D01*
X158229024Y-86780342D01*
X158114058Y-86952403D01*
X158034870Y-87143579D01*
X158034868Y-87143587D01*
X157994500Y-87346530D01*
X157555499Y-87346530D01*
X157515130Y-87143580D01*
X157435941Y-86952402D01*
X157320977Y-86780345D01*
X157320975Y-86780342D01*
X157174657Y-86634024D01*
X157052130Y-86552155D01*
X157002598Y-86519059D01*
X156811420Y-86439870D01*
X156811412Y-86439868D01*
X156608469Y-86399500D01*
X156608465Y-86399500D01*
X156401535Y-86399500D01*
X156401530Y-86399500D01*
X156198587Y-86439868D01*
X156198579Y-86439870D01*
X156007403Y-86519058D01*
X155835342Y-86634024D01*
X155689024Y-86780342D01*
X155574058Y-86952403D01*
X155494870Y-87143579D01*
X155494868Y-87143587D01*
X155454500Y-87346530D01*
X155015499Y-87346530D01*
X154975130Y-87143580D01*
X154895941Y-86952402D01*
X154780977Y-86780345D01*
X154780975Y-86780342D01*
X154634657Y-86634024D01*
X154512130Y-86552155D01*
X154462598Y-86519059D01*
X154271420Y-86439870D01*
X154271412Y-86439868D01*
X154068469Y-86399500D01*
X154068465Y-86399500D01*
X153861535Y-86399500D01*
X153861530Y-86399500D01*
X153658587Y-86439868D01*
X153658579Y-86439870D01*
X153467403Y-86519058D01*
X153295342Y-86634024D01*
X153149024Y-86780342D01*
X153034058Y-86952403D01*
X152954870Y-87143579D01*
X152954868Y-87143587D01*
X152914500Y-87346530D01*
X146200500Y-87346530D01*
X146200500Y-85756092D01*
X146201097Y-85743939D01*
X146209805Y-85655519D01*
X146214665Y-85606171D01*
X146219403Y-85582349D01*
X146257816Y-85455719D01*
X146267113Y-85433278D01*
X146329485Y-85316587D01*
X146342982Y-85296387D01*
X146426924Y-85194103D01*
X146444103Y-85176924D01*
X146546387Y-85092982D01*
X146566587Y-85079485D01*
X146683278Y-85017113D01*
X146705719Y-85007816D01*
X146832349Y-84969403D01*
X146856173Y-84964665D01*
X146985170Y-84951960D01*
X146993939Y-84951097D01*
X147006092Y-84950500D01*
X147039882Y-84950500D01*
X206460118Y-84950500D01*
X206493908Y-84950500D01*
X206506061Y-84951097D01*
G37*
%TD.AperFunction*%
%TD*%
%TA.AperFunction,Conductor*%
%TO.N,/+5V_USB*%
G36*
X158693039Y-120019685D02*
G01*
X158738794Y-120072489D01*
X158750000Y-120124000D01*
X158750000Y-121500000D01*
X173876000Y-121500000D01*
X173943039Y-121519685D01*
X173988794Y-121572489D01*
X174000000Y-121624000D01*
X174000000Y-139925500D01*
X173980315Y-139992539D01*
X173927511Y-140038294D01*
X173876000Y-140049500D01*
X147006092Y-140049500D01*
X146993938Y-140048903D01*
X146856180Y-140035335D01*
X146832340Y-140030593D01*
X146705728Y-139992186D01*
X146683271Y-139982883D01*
X146566593Y-139920517D01*
X146546381Y-139907012D01*
X146444108Y-139823079D01*
X146426920Y-139805891D01*
X146342986Y-139703616D01*
X146329482Y-139683406D01*
X146267116Y-139566728D01*
X146257815Y-139544277D01*
X146219404Y-139417652D01*
X146214665Y-139393824D01*
X146201097Y-139256060D01*
X146200500Y-139243907D01*
X146200500Y-136234108D01*
X149249500Y-136234108D01*
X149249500Y-136365891D01*
X149283608Y-136493187D01*
X149316121Y-136549500D01*
X149349500Y-136607314D01*
X149442686Y-136700500D01*
X149442689Y-136700502D01*
X149449135Y-136705448D01*
X149448231Y-136706625D01*
X149490243Y-136750686D01*
X149503467Y-136819293D01*
X149477499Y-136884158D01*
X149467710Y-136895188D01*
X149389510Y-136973387D01*
X149339905Y-137059306D01*
X149330201Y-137076114D01*
X149299500Y-137190691D01*
X149299500Y-137309309D01*
X149330201Y-137423886D01*
X149389511Y-137526613D01*
X149473387Y-137610489D01*
X149529027Y-137642613D01*
X149577242Y-137693181D01*
X149590464Y-137761788D01*
X149564496Y-137826653D01*
X149529027Y-137857387D01*
X149473387Y-137889511D01*
X149473384Y-137889513D01*
X149389513Y-137973384D01*
X149389511Y-137973387D01*
X149330201Y-138076114D01*
X149299500Y-138190691D01*
X149299500Y-138309309D01*
X149330201Y-138423886D01*
X149389511Y-138526613D01*
X149473387Y-138610489D01*
X149576114Y-138669799D01*
X149690691Y-138700500D01*
X149690694Y-138700500D01*
X149809306Y-138700500D01*
X149809309Y-138700500D01*
X149923886Y-138669799D01*
X150026613Y-138610489D01*
X150110489Y-138526613D01*
X150169799Y-138423886D01*
X150200500Y-138309309D01*
X150200500Y-138190691D01*
X150169799Y-138076114D01*
X150110489Y-137973387D01*
X150026613Y-137889511D01*
X149970972Y-137857386D01*
X149922757Y-137806820D01*
X149909535Y-137738213D01*
X149935503Y-137673348D01*
X149970973Y-137642613D01*
X150026613Y-137610489D01*
X150110489Y-137526613D01*
X150169799Y-137423886D01*
X150200500Y-137309309D01*
X150200500Y-137190691D01*
X150169799Y-137076114D01*
X150110489Y-136973387D01*
X150077793Y-136940691D01*
X165049500Y-136940691D01*
X165049500Y-137059309D01*
X165080201Y-137173886D01*
X165139511Y-137276613D01*
X165223387Y-137360489D01*
X165326114Y-137419799D01*
X165440691Y-137450500D01*
X165440694Y-137450500D01*
X165559306Y-137450500D01*
X165559309Y-137450500D01*
X165673886Y-137419799D01*
X165776613Y-137360489D01*
X165860489Y-137276613D01*
X165919799Y-137173886D01*
X165950500Y-137059309D01*
X165950500Y-136940691D01*
X165919799Y-136826114D01*
X165860489Y-136723387D01*
X165776613Y-136639511D01*
X165673886Y-136580201D01*
X165559309Y-136549500D01*
X165440691Y-136549500D01*
X165326114Y-136580201D01*
X165326112Y-136580201D01*
X165326112Y-136580202D01*
X165223387Y-136639511D01*
X165223384Y-136639513D01*
X165139513Y-136723384D01*
X165139511Y-136723387D01*
X165080201Y-136826114D01*
X165049500Y-136940691D01*
X150077793Y-136940691D01*
X150029510Y-136892408D01*
X150026913Y-136889459D01*
X150013740Y-136861217D01*
X149998805Y-136833865D01*
X149999094Y-136829816D01*
X149997379Y-136826138D01*
X150001565Y-136795260D01*
X150003789Y-136764173D01*
X150006221Y-136760923D01*
X150006767Y-136756902D01*
X150026984Y-136733188D01*
X150045661Y-136708240D01*
X150051587Y-136704331D01*
X150052097Y-136703733D01*
X150052829Y-136703511D01*
X150056810Y-136700885D01*
X150057306Y-136700504D01*
X150057314Y-136700500D01*
X150150500Y-136607314D01*
X150216392Y-136493186D01*
X150250500Y-136365892D01*
X150250500Y-136234108D01*
X150216392Y-136106814D01*
X150150500Y-135992686D01*
X150057314Y-135899500D01*
X150000250Y-135866554D01*
X149943187Y-135833608D01*
X149879539Y-135816554D01*
X149815892Y-135799500D01*
X149684108Y-135799500D01*
X149556812Y-135833608D01*
X149442686Y-135899500D01*
X149442683Y-135899502D01*
X149349502Y-135992683D01*
X149349500Y-135992686D01*
X149283608Y-136106812D01*
X149249500Y-136234108D01*
X146200500Y-136234108D01*
X146200500Y-134440691D01*
X163549500Y-134440691D01*
X163549500Y-134559309D01*
X163580201Y-134673886D01*
X163639511Y-134776613D01*
X163723387Y-134860489D01*
X163826114Y-134919799D01*
X163940691Y-134950500D01*
X163940694Y-134950500D01*
X164059306Y-134950500D01*
X164059309Y-134950500D01*
X164173886Y-134919799D01*
X164276613Y-134860489D01*
X164360489Y-134776613D01*
X164419799Y-134673886D01*
X164450500Y-134559309D01*
X164450500Y-134440691D01*
X164419799Y-134326114D01*
X164360489Y-134223387D01*
X164276613Y-134139511D01*
X164173886Y-134080201D01*
X164059309Y-134049500D01*
X163940691Y-134049500D01*
X163826114Y-134080201D01*
X163826112Y-134080201D01*
X163826112Y-134080202D01*
X163723387Y-134139511D01*
X163723384Y-134139513D01*
X163639513Y-134223384D01*
X163639511Y-134223387D01*
X163580201Y-134326114D01*
X163549500Y-134440691D01*
X146200500Y-134440691D01*
X146200500Y-133915691D01*
X166574500Y-133915691D01*
X166574500Y-134034309D01*
X166605201Y-134148886D01*
X166664511Y-134251613D01*
X166748387Y-134335489D01*
X166851114Y-134394799D01*
X166965691Y-134425500D01*
X166965694Y-134425500D01*
X167084306Y-134425500D01*
X167084309Y-134425500D01*
X167198886Y-134394799D01*
X167301613Y-134335489D01*
X167385489Y-134251613D01*
X167444799Y-134148886D01*
X167475500Y-134034309D01*
X167475500Y-133915691D01*
X167444799Y-133801114D01*
X167385489Y-133698387D01*
X167301613Y-133614511D01*
X167198886Y-133555201D01*
X167084309Y-133524500D01*
X166965691Y-133524500D01*
X166851114Y-133555201D01*
X166851112Y-133555201D01*
X166851112Y-133555202D01*
X166748387Y-133614511D01*
X166748384Y-133614513D01*
X166664513Y-133698384D01*
X166664511Y-133698387D01*
X166605201Y-133801114D01*
X166574500Y-133915691D01*
X146200500Y-133915691D01*
X146200500Y-131190691D01*
X166049500Y-131190691D01*
X166049500Y-131309309D01*
X166080201Y-131423886D01*
X166139511Y-131526613D01*
X166223387Y-131610489D01*
X166326114Y-131669799D01*
X166440691Y-131700500D01*
X166440694Y-131700500D01*
X166559306Y-131700500D01*
X166559309Y-131700500D01*
X166673886Y-131669799D01*
X166776613Y-131610489D01*
X166860489Y-131526613D01*
X166919799Y-131423886D01*
X166950500Y-131309309D01*
X166950500Y-131190691D01*
X166919799Y-131076114D01*
X166860489Y-130973387D01*
X166776613Y-130889511D01*
X166673886Y-130830201D01*
X166559309Y-130799500D01*
X166440691Y-130799500D01*
X166326114Y-130830201D01*
X166326112Y-130830201D01*
X166326112Y-130830202D01*
X166223387Y-130889511D01*
X166223384Y-130889513D01*
X166139513Y-130973384D01*
X166139511Y-130973387D01*
X166080201Y-131076114D01*
X166049500Y-131190691D01*
X146200500Y-131190691D01*
X146200500Y-129940691D01*
X153049500Y-129940691D01*
X153049500Y-130059309D01*
X153080201Y-130173886D01*
X153139511Y-130276613D01*
X153223387Y-130360489D01*
X153326114Y-130419799D01*
X153440691Y-130450500D01*
X153440694Y-130450500D01*
X153559306Y-130450500D01*
X153559309Y-130450500D01*
X153673886Y-130419799D01*
X153776613Y-130360489D01*
X153860489Y-130276613D01*
X153881228Y-130240691D01*
X159324500Y-130240691D01*
X159324500Y-130359309D01*
X159355201Y-130473886D01*
X159414511Y-130576613D01*
X159498387Y-130660489D01*
X159601114Y-130719799D01*
X159715691Y-130750500D01*
X159715694Y-130750500D01*
X159834306Y-130750500D01*
X159834309Y-130750500D01*
X159948886Y-130719799D01*
X160051613Y-130660489D01*
X160135489Y-130576613D01*
X160194799Y-130473886D01*
X160225500Y-130359309D01*
X160225500Y-130240691D01*
X160194799Y-130126114D01*
X160135489Y-130023387D01*
X160051613Y-129939511D01*
X159948886Y-129880201D01*
X159834309Y-129849500D01*
X159715691Y-129849500D01*
X159601114Y-129880201D01*
X159601112Y-129880201D01*
X159601112Y-129880202D01*
X159498387Y-129939511D01*
X159498384Y-129939513D01*
X159414513Y-130023384D01*
X159414511Y-130023387D01*
X159355201Y-130126114D01*
X159324500Y-130240691D01*
X153881228Y-130240691D01*
X153897691Y-130212177D01*
X153919795Y-130173894D01*
X153919797Y-130173890D01*
X153919798Y-130173887D01*
X153919799Y-130173886D01*
X153950500Y-130059309D01*
X153950500Y-129940691D01*
X153919799Y-129826114D01*
X153860489Y-129723387D01*
X153776613Y-129639511D01*
X153673886Y-129580201D01*
X153569901Y-129552338D01*
X153566352Y-129551387D01*
X153559309Y-129549500D01*
X153440691Y-129549500D01*
X153326114Y-129580201D01*
X153326112Y-129580201D01*
X153326112Y-129580202D01*
X153223387Y-129639511D01*
X153223384Y-129639513D01*
X153139513Y-129723384D01*
X153139511Y-129723387D01*
X153108780Y-129776615D01*
X153080201Y-129826114D01*
X153049500Y-129940691D01*
X146200500Y-129940691D01*
X146200500Y-129440691D01*
X155012000Y-129440691D01*
X155012000Y-129559309D01*
X155042701Y-129673886D01*
X155102011Y-129776613D01*
X155185887Y-129860489D01*
X155288614Y-129919799D01*
X155403191Y-129950500D01*
X155403194Y-129950500D01*
X155521806Y-129950500D01*
X155521809Y-129950500D01*
X155636386Y-129919799D01*
X155739113Y-129860489D01*
X155822989Y-129776613D01*
X155882299Y-129673886D01*
X155913000Y-129559309D01*
X155913000Y-129440691D01*
X155882299Y-129326114D01*
X155835215Y-129244562D01*
X155822993Y-129223393D01*
X155822990Y-129223390D01*
X155822989Y-129223387D01*
X155790293Y-129190691D01*
X162799500Y-129190691D01*
X162799500Y-129309309D01*
X162830201Y-129423886D01*
X162889511Y-129526613D01*
X162973387Y-129610489D01*
X163076114Y-129669799D01*
X163190691Y-129700500D01*
X163190694Y-129700500D01*
X163309306Y-129700500D01*
X163309309Y-129700500D01*
X163423886Y-129669799D01*
X163526613Y-129610489D01*
X163610489Y-129526613D01*
X163669799Y-129423886D01*
X163700500Y-129309309D01*
X163700500Y-129190691D01*
X163669799Y-129076114D01*
X163610489Y-128973387D01*
X163526613Y-128889511D01*
X163423886Y-128830201D01*
X163319901Y-128802338D01*
X163316352Y-128801387D01*
X163309309Y-128799500D01*
X163190691Y-128799500D01*
X163076114Y-128830201D01*
X163076112Y-128830201D01*
X163076112Y-128830202D01*
X162973387Y-128889511D01*
X162973384Y-128889513D01*
X162889513Y-128973384D01*
X162889511Y-128973387D01*
X162858780Y-129026615D01*
X162830201Y-129076114D01*
X162799500Y-129190691D01*
X155790293Y-129190691D01*
X155739113Y-129139511D01*
X155636386Y-129080201D01*
X155521809Y-129049500D01*
X155403191Y-129049500D01*
X155288614Y-129080201D01*
X155288612Y-129080201D01*
X155288612Y-129080202D01*
X155185887Y-129139511D01*
X155185884Y-129139513D01*
X155102013Y-129223384D01*
X155102011Y-129223387D01*
X155042701Y-129326114D01*
X155012000Y-129440691D01*
X146200500Y-129440691D01*
X146200500Y-128690691D01*
X165799500Y-128690691D01*
X165799500Y-128809309D01*
X165830201Y-128923886D01*
X165889511Y-129026613D01*
X165973387Y-129110489D01*
X166076114Y-129169799D01*
X166190691Y-129200500D01*
X166190694Y-129200500D01*
X166309306Y-129200500D01*
X166309309Y-129200500D01*
X166423886Y-129169799D01*
X166526613Y-129110489D01*
X166610489Y-129026613D01*
X166669799Y-128923886D01*
X166700500Y-128809309D01*
X166700500Y-128690691D01*
X166669799Y-128576114D01*
X166610489Y-128473387D01*
X166526613Y-128389511D01*
X166423886Y-128330201D01*
X166309309Y-128299500D01*
X166190691Y-128299500D01*
X166076114Y-128330201D01*
X166076112Y-128330201D01*
X166076112Y-128330202D01*
X165973387Y-128389511D01*
X165973384Y-128389513D01*
X165889513Y-128473384D01*
X165889511Y-128473387D01*
X165830201Y-128576114D01*
X165799500Y-128690691D01*
X146200500Y-128690691D01*
X146200500Y-126540691D01*
X158049500Y-126540691D01*
X158049500Y-126659309D01*
X158080201Y-126773886D01*
X158139511Y-126876613D01*
X158223387Y-126960489D01*
X158326114Y-127019799D01*
X158440691Y-127050500D01*
X158440694Y-127050500D01*
X158559306Y-127050500D01*
X158559309Y-127050500D01*
X158673886Y-127019799D01*
X158776613Y-126960489D01*
X158860489Y-126876613D01*
X158919799Y-126773886D01*
X158950500Y-126659309D01*
X158950500Y-126578191D01*
X160049500Y-126578191D01*
X160049500Y-126696809D01*
X160080201Y-126811386D01*
X160139511Y-126914113D01*
X160223387Y-126997989D01*
X160326114Y-127057299D01*
X160440691Y-127088000D01*
X160440694Y-127088000D01*
X160559306Y-127088000D01*
X160559309Y-127088000D01*
X160673886Y-127057299D01*
X160776613Y-126997989D01*
X160860489Y-126914113D01*
X160919799Y-126811386D01*
X160950500Y-126696809D01*
X160950500Y-126578191D01*
X160943801Y-126553191D01*
X162549500Y-126553191D01*
X162549500Y-126671809D01*
X162580201Y-126786386D01*
X162639511Y-126889113D01*
X162723387Y-126972989D01*
X162826114Y-127032299D01*
X162940691Y-127063000D01*
X162940694Y-127063000D01*
X163059306Y-127063000D01*
X163059309Y-127063000D01*
X163173886Y-127032299D01*
X163276613Y-126972989D01*
X163360489Y-126889113D01*
X163419799Y-126786386D01*
X163450500Y-126671809D01*
X163450500Y-126553191D01*
X163419799Y-126438614D01*
X163360489Y-126335887D01*
X163276613Y-126252011D01*
X163173886Y-126192701D01*
X163059309Y-126162000D01*
X162940691Y-126162000D01*
X162826114Y-126192701D01*
X162826112Y-126192701D01*
X162826112Y-126192702D01*
X162723387Y-126252011D01*
X162723384Y-126252013D01*
X162639513Y-126335884D01*
X162639511Y-126335887D01*
X162580201Y-126438614D01*
X162549500Y-126553191D01*
X160943801Y-126553191D01*
X160919799Y-126463614D01*
X160860489Y-126360887D01*
X160776613Y-126277011D01*
X160673886Y-126217701D01*
X160559309Y-126187000D01*
X160440691Y-126187000D01*
X160326114Y-126217701D01*
X160326112Y-126217701D01*
X160326112Y-126217702D01*
X160223387Y-126277011D01*
X160223384Y-126277013D01*
X160139513Y-126360884D01*
X160139511Y-126360887D01*
X160080201Y-126463614D01*
X160049500Y-126578191D01*
X158950500Y-126578191D01*
X158950500Y-126540691D01*
X158919799Y-126426114D01*
X158860489Y-126323387D01*
X158776613Y-126239511D01*
X158673886Y-126180201D01*
X158559309Y-126149500D01*
X158440691Y-126149500D01*
X158326114Y-126180201D01*
X158326112Y-126180201D01*
X158326112Y-126180202D01*
X158223387Y-126239511D01*
X158223384Y-126239513D01*
X158139513Y-126323384D01*
X158139511Y-126323387D01*
X158080201Y-126426114D01*
X158049500Y-126540691D01*
X146200500Y-126540691D01*
X146200500Y-120124000D01*
X146220185Y-120056961D01*
X146272989Y-120011206D01*
X146324500Y-120000000D01*
X158626000Y-120000000D01*
X158693039Y-120019685D01*
G37*
%TD.AperFunction*%
%TD*%
%TA.AperFunction,Conductor*%
%TO.N,/VBUS*%
G36*
X187943039Y-121519685D02*
G01*
X187988794Y-121572489D01*
X188000000Y-121624000D01*
X188000000Y-128198637D01*
X187980315Y-128265676D01*
X187963681Y-128286318D01*
X186709864Y-129540134D01*
X186648541Y-129573619D01*
X186578849Y-129568635D01*
X186522916Y-129526763D01*
X186498499Y-129461299D01*
X186502407Y-129420366D01*
X186525500Y-129334183D01*
X186525500Y-129195817D01*
X186489688Y-129062164D01*
X186420505Y-128942335D01*
X186322665Y-128844495D01*
X186322662Y-128844493D01*
X186322661Y-128844492D01*
X186202838Y-128775313D01*
X186202837Y-128775312D01*
X186202836Y-128775312D01*
X186069183Y-128739500D01*
X185930817Y-128739500D01*
X185797164Y-128775312D01*
X185797161Y-128775313D01*
X185677337Y-128844493D01*
X185675483Y-128845916D01*
X185673637Y-128846629D01*
X185670297Y-128848558D01*
X185669996Y-128848036D01*
X185610312Y-128871107D01*
X185541868Y-128857066D01*
X185524517Y-128845916D01*
X185522662Y-128844493D01*
X185402838Y-128775313D01*
X185402837Y-128775312D01*
X185402836Y-128775312D01*
X185269183Y-128739500D01*
X185130817Y-128739500D01*
X184997164Y-128775312D01*
X184997161Y-128775313D01*
X184877338Y-128844492D01*
X184877333Y-128844496D01*
X184779496Y-128942333D01*
X184779492Y-128942338D01*
X184710313Y-129062161D01*
X184710312Y-129062164D01*
X184674500Y-129195817D01*
X184674500Y-129240138D01*
X184654815Y-129307177D01*
X184609973Y-129346032D01*
X184625000Y-129309755D01*
X184625000Y-129220245D01*
X184590746Y-129137548D01*
X184527452Y-129074254D01*
X184444755Y-129040000D01*
X184355245Y-129040000D01*
X184272548Y-129074254D01*
X184209254Y-129137548D01*
X184175000Y-129220245D01*
X184175000Y-129309755D01*
X184188949Y-129343431D01*
X184150233Y-129314448D01*
X184125816Y-129248984D01*
X184125500Y-129240138D01*
X184125500Y-129195819D01*
X184125500Y-129195817D01*
X184089688Y-129062164D01*
X184020505Y-128942335D01*
X183922665Y-128844495D01*
X183922662Y-128844493D01*
X183922661Y-128844492D01*
X183802838Y-128775313D01*
X183802837Y-128775312D01*
X183802836Y-128775312D01*
X183669183Y-128739500D01*
X183530817Y-128739500D01*
X183397164Y-128775312D01*
X183397161Y-128775313D01*
X183277337Y-128844493D01*
X183275483Y-128845916D01*
X183273637Y-128846629D01*
X183270297Y-128848558D01*
X183269996Y-128848036D01*
X183210312Y-128871107D01*
X183141868Y-128857066D01*
X183124517Y-128845916D01*
X183122662Y-128844493D01*
X183002838Y-128775313D01*
X183002837Y-128775312D01*
X183002836Y-128775312D01*
X182869183Y-128739500D01*
X182730817Y-128739500D01*
X182597164Y-128775312D01*
X182597161Y-128775313D01*
X182477338Y-128844492D01*
X182477333Y-128844496D01*
X182379496Y-128942333D01*
X182379492Y-128942338D01*
X182310313Y-129062161D01*
X182310312Y-129062164D01*
X182274500Y-129195817D01*
X182274500Y-129240138D01*
X182254815Y-129307177D01*
X182209973Y-129346032D01*
X182225000Y-129309755D01*
X182225000Y-129220245D01*
X182190746Y-129137548D01*
X182127452Y-129074254D01*
X182044755Y-129040000D01*
X181955245Y-129040000D01*
X181872548Y-129074254D01*
X181809254Y-129137548D01*
X181775000Y-129220245D01*
X181775000Y-129309755D01*
X181788949Y-129343431D01*
X181750233Y-129314448D01*
X181725816Y-129248984D01*
X181725500Y-129240138D01*
X181725500Y-129195819D01*
X181725500Y-129195817D01*
X181689688Y-129062164D01*
X181620505Y-128942335D01*
X181522665Y-128844495D01*
X181522662Y-128844493D01*
X181522661Y-128844492D01*
X181402838Y-128775313D01*
X181402837Y-128775312D01*
X181402836Y-128775312D01*
X181269183Y-128739500D01*
X181130817Y-128739500D01*
X180997164Y-128775312D01*
X180997161Y-128775313D01*
X180877337Y-128844493D01*
X180875483Y-128845916D01*
X180873637Y-128846629D01*
X180870297Y-128848558D01*
X180869996Y-128848036D01*
X180810312Y-128871107D01*
X180741868Y-128857066D01*
X180724517Y-128845916D01*
X180722662Y-128844493D01*
X180602838Y-128775313D01*
X180602837Y-128775312D01*
X180602836Y-128775312D01*
X180469183Y-128739500D01*
X180330817Y-128739500D01*
X180197164Y-128775312D01*
X180197161Y-128775313D01*
X180077338Y-128844492D01*
X180077333Y-128844496D01*
X179979496Y-128942333D01*
X179979492Y-128942338D01*
X179910313Y-129062161D01*
X179910312Y-129062164D01*
X179874500Y-129195817D01*
X179874500Y-129334183D01*
X179908561Y-129461299D01*
X179910312Y-129467835D01*
X179910313Y-129467838D01*
X179979492Y-129587661D01*
X179979494Y-129587664D01*
X179979495Y-129587665D01*
X180077335Y-129685505D01*
X180197164Y-129754688D01*
X180197169Y-129754689D01*
X180202754Y-129757003D01*
X180257158Y-129800844D01*
X180279224Y-129867138D01*
X180275081Y-129903645D01*
X180274501Y-129905808D01*
X180274500Y-129905820D01*
X180274500Y-130044182D01*
X180310312Y-130177835D01*
X180310313Y-130177838D01*
X180379492Y-130297661D01*
X180379494Y-130297664D01*
X180379495Y-130297665D01*
X180477335Y-130395505D01*
X180597164Y-130464688D01*
X180730817Y-130500500D01*
X180730819Y-130500500D01*
X180869181Y-130500500D01*
X180869183Y-130500500D01*
X181002836Y-130464688D01*
X181122665Y-130395505D01*
X181122670Y-130395499D01*
X181124510Y-130394089D01*
X181126351Y-130393377D01*
X181129703Y-130391442D01*
X181130004Y-130391964D01*
X181189678Y-130368892D01*
X181258124Y-130382928D01*
X181275490Y-130394089D01*
X181277332Y-130395502D01*
X181277335Y-130395505D01*
X181397164Y-130464688D01*
X181530817Y-130500500D01*
X181530819Y-130500500D01*
X181669181Y-130500500D01*
X181669183Y-130500500D01*
X181802836Y-130464688D01*
X181922665Y-130395505D01*
X181922670Y-130395499D01*
X181924510Y-130394089D01*
X181926351Y-130393377D01*
X181929703Y-130391442D01*
X181930004Y-130391964D01*
X181989678Y-130368892D01*
X182058124Y-130382928D01*
X182075490Y-130394089D01*
X182077332Y-130395502D01*
X182077335Y-130395505D01*
X182197164Y-130464688D01*
X182330817Y-130500500D01*
X182330819Y-130500500D01*
X182469181Y-130500500D01*
X182469183Y-130500500D01*
X182602836Y-130464688D01*
X182722665Y-130395505D01*
X182820505Y-130297665D01*
X182889688Y-130177836D01*
X182925500Y-130044183D01*
X182925500Y-129905817D01*
X182924921Y-129903656D01*
X182924966Y-129901764D01*
X182924439Y-129897761D01*
X182925063Y-129897678D01*
X182925587Y-129875655D01*
X182923001Y-129847767D01*
X182926408Y-129841202D01*
X182926584Y-129833810D01*
X182942282Y-129810615D01*
X182955186Y-129785752D01*
X182962487Y-129780761D01*
X182965746Y-129775947D01*
X182982988Y-129764010D01*
X182996081Y-129756497D01*
X183002836Y-129754688D01*
X183122665Y-129685505D01*
X183126494Y-129681675D01*
X183138292Y-129674907D01*
X183164518Y-129668619D01*
X183189678Y-129658892D01*
X183197988Y-129660596D01*
X183206237Y-129658619D01*
X183231700Y-129667509D01*
X183258124Y-129672928D01*
X183271093Y-129681263D01*
X183272201Y-129681650D01*
X183272712Y-129682303D01*
X183275490Y-129684089D01*
X183277332Y-129685502D01*
X183277335Y-129685505D01*
X183397164Y-129754688D01*
X183397169Y-129754689D01*
X183402754Y-129757003D01*
X183457158Y-129800844D01*
X183479224Y-129867138D01*
X183475081Y-129903645D01*
X183474501Y-129905808D01*
X183474500Y-129905820D01*
X183474500Y-130044182D01*
X183510312Y-130177835D01*
X183510313Y-130177838D01*
X183579492Y-130297661D01*
X183579494Y-130297664D01*
X183579495Y-130297665D01*
X183677335Y-130395505D01*
X183797164Y-130464688D01*
X183930817Y-130500500D01*
X183930819Y-130500500D01*
X184069181Y-130500500D01*
X184069183Y-130500500D01*
X184202836Y-130464688D01*
X184322665Y-130395505D01*
X184322670Y-130395499D01*
X184324510Y-130394089D01*
X184326351Y-130393377D01*
X184329703Y-130391442D01*
X184330004Y-130391964D01*
X184389678Y-130368892D01*
X184458124Y-130382928D01*
X184475490Y-130394089D01*
X184477332Y-130395502D01*
X184477335Y-130395505D01*
X184597164Y-130464688D01*
X184730817Y-130500500D01*
X184730819Y-130500500D01*
X184869181Y-130500500D01*
X184869183Y-130500500D01*
X185002836Y-130464688D01*
X185122665Y-130395505D01*
X185122670Y-130395499D01*
X185124510Y-130394089D01*
X185126351Y-130393377D01*
X185129703Y-130391442D01*
X185130004Y-130391964D01*
X185189678Y-130368892D01*
X185258124Y-130382928D01*
X185275490Y-130394089D01*
X185277332Y-130395502D01*
X185277335Y-130395505D01*
X185397164Y-130464688D01*
X185495830Y-130491125D01*
X185555491Y-130527490D01*
X185586020Y-130590337D01*
X185577725Y-130659712D01*
X185551421Y-130698578D01*
X185536322Y-130713678D01*
X185475000Y-130747165D01*
X185448638Y-130750000D01*
X179779500Y-130750000D01*
X179712461Y-130730315D01*
X179666706Y-130677511D01*
X179655500Y-130626000D01*
X179655500Y-129818542D01*
X179627620Y-129678385D01*
X179627619Y-129678384D01*
X179627619Y-129678380D01*
X179572929Y-129546347D01*
X179572928Y-129546346D01*
X179572925Y-129546340D01*
X179493532Y-129427521D01*
X179493529Y-129427517D01*
X179392482Y-129326470D01*
X179392478Y-129326467D01*
X179273659Y-129247074D01*
X179273650Y-129247069D01*
X179141620Y-129192381D01*
X179141614Y-129192379D01*
X179001457Y-129164500D01*
X179001455Y-129164500D01*
X178858545Y-129164500D01*
X178858543Y-129164500D01*
X178718385Y-129192379D01*
X178718379Y-129192381D01*
X178586349Y-129247069D01*
X178586340Y-129247074D01*
X178467521Y-129326467D01*
X178467517Y-129326470D01*
X178366470Y-129427517D01*
X178366467Y-129427521D01*
X178287074Y-129546340D01*
X178287069Y-129546349D01*
X178232381Y-129678379D01*
X178232379Y-129678385D01*
X178204500Y-129818542D01*
X178204500Y-129855602D01*
X178184815Y-129922641D01*
X178132011Y-129968396D01*
X178062853Y-129978340D01*
X178003038Y-129952430D01*
X176397077Y-128667661D01*
X176225023Y-128530018D01*
X181618571Y-128530018D01*
X182000000Y-128911446D01*
X182000001Y-128911446D01*
X182381427Y-128530018D01*
X184018571Y-128530018D01*
X184400000Y-128911446D01*
X184400001Y-128911446D01*
X184781427Y-128530018D01*
X184640644Y-128471704D01*
X184640636Y-128471702D01*
X184481259Y-128440000D01*
X184318740Y-128440000D01*
X184159363Y-128471701D01*
X184159354Y-128471704D01*
X184018571Y-128530018D01*
X182381427Y-128530018D01*
X182240644Y-128471704D01*
X182240636Y-128471702D01*
X182081259Y-128440000D01*
X181918740Y-128440000D01*
X181759363Y-128471701D01*
X181759354Y-128471704D01*
X181618571Y-128530018D01*
X176225023Y-128530018D01*
X175296538Y-127787230D01*
X175295092Y-127785163D01*
X175292797Y-127784115D01*
X175275166Y-127756681D01*
X175256486Y-127729979D01*
X175255965Y-127726803D01*
X175255023Y-127725337D01*
X175250042Y-127690691D01*
X178299500Y-127690691D01*
X178299500Y-127809309D01*
X178330201Y-127923886D01*
X178389511Y-128026613D01*
X178473387Y-128110489D01*
X178576114Y-128169799D01*
X178690691Y-128200500D01*
X178690694Y-128200500D01*
X178809306Y-128200500D01*
X178809309Y-128200500D01*
X178923886Y-128169799D01*
X179026613Y-128110489D01*
X179110489Y-128026613D01*
X179169799Y-127923886D01*
X179200500Y-127809309D01*
X179200500Y-127690691D01*
X179169799Y-127576114D01*
X179110489Y-127473387D01*
X179026613Y-127389511D01*
X178923886Y-127330201D01*
X178809309Y-127299500D01*
X178690691Y-127299500D01*
X178576114Y-127330201D01*
X178576112Y-127330201D01*
X178576112Y-127330202D01*
X178473387Y-127389511D01*
X178473384Y-127389513D01*
X178389513Y-127473384D01*
X178389511Y-127473387D01*
X178330201Y-127576114D01*
X178299500Y-127690691D01*
X175250042Y-127690691D01*
X175250000Y-127690402D01*
X175250000Y-126990691D01*
X185499500Y-126990691D01*
X185499500Y-127109309D01*
X185530201Y-127223886D01*
X185589511Y-127326613D01*
X185673387Y-127410489D01*
X185776114Y-127469799D01*
X185890691Y-127500500D01*
X185890694Y-127500500D01*
X186009306Y-127500500D01*
X186009309Y-127500500D01*
X186123886Y-127469799D01*
X186226613Y-127410489D01*
X186310489Y-127326613D01*
X186369799Y-127223886D01*
X186400500Y-127109309D01*
X186400500Y-126990691D01*
X186369799Y-126876114D01*
X186310489Y-126773387D01*
X186226613Y-126689511D01*
X186123886Y-126630201D01*
X186009309Y-126599500D01*
X185890691Y-126599500D01*
X185776114Y-126630201D01*
X185776112Y-126630201D01*
X185776112Y-126630202D01*
X185673387Y-126689511D01*
X185673384Y-126689513D01*
X185589513Y-126773384D01*
X185589511Y-126773387D01*
X185530201Y-126876114D01*
X185499500Y-126990691D01*
X175250000Y-126990691D01*
X175250000Y-125440691D01*
X180708021Y-125440691D01*
X180708021Y-125559309D01*
X180738722Y-125673886D01*
X180798032Y-125776613D01*
X180881908Y-125860489D01*
X180984635Y-125919799D01*
X181099212Y-125950500D01*
X181099215Y-125950500D01*
X181217827Y-125950500D01*
X181217830Y-125950500D01*
X181332407Y-125919799D01*
X181435134Y-125860489D01*
X181519010Y-125776613D01*
X181578320Y-125673886D01*
X181609021Y-125559309D01*
X181609021Y-125440691D01*
X181578320Y-125326114D01*
X181519010Y-125223387D01*
X181435134Y-125139511D01*
X181332407Y-125080201D01*
X181228422Y-125052338D01*
X181224873Y-125051387D01*
X181217830Y-125049500D01*
X181099212Y-125049500D01*
X180984635Y-125080201D01*
X180984633Y-125080201D01*
X180984633Y-125080202D01*
X180881908Y-125139511D01*
X180881905Y-125139513D01*
X180798034Y-125223384D01*
X180798032Y-125223387D01*
X180767301Y-125276615D01*
X180738722Y-125326114D01*
X180708021Y-125440691D01*
X175250000Y-125440691D01*
X175250000Y-124940691D01*
X185049500Y-124940691D01*
X185049500Y-125059309D01*
X185080201Y-125173886D01*
X185139511Y-125276613D01*
X185223387Y-125360489D01*
X185326114Y-125419799D01*
X185440691Y-125450500D01*
X185440694Y-125450500D01*
X185559306Y-125450500D01*
X185559309Y-125450500D01*
X185673886Y-125419799D01*
X185776613Y-125360489D01*
X185860489Y-125276613D01*
X185919799Y-125173886D01*
X185950500Y-125059309D01*
X185950500Y-124940691D01*
X185919799Y-124826114D01*
X185860489Y-124723387D01*
X185776613Y-124639511D01*
X185673886Y-124580201D01*
X185559309Y-124549500D01*
X185440691Y-124549500D01*
X185326114Y-124580201D01*
X185326112Y-124580201D01*
X185326112Y-124580202D01*
X185223387Y-124639511D01*
X185223384Y-124639513D01*
X185139513Y-124723384D01*
X185139511Y-124723387D01*
X185080201Y-124826114D01*
X185049500Y-124940691D01*
X175250000Y-124940691D01*
X175250000Y-123591691D01*
X180549500Y-123591691D01*
X180549500Y-123710309D01*
X180580201Y-123824886D01*
X180639511Y-123927613D01*
X180723387Y-124011489D01*
X180826114Y-124070799D01*
X180940691Y-124101500D01*
X180940694Y-124101500D01*
X181059306Y-124101500D01*
X181059309Y-124101500D01*
X181173886Y-124070799D01*
X181276613Y-124011489D01*
X181360489Y-123927613D01*
X181419799Y-123824886D01*
X181450500Y-123710309D01*
X181450500Y-123591691D01*
X181419799Y-123477114D01*
X181360489Y-123374387D01*
X181276613Y-123290511D01*
X181173886Y-123231201D01*
X181059309Y-123200500D01*
X180940691Y-123200500D01*
X180826114Y-123231201D01*
X180826112Y-123231201D01*
X180826112Y-123231202D01*
X180723387Y-123290511D01*
X180723384Y-123290513D01*
X180639513Y-123374384D01*
X180639511Y-123374387D01*
X180580201Y-123477114D01*
X180549500Y-123591691D01*
X175250000Y-123591691D01*
X175250000Y-121624000D01*
X175269685Y-121556961D01*
X175322489Y-121511206D01*
X175374000Y-121500000D01*
X187876000Y-121500000D01*
X187943039Y-121519685D01*
G37*
%TD.AperFunction*%
%TD*%
M02*
