%TF.GenerationSoftware,KiCad,Pcbnew,9.0.2*%
%TF.CreationDate,2025-06-28T16:23:08+05:30*%
%TF.ProjectId,ESP32 PCB,45535033-3220-4504-9342-2e6b69636164,rev?*%
%TF.SameCoordinates,Original*%
%TF.FileFunction,Copper,L4,Bot*%
%TF.FilePolarity,Positive*%
%FSLAX46Y46*%
G04 Gerber Fmt 4.6, Leading zero omitted, Abs format (unit mm)*
G04 Created by KiCad (PCBNEW 9.0.2) date 2025-06-28 16:23:08*
%MOMM*%
%LPD*%
G01*
G04 APERTURE LIST*
%TA.AperFunction,ComponentPad*%
%ADD10C,0.650000*%
%TD*%
%TA.AperFunction,ComponentPad*%
%ADD11O,1.050000X2.100000*%
%TD*%
%TA.AperFunction,ComponentPad*%
%ADD12R,1.700000X1.700000*%
%TD*%
%TA.AperFunction,ComponentPad*%
%ADD13C,1.700000*%
%TD*%
%TA.AperFunction,ComponentPad*%
%ADD14C,1.208000*%
%TD*%
%TA.AperFunction,ComponentPad*%
%ADD15C,0.400000*%
%TD*%
%TA.AperFunction,ComponentPad*%
%ADD16C,0.600000*%
%TD*%
%TA.AperFunction,ViaPad*%
%ADD17C,0.500000*%
%TD*%
%TA.AperFunction,ViaPad*%
%ADD18C,0.600000*%
%TD*%
%TA.AperFunction,Conductor*%
%ADD19C,1.000000*%
%TD*%
%TA.AperFunction,Conductor*%
%ADD20C,0.300000*%
%TD*%
%TA.AperFunction,Conductor*%
%ADD21C,0.250000*%
%TD*%
%TA.AperFunction,Conductor*%
%ADD22C,0.200000*%
%TD*%
G04 APERTURE END LIST*
D10*
%TO.P,J1,B1,GNDB1*%
%TO.N,GND*%
X186000000Y-129265000D03*
%TO.P,J1,B2,SSTXP2*%
%TO.N,unconnected-(J1-SSTXP2-PadB2)*%
X185600000Y-129975000D03*
%TO.P,J1,B3,SSTXN2*%
%TO.N,unconnected-(J1-SSTXN2-PadB3)*%
X184800000Y-129975000D03*
%TO.P,J1,B4,VBUSB1*%
%TO.N,/VBUS*%
X184400000Y-129265000D03*
%TO.P,J1,B5,CC2*%
%TO.N,Net-(J1-CC2)*%
X184000000Y-129975000D03*
%TO.P,J1,B6,DP2*%
%TO.N,/USB_DP*%
X183600000Y-129265000D03*
%TO.P,J1,B7,DN2*%
%TO.N,/USB_DN*%
X182800000Y-129265000D03*
%TO.P,J1,B8,SBU2*%
%TO.N,unconnected-(J1-SBU2-PadB8)*%
X182400000Y-129975000D03*
%TO.P,J1,B9,VBUSB2*%
%TO.N,/VBUS*%
X182000000Y-129265000D03*
%TO.P,J1,B10,SSRXN1*%
%TO.N,unconnected-(J1-SSRXN1-PadB10)*%
X181600000Y-129975000D03*
%TO.P,J1,B11,SSRXP1*%
%TO.N,unconnected-(J1-SSRXP1-PadB11)*%
X180800000Y-129975000D03*
%TO.P,J1,B12,GNDB2*%
%TO.N,GND*%
X180400000Y-129265000D03*
%TO.P,J1,G1,GND/SHIELD*%
X185200000Y-129265000D03*
%TO.P,J1,G2,GND/SHIELD*%
X181200000Y-129265000D03*
D11*
%TO.P,J1,S1,GND/SHIELD*%
X178930000Y-130415000D03*
%TO.P,J1,S2,GND/SHIELD*%
X187470000Y-130415000D03*
%TO.P,J1,S3,GND/SHIELD*%
X178930000Y-135145000D03*
%TO.P,J1,S4,GND/SHIELD*%
X187470000Y-135145000D03*
%TD*%
D12*
%TO.P,J4,1,Pin_1*%
%TO.N,+3.3V*%
X182630000Y-88000000D03*
D13*
%TO.P,J4,2,Pin_2*%
%TO.N,/ESP32-C3-02/sDA*%
X180090000Y-88000000D03*
%TO.P,J4,3,Pin_3*%
%TO.N,/ESP32-C3-02/SCL*%
X177550000Y-88000000D03*
%TO.P,J4,4,Pin_4*%
%TO.N,GND*%
X175010000Y-88000000D03*
%TD*%
D12*
%TO.P,J5,1,Pin_1*%
%TO.N,+3.3V*%
X164125000Y-87450000D03*
D13*
%TO.P,J5,2,Pin_2*%
%TO.N,/ESP32-C3-02/GPIO 8*%
X161585000Y-87450000D03*
%TO.P,J5,3,Pin_3*%
%TO.N,/ESP32-C3-02/GPIO18*%
X159045000Y-87450000D03*
%TO.P,J5,4,Pin_4*%
%TO.N,/ESP32-C3-02/GPIO19*%
X156505000Y-87450000D03*
%TO.P,J5,5,Pin_5*%
%TO.N,GND*%
X153965000Y-87450000D03*
%TD*%
D14*
%TO.P,MK1,GND*%
%TO.N,GND*%
X158500000Y-96050000D03*
%TO.P,MK1,OUT*%
%TO.N,Net-(C22-Pad1)*%
X158500000Y-97950000D03*
%TD*%
D15*
%TO.P,U5,28,GND*%
%TO.N,GND*%
X233460000Y-97775000D03*
%TO.P,U5,29,GND*%
X234560000Y-97775000D03*
D16*
%TO.P,U5,30,GND*%
X232910000Y-98325000D03*
D15*
%TO.P,U5,31,GND*%
X234010000Y-98325000D03*
%TO.P,U5,32,GND*%
X235110000Y-98325000D03*
%TO.P,U5,33,GND*%
X233460000Y-98875000D03*
%TO.P,U5,34,GND*%
X234560000Y-98875000D03*
%TO.P,U5,35,GND*%
X232910000Y-99425000D03*
%TO.P,U5,36,GND*%
X234010000Y-99425000D03*
%TO.P,U5,37,GND*%
X235110000Y-99425000D03*
%TO.P,U5,38,GND*%
X233460000Y-99975000D03*
%TO.P,U5,39,GND*%
X234560000Y-99975000D03*
%TD*%
D17*
%TO.N,+5V*%
X167025000Y-133975000D03*
X164000000Y-134500000D03*
%TO.N,GND*%
X217500000Y-110500000D03*
X210000000Y-136000000D03*
X194900000Y-116600000D03*
X163275000Y-118500000D03*
X162325000Y-118475000D03*
X216208160Y-96335701D03*
X164625000Y-93000000D03*
X159775000Y-130300000D03*
X197425000Y-89500000D03*
X227000000Y-103500000D03*
X186600000Y-120400000D03*
X158500000Y-126600000D03*
X204007922Y-134545499D03*
X202000000Y-106500000D03*
X230500000Y-114500000D03*
X176500000Y-103000000D03*
X192500000Y-103500000D03*
X161500000Y-102500000D03*
X158325000Y-112875000D03*
X149750000Y-137250000D03*
X189650000Y-120350000D03*
X156550000Y-111675000D03*
X193250000Y-87250000D03*
X161500000Y-113000000D03*
X197000000Y-135500000D03*
X160000000Y-113000000D03*
X163225000Y-116775000D03*
X158025000Y-111700000D03*
X183200000Y-134000000D03*
X179500000Y-120500000D03*
X239000000Y-134000000D03*
X160500000Y-126637500D03*
D18*
X149750000Y-136300000D03*
D17*
X214000000Y-111000000D03*
X190350000Y-122850000D03*
X191500000Y-120500000D03*
X239463767Y-110981809D03*
X163000000Y-126612500D03*
X222000000Y-108000000D03*
X167325000Y-98325000D03*
X217500000Y-134500000D03*
X231000000Y-111000000D03*
X185950000Y-127050000D03*
X162325000Y-116750000D03*
X178750000Y-127750000D03*
X185000000Y-115500000D03*
X181000000Y-123651000D03*
X170375000Y-92125000D03*
X166500000Y-131250000D03*
X165500000Y-137000000D03*
X162425000Y-115175000D03*
X149750000Y-138250000D03*
X194500000Y-135000000D03*
%TO.N,+3.3V*%
X228500000Y-114500000D03*
X152250000Y-105550000D03*
X183500000Y-110500000D03*
X214000000Y-101000000D03*
X195000000Y-100500000D03*
X167033333Y-103400000D03*
X199975000Y-91250000D03*
X163200000Y-103400000D03*
X214500000Y-95000000D03*
X202000000Y-91000000D03*
X194508671Y-128442116D03*
X171500000Y-103500000D03*
X235500000Y-107000000D03*
X193750000Y-90250000D03*
X172500000Y-94000000D03*
X156500000Y-107500000D03*
X163966667Y-103400000D03*
X166266667Y-103400000D03*
X164733333Y-103400000D03*
X167800000Y-103400000D03*
X165500000Y-103400000D03*
X173175000Y-110175000D03*
X202575000Y-101075000D03*
X176775000Y-110275000D03*
X190500000Y-113000000D03*
X190750000Y-87500000D03*
X187500000Y-114500000D03*
X174500000Y-104000000D03*
%TO.N,/VBUS*%
X179250000Y-126750000D03*
X187250000Y-126250000D03*
X183150000Y-126000000D03*
X177750000Y-122500000D03*
X177750000Y-124500000D03*
X177750000Y-123500000D03*
%TO.N,Net-(U3-VBUS)*%
X193800000Y-117800000D03*
X193750000Y-113000000D03*
%TO.N,/ESP32-C3-02/BOOT*%
X228000000Y-105500000D03*
X217574000Y-119574000D03*
%TO.N,/ESP32-C3-02/EN*%
X229500000Y-103999999D03*
X216500000Y-119500000D03*
%TO.N,/USB_DP*%
X181158521Y-125500000D03*
%TO.N,/USB_DN*%
X185500000Y-125000000D03*
%TO.N,/ESP32-C3-02/sDA*%
X234500000Y-94000000D03*
X212000000Y-94250000D03*
%TO.N,/ESP32-C3-02/SCL*%
X215800000Y-92850000D03*
X236612500Y-92862500D03*
%TO.N,/ESP32-C3-02/GPIO 8*%
X170000000Y-88000000D03*
X226000000Y-99000000D03*
%TO.N,/ESP32-C3-02/GPIO19*%
X162500000Y-91750000D03*
X238535586Y-100500000D03*
%TO.N,/ESP32-C3-02/GPIO18*%
X240000000Y-100000000D03*
X171000000Y-89500000D03*
%TO.N,/ESP32-C3-02/sc_SD*%
X243250000Y-92750000D03*
X241900000Y-108600000D03*
%TO.N,/ESP32-C3-02/Photo C*%
X198500000Y-106500000D03*
X239000000Y-93500000D03*
%TO.N,/ESP32-C3-02/RTS*%
X200562500Y-127062500D03*
X180128768Y-116525000D03*
%TO.N,/ESP32-C3-02/DTR*%
X200500000Y-130000000D03*
X181750000Y-113500000D03*
%TO.N,/CHARGING POWER GOOD*%
X155462500Y-129500000D03*
X166250000Y-128750000D03*
%TO.N,/CHARGED *%
X153500000Y-130000000D03*
X163250000Y-129250000D03*
%TO.N,/ESP32-C3-02/RX_TX*%
X180500000Y-110500000D03*
X240000000Y-102000000D03*
%TO.N,/ESP32-C3-02/TX_RX*%
X180000000Y-107750000D03*
X237500000Y-101500000D03*
%TO.N,/+5V_USB*%
X153000000Y-121850000D03*
X171500000Y-125000000D03*
X171500000Y-122550000D03*
X165000000Y-136000000D03*
X167500000Y-130500000D03*
X150000000Y-121850000D03*
X159000000Y-138500000D03*
X166000000Y-132500000D03*
X160250000Y-136000000D03*
X171500000Y-123500000D03*
X162225000Y-136000000D03*
%TD*%
D19*
%TO.N,+5V*%
X167025000Y-133975000D02*
X166750000Y-134250000D01*
X166750000Y-134250000D02*
X164250000Y-134250000D01*
X164000000Y-134500000D02*
X164250000Y-134250000D01*
D20*
%TO.N,/VBUS*%
X186000000Y-124000000D02*
X185150000Y-124000000D01*
X186500000Y-124500000D02*
X186000000Y-124000000D01*
X186500000Y-125500000D02*
X186500000Y-124500000D01*
X185150000Y-124000000D02*
X183150000Y-126000000D01*
X187250000Y-126250000D02*
X186500000Y-125500000D01*
D21*
%TO.N,Net-(U3-VBUS)*%
X193800000Y-117800000D02*
X193750000Y-117750000D01*
X193750000Y-117750000D02*
X193750000Y-113000000D01*
%TO.N,/ESP32-C3-02/BOOT*%
X228000000Y-105500000D02*
X228000000Y-109148000D01*
X228000000Y-109148000D02*
X217574000Y-119574000D01*
%TO.N,/ESP32-C3-02/EN*%
X227000000Y-105500000D02*
X227000000Y-106500000D01*
X227000000Y-109000000D02*
X227000000Y-106500000D01*
X229500000Y-103999999D02*
X228500001Y-103999999D01*
X216500000Y-119500000D02*
X227000000Y-109000000D01*
X228500001Y-103999999D02*
X227000000Y-105500000D01*
D20*
%TO.N,/USB_DN*%
X182800000Y-129265000D02*
X182800000Y-128200000D01*
X182800000Y-128200000D02*
X185500000Y-125500000D01*
X185500000Y-125500000D02*
X185500000Y-125000000D01*
D21*
%TO.N,/ESP32-C3-02/sDA*%
X229594603Y-94500000D02*
X229714603Y-94500000D01*
X229954603Y-94260000D02*
X229954603Y-93740000D01*
X212750000Y-93500000D02*
X226714603Y-93500000D01*
X227194603Y-94500000D02*
X227314603Y-94500000D01*
X234500000Y-94000000D02*
X234000000Y-93500000D01*
X230794603Y-94500000D02*
X230914603Y-94500000D01*
X228994603Y-93500000D02*
X229114603Y-93500000D01*
X212000000Y-94250000D02*
X212750000Y-93500000D01*
X227554603Y-94260000D02*
X227554603Y-93740000D01*
X228754603Y-94260000D02*
X228754603Y-93740000D01*
X228154603Y-93740000D02*
X228154603Y-94260000D01*
X234000000Y-93500000D02*
X233742979Y-93500000D01*
X232714603Y-93500000D02*
X233742979Y-93500000D01*
X232594603Y-93500000D02*
X232714603Y-93500000D01*
X232354603Y-94260000D02*
X232354603Y-93740000D01*
X231154603Y-94260000D02*
X231154603Y-93740000D01*
X231994603Y-94500000D02*
X232114603Y-94500000D01*
X230194603Y-93500000D02*
X230314603Y-93500000D01*
X226954603Y-93740000D02*
X226954603Y-94260000D01*
X229354603Y-93740000D02*
X229354603Y-94260000D01*
X228394603Y-94500000D02*
X228514603Y-94500000D01*
X231394603Y-93500000D02*
X231514603Y-93500000D01*
X227794603Y-93500000D02*
X227914603Y-93500000D01*
X231754603Y-93740000D02*
X231754603Y-94260000D01*
X230554603Y-93740000D02*
X230554603Y-94260000D01*
X226714603Y-93500000D02*
G75*
G02*
X226954600Y-93740000I-3J-240000D01*
G01*
X232114603Y-94500000D02*
G75*
G03*
X232354600Y-94260000I-3J240000D01*
G01*
X227914603Y-93500000D02*
G75*
G02*
X228154600Y-93740000I-3J-240000D01*
G01*
X230314603Y-93500000D02*
G75*
G02*
X230554600Y-93740000I-3J-240000D01*
G01*
X231154603Y-93740000D02*
G75*
G02*
X231394603Y-93500003I239997J0D01*
G01*
X229954603Y-93740000D02*
G75*
G02*
X230194603Y-93500003I239997J0D01*
G01*
X230554603Y-94260000D02*
G75*
G03*
X230794603Y-94499997I239997J0D01*
G01*
X229114603Y-93500000D02*
G75*
G02*
X229354600Y-93740000I-3J-240000D01*
G01*
X229354603Y-94260000D02*
G75*
G03*
X229594603Y-94499997I239997J0D01*
G01*
X229714603Y-94500000D02*
G75*
G03*
X229954600Y-94260000I-3J240000D01*
G01*
X228754603Y-93740000D02*
G75*
G02*
X228994603Y-93500003I239997J0D01*
G01*
X230914603Y-94500000D02*
G75*
G03*
X231154600Y-94260000I-3J240000D01*
G01*
X232354603Y-93740000D02*
G75*
G02*
X232594603Y-93500003I239997J0D01*
G01*
X228514603Y-94500000D02*
G75*
G03*
X228754600Y-94260000I-3J240000D01*
G01*
X226954603Y-94260000D02*
G75*
G03*
X227194603Y-94499997I239997J0D01*
G01*
X231754603Y-94260000D02*
G75*
G03*
X231994603Y-94499997I239997J0D01*
G01*
X228154603Y-94260000D02*
G75*
G03*
X228394603Y-94499997I239997J0D01*
G01*
X227554603Y-93740000D02*
G75*
G02*
X227794603Y-93500003I239997J0D01*
G01*
X231514603Y-93500000D02*
G75*
G02*
X231754600Y-93740000I-3J-240000D01*
G01*
X227314603Y-94500000D02*
G75*
G03*
X227554600Y-94260000I-3J240000D01*
G01*
D20*
%TO.N,/ESP32-C3-02/SCL*%
X215800000Y-92850000D02*
X236600000Y-92850000D01*
X236600000Y-92850000D02*
X236612500Y-92862500D01*
D21*
%TO.N,/ESP32-C3-02/GPIO 8*%
X176000000Y-89500000D02*
X180000000Y-93500000D01*
X186000000Y-104000000D02*
X186500000Y-104500000D01*
X171500000Y-88000000D02*
X173000000Y-89500000D01*
X186000000Y-94500000D02*
X186000000Y-104000000D01*
X186500000Y-104500000D02*
X190000000Y-104500000D01*
X170000000Y-88000000D02*
X171500000Y-88000000D01*
X173000000Y-89500000D02*
X176000000Y-89500000D01*
X180000000Y-93500000D02*
X185000000Y-93500000D01*
X190000000Y-104500000D02*
X195500000Y-99000000D01*
X195500000Y-99000000D02*
X226000000Y-99000000D01*
X185000000Y-93500000D02*
X186000000Y-94500000D01*
%TO.N,/ESP32-C3-02/GPIO19*%
X235932900Y-101000000D02*
X224932900Y-101000000D01*
X175026000Y-90526000D02*
X171782123Y-90526000D01*
X238567100Y-92500000D02*
X238000000Y-93067100D01*
X185000000Y-95500000D02*
X184500000Y-95000000D01*
X162500000Y-91750000D02*
X163302000Y-91750000D01*
X240000000Y-93034943D02*
X239465057Y-92500000D01*
X185500000Y-105500000D02*
X185000000Y-105000000D01*
X218432900Y-107500000D02*
X200500000Y-107500000D01*
X240000000Y-95500000D02*
X240000000Y-93034943D01*
X238535586Y-99964414D02*
X239000000Y-99500000D01*
X239823000Y-95677000D02*
X240000000Y-95500000D01*
X240000000Y-97419555D02*
X239823000Y-97242555D01*
X185000000Y-105000000D02*
X185000000Y-95500000D01*
X224932900Y-101000000D02*
X218432900Y-107500000D01*
X239465057Y-92500000D02*
X238567100Y-92500000D01*
X239000000Y-99067100D02*
X240000000Y-98067100D01*
X200500000Y-107500000D02*
X198500000Y-105500000D01*
X238000000Y-98932900D02*
X235932900Y-101000000D01*
X163302000Y-91750000D02*
X164526000Y-90526000D01*
X184500000Y-95000000D02*
X179500000Y-95000000D01*
X238000000Y-93067100D02*
X238000000Y-98932900D01*
X164526000Y-90526000D02*
X172474000Y-90526000D01*
X240000000Y-98067100D02*
X240000000Y-97419555D01*
X239000000Y-99500000D02*
X239000000Y-99067100D01*
X239823000Y-97242555D02*
X239823000Y-95677000D01*
X198500000Y-105500000D02*
X185500000Y-105500000D01*
X179500000Y-95000000D02*
X175026000Y-90526000D01*
X238535586Y-100500000D02*
X238535586Y-99964414D01*
%TO.N,/ESP32-C3-02/GPIO18*%
X240500000Y-99500000D02*
X240000000Y-100000000D01*
X232000000Y-98841123D02*
X232000000Y-97500000D01*
X240224000Y-95843100D02*
X240224000Y-97076455D01*
X239608157Y-92076000D02*
X240500000Y-92967843D01*
X201000000Y-106000000D02*
X201500000Y-105500000D01*
X237500000Y-93000000D02*
X238424000Y-92076000D01*
X185000000Y-94500000D02*
X185500000Y-95000000D01*
X199000001Y-105000000D02*
X200000000Y-105999999D01*
X240500000Y-97326000D02*
X240500000Y-99500000D01*
X180000000Y-94500000D02*
X185000000Y-94500000D01*
X171500000Y-89500000D02*
X172000000Y-90000000D01*
X171000000Y-89500000D02*
X171500000Y-89500000D01*
X230841123Y-100000000D02*
X232000000Y-98841123D01*
X240500000Y-92967843D02*
X240500000Y-95567100D01*
X225000000Y-100000000D02*
X230841123Y-100000000D01*
X232828061Y-96671939D02*
X235671938Y-96671939D01*
X201500000Y-105500000D02*
X203500000Y-105500000D01*
X204500000Y-106500000D02*
X218500000Y-106500000D01*
X237500000Y-94843877D02*
X237500000Y-93000000D01*
X238424000Y-92076000D02*
X239608157Y-92076000D01*
X235671938Y-96671939D02*
X237500000Y-94843877D01*
X232000000Y-97500000D02*
X232828061Y-96671939D01*
X185500000Y-95000000D02*
X185500000Y-104500000D01*
X203500000Y-105500000D02*
X204500000Y-106500000D01*
X200999999Y-105999999D02*
X201000000Y-106000000D01*
X186000000Y-105000000D02*
X199000001Y-105000000D01*
X200000000Y-105999999D02*
X200999999Y-105999999D01*
X218500000Y-106500000D02*
X225000000Y-100000000D01*
X175500000Y-90000000D02*
X180000000Y-94500000D01*
X240500000Y-95567100D02*
X240224000Y-95843100D01*
X172000000Y-90000000D02*
X175500000Y-90000000D01*
X240473545Y-97326000D02*
X240500000Y-97326000D01*
X185500000Y-104500000D02*
X186000000Y-105000000D01*
X240224000Y-97076455D02*
X240473545Y-97326000D01*
%TO.N,/ESP32-C3-02/sc_SD*%
X243250000Y-92750000D02*
X243250000Y-107250000D01*
X243250000Y-107250000D02*
X241900000Y-108600000D01*
%TO.N,/ESP32-C3-02/Photo C*%
X199000000Y-108000000D02*
X198500000Y-107500000D01*
X224500000Y-102000000D02*
X218500000Y-108000000D01*
X198500000Y-107500000D02*
X198500000Y-106500000D01*
X225344256Y-101624000D02*
X224968256Y-102000000D01*
X239000000Y-93500000D02*
X239000000Y-98500000D01*
X239000000Y-98500000D02*
X235876000Y-101624000D01*
X218500000Y-108000000D02*
X199000000Y-108000000D01*
X224968256Y-102000000D02*
X224500000Y-102000000D01*
X235876000Y-101624000D02*
X225344256Y-101624000D01*
%TO.N,/ESP32-C3-02/RTS*%
X190500000Y-121500000D02*
X192500000Y-123500000D01*
X179600000Y-116900000D02*
X178500000Y-118000000D01*
X199500000Y-123500000D02*
X200562500Y-124562500D01*
X179753768Y-116900000D02*
X179600000Y-116900000D01*
X178500000Y-118000000D02*
X178500000Y-121000000D01*
X200562500Y-124562500D02*
X200562500Y-127062500D01*
X178500000Y-121000000D02*
X179000000Y-121500000D01*
X192500000Y-123500000D02*
X199500000Y-123500000D01*
X180128768Y-116525000D02*
X179753768Y-116900000D01*
X179000000Y-121500000D02*
X190500000Y-121500000D01*
%TO.N,/ESP32-C3-02/DTR*%
X178432900Y-122000000D02*
X190432900Y-122000000D01*
X192401000Y-123901000D02*
X198500000Y-130000000D01*
X192333900Y-123901000D02*
X192401000Y-123901000D01*
X190432900Y-122000000D02*
X192333900Y-123901000D01*
X198500000Y-130000000D02*
X200500000Y-130000000D01*
X181750000Y-113500000D02*
X181250000Y-113500000D01*
X181250000Y-113500000D02*
X178000000Y-116750000D01*
X178000000Y-121567100D02*
X178432900Y-122000000D01*
X178000000Y-116750000D02*
X178000000Y-121567100D01*
%TO.N,/CHARGING POWER GOOD*%
X161326834Y-130500000D02*
X160326834Y-129500000D01*
X164500000Y-130500000D02*
X161326834Y-130500000D01*
X160326834Y-129500000D02*
X155462500Y-129500000D01*
X166250000Y-128750000D02*
X164500000Y-130500000D01*
%TO.N,/CHARGED *%
X162500000Y-128500000D02*
X154500000Y-128500000D01*
X153500000Y-129500000D02*
X153500000Y-130000000D01*
X163250000Y-129250000D02*
X162500000Y-128500000D01*
X154500000Y-128500000D02*
X153500000Y-129500000D01*
D22*
%TO.N,/ESP32-C3-02/RX_TX*%
X220000000Y-109000000D02*
X182000000Y-109000000D01*
X239500000Y-102000000D02*
X239000000Y-102500000D01*
X239000000Y-102500000D02*
X226500000Y-102500000D01*
X226500000Y-102500000D02*
X220000000Y-109000000D01*
X240000000Y-102000000D02*
X239500000Y-102000000D01*
X182000000Y-109000000D02*
X180500000Y-110500000D01*
%TO.N,/ESP32-C3-02/TX_RX*%
X181000000Y-108500000D02*
X219000000Y-108500000D01*
X219000000Y-108500000D02*
X225500000Y-102000000D01*
X225500000Y-102000000D02*
X237000000Y-102000000D01*
X237000000Y-102000000D02*
X237500000Y-101500000D01*
X180250000Y-107750000D02*
X181000000Y-108500000D01*
X180000000Y-107750000D02*
X180250000Y-107750000D01*
%TD*%
M02*
