%TF.GenerationSoftware,KiCad,Pcbnew,10.0.1*%
%TF.CreationDate,2026-04-26T13:57:47+02:00*%
%TF.ProjectId,JoystickBoardDilder,4a6f7973-7469-4636-9b42-6f6172644469,1*%
%TF.SameCoordinates,Original*%
%TF.FileFunction,Drillmap*%
%TF.FilePolarity,Positive*%
%FSLAX45Y45*%
G04 Gerber Fmt 4.5, Leading zero omitted, Abs format (unit mm)*
G04 Created by KiCad (PCBNEW 10.0.1) date 2026-04-26 13:57:47*
%MOMM*%
%LPD*%
G01*
G04 APERTURE LIST*
%ADD10C,0.050000*%
%ADD11C,0.200000*%
G04 APERTURE END LIST*
D10*
X9523000Y-4277000D02*
X11483000Y-4277000D01*
X11483000Y-6237000D01*
X9523000Y-6237000D01*
X9523000Y-4277000D01*
D11*
X9781277Y-6550984D02*
X9781277Y-6350984D01*
X9781277Y-6350984D02*
X9828896Y-6350984D01*
X9828896Y-6350984D02*
X9857467Y-6360508D01*
X9857467Y-6360508D02*
X9876515Y-6379555D01*
X9876515Y-6379555D02*
X9886039Y-6398603D01*
X9886039Y-6398603D02*
X9895563Y-6436698D01*
X9895563Y-6436698D02*
X9895563Y-6465269D01*
X9895563Y-6465269D02*
X9886039Y-6503365D01*
X9886039Y-6503365D02*
X9876515Y-6522412D01*
X9876515Y-6522412D02*
X9857467Y-6541460D01*
X9857467Y-6541460D02*
X9828896Y-6550984D01*
X9828896Y-6550984D02*
X9781277Y-6550984D01*
X9981277Y-6550984D02*
X9981277Y-6417650D01*
X9981277Y-6455746D02*
X9990801Y-6436698D01*
X9990801Y-6436698D02*
X10000324Y-6427174D01*
X10000324Y-6427174D02*
X10019372Y-6417650D01*
X10019372Y-6417650D02*
X10038420Y-6417650D01*
X10105086Y-6550984D02*
X10105086Y-6417650D01*
X10105086Y-6350984D02*
X10095563Y-6360508D01*
X10095563Y-6360508D02*
X10105086Y-6370031D01*
X10105086Y-6370031D02*
X10114610Y-6360508D01*
X10114610Y-6360508D02*
X10105086Y-6350984D01*
X10105086Y-6350984D02*
X10105086Y-6370031D01*
X10228896Y-6550984D02*
X10209848Y-6541460D01*
X10209848Y-6541460D02*
X10200324Y-6522412D01*
X10200324Y-6522412D02*
X10200324Y-6350984D01*
X10333658Y-6550984D02*
X10314610Y-6541460D01*
X10314610Y-6541460D02*
X10305086Y-6522412D01*
X10305086Y-6522412D02*
X10305086Y-6350984D01*
X10562229Y-6550984D02*
X10562229Y-6350984D01*
X10562229Y-6350984D02*
X10628896Y-6493841D01*
X10628896Y-6493841D02*
X10695563Y-6350984D01*
X10695563Y-6350984D02*
X10695563Y-6550984D01*
X10876515Y-6550984D02*
X10876515Y-6446222D01*
X10876515Y-6446222D02*
X10866991Y-6427174D01*
X10866991Y-6427174D02*
X10847944Y-6417650D01*
X10847944Y-6417650D02*
X10809848Y-6417650D01*
X10809848Y-6417650D02*
X10790801Y-6427174D01*
X10876515Y-6541460D02*
X10857467Y-6550984D01*
X10857467Y-6550984D02*
X10809848Y-6550984D01*
X10809848Y-6550984D02*
X10790801Y-6541460D01*
X10790801Y-6541460D02*
X10781277Y-6522412D01*
X10781277Y-6522412D02*
X10781277Y-6503365D01*
X10781277Y-6503365D02*
X10790801Y-6484317D01*
X10790801Y-6484317D02*
X10809848Y-6474793D01*
X10809848Y-6474793D02*
X10857467Y-6474793D01*
X10857467Y-6474793D02*
X10876515Y-6465269D01*
X10971753Y-6417650D02*
X10971753Y-6617650D01*
X10971753Y-6427174D02*
X10990801Y-6417650D01*
X10990801Y-6417650D02*
X11028896Y-6417650D01*
X11028896Y-6417650D02*
X11047944Y-6427174D01*
X11047944Y-6427174D02*
X11057467Y-6436698D01*
X11057467Y-6436698D02*
X11066991Y-6455746D01*
X11066991Y-6455746D02*
X11066991Y-6512888D01*
X11066991Y-6512888D02*
X11057467Y-6531936D01*
X11057467Y-6531936D02*
X11047944Y-6541460D01*
X11047944Y-6541460D02*
X11028896Y-6550984D01*
X11028896Y-6550984D02*
X10990801Y-6550984D01*
X10990801Y-6550984D02*
X10971753Y-6541460D01*
X11152705Y-6531936D02*
X11162229Y-6541460D01*
X11162229Y-6541460D02*
X11152705Y-6550984D01*
X11152705Y-6550984D02*
X11143182Y-6541460D01*
X11143182Y-6541460D02*
X11152705Y-6531936D01*
X11152705Y-6531936D02*
X11152705Y-6550984D01*
X11152705Y-6427174D02*
X11162229Y-6436698D01*
X11162229Y-6436698D02*
X11152705Y-6446222D01*
X11152705Y-6446222D02*
X11143182Y-6436698D01*
X11143182Y-6436698D02*
X11152705Y-6427174D01*
X11152705Y-6427174D02*
X11152705Y-6446222D01*
M02*
