solid OpenSCAD_Model
  facet normal -1 0 0
    outer loop
      vertex 8.4 2.3 -5.1
      vertex 8.4 7.4 7
      vertex 8.4 7.4 -5.1
    endloop
  endfacet
  facet normal -1 -0 0
    outer loop
      vertex 8.4 7.4 7
      vertex 8.4 2.3 -5.1
      vertex 8.4 2.3 7
    endloop
  endfacet
  facet normal 0 -1 0
    outer loop
      vertex 6.3 7.4 -5.1
      vertex 8.4 7.4 7
      vertex 6.3 7.4 7
    endloop
  endfacet
  facet normal 0 -1 -0
    outer loop
      vertex 8.4 7.4 7
      vertex 6.3 7.4 -5.1
      vertex 8.4 7.4 -5.1
    endloop
  endfacet
  facet normal 1 -0 0
    outer loop
      vertex 87.9 2.3 7
      vertex 87.9 7.4 -5.1
      vertex 87.9 7.4 7
    endloop
  endfacet
  facet normal 1 0 0
    outer loop
      vertex 87.9 7.4 -5.1
      vertex 87.9 2.3 7
      vertex 87.9 2.3 -5.1
    endloop
  endfacet
  facet normal 0 -1 0
    outer loop
      vertex 87.9 7.4 -5.1
      vertex 93 7.4 7
      vertex 87.9 7.4 7
    endloop
  endfacet
  facet normal 0 -1 -0
    outer loop
      vertex 93 7.4 7
      vertex 87.9 7.4 -5.1
      vertex 93 7.4 -5.1
    endloop
  endfacet
  facet normal -1 0 0
    outer loop
      vertex 8.4 38.6 -5.1
      vertex 8.4 43.7 7
      vertex 8.4 43.7 -5.1
    endloop
  endfacet
  facet normal -1 -0 0
    outer loop
      vertex 8.4 43.7 7
      vertex 8.4 38.6 -5.1
      vertex 8.4 38.6 7
    endloop
  endfacet
  facet normal 0 1 -0
    outer loop
      vertex 8.4 38.6 -5.1
      vertex 6.3 38.6 7
      vertex 8.4 38.6 7
    endloop
  endfacet
  facet normal 0 1 0
    outer loop
      vertex 6.3 38.6 7
      vertex 8.4 38.6 -5.1
      vertex 6.3 38.6 -5.1
    endloop
  endfacet
  facet normal 1 -0 0
    outer loop
      vertex 87.9 38.6 7
      vertex 87.9 43.7 -5.1
      vertex 87.9 43.7 7
    endloop
  endfacet
  facet normal 1 0 0
    outer loop
      vertex 87.9 43.7 -5.1
      vertex 87.9 38.6 7
      vertex 87.9 38.6 -5.1
    endloop
  endfacet
  facet normal 0 1 -0
    outer loop
      vertex 93 38.6 -5.1
      vertex 87.9 38.6 7
      vertex 93 38.6 7
    endloop
  endfacet
  facet normal 0 1 0
    outer loop
      vertex 87.9 38.6 7
      vertex 93 38.6 -5.1
      vertex 87.9 38.6 -5.1
    endloop
  endfacet
  facet normal 0 -0.321446 0.946928
    outer loop
      vertex 20.3 9.97389 -4.17753
      vertex 65 9.28645 -4.41089
      vertex 65 9.97389 -4.17753
    endloop
  endfacet
  facet normal 0 -0.321446 0.946928
    outer loop
      vertex 65 9.28645 -4.41089
      vertex 20.3 9.97389 -4.17753
      vertex 20.3 9.28645 -4.41089
    endloop
  endfacet
  facet normal -0 0.195088 0.980786
    outer loop
      vertex 20.3 7.12558 -4.55252
      vertex 65 6.41355 -4.41089
      vertex 65 7.12558 -4.55252
    endloop
  endfacet
  facet normal 0 0.195088 0.980786
    outer loop
      vertex 65 6.41355 -4.41089
      vertex 20.3 7.12558 -4.55252
      vertex 20.3 6.41355 -4.41089
    endloop
  endfacet
  facet normal 0 -0.442287 0.896874
    outer loop
      vertex 20.3 10.625 -3.85644
      vertex 65 9.97389 -4.17753
      vertex 65 10.625 -3.85644
    endloop
  endfacet
  facet normal 0 -0.442287 0.896874
    outer loop
      vertex 65 9.97389 -4.17753
      vertex 20.3 10.625 -3.85644
      vertex 20.3 9.97389 -4.17753
    endloop
  endfacet
  facet normal 0 -0.0654018 0.997859
    outer loop
      vertex 20.3 8.57442 -4.55252
      vertex 65 7.85 -4.6
      vertex 65 8.57442 -4.55252
    endloop
  endfacet
  facet normal 0 -0.0654018 0.997859
    outer loop
      vertex 65 7.85 -4.6
      vertex 20.3 8.57442 -4.55252
      vertex 20.3 7.85 -4.6
    endloop
  endfacet
  facet normal -0 0.555568 0.831471
    outer loop
      vertex 20.3 5.075 -3.85644
      vertex 65 4.47137 -3.45311
      vertex 65 5.075 -3.85644
    endloop
  endfacet
  facet normal 0 0.555568 0.831471
    outer loop
      vertex 65 4.47137 -3.45311
      vertex 20.3 5.075 -3.85644
      vertex 20.3 4.47137 -3.45311
    endloop
  endfacet
  facet normal 2.57844e-20 0.896874 0.442287
    outer loop
      vertex 65 3.04356 -1.825
      vertex 20.3 2.72247 -1.17389
      vertex 65 2.72247 -1.17389
    endloop
  endfacet
  facet normal 2.57844e-20 0.896874 0.442287
    outer loop
      vertex 20.3 2.72247 -1.17389
      vertex 65 3.04356 -1.825
      vertex 20.3 3.04356 -1.825
    endloop
  endfacet
  facet normal -8.73197e-21 0.751835 0.659352
    outer loop
      vertex 65 3.92556 -2.97444
      vertex 20.3 3.44689 -2.42863
      vertex 65 3.44689 -2.42863
    endloop
  endfacet
  facet normal -8.73197e-21 0.751835 0.659352
    outer loop
      vertex 20.3 3.44689 -2.42863
      vertex 65 3.92556 -2.97444
      vertex 20.3 3.92556 -2.97444
    endloop
  endfacet
  facet normal -0 0.0654018 0.997859
    outer loop
      vertex 20.3 7.85 -4.6
      vertex 65 7.12558 -4.55252
      vertex 65 7.85 -4.6
    endloop
  endfacet
  facet normal 0 0.0654018 0.997859
    outer loop
      vertex 65 7.12558 -4.55252
      vertex 20.3 7.85 -4.6
      vertex 20.3 7.12558 -4.55252
    endloop
  endfacet
  facet normal 2.51446e-19 0.946929 0.321444
    outer loop
      vertex 65 2.72247 -1.17389
      vertex 20.3 2.48911 -0.486445
      vertex 65 2.48911 -0.486445
    endloop
  endfacet
  facet normal 2.51446e-19 0.946929 0.321444
    outer loop
      vertex 20.3 2.48911 -0.486445
      vertex 65 2.72247 -1.17389
      vertex 20.3 2.72247 -1.17389
    endloop
  endfacet
  facet normal 7.25446e-20 0.980785 0.19509
    outer loop
      vertex 65 2.48911 -0.486445
      vertex 20.3 2.34748 0.225579
      vertex 65 2.34748 0.225579
    endloop
  endfacet
  facet normal 7.25446e-20 0.980785 0.19509
    outer loop
      vertex 20.3 2.34748 0.225579
      vertex 65 2.48911 -0.486445
      vertex 20.3 2.48911 -0.486445
    endloop
  endfacet
  facet normal 0 -0.555587 0.831459
    outer loop
      vertex 20.3 11.2286 -3.45311
      vertex 65 10.625 -3.85644
      vertex 65 11.2286 -3.45311
    endloop
  endfacet
  facet normal 0 -0.555587 0.831459
    outer loop
      vertex 65 10.625 -3.85644
      vertex 20.3 11.2286 -3.45311
      vertex 20.3 10.625 -3.85644
    endloop
  endfacet
  facet normal -0 0.659352 0.751835
    outer loop
      vertex 20.3 4.47137 -3.45311
      vertex 65 3.92556 -2.97444
      vertex 65 4.47137 -3.45311
    endloop
  endfacet
  facet normal 0 0.659352 0.751835
    outer loop
      vertex 65 3.92556 -2.97444
      vertex 20.3 4.47137 -3.45311
      vertex 20.3 3.92556 -2.97444
    endloop
  endfacet
  facet normal 0 -0.751864 0.659318
    outer loop
      vertex 6.3 12.1 -2.60322
      vertex 3.3 12.2531 -2.42863
      vertex 3.3 12.1 -2.60322
    endloop
  endfacet
  facet normal 0 -0.751864 0.659318
    outer loop
      vertex 20.3 12.1 -2.60322
      vertex 3.3 12.2531 -2.42863
      vertex 6.3 12.1 -2.60322
    endloop
  endfacet
  facet normal 0 -0.751864 0.659318
    outer loop
      vertex 3.3 12.2531 -2.42863
      vertex 20.3 12.1 -2.60322
      vertex 32.3 12.2531 -2.42863
    endloop
  endfacet
  facet normal 0 -0.751864 0.659318
    outer loop
      vertex 20.3 12.1 -2.60322
      vertex 32.3 12.1 -2.60322
      vertex 32.3 12.2531 -2.42863
    endloop
  endfacet
  facet normal 1.74661e-19 -0.751791 0.659402
    outer loop
      vertex 20.3 11.7744 -2.97444
      vertex 32.3 12.1 -2.60322
      vertex 20.3 12.1 -2.60322
    endloop
  endfacet
  facet normal 0 -0.751791 0.659402
    outer loop
      vertex 65 11.7744 -2.97444
      vertex 32.3 12.1 -2.60322
      vertex 20.3 11.7744 -2.97444
    endloop
  endfacet
  facet normal 0 -0.751791 0.659402
    outer loop
      vertex 32.3 12.1 -2.60322
      vertex 65 11.7744 -2.97444
      vertex 65 12.1 -2.60322
    endloop
  endfacet
  facet normal -0 0.442287 0.896874
    outer loop
      vertex 20.3 5.72611 -4.17753
      vertex 65 5.075 -3.85644
      vertex 65 5.72611 -4.17753
    endloop
  endfacet
  facet normal 0 0.442287 0.896874
    outer loop
      vertex 65 5.075 -3.85644
      vertex 20.3 5.72611 -4.17753
      vertex 20.3 5.075 -3.85644
    endloop
  endfacet
  facet normal 0 -0.659358 0.751829
    outer loop
      vertex 20.3 11.7744 -2.97444
      vertex 65 11.2286 -3.45311
      vertex 65 11.7744 -2.97444
    endloop
  endfacet
  facet normal 0 -0.659358 0.751829
    outer loop
      vertex 65 11.2286 -3.45311
      vertex 20.3 11.7744 -2.97444
      vertex 20.3 11.2286 -3.45311
    endloop
  endfacet
  facet normal 0 -0.195088 0.980786
    outer loop
      vertex 20.3 9.28645 -4.41089
      vertex 65 8.57442 -4.55252
      vertex 65 9.28645 -4.41089
    endloop
  endfacet
  facet normal 0 -0.195088 0.980786
    outer loop
      vertex 65 8.57442 -4.55252
      vertex 20.3 9.28645 -4.41089
      vertex 20.3 8.57442 -4.55252
    endloop
  endfacet
  facet normal -3.62178e-19 0.831471 0.555568
    outer loop
      vertex 65 3.44689 -2.42863
      vertex 20.3 3.04356 -1.825
      vertex 65 3.04356 -1.825
    endloop
  endfacet
  facet normal -3.62178e-19 0.831471 0.555568
    outer loop
      vertex 20.3 3.04356 -1.825
      vertex 65 3.44689 -2.42863
      vertex 20.3 3.44689 -2.42863
    endloop
  endfacet
  facet normal 1.05381e-20 0.997859 0.0654017
    outer loop
      vertex 65 2.34748 0.225579
      vertex 20.3 2.3 0.95
      vertex 65 2.3 0.95
    endloop
  endfacet
  facet normal 1.05381e-20 0.997859 0.0654017
    outer loop
      vertex 20.3 2.3 0.95
      vertex 65 2.34748 0.225579
      vertex 20.3 2.34748 0.225579
    endloop
  endfacet
  facet normal -0 0.321446 0.946928
    outer loop
      vertex 20.3 6.41355 -4.41089
      vertex 65 5.72611 -4.17753
      vertex 65 6.41355 -4.41089
    endloop
  endfacet
  facet normal 0 0.321446 0.946928
    outer loop
      vertex 65 5.72611 -4.17753
      vertex 20.3 6.41355 -4.41089
      vertex 20.3 5.72611 -4.17753
    endloop
  endfacet
  facet normal 1 -0 0
    outer loop
      vertex 20.3 2.3 0.95
      vertex 20.3 5.35 -1.55
      vertex 20.3 5.35 7
    endloop
  endfacet
  facet normal 1 -0 -0
    outer loop
      vertex 20.3 2.34748 0.225579
      vertex 20.3 5.35 -1.55
      vertex 20.3 2.3 0.95
    endloop
  endfacet
  facet normal 1 0 0
    outer loop
      vertex 20.3 5.35 -1.55
      vertex 20.3 4.47137 -3.45311
      vertex 20.3 5.075 -3.85644
    endloop
  endfacet
  facet normal 1 0 0
    outer loop
      vertex 20.3 5.35 -1.55
      vertex 20.3 3.92556 -2.97444
      vertex 20.3 4.47137 -3.45311
    endloop
  endfacet
  facet normal 1 0 0
    outer loop
      vertex 20.3 5.35 -1.55
      vertex 20.3 3.44689 -2.42863
      vertex 20.3 3.92556 -2.97444
    endloop
  endfacet
  facet normal 1 0 0
    outer loop
      vertex 20.3 5.35 -1.55
      vertex 20.3 3.04356 -1.825
      vertex 20.3 3.44689 -2.42863
    endloop
  endfacet
  facet normal 1 0 0
    outer loop
      vertex 20.3 5.35 -1.55
      vertex 20.3 2.72247 -1.17389
      vertex 20.3 3.04356 -1.825
    endloop
  endfacet
  facet normal 1 0 0
    outer loop
      vertex 20.3 5.35 -1.55
      vertex 20.3 2.48911 -0.486445
      vertex 20.3 2.72247 -1.17389
    endloop
  endfacet
  facet normal 1 0 0
    outer loop
      vertex 20.3 2.3 0.95
      vertex 20.3 5.35 7
      vertex 20.3 2.3 7
    endloop
  endfacet
  facet normal 1 0 0
    outer loop
      vertex 20.3 5.35 -1.55
      vertex 20.3 2.34748 0.225579
      vertex 20.3 2.48911 -0.486445
    endloop
  endfacet
  facet normal 1 -0 0
    outer loop
      vertex 20.3 10.35 7
      vertex 20.3 12.1 4.50322
      vertex 20.3 12.1 7
    endloop
  endfacet
  facet normal 1 0 0
    outer loop
      vertex 20.3 12.1 4.50322
      vertex 20.3 10.35 -1.55
      vertex 20.3 12.1 -2.60322
    endloop
  endfacet
  facet normal 1 0 0
    outer loop
      vertex 20.3 12.1 -2.60322
      vertex 20.3 10.35 -1.55
      vertex 20.3 11.7744 -2.97444
    endloop
  endfacet
  facet normal 1 0 0
    outer loop
      vertex 20.3 11.7744 -2.97444
      vertex 20.3 10.35 -1.55
      vertex 20.3 11.2286 -3.45311
    endloop
  endfacet
  facet normal 1 0 0
    outer loop
      vertex 20.3 12.1 4.50322
      vertex 20.3 10.35 7
      vertex 20.3 10.35 -1.55
    endloop
  endfacet
  facet normal 1 0 0
    outer loop
      vertex 20.3 11.2286 -3.45311
      vertex 20.3 10.35 -1.55
      vertex 20.3 10.625 -3.85644
    endloop
  endfacet
  facet normal 1 0 0
    outer loop
      vertex 20.3 10.35 -1.55
      vertex 20.3 9.97389 -4.17753
      vertex 20.3 10.625 -3.85644
    endloop
  endfacet
  facet normal 1 0 0
    outer loop
      vertex 20.3 10.35 -1.55
      vertex 20.3 9.28645 -4.41089
      vertex 20.3 9.97389 -4.17753
    endloop
  endfacet
  facet normal 1 0 0
    outer loop
      vertex 20.3 10.35 -1.55
      vertex 20.3 8.57442 -4.55252
      vertex 20.3 9.28645 -4.41089
    endloop
  endfacet
  facet normal 1 0 0
    outer loop
      vertex 20.3 10.35 -1.55
      vertex 20.3 7.85 -4.6
      vertex 20.3 8.57442 -4.55252
    endloop
  endfacet
  facet normal 1 -0 0
    outer loop
      vertex 20.3 5.35 -1.55
      vertex 20.3 7.85 -4.6
      vertex 20.3 10.35 -1.55
    endloop
  endfacet
  facet normal 1 0 0
    outer loop
      vertex 20.3 7.85 -4.6
      vertex 20.3 5.35 -1.55
      vertex 20.3 7.12558 -4.55252
    endloop
  endfacet
  facet normal 1 0 0
    outer loop
      vertex 20.3 7.12558 -4.55252
      vertex 20.3 5.35 -1.55
      vertex 20.3 6.41355 -4.41089
    endloop
  endfacet
  facet normal 1 0 0
    outer loop
      vertex 20.3 6.41355 -4.41089
      vertex 20.3 5.35 -1.55
      vertex 20.3 5.72611 -4.17753
    endloop
  endfacet
  facet normal 1 0 0
    outer loop
      vertex 20.3 5.72611 -4.17753
      vertex 20.3 5.35 -1.55
      vertex 20.3 5.075 -3.85644
    endloop
  endfacet
  facet normal -1 0 0
    outer loop
      vertex 65 9.97389 -4.17753
      vertex 65 10.35 -1.55
      vertex 65 10.625 -3.85644
    endloop
  endfacet
  facet normal -1 0 0
    outer loop
      vertex 65 9.28645 -4.41089
      vertex 65 10.35 -1.55
      vertex 65 9.97389 -4.17753
    endloop
  endfacet
  facet normal -1 0 0
    outer loop
      vertex 65 8.57442 -4.55252
      vertex 65 10.35 -1.55
      vertex 65 9.28645 -4.41089
    endloop
  endfacet
  facet normal -1 0 0
    outer loop
      vertex 65 7.85 -4.6
      vertex 65 10.35 -1.55
      vertex 65 8.57442 -4.55252
    endloop
  endfacet
  facet normal -1 0 0
    outer loop
      vertex 65 5.35 -1.55
      vertex 65 7.85 -4.6
      vertex 65 7.12558 -4.55252
    endloop
  endfacet
  facet normal -1 0 0
    outer loop
      vertex 65 5.35 -1.55
      vertex 65 7.12558 -4.55252
      vertex 65 6.41355 -4.41089
    endloop
  endfacet
  facet normal -1 0 0
    outer loop
      vertex 65 5.35 -1.55
      vertex 65 6.41355 -4.41089
      vertex 65 5.72611 -4.17753
    endloop
  endfacet
  facet normal -1 0 0
    outer loop
      vertex 65 7.85 -4.6
      vertex 65 5.35 -1.55
      vertex 65 10.35 -1.55
    endloop
  endfacet
  facet normal -1 0 0
    outer loop
      vertex 65 5.075 -3.85644
      vertex 65 5.35 -1.55
      vertex 65 5.72611 -4.17753
    endloop
  endfacet
  facet normal -1 0 0
    outer loop
      vertex 65 4.47137 -3.45311
      vertex 65 5.35 -1.55
      vertex 65 5.075 -3.85644
    endloop
  endfacet
  facet normal -1 0 0
    outer loop
      vertex 65 3.92556 -2.97444
      vertex 65 5.35 -1.55
      vertex 65 4.47137 -3.45311
    endloop
  endfacet
  facet normal -1 0 0
    outer loop
      vertex 65 3.44689 -2.42863
      vertex 65 5.35 -1.55
      vertex 65 3.92556 -2.97444
    endloop
  endfacet
  facet normal -1 0 0
    outer loop
      vertex 65 3.04356 -1.825
      vertex 65 5.35 -1.55
      vertex 65 3.44689 -2.42863
    endloop
  endfacet
  facet normal -1 0 0
    outer loop
      vertex 65 2.72247 -1.17389
      vertex 65 5.35 -1.55
      vertex 65 3.04356 -1.825
    endloop
  endfacet
  facet normal -1 0 0
    outer loop
      vertex 65 2.48911 -0.486445
      vertex 65 5.35 -1.55
      vertex 65 2.72247 -1.17389
    endloop
  endfacet
  facet normal -1 0 0
    outer loop
      vertex 65 2.34748 0.225579
      vertex 65 5.35 -1.55
      vertex 65 2.48911 -0.486445
    endloop
  endfacet
  facet normal -1 0 0
    outer loop
      vertex 65 5.35 -1.55
      vertex 65 2.34748 0.225579
      vertex 65 2.3 0.95
    endloop
  endfacet
  facet normal -1 0 0
    outer loop
      vertex 65 5.35 -1.55
      vertex 65 2.3 0.95
      vertex 65 5.35 7
    endloop
  endfacet
  facet normal -1 -0 0
    outer loop
      vertex 65 5.35 7
      vertex 65 2.3 0.95
      vertex 65 2.3 7
    endloop
  endfacet
  facet normal -1 0 0
    outer loop
      vertex 65 10.35 -1.55
      vertex 65 12.1 -2.60322
      vertex 65 11.7744 -2.97444
    endloop
  endfacet
  facet normal -1 0 0
    outer loop
      vertex 65 10.35 -1.55
      vertex 65 11.7744 -2.97444
      vertex 65 11.2286 -3.45311
    endloop
  endfacet
  facet normal -1 0 0
    outer loop
      vertex 65 10.35 -1.55
      vertex 65 11.2286 -3.45311
      vertex 65 10.625 -3.85644
    endloop
  endfacet
  facet normal -1 0 0
    outer loop
      vertex 65 12.1 -2.60322
      vertex 65 10.35 -1.55
      vertex 65 12.1 7
    endloop
  endfacet
  facet normal -1 -0 0
    outer loop
      vertex 65 12.1 7
      vertex 65 10.35 -1.55
      vertex 65 10.35 7
    endloop
  endfacet
  facet normal 0 -1 0
    outer loop
      vertex 8.4 2.3 7
      vertex 20.3 2.3 0.95
      vertex 20.3 2.3 7
    endloop
  endfacet
  facet normal 0 -1 -0
    outer loop
      vertex 20.3 2.3 0.95
      vertex 8.4 2.3 -5.1
      vertex 65 2.3 0.95
    endloop
  endfacet
  facet normal 0 -1 0
    outer loop
      vertex 8.4 2.3 -5.1
      vertex 20.3 2.3 0.95
      vertex 8.4 2.3 7
    endloop
  endfacet
  facet normal 0 -1 0
    outer loop
      vertex 65 2.3 0.95
      vertex 87.9 2.3 7
      vertex 65 2.3 7
    endloop
  endfacet
  facet normal 0 -1 0
    outer loop
      vertex 65 2.3 0.95
      vertex 87.9 2.3 -5.1
      vertex 87.9 2.3 7
    endloop
  endfacet
  facet normal 0 -1 0
    outer loop
      vertex 87.9 2.3 -5.1
      vertex 65 2.3 0.95
      vertex 8.4 2.3 -5.1
    endloop
  endfacet
  facet normal -2.23594e-20 -0.997857 0.0654291
    outer loop
      vertex 20.3 43.6525 0.225579
      vertex 65 43.7 0.95
      vertex 20.3 43.7 0.95
    endloop
  endfacet
  facet normal -2.23594e-20 -0.997857 0.0654291
    outer loop
      vertex 65 43.7 0.95
      vertex 20.3 43.6525 0.225579
      vertex 65 43.6525 0.225579
    endloop
  endfacet
  facet normal -0 0.442292 0.896871
    outer loop
      vertex 20.3 36.0261 -4.17753
      vertex 65 35.375 -3.85644
      vertex 65 36.0261 -4.17753
    endloop
  endfacet
  facet normal 0 0.442292 0.896871
    outer loop
      vertex 65 35.375 -3.85644
      vertex 20.3 36.0261 -4.17753
      vertex 20.3 35.375 -3.85644
    endloop
  endfacet
  facet normal 0 -0.321421 0.946936
    outer loop
      vertex 20.3 40.2739 -4.17753
      vertex 65 39.5864 -4.41089
      vertex 65 40.2739 -4.17753
    endloop
  endfacet
  facet normal 0 -0.321421 0.946936
    outer loop
      vertex 65 39.5864 -4.41089
      vertex 20.3 40.2739 -4.17753
      vertex 20.3 39.5864 -4.41089
    endloop
  endfacet
  facet normal -0 0.751864 0.659318
    outer loop
      vertex 20.3 33.9 -2.60322
      vertex 32.3 33.7469 -2.42863
      vertex 32.3 33.9 -2.60322
    endloop
  endfacet
  facet normal 0 0.751864 0.659318
    outer loop
      vertex 32.3 33.7469 -2.42863
      vertex 20.3 33.9 -2.60322
      vertex 3.3 33.7469 -2.42863
    endloop
  endfacet
  facet normal -0 0.751864 0.659318
    outer loop
      vertex 6.3 33.9 -2.60322
      vertex 3.3 33.7469 -2.42863
      vertex 20.3 33.9 -2.60322
    endloop
  endfacet
  facet normal -1.38793e-18 0.751864 0.659318
    outer loop
      vertex 3.3 33.7469 -2.42863
      vertex 6.3 33.9 -2.60322
      vertex 3.3 33.9 -2.60322
    endloop
  endfacet
  facet normal 3.51757e-19 0.751791 0.659402
    outer loop
      vertex 65 34.2256 -2.97444
      vertex 32.3 33.9 -2.60322
      vertex 65 33.9 -2.60322
    endloop
  endfacet
  facet normal -0 0.751791 0.659402
    outer loop
      vertex 20.3 34.2256 -2.97444
      vertex 32.3 33.9 -2.60322
      vertex 65 34.2256 -2.97444
    endloop
  endfacet
  facet normal 0 0.751791 0.659402
    outer loop
      vertex 32.3 33.9 -2.60322
      vertex 20.3 34.2256 -2.97444
      vertex 20.3 33.9 -2.60322
    endloop
  endfacet
  facet normal 0 -0.0654036 0.997859
    outer loop
      vertex 20.3 38.8744 -4.55252
      vertex 65 38.15 -4.6
      vertex 65 38.8744 -4.55252
    endloop
  endfacet
  facet normal 0 -0.0654036 0.997859
    outer loop
      vertex 65 38.15 -4.6
      vertex 20.3 38.8744 -4.55252
      vertex 20.3 38.15 -4.6
    endloop
  endfacet
  facet normal 0 -0.555587 0.831459
    outer loop
      vertex 20.3 41.5286 -3.45311
      vertex 65 40.925 -3.85644
      vertex 65 41.5286 -3.45311
    endloop
  endfacet
  facet normal 0 -0.555587 0.831459
    outer loop
      vertex 65 40.925 -3.85644
      vertex 20.3 41.5286 -3.45311
      vertex 20.3 40.925 -3.85644
    endloop
  endfacet
  facet normal 5.36597e-19 -0.751814 0.659375
    outer loop
      vertex 20.3 42.0744 -2.97444
      vertex 65 42.5531 -2.42863
      vertex 20.3 42.5531 -2.42863
    endloop
  endfacet
  facet normal 5.36597e-19 -0.751814 0.659375
    outer loop
      vertex 65 42.5531 -2.42863
      vertex 20.3 42.0744 -2.97444
      vertex 65 42.0744 -2.97444
    endloop
  endfacet
  facet normal -0 0.195096 0.980784
    outer loop
      vertex 20.3 37.4256 -4.55252
      vertex 65 36.7136 -4.41089
      vertex 65 37.4256 -4.55252
    endloop
  endfacet
  facet normal 0 0.195096 0.980784
    outer loop
      vertex 65 36.7136 -4.41089
      vertex 20.3 37.4256 -4.55252
      vertex 20.3 36.7136 -4.41089
    endloop
  endfacet
  facet normal 2.32483e-19 -0.946912 0.321494
    outer loop
      vertex 20.3 43.2775 -1.17389
      vertex 65 43.5109 -0.486445
      vertex 20.3 43.5109 -0.486445
    endloop
  endfacet
  facet normal 2.32483e-19 -0.946912 0.321494
    outer loop
      vertex 65 43.5109 -0.486445
      vertex 20.3 43.2775 -1.17389
      vertex 65 43.2775 -1.17389
    endloop
  endfacet
  facet normal 0 -0.195096 0.980784
    outer loop
      vertex 20.3 39.5864 -4.41089
      vertex 65 38.8744 -4.55252
      vertex 65 39.5864 -4.41089
    endloop
  endfacet
  facet normal 0 -0.195096 0.980784
    outer loop
      vertex 65 38.8744 -4.55252
      vertex 20.3 39.5864 -4.41089
      vertex 20.3 38.8744 -4.55252
    endloop
  endfacet
  facet normal -0 0.0654036 0.997859
    outer loop
      vertex 20.3 38.15 -4.6
      vertex 65 37.4256 -4.55252
      vertex 65 38.15 -4.6
    endloop
  endfacet
  facet normal 0 0.0654036 0.997859
    outer loop
      vertex 65 37.4256 -4.55252
      vertex 20.3 38.15 -4.6
      vertex 20.3 37.4256 -4.55252
    endloop
  endfacet
  facet normal -5.45667e-20 -0.896868 0.442298
    outer loop
      vertex 20.3 42.9564 -1.825
      vertex 65 43.2775 -1.17389
      vertex 20.3 43.2775 -1.17389
    endloop
  endfacet
  facet normal -5.45667e-20 -0.896868 0.442298
    outer loop
      vertex 65 43.2775 -1.17389
      vertex 20.3 42.9564 -1.825
      vertex 65 42.9564 -1.825
    endloop
  endfacet
  facet normal 0 -0.659358 0.751829
    outer loop
      vertex 20.3 42.0744 -2.97444
      vertex 65 41.5286 -3.45311
      vertex 65 42.0744 -2.97444
    endloop
  endfacet
  facet normal 0 -0.659358 0.751829
    outer loop
      vertex 65 41.5286 -3.45311
      vertex 20.3 42.0744 -2.97444
      vertex 20.3 41.5286 -3.45311
    endloop
  endfacet
  facet normal 5.54003e-20 -0.83149 0.555539
    outer loop
      vertex 20.3 42.5531 -2.42863
      vertex 65 42.9564 -1.825
      vertex 20.3 42.9564 -1.825
    endloop
  endfacet
  facet normal 5.54003e-20 -0.83149 0.555539
    outer loop
      vertex 65 42.9564 -1.825
      vertex 20.3 42.5531 -2.42863
      vertex 65 42.5531 -2.42863
    endloop
  endfacet
  facet normal 0 -0.442292 0.896871
    outer loop
      vertex 20.3 40.925 -3.85644
      vertex 65 40.2739 -4.17753
      vertex 65 40.925 -3.85644
    endloop
  endfacet
  facet normal 0 -0.442292 0.896871
    outer loop
      vertex 65 40.2739 -4.17753
      vertex 20.3 40.925 -3.85644
      vertex 20.3 40.2739 -4.17753
    endloop
  endfacet
  facet normal -0 0.555587 0.831459
    outer loop
      vertex 20.3 35.375 -3.85644
      vertex 65 34.7714 -3.45311
      vertex 65 35.375 -3.85644
    endloop
  endfacet
  facet normal 0 0.555587 0.831459
    outer loop
      vertex 65 34.7714 -3.45311
      vertex 20.3 35.375 -3.85644
      vertex 20.3 34.7714 -3.45311
    endloop
  endfacet
  facet normal -0 0.659358 0.751829
    outer loop
      vertex 20.3 34.7714 -3.45311
      vertex 65 34.2256 -2.97444
      vertex 65 34.7714 -3.45311
    endloop
  endfacet
  facet normal 0 0.659358 0.751829
    outer loop
      vertex 65 34.2256 -2.97444
      vertex 20.3 34.7714 -3.45311
      vertex 20.3 34.2256 -2.97444
    endloop
  endfacet
  facet normal -0 0.321421 0.946936
    outer loop
      vertex 20.3 36.7136 -4.41089
      vertex 65 36.0261 -4.17753
      vertex 65 36.7136 -4.41089
    endloop
  endfacet
  facet normal 0 0.321421 0.946936
    outer loop
      vertex 65 36.0261 -4.17753
      vertex 20.3 36.7136 -4.41089
      vertex 20.3 36.0261 -4.17753
    endloop
  endfacet
  facet normal 1 -0 0
    outer loop
      vertex 20.3 33.9 4.50322
      vertex 20.3 35.65 -1.55
      vertex 20.3 35.65 7
    endloop
  endfacet
  facet normal 1 0 0
    outer loop
      vertex 20.3 33.9 -2.60322
      vertex 20.3 35.65 -1.55
      vertex 20.3 33.9 4.50322
    endloop
  endfacet
  facet normal 1 0 0
    outer loop
      vertex 20.3 35.65 -1.55
      vertex 20.3 34.7714 -3.45311
      vertex 20.3 35.375 -3.85644
    endloop
  endfacet
  facet normal 1 0 0
    outer loop
      vertex 20.3 33.9 4.50322
      vertex 20.3 35.65 7
      vertex 20.3 33.9 7
    endloop
  endfacet
  facet normal 1 0 -0
    outer loop
      vertex 20.3 34.2256 -2.97444
      vertex 20.3 35.65 -1.55
      vertex 20.3 33.9 -2.60322
    endloop
  endfacet
  facet normal 1 0 0
    outer loop
      vertex 20.3 35.65 -1.55
      vertex 20.3 34.2256 -2.97444
      vertex 20.3 34.7714 -3.45311
    endloop
  endfacet
  facet normal 1 -0 0
    outer loop
      vertex 20.3 40.65 7
      vertex 20.3 43.7 0.95
      vertex 20.3 43.7 7
    endloop
  endfacet
  facet normal 1 0 0
    outer loop
      vertex 20.3 40.65 -1.55
      vertex 20.3 43.7 0.95
      vertex 20.3 40.65 7
    endloop
  endfacet
  facet normal 1 0 0
    outer loop
      vertex 20.3 43.7 0.95
      vertex 20.3 40.65 -1.55
      vertex 20.3 43.6525 0.225579
    endloop
  endfacet
  facet normal 1 0 0
    outer loop
      vertex 20.3 43.6525 0.225579
      vertex 20.3 40.65 -1.55
      vertex 20.3 43.5109 -0.486445
    endloop
  endfacet
  facet normal 1 0 0
    outer loop
      vertex 20.3 43.2775 -1.17389
      vertex 20.3 40.65 -1.55
      vertex 20.3 42.9564 -1.825
    endloop
  endfacet
  facet normal 1 0 0
    outer loop
      vertex 20.3 42.9564 -1.825
      vertex 20.3 40.65 -1.55
      vertex 20.3 42.5531 -2.42863
    endloop
  endfacet
  facet normal 1 0 0
    outer loop
      vertex 20.3 42.5531 -2.42863
      vertex 20.3 40.65 -1.55
      vertex 20.3 42.0744 -2.97444
    endloop
  endfacet
  facet normal 1 0 0
    outer loop
      vertex 20.3 42.0744 -2.97444
      vertex 20.3 40.65 -1.55
      vertex 20.3 41.5286 -3.45311
    endloop
  endfacet
  facet normal 1 0 0
    outer loop
      vertex 20.3 43.5109 -0.486445
      vertex 20.3 40.65 -1.55
      vertex 20.3 43.2775 -1.17389
    endloop
  endfacet
  facet normal 1 0 0
    outer loop
      vertex 20.3 41.5286 -3.45311
      vertex 20.3 40.65 -1.55
      vertex 20.3 40.925 -3.85644
    endloop
  endfacet
  facet normal 1 0 0
    outer loop
      vertex 20.3 40.65 -1.55
      vertex 20.3 40.2739 -4.17753
      vertex 20.3 40.925 -3.85644
    endloop
  endfacet
  facet normal 1 0 0
    outer loop
      vertex 20.3 40.65 -1.55
      vertex 20.3 39.5864 -4.41089
      vertex 20.3 40.2739 -4.17753
    endloop
  endfacet
  facet normal 1 0 0
    outer loop
      vertex 20.3 40.65 -1.55
      vertex 20.3 38.8744 -4.55252
      vertex 20.3 39.5864 -4.41089
    endloop
  endfacet
  facet normal 1 0 0
    outer loop
      vertex 20.3 40.65 -1.55
      vertex 20.3 38.15 -4.6
      vertex 20.3 38.8744 -4.55252
    endloop
  endfacet
  facet normal 1 -0 0
    outer loop
      vertex 20.3 35.65 -1.55
      vertex 20.3 38.15 -4.6
      vertex 20.3 40.65 -1.55
    endloop
  endfacet
  facet normal 1 0 0
    outer loop
      vertex 20.3 38.15 -4.6
      vertex 20.3 35.65 -1.55
      vertex 20.3 37.4256 -4.55252
    endloop
  endfacet
  facet normal 1 0 0
    outer loop
      vertex 20.3 37.4256 -4.55252
      vertex 20.3 35.65 -1.55
      vertex 20.3 36.7136 -4.41089
    endloop
  endfacet
  facet normal 1 0 0
    outer loop
      vertex 20.3 36.7136 -4.41089
      vertex 20.3 35.65 -1.55
      vertex 20.3 36.0261 -4.17753
    endloop
  endfacet
  facet normal 1 0 0
    outer loop
      vertex 20.3 36.0261 -4.17753
      vertex 20.3 35.65 -1.55
      vertex 20.3 35.375 -3.85644
    endloop
  endfacet
  facet normal -1 0 0
    outer loop
      vertex 65 40.2739 -4.17753
      vertex 65 40.65 -1.55
      vertex 65 40.925 -3.85644
    endloop
  endfacet
  facet normal -1 0 0
    outer loop
      vertex 65 39.5864 -4.41089
      vertex 65 40.65 -1.55
      vertex 65 40.2739 -4.17753
    endloop
  endfacet
  facet normal -1 0 0
    outer loop
      vertex 65 38.8744 -4.55252
      vertex 65 40.65 -1.55
      vertex 65 39.5864 -4.41089
    endloop
  endfacet
  facet normal -1 0 0
    outer loop
      vertex 65 38.15 -4.6
      vertex 65 40.65 -1.55
      vertex 65 38.8744 -4.55252
    endloop
  endfacet
  facet normal -1 0 0
    outer loop
      vertex 65 35.65 -1.55
      vertex 65 38.15 -4.6
      vertex 65 37.4256 -4.55252
    endloop
  endfacet
  facet normal -1 0 0
    outer loop
      vertex 65 35.65 -1.55
      vertex 65 37.4256 -4.55252
      vertex 65 36.7136 -4.41089
    endloop
  endfacet
  facet normal -1 0 0
    outer loop
      vertex 65 35.65 -1.55
      vertex 65 36.7136 -4.41089
      vertex 65 36.0261 -4.17753
    endloop
  endfacet
  facet normal -1 0 0
    outer loop
      vertex 65 38.15 -4.6
      vertex 65 35.65 -1.55
      vertex 65 40.65 -1.55
    endloop
  endfacet
  facet normal -1 0 0
    outer loop
      vertex 65 35.375 -3.85644
      vertex 65 35.65 -1.55
      vertex 65 36.0261 -4.17753
    endloop
  endfacet
  facet normal -1 0 0
    outer loop
      vertex 65 34.7714 -3.45311
      vertex 65 35.65 -1.55
      vertex 65 35.375 -3.85644
    endloop
  endfacet
  facet normal -1 0 0
    outer loop
      vertex 65 34.2256 -2.97444
      vertex 65 35.65 -1.55
      vertex 65 34.7714 -3.45311
    endloop
  endfacet
  facet normal -1 0 0
    outer loop
      vertex 65 35.65 -1.55
      vertex 65 34.2256 -2.97444
      vertex 65 33.9 -2.60322
    endloop
  endfacet
  facet normal -1 0 0
    outer loop
      vertex 65 33.9 7
      vertex 65 35.65 -1.55
      vertex 65 33.9 -2.60322
    endloop
  endfacet
  facet normal -1 0 0
    outer loop
      vertex 65 35.65 -1.55
      vertex 65 33.9 7
      vertex 65 35.65 7
    endloop
  endfacet
  facet normal -1 0 0
    outer loop
      vertex 65 40.65 -1.55
      vertex 65 43.7 0.95
      vertex 65 43.6525 0.225579
    endloop
  endfacet
  facet normal -1 0 0
    outer loop
      vertex 65 40.65 -1.55
      vertex 65 43.6525 0.225579
      vertex 65 43.5109 -0.486445
    endloop
  endfacet
  facet normal -1 0 0
    outer loop
      vertex 65 40.65 -1.55
      vertex 65 43.5109 -0.486445
      vertex 65 43.2775 -1.17389
    endloop
  endfacet
  facet normal -1 0 0
    outer loop
      vertex 65 40.65 -1.55
      vertex 65 43.2775 -1.17389
      vertex 65 42.9564 -1.825
    endloop
  endfacet
  facet normal -1 0 0
    outer loop
      vertex 65 40.65 -1.55
      vertex 65 42.9564 -1.825
      vertex 65 42.5531 -2.42863
    endloop
  endfacet
  facet normal -1 0 0
    outer loop
      vertex 65 40.65 -1.55
      vertex 65 42.5531 -2.42863
      vertex 65 42.0744 -2.97444
    endloop
  endfacet
  facet normal -1 0 0
    outer loop
      vertex 65 40.65 -1.55
      vertex 65 42.0744 -2.97444
      vertex 65 41.5286 -3.45311
    endloop
  endfacet
  facet normal -1 0 0
    outer loop
      vertex 65 40.65 -1.55
      vertex 65 41.5286 -3.45311
      vertex 65 40.925 -3.85644
    endloop
  endfacet
  facet normal -1 -0 0
    outer loop
      vertex 65 43.7 0.95
      vertex 65 40.65 -1.55
      vertex 65 40.65 7
    endloop
  endfacet
  facet normal -1 0 0
    outer loop
      vertex 65 43.7 0.95
      vertex 65 40.65 7
      vertex 65 43.7 7
    endloop
  endfacet
  facet normal -1.64002e-20 -0.980793 0.19505
    outer loop
      vertex 20.3 43.5109 -0.486445
      vertex 65 43.6525 0.225579
      vertex 20.3 43.6525 0.225579
    endloop
  endfacet
  facet normal -1.64002e-20 -0.980793 0.19505
    outer loop
      vertex 65 43.6525 0.225579
      vertex 20.3 43.5109 -0.486445
      vertex 65 43.5109 -0.486445
    endloop
  endfacet
  facet normal 0 1 0
    outer loop
      vertex 87.9 43.7 7
      vertex 65 43.7 0.95
      vertex 65 43.7 7
    endloop
  endfacet
  facet normal 0 1 0
    outer loop
      vertex 8.4 43.7 -5.1
      vertex 65 43.7 0.95
      vertex 87.9 43.7 -5.1
    endloop
  endfacet
  facet normal 0 1 -0
    outer loop
      vertex 87.9 43.7 -5.1
      vertex 65 43.7 0.95
      vertex 87.9 43.7 7
    endloop
  endfacet
  facet normal 0 1 -0
    outer loop
      vertex 20.3 43.7 0.95
      vertex 8.4 43.7 7
      vertex 20.3 43.7 7
    endloop
  endfacet
  facet normal 0 1 0
    outer loop
      vertex 20.3 43.7 0.95
      vertex 8.4 43.7 -5.1
      vertex 8.4 43.7 7
    endloop
  endfacet
  facet normal 0 1 0
    outer loop
      vertex 65 43.7 0.95
      vertex 8.4 43.7 -5.1
      vertex 20.3 43.7 0.95
    endloop
  endfacet
  facet normal -1 0 0
    outer loop
      vertex 19.4 11.55 -2.75
      vertex 19.4 10.35 -1.55
      vertex 19.4 11.55 7
    endloop
  endfacet
  facet normal -1 0 0
    outer loop
      vertex 19.4 11.55 -2.75
      vertex 19.4 5.35 -1.55
      vertex 19.4 10.35 -1.55
    endloop
  endfacet
  facet normal -1 0 0
    outer loop
      vertex 19.4 4.15 -2.75
      vertex 19.4 5.35 -1.55
      vertex 19.4 11.55 -2.75
    endloop
  endfacet
  facet normal -1 0 0
    outer loop
      vertex 19.4 4.15 7
      vertex 19.4 5.35 -1.55
      vertex 19.4 4.15 -2.75
    endloop
  endfacet
  facet normal -1 0 0
    outer loop
      vertex 19.4 5.35 -1.55
      vertex 19.4 4.15 7
      vertex 19.4 5.35 7
    endloop
  endfacet
  facet normal -1 -0 0
    outer loop
      vertex 19.4 11.55 7
      vertex 19.4 10.35 -1.55
      vertex 19.4 10.35 7
    endloop
  endfacet
  facet normal -0 0 1
    outer loop
      vertex 18.5 11.55 -2.75
      vertex 19.4 4.15 -2.75
      vertex 19.4 11.55 -2.75
    endloop
  endfacet
  facet normal 0 0 1
    outer loop
      vertex 19.4 4.15 -2.75
      vertex 18.5 11.55 -2.75
      vertex 18.5 4.15 -2.75
    endloop
  endfacet
  facet normal 1 -0 0
    outer loop
      vertex 18.5 4.15 7
      vertex 18.5 11.55 -2.75
      vertex 18.5 11.55 7
    endloop
  endfacet
  facet normal 1 0 0
    outer loop
      vertex 18.5 11.55 -2.75
      vertex 18.5 4.15 7
      vertex 18.5 4.15 -2.75
    endloop
  endfacet
  facet normal 0 -1 0
    outer loop
      vertex 18.5 11.55 -2.75
      vertex 19.4 11.55 7
      vertex 18.5 11.55 7
    endloop
  endfacet
  facet normal 0 -1 -0
    outer loop
      vertex 19.4 11.55 7
      vertex 18.5 11.55 -2.75
      vertex 19.4 11.55 -2.75
    endloop
  endfacet
  facet normal 0 1 -0
    outer loop
      vertex 19.4 4.15 -2.75
      vertex 18.5 4.15 7
      vertex 19.4 4.15 7
    endloop
  endfacet
  facet normal 0 1 0
    outer loop
      vertex 18.5 4.15 7
      vertex 19.4 4.15 -2.75
      vertex 18.5 4.15 -2.75
    endloop
  endfacet
  facet normal -0 0 1
    outer loop
      vertex 19.4 10.35 -1.55
      vertex 20.3 5.35 -1.55
      vertex 20.3 10.35 -1.55
    endloop
  endfacet
  facet normal 0 0 1
    outer loop
      vertex 20.3 5.35 -1.55
      vertex 19.4 10.35 -1.55
      vertex 19.4 5.35 -1.55
    endloop
  endfacet
  facet normal 0 -1 0
    outer loop
      vertex 19.4 10.35 -1.55
      vertex 20.3 10.35 7
      vertex 19.4 10.35 7
    endloop
  endfacet
  facet normal 0 -1 -0
    outer loop
      vertex 20.3 10.35 7
      vertex 19.4 10.35 -1.55
      vertex 20.3 10.35 -1.55
    endloop
  endfacet
  facet normal 0 1 -0
    outer loop
      vertex 20.3 5.35 -1.55
      vertex 19.4 5.35 7
      vertex 20.3 5.35 7
    endloop
  endfacet
  facet normal 0 1 0
    outer loop
      vertex 19.4 5.35 7
      vertex 20.3 5.35 -1.55
      vertex 19.4 5.35 -1.55
    endloop
  endfacet
  facet normal -1 0 0
    outer loop
      vertex 66.8 4.15 -2.75
      vertex 66.8 11.55 7
      vertex 66.8 11.55 -2.75
    endloop
  endfacet
  facet normal -1 -0 0
    outer loop
      vertex 66.8 11.55 7
      vertex 66.8 4.15 -2.75
      vertex 66.8 4.15 7
    endloop
  endfacet
  facet normal -0 0 1
    outer loop
      vertex 65.9 11.55 -2.75
      vertex 66.8 4.15 -2.75
      vertex 66.8 11.55 -2.75
    endloop
  endfacet
  facet normal 0 0 1
    outer loop
      vertex 66.8 4.15 -2.75
      vertex 65.9 11.55 -2.75
      vertex 65.9 4.15 -2.75
    endloop
  endfacet
  facet normal 1 0 0
    outer loop
      vertex 65.9 5.35 7
      vertex 65.9 4.15 7
      vertex 65.9 5.35 -1.55
    endloop
  endfacet
  facet normal 1 0 0
    outer loop
      vertex 65.9 10.35 -1.55
      vertex 65.9 11.55 7
      vertex 65.9 10.35 7
    endloop
  endfacet
  facet normal 1 0 0
    outer loop
      vertex 65.9 11.55 7
      vertex 65.9 10.35 -1.55
      vertex 65.9 11.55 -2.75
    endloop
  endfacet
  facet normal 1 -0 0
    outer loop
      vertex 65.9 5.35 -1.55
      vertex 65.9 11.55 -2.75
      vertex 65.9 10.35 -1.55
    endloop
  endfacet
  facet normal 1 0 0
    outer loop
      vertex 65.9 5.35 -1.55
      vertex 65.9 4.15 -2.75
      vertex 65.9 11.55 -2.75
    endloop
  endfacet
  facet normal 1 0 0
    outer loop
      vertex 65.9 4.15 -2.75
      vertex 65.9 5.35 -1.55
      vertex 65.9 4.15 7
    endloop
  endfacet
  facet normal 0 -1 0
    outer loop
      vertex 65.9 11.55 -2.75
      vertex 66.8 11.55 7
      vertex 65.9 11.55 7
    endloop
  endfacet
  facet normal 0 -1 -0
    outer loop
      vertex 66.8 11.55 7
      vertex 65.9 11.55 -2.75
      vertex 66.8 11.55 -2.75
    endloop
  endfacet
  facet normal 0 1 -0
    outer loop
      vertex 66.8 4.15 -2.75
      vertex 65.9 4.15 7
      vertex 66.8 4.15 7
    endloop
  endfacet
  facet normal 0 1 0
    outer loop
      vertex 65.9 4.15 7
      vertex 66.8 4.15 -2.75
      vertex 65.9 4.15 -2.75
    endloop
  endfacet
  facet normal -0 0 1
    outer loop
      vertex 65 10.35 -1.55
      vertex 65.9 5.35 -1.55
      vertex 65.9 10.35 -1.55
    endloop
  endfacet
  facet normal 0 0 1
    outer loop
      vertex 65.9 5.35 -1.55
      vertex 65 10.35 -1.55
      vertex 65 5.35 -1.55
    endloop
  endfacet
  facet normal 0 -1 0
    outer loop
      vertex 65 10.35 -1.55
      vertex 65.9 10.35 7
      vertex 65 10.35 7
    endloop
  endfacet
  facet normal 0 -1 -0
    outer loop
      vertex 65.9 10.35 7
      vertex 65 10.35 -1.55
      vertex 65.9 10.35 -1.55
    endloop
  endfacet
  facet normal 0 1 -0
    outer loop
      vertex 65.9 5.35 -1.55
      vertex 65 5.35 7
      vertex 65.9 5.35 7
    endloop
  endfacet
  facet normal 0 1 0
    outer loop
      vertex 65 5.35 7
      vertex 65.9 5.35 -1.55
      vertex 65 5.35 -1.55
    endloop
  endfacet
  facet normal -1 0 0
    outer loop
      vertex 19.4 41.85 -2.75
      vertex 19.4 40.65 -1.55
      vertex 19.4 41.85 7
    endloop
  endfacet
  facet normal -1 0 0
    outer loop
      vertex 19.4 41.85 -2.75
      vertex 19.4 35.65 -1.55
      vertex 19.4 40.65 -1.55
    endloop
  endfacet
  facet normal -1 0 0
    outer loop
      vertex 19.4 34.45 -2.75
      vertex 19.4 35.65 -1.55
      vertex 19.4 41.85 -2.75
    endloop
  endfacet
  facet normal -1 0 0
    outer loop
      vertex 19.4 34.45 7
      vertex 19.4 35.65 -1.55
      vertex 19.4 34.45 -2.75
    endloop
  endfacet
  facet normal -1 0 0
    outer loop
      vertex 19.4 35.65 -1.55
      vertex 19.4 34.45 7
      vertex 19.4 35.65 7
    endloop
  endfacet
  facet normal -1 -0 0
    outer loop
      vertex 19.4 41.85 7
      vertex 19.4 40.65 -1.55
      vertex 19.4 40.65 7
    endloop
  endfacet
  facet normal -0 0 1
    outer loop
      vertex 18.5 41.85 -2.75
      vertex 19.4 34.45 -2.75
      vertex 19.4 41.85 -2.75
    endloop
  endfacet
  facet normal 0 0 1
    outer loop
      vertex 19.4 34.45 -2.75
      vertex 18.5 41.85 -2.75
      vertex 18.5 34.45 -2.75
    endloop
  endfacet
  facet normal 1 -0 0
    outer loop
      vertex 18.5 34.45 7
      vertex 18.5 41.85 -2.75
      vertex 18.5 41.85 7
    endloop
  endfacet
  facet normal 1 0 0
    outer loop
      vertex 18.5 41.85 -2.75
      vertex 18.5 34.45 7
      vertex 18.5 34.45 -2.75
    endloop
  endfacet
  facet normal 0 -1 0
    outer loop
      vertex 18.5 41.85 -2.75
      vertex 19.4 41.85 7
      vertex 18.5 41.85 7
    endloop
  endfacet
  facet normal 0 -1 -0
    outer loop
      vertex 19.4 41.85 7
      vertex 18.5 41.85 -2.75
      vertex 19.4 41.85 -2.75
    endloop
  endfacet
  facet normal 0 1 -0
    outer loop
      vertex 19.4 34.45 -2.75
      vertex 18.5 34.45 7
      vertex 19.4 34.45 7
    endloop
  endfacet
  facet normal 0 1 0
    outer loop
      vertex 18.5 34.45 7
      vertex 19.4 34.45 -2.75
      vertex 18.5 34.45 -2.75
    endloop
  endfacet
  facet normal -0 0 1
    outer loop
      vertex 19.4 40.65 -1.55
      vertex 20.3 35.65 -1.55
      vertex 20.3 40.65 -1.55
    endloop
  endfacet
  facet normal 0 0 1
    outer loop
      vertex 20.3 35.65 -1.55
      vertex 19.4 40.65 -1.55
      vertex 19.4 35.65 -1.55
    endloop
  endfacet
  facet normal 0 -1 0
    outer loop
      vertex 19.4 40.65 -1.55
      vertex 20.3 40.65 7
      vertex 19.4 40.65 7
    endloop
  endfacet
  facet normal 0 -1 -0
    outer loop
      vertex 20.3 40.65 7
      vertex 19.4 40.65 -1.55
      vertex 20.3 40.65 -1.55
    endloop
  endfacet
  facet normal 0 1 -0
    outer loop
      vertex 20.3 35.65 -1.55
      vertex 19.4 35.65 7
      vertex 20.3 35.65 7
    endloop
  endfacet
  facet normal 0 1 0
    outer loop
      vertex 19.4 35.65 7
      vertex 20.3 35.65 -1.55
      vertex 19.4 35.65 -1.55
    endloop
  endfacet
  facet normal -1 0 0
    outer loop
      vertex 66.8 34.45 -2.75
      vertex 66.8 41.85 7
      vertex 66.8 41.85 -2.75
    endloop
  endfacet
  facet normal -1 -0 0
    outer loop
      vertex 66.8 41.85 7
      vertex 66.8 34.45 -2.75
      vertex 66.8 34.45 7
    endloop
  endfacet
  facet normal -0 0 1
    outer loop
      vertex 65.9 41.85 -2.75
      vertex 66.8 34.45 -2.75
      vertex 66.8 41.85 -2.75
    endloop
  endfacet
  facet normal 0 0 1
    outer loop
      vertex 66.8 34.45 -2.75
      vertex 65.9 41.85 -2.75
      vertex 65.9 34.45 -2.75
    endloop
  endfacet
  facet normal 1 0 0
    outer loop
      vertex 65.9 35.65 7
      vertex 65.9 34.45 7
      vertex 65.9 35.65 -1.55
    endloop
  endfacet
  facet normal 1 0 0
    outer loop
      vertex 65.9 40.65 -1.55
      vertex 65.9 41.85 7
      vertex 65.9 40.65 7
    endloop
  endfacet
  facet normal 1 0 0
    outer loop
      vertex 65.9 41.85 7
      vertex 65.9 40.65 -1.55
      vertex 65.9 41.85 -2.75
    endloop
  endfacet
  facet normal 1 -0 0
    outer loop
      vertex 65.9 35.65 -1.55
      vertex 65.9 41.85 -2.75
      vertex 65.9 40.65 -1.55
    endloop
  endfacet
  facet normal 1 0 0
    outer loop
      vertex 65.9 35.65 -1.55
      vertex 65.9 34.45 -2.75
      vertex 65.9 41.85 -2.75
    endloop
  endfacet
  facet normal 1 0 0
    outer loop
      vertex 65.9 34.45 -2.75
      vertex 65.9 35.65 -1.55
      vertex 65.9 34.45 7
    endloop
  endfacet
  facet normal 0 -1 0
    outer loop
      vertex 65.9 41.85 -2.75
      vertex 66.8 41.85 7
      vertex 65.9 41.85 7
    endloop
  endfacet
  facet normal 0 -1 -0
    outer loop
      vertex 66.8 41.85 7
      vertex 65.9 41.85 -2.75
      vertex 66.8 41.85 -2.75
    endloop
  endfacet
  facet normal 0 1 -0
    outer loop
      vertex 66.8 34.45 -2.75
      vertex 65.9 34.45 7
      vertex 66.8 34.45 7
    endloop
  endfacet
  facet normal 0 1 0
    outer loop
      vertex 65.9 34.45 7
      vertex 66.8 34.45 -2.75
      vertex 65.9 34.45 -2.75
    endloop
  endfacet
  facet normal -0 0 1
    outer loop
      vertex 65 40.65 -1.55
      vertex 65.9 35.65 -1.55
      vertex 65.9 40.65 -1.55
    endloop
  endfacet
  facet normal 0 0 1
    outer loop
      vertex 65.9 35.65 -1.55
      vertex 65 40.65 -1.55
      vertex 65 35.65 -1.55
    endloop
  endfacet
  facet normal 0 -1 0
    outer loop
      vertex 65 40.65 -1.55
      vertex 65.9 40.65 7
      vertex 65 40.65 7
    endloop
  endfacet
  facet normal 0 -1 -0
    outer loop
      vertex 65.9 40.65 7
      vertex 65 40.65 -1.55
      vertex 65.9 40.65 -1.55
    endloop
  endfacet
  facet normal 0 1 -0
    outer loop
      vertex 65.9 35.65 -1.55
      vertex 65 35.65 7
      vertex 65.9 35.65 7
    endloop
  endfacet
  facet normal 0 1 0
    outer loop
      vertex 65 35.65 7
      vertex 65.9 35.65 -1.55
      vertex 65 35.65 -1.55
    endloop
  endfacet
  facet normal 1 0 0
    outer loop
      vertex 93 38.6 7
      vertex 93 33.9 -2.1
      vertex 93 38.6 -5.1
    endloop
  endfacet
  facet normal 1 0 0
    outer loop
      vertex 93 38.6 7
      vertex 93 12.1 -2.1
      vertex 93 33.9 -2.1
    endloop
  endfacet
  facet normal 1 -0 0
    outer loop
      vertex 93 7.4 7
      vertex 93 12.1 -2.1
      vertex 93 38.6 7
    endloop
  endfacet
  facet normal 1 0 0
    outer loop
      vertex 93 7.4 -5.1
      vertex 93 12.1 -2.1
      vertex 93 7.4 7
    endloop
  endfacet
  facet normal 1 0 0
    outer loop
      vertex 93 12.1 -2.1
      vertex 93 7.4 -5.1
      vertex 93 12.1 -5.1
    endloop
  endfacet
  facet normal 1 0 0
    outer loop
      vertex 93 38.6 -5.1
      vertex 93 33.9 -2.1
      vertex 93 33.9 -5.1
    endloop
  endfacet
  facet normal 0 0 1
    outer loop
      vertex 20.3 43.7 7
      vertex 19.4 41.85 7
      vertex 20.3 40.65 7
    endloop
  endfacet
  facet normal 0 0 1
    outer loop
      vertex 20.3 43.7 7
      vertex 18.5 41.85 7
      vertex 19.4 41.85 7
    endloop
  endfacet
  facet normal 0 0 1
    outer loop
      vertex 8.4 38.6 7
      vertex 18.5 41.85 7
      vertex 8.4 43.7 7
    endloop
  endfacet
  facet normal -0 0 1
    outer loop
      vertex 8.4 43.7 7
      vertex 18.5 41.85 7
      vertex 20.3 43.7 7
    endloop
  endfacet
  facet normal 0 0 1
    outer loop
      vertex 20.3 40.65 7
      vertex 19.4 41.85 7
      vertex 19.4 40.65 7
    endloop
  endfacet
  facet normal 0 0 1
    outer loop
      vertex 19.4 34.45 7
      vertex 20.3 35.65 7
      vertex 19.4 35.65 7
    endloop
  endfacet
  facet normal 0 0 1
    outer loop
      vertex 32.3 33.9 7
      vertex 31.7 31.7 7
      vertex 32.3 12.1 7
    endloop
  endfacet
  facet normal -0 0 1
    outer loop
      vertex 20.3 33.9 7
      vertex 31.7 31.7 7
      vertex 32.3 33.9 7
    endloop
  endfacet
  facet normal 0 0 1
    outer loop
      vertex 20.3 35.65 7
      vertex 19.4 34.45 7
      vertex 20.3 33.9 7
    endloop
  endfacet
  facet normal -0 0 1
    outer loop
      vertex 18.5 34.45 7
      vertex 20.3 33.9 7
      vertex 19.4 34.45 7
    endloop
  endfacet
  facet normal 0 0 1
    outer loop
      vertex 18.5 41.85 7
      vertex 8.4 38.6 7
      vertex 18.5 34.45 7
    endloop
  endfacet
  facet normal 0 0 1
    outer loop
      vertex 6.3 33.9 7
      vertex 8.4 38.6 7
      vertex 6.3 38.6 7
    endloop
  endfacet
  facet normal 0 0 1
    outer loop
      vertex 8.4 38.6 7
      vertex 6.3 33.9 7
      vertex 18.5 34.45 7
    endloop
  endfacet
  facet normal 0 0 1
    outer loop
      vertex 3.3 31.7 7
      vertex 18.5 34.45 7
      vertex 6.3 33.9 7
    endloop
  endfacet
  facet normal 0 0 1
    outer loop
      vertex 18.5 34.45 7
      vertex 3.3 31.7 7
      vertex 20.3 33.9 7
    endloop
  endfacet
  facet normal 0 0 1
    outer loop
      vertex 3.3 31.7 7
      vertex 6.3 33.9 7
      vertex 3.3 33.9 7
    endloop
  endfacet
  facet normal 0 0 1
    outer loop
      vertex 20.3 33.9 7
      vertex 3.3 31.7 7
      vertex 31.7 31.7 7
    endloop
  endfacet
  facet normal -0 0 1
    outer loop
      vertex 31.7 14.3 7
      vertex 32.3 12.1 7
      vertex 31.7 31.7 7
    endloop
  endfacet
  facet normal 0 0 1
    outer loop
      vertex 31.7 14.3 7
      vertex 20.3 12.1 7
      vertex 32.3 12.1 7
    endloop
  endfacet
  facet normal 0 0 1
    outer loop
      vertex 20.3 12.1 7
      vertex 19.4 11.55 7
      vertex 20.3 10.35 7
    endloop
  endfacet
  facet normal 0 0 1
    outer loop
      vertex 20.3 12.1 7
      vertex 18.5 11.55 7
      vertex 19.4 11.55 7
    endloop
  endfacet
  facet normal 0 0 1
    outer loop
      vertex 18.5 11.55 7
      vertex 8.4 7.4 7
      vertex 18.5 4.15 7
    endloop
  endfacet
  facet normal 0 0 1
    outer loop
      vertex 18.5 11.55 7
      vertex 6.3 12.1 7
      vertex 8.4 7.4 7
    endloop
  endfacet
  facet normal 0 0 1
    outer loop
      vertex 3.3 14.3 7
      vertex 18.5 11.55 7
      vertex 20.3 12.1 7
    endloop
  endfacet
  facet normal -0 0 1
    outer loop
      vertex 3.3 14.3 7
      vertex 20.3 12.1 7
      vertex 31.7 14.3 7
    endloop
  endfacet
  facet normal 0 0 1
    outer loop
      vertex 18.5 11.55 7
      vertex 3.3 14.3 7
      vertex 6.3 12.1 7
    endloop
  endfacet
  facet normal 0 0 1
    outer loop
      vertex 6.3 12.1 7
      vertex 3.3 14.3 7
      vertex 3.3 12.1 7
    endloop
  endfacet
  facet normal 0 0 1
    outer loop
      vertex 20.3 10.35 7
      vertex 19.4 11.55 7
      vertex 19.4 10.35 7
    endloop
  endfacet
  facet normal 0 0 1
    outer loop
      vertex 19.4 4.15 7
      vertex 20.3 5.35 7
      vertex 19.4 5.35 7
    endloop
  endfacet
  facet normal 0 0 1
    outer loop
      vertex 20.3 5.35 7
      vertex 19.4 4.15 7
      vertex 20.3 2.3 7
    endloop
  endfacet
  facet normal -0 0 1
    outer loop
      vertex 18.5 4.15 7
      vertex 20.3 2.3 7
      vertex 19.4 4.15 7
    endloop
  endfacet
  facet normal 0 0 1
    outer loop
      vertex 8.4 2.3 7
      vertex 18.5 4.15 7
      vertex 8.4 7.4 7
    endloop
  endfacet
  facet normal 0 0 1
    outer loop
      vertex 18.5 4.15 7
      vertex 8.4 2.3 7
      vertex 20.3 2.3 7
    endloop
  endfacet
  facet normal 0 0 1
    outer loop
      vertex 8.4 7.4 7
      vertex 6.3 12.1 7
      vertex 6.3 7.4 7
    endloop
  endfacet
  facet normal 0 0 1
    outer loop
      vertex 65.9 5.35 7
      vertex 65 5.35 7
      vertex 65.9 4.15 7
    endloop
  endfacet
  facet normal 0 0 1
    outer loop
      vertex 65.9 35.65 7
      vertex 65 35.65 7
      vertex 65.9 34.45 7
    endloop
  endfacet
  facet normal -0 0 1
    outer loop
      vertex 65 12.1 7
      vertex 66.8 11.55 7
      vertex 85.1 12.1 7
    endloop
  endfacet
  facet normal 0 0 1
    outer loop
      vertex 66.8 11.55 7
      vertex 65 12.1 7
      vertex 65.9 11.55 7
    endloop
  endfacet
  facet normal 0 0 1
    outer loop
      vertex 65 10.35 7
      vertex 65.9 11.55 7
      vertex 65 12.1 7
    endloop
  endfacet
  facet normal 0 0 1
    outer loop
      vertex 65.9 11.55 7
      vertex 65 10.35 7
      vertex 65.9 10.35 7
    endloop
  endfacet
  facet normal 0 0 1
    outer loop
      vertex 85.1 33.9 7
      vertex 87.9 38.6 7
      vertex 87.9 43.7 7
    endloop
  endfacet
  facet normal 0 0 1
    outer loop
      vertex 87.9 38.6 7
      vertex 85.1 33.9 7
      vertex 87.9 7.4 7
    endloop
  endfacet
  facet normal -0 0 1
    outer loop
      vertex 85.1 12.1 7
      vertex 87.9 7.4 7
      vertex 85.1 33.9 7
    endloop
  endfacet
  facet normal 0 0 1
    outer loop
      vertex 87.9 43.7 7
      vertex 66.8 41.85 7
      vertex 85.1 33.9 7
    endloop
  endfacet
  facet normal -0 0 1
    outer loop
      vertex 65 43.7 7
      vertex 66.8 41.85 7
      vertex 87.9 43.7 7
    endloop
  endfacet
  facet normal 0 0 1
    outer loop
      vertex 66.8 41.85 7
      vertex 65 43.7 7
      vertex 65.9 41.85 7
    endloop
  endfacet
  facet normal 0 0 1
    outer loop
      vertex 65 40.65 7
      vertex 65.9 41.85 7
      vertex 65 43.7 7
    endloop
  endfacet
  facet normal 0 0 1
    outer loop
      vertex 65.9 41.85 7
      vertex 65 40.65 7
      vertex 65.9 40.65 7
    endloop
  endfacet
  facet normal -0 0 1
    outer loop
      vertex 87.9 38.6 7
      vertex 93 7.4 7
      vertex 93 38.6 7
    endloop
  endfacet
  facet normal 0 0 1
    outer loop
      vertex 93 7.4 7
      vertex 87.9 38.6 7
      vertex 87.9 7.4 7
    endloop
  endfacet
  facet normal 0 0 1
    outer loop
      vertex 87.9 7.4 7
      vertex 85.1 12.1 7
      vertex 87.9 2.3 7
    endloop
  endfacet
  facet normal 0 0 1
    outer loop
      vertex 66.8 4.15 7
      vertex 85.1 12.1 7
      vertex 66.8 11.55 7
    endloop
  endfacet
  facet normal 0 0 1
    outer loop
      vertex 85.1 12.1 7
      vertex 66.8 4.15 7
      vertex 87.9 2.3 7
    endloop
  endfacet
  facet normal 0 0 1
    outer loop
      vertex 65 2.3 7
      vertex 66.8 4.15 7
      vertex 65.9 4.15 7
    endloop
  endfacet
  facet normal 0 0 1
    outer loop
      vertex 66.8 4.15 7
      vertex 65 2.3 7
      vertex 87.9 2.3 7
    endloop
  endfacet
  facet normal 0 0 1
    outer loop
      vertex 65 2.3 7
      vertex 65.9 4.15 7
      vertex 65 5.35 7
    endloop
  endfacet
  facet normal -0 0 1
    outer loop
      vertex 66.8 34.45 7
      vertex 85.1 33.9 7
      vertex 66.8 41.85 7
    endloop
  endfacet
  facet normal 0 0 1
    outer loop
      vertex 65 33.9 7
      vertex 66.8 34.45 7
      vertex 65.9 34.45 7
    endloop
  endfacet
  facet normal 0 0 1
    outer loop
      vertex 66.8 34.45 7
      vertex 65 33.9 7
      vertex 85.1 33.9 7
    endloop
  endfacet
  facet normal 0 0 1
    outer loop
      vertex 65 33.9 7
      vertex 65.9 34.45 7
      vertex 65 35.65 7
    endloop
  endfacet
  facet normal 0 0 -1
    outer loop
      vertex 87.9 2.3 -5.1
      vertex 32.3 12.1 -5.1
      vertex 87.9 7.4 -5.1
    endloop
  endfacet
  facet normal 0 0 -1
    outer loop
      vertex 8.4 7.4 -5.1
      vertex 32.3 12.1 -5.1
      vertex 8.4 2.3 -5.1
    endloop
  endfacet
  facet normal 0 0 -1
    outer loop
      vertex 8.4 2.3 -5.1
      vertex 32.3 12.1 -5.1
      vertex 87.9 2.3 -5.1
    endloop
  endfacet
  facet normal 0 0 -1
    outer loop
      vertex 87.9 7.4 -5.1
      vertex 93 12.1 -5.1
      vertex 93 7.4 -5.1
    endloop
  endfacet
  facet normal -0 0 -1
    outer loop
      vertex 93 12.1 -5.1
      vertex 87.9 7.4 -5.1
      vertex 32.3 12.1 -5.1
    endloop
  endfacet
  facet normal 0 0 -1
    outer loop
      vertex 93 33.9 -5.1
      vertex 87.9 38.6 -5.1
      vertex 93 38.6 -5.1
    endloop
  endfacet
  facet normal 0 0 -1
    outer loop
      vertex 32.3 33.9 -5.1
      vertex 87.9 38.6 -5.1
      vertex 93 33.9 -5.1
    endloop
  endfacet
  facet normal 0 0 -1
    outer loop
      vertex 32.3 33.9 -5.1
      vertex 87.9 43.7 -5.1
      vertex 87.9 38.6 -5.1
    endloop
  endfacet
  facet normal 0 0 -1
    outer loop
      vertex 6.3 12.1 -5.1
      vertex 32.3 12.1 -5.1
      vertex 8.4 7.4 -5.1
    endloop
  endfacet
  facet normal 0 0 -1
    outer loop
      vertex 32.3 12.1 -5.1
      vertex 6.3 12.1 -5.1
      vertex 32.3 33.9 -5.1
    endloop
  endfacet
  facet normal 0 0 -1
    outer loop
      vertex 8.4 43.7 -5.1
      vertex 32.3 33.9 -5.1
      vertex 8.4 38.6 -5.1
    endloop
  endfacet
  facet normal 0 0 -1
    outer loop
      vertex 32.3 33.9 -5.1
      vertex 8.4 43.7 -5.1
      vertex 87.9 43.7 -5.1
    endloop
  endfacet
  facet normal 0 0 -1
    outer loop
      vertex 3.3 12.1 -5.1
      vertex 6.3 33.9 -5.1
      vertex 6.3 12.1 -5.1
    endloop
  endfacet
  facet normal -0 0 -1
    outer loop
      vertex 6.3 33.9 -5.1
      vertex 3.3 12.1 -5.1
      vertex 3.3 33.9 -5.1
    endloop
  endfacet
  facet normal 0 0 -1
    outer loop
      vertex 6.3 12.1 -5.1
      vertex 8.4 7.4 -5.1
      vertex 6.3 7.4 -5.1
    endloop
  endfacet
  facet normal 0 0 -1
    outer loop
      vertex 6.3 33.9 -5.1
      vertex 32.3 33.9 -5.1
      vertex 6.3 12.1 -5.1
    endloop
  endfacet
  facet normal 0 0 -1
    outer loop
      vertex 32.3 33.9 -5.1
      vertex 6.3 33.9 -5.1
      vertex 8.4 38.6 -5.1
    endloop
  endfacet
  facet normal -0 0 -1
    outer loop
      vertex 8.4 38.6 -5.1
      vertex 6.3 33.9 -5.1
      vertex 6.3 38.6 -5.1
    endloop
  endfacet
  facet normal -1 0 0
    outer loop
      vertex 6.3 7.4 -5.1
      vertex 6.3 12.1 -2.60322
      vertex 6.3 12.1 -5.1
    endloop
  endfacet
  facet normal -1 -0 0
    outer loop
      vertex 6.3 12.1 -2.60322
      vertex 6.3 7.4 -5.1
      vertex 6.3 12.1 4.50322
    endloop
  endfacet
  facet normal -1 0 0
    outer loop
      vertex 6.3 7.4 7
      vertex 6.3 12.1 4.50322
      vertex 6.3 7.4 -5.1
    endloop
  endfacet
  facet normal -1 0 0
    outer loop
      vertex 6.3 12.1 4.50322
      vertex 6.3 7.4 7
      vertex 6.3 12.1 7
    endloop
  endfacet
  facet normal -1 0 0
    outer loop
      vertex 6.3 33.9 -2.60322
      vertex 6.3 38.6 -5.1
      vertex 6.3 33.9 -5.1
    endloop
  endfacet
  facet normal -1 0 0
    outer loop
      vertex 6.3 38.6 -5.1
      vertex 6.3 33.9 -2.60322
      vertex 6.3 38.6 7
    endloop
  endfacet
  facet normal -1 0 0
    outer loop
      vertex 6.3 33.9 4.50322
      vertex 6.3 38.6 7
      vertex 6.3 33.9 -2.60322
    endloop
  endfacet
  facet normal -1 -0 0
    outer loop
      vertex 6.3 38.6 7
      vertex 6.3 33.9 4.50322
      vertex 6.3 33.9 7
    endloop
  endfacet
  facet normal -1 0 0
    outer loop
      vertex 85.1 12.1 -2.1
      vertex 85.1 33.9 7
      vertex 85.1 33.9 -2.1
    endloop
  endfacet
  facet normal -1 -0 0
    outer loop
      vertex 85.1 33.9 7
      vertex 85.1 12.1 -2.1
      vertex 85.1 12.1 7
    endloop
  endfacet
  facet normal 0 1 -0
    outer loop
      vertex 6.3 33.9 4.50322
      vertex 3.3 33.9 7
      vertex 6.3 33.9 7
    endloop
  endfacet
  facet normal 0 1 0
    outer loop
      vertex 3.3 33.9 7
      vertex 6.3 33.9 4.50322
      vertex 3.3 33.9 4.50322
    endloop
  endfacet
  facet normal 0 1 -0
    outer loop
      vertex 32.3 33.9 4.50322
      vertex 20.3 33.9 7
      vertex 32.3 33.9 7
    endloop
  endfacet
  facet normal 0 1 0
    outer loop
      vertex 20.3 33.9 7
      vertex 32.3 33.9 4.50322
      vertex 20.3 33.9 4.50322
    endloop
  endfacet
  facet normal 0 -1 0
    outer loop
      vertex 32.3 33.9 -2.60322
      vertex 32.3 33.9 -5.1
      vertex 65 33.9 -2.60322
    endloop
  endfacet
  facet normal 0 -1 0
    outer loop
      vertex 65 33.9 7
      vertex 85.1 33.9 -2.1
      vertex 85.1 33.9 7
    endloop
  endfacet
  facet normal 0 -1 0
    outer loop
      vertex 65 33.9 -2.60322
      vertex 85.1 33.9 -2.1
      vertex 65 33.9 7
    endloop
  endfacet
  facet normal 0 -1 0
    outer loop
      vertex 93 33.9 -5.1
      vertex 85.1 33.9 -2.1
      vertex 65 33.9 -2.60322
    endloop
  endfacet
  facet normal 0 -1 0
    outer loop
      vertex 93 33.9 -5.1
      vertex 65 33.9 -2.60322
      vertex 32.3 33.9 -5.1
    endloop
  endfacet
  facet normal 0 -1 0
    outer loop
      vertex 85.1 33.9 -2.1
      vertex 93 33.9 -5.1
      vertex 93 33.9 -2.1
    endloop
  endfacet
  facet normal 0 1 -0
    outer loop
      vertex 6.3 33.9 -5.1
      vertex 3.3 33.9 -2.60322
      vertex 6.3 33.9 -2.60322
    endloop
  endfacet
  facet normal 0 1 0
    outer loop
      vertex 3.3 33.9 -2.60322
      vertex 6.3 33.9 -5.1
      vertex 3.3 33.9 -5.1
    endloop
  endfacet
  facet normal 0 -1 0
    outer loop
      vertex 6.3 33.9 -2.60322
      vertex 20.3 33.9 4.50322
      vertex 6.3 33.9 4.50322
    endloop
  endfacet
  facet normal 0 -1 -0
    outer loop
      vertex 20.3 33.9 4.50322
      vertex 6.3 33.9 -2.60322
      vertex 20.3 33.9 -2.60322
    endloop
  endfacet
  facet normal 0 -1 0
    outer loop
      vertex 3.3 12.1 4.50322
      vertex 6.3 12.1 7
      vertex 3.3 12.1 7
    endloop
  endfacet
  facet normal 0 -1 -0
    outer loop
      vertex 6.3 12.1 7
      vertex 3.3 12.1 4.50322
      vertex 6.3 12.1 4.50322
    endloop
  endfacet
  facet normal 0 -1 0
    outer loop
      vertex 20.3 12.1 4.50322
      vertex 32.3 12.1 7
      vertex 20.3 12.1 7
    endloop
  endfacet
  facet normal 0 -1 -0
    outer loop
      vertex 32.3 12.1 7
      vertex 20.3 12.1 4.50322
      vertex 32.3 12.1 4.50322
    endloop
  endfacet
  facet normal 0 1 -0
    outer loop
      vertex 93 12.1 -5.1
      vertex 85.1 12.1 -2.1
      vertex 93 12.1 -2.1
    endloop
  endfacet
  facet normal 0 1 0
    outer loop
      vertex 85.1 12.1 -2.1
      vertex 93 12.1 -5.1
      vertex 65 12.1 -2.60322
    endloop
  endfacet
  facet normal 0 1 0
    outer loop
      vertex 32.3 12.1 -5.1
      vertex 65 12.1 -2.60322
      vertex 93 12.1 -5.1
    endloop
  endfacet
  facet normal 0 1 0
    outer loop
      vertex 65 12.1 -2.60322
      vertex 32.3 12.1 -5.1
      vertex 32.3 12.1 -2.60322
    endloop
  endfacet
  facet normal 0 1 -0
    outer loop
      vertex 85.1 12.1 -2.1
      vertex 65 12.1 7
      vertex 85.1 12.1 7
    endloop
  endfacet
  facet normal 0 1 0
    outer loop
      vertex 65 12.1 7
      vertex 85.1 12.1 -2.1
      vertex 65 12.1 -2.60322
    endloop
  endfacet
  facet normal 0 -1 0
    outer loop
      vertex 3.3 12.1 -5.1
      vertex 6.3 12.1 -2.60322
      vertex 3.3 12.1 -2.60322
    endloop
  endfacet
  facet normal 0 -1 -0
    outer loop
      vertex 6.3 12.1 -2.60322
      vertex 3.3 12.1 -5.1
      vertex 6.3 12.1 -5.1
    endloop
  endfacet
  facet normal 0 1 -0
    outer loop
      vertex 20.3 12.1 -2.60322
      vertex 6.3 12.1 4.50322
      vertex 20.3 12.1 4.50322
    endloop
  endfacet
  facet normal 0 1 0
    outer loop
      vertex 6.3 12.1 4.50322
      vertex 20.3 12.1 -2.60322
      vertex 6.3 12.1 -2.60322
    endloop
  endfacet
  facet normal 0 0 -1
    outer loop
      vertex 85.1 12.1 -2.1
      vertex 93 33.9 -2.1
      vertex 93 12.1 -2.1
    endloop
  endfacet
  facet normal -0 0 -1
    outer loop
      vertex 93 33.9 -2.1
      vertex 85.1 12.1 -2.1
      vertex 85.1 33.9 -2.1
    endloop
  endfacet
  facet normal -1.45328e-18 -0.751864 -0.659318
    outer loop
      vertex 3.3 12.2531 4.32863
      vertex 6.3 12.1 4.50322
      vertex 3.3 12.1 4.50322
    endloop
  endfacet
  facet normal 0 -0.751864 -0.659318
    outer loop
      vertex 6.3 12.1 4.50322
      vertex 3.3 12.2531 4.32863
      vertex 20.3 12.1 4.50322
    endloop
  endfacet
  facet normal -0 -0.751864 -0.659318
    outer loop
      vertex 32.3 12.2531 4.32863
      vertex 20.3 12.1 4.50322
      vertex 3.3 12.2531 4.32863
    endloop
  endfacet
  facet normal 0 -0.751864 -0.659318
    outer loop
      vertex 20.3 12.1 4.50322
      vertex 32.3 12.2531 4.32863
      vertex 32.3 12.1 4.50322
    endloop
  endfacet
  facet normal 1.91676e-19 -0.946911 -0.321496
    outer loop
      vertex 3.3 13.2109 2.38645
      vertex 32.3 12.9775 3.07389
      vertex 3.3 12.9775 3.07389
    endloop
  endfacet
  facet normal 1.91676e-19 -0.946911 -0.321496
    outer loop
      vertex 32.3 12.9775 3.07389
      vertex 3.3 13.2109 2.38645
      vertex 32.3 13.2109 2.38645
    endloop
  endfacet
  facet normal 5.70133e-19 -0.83149 0.555539
    outer loop
      vertex 3.3 12.2531 -2.42863
      vertex 32.3 12.6564 -1.825
      vertex 3.3 12.6564 -1.825
    endloop
  endfacet
  facet normal 5.70133e-19 -0.83149 0.555539
    outer loop
      vertex 32.3 12.6564 -1.825
      vertex 3.3 12.2531 -2.42863
      vertex 32.3 12.2531 -2.42863
    endloop
  endfacet
  facet normal 3.49572e-19 -0.896868 0.442298
    outer loop
      vertex 3.3 12.6564 -1.825
      vertex 32.3 12.9775 -1.17389
      vertex 3.3 12.9775 -1.17389
    endloop
  endfacet
  facet normal 3.49572e-19 -0.896868 0.442298
    outer loop
      vertex 32.3 12.9775 -1.17389
      vertex 3.3 12.6564 -1.825
      vertex 32.3 12.6564 -1.825
    endloop
  endfacet
  facet normal 4.49762e-19 -0.83149 -0.555539
    outer loop
      vertex 3.3 12.6564 3.725
      vertex 32.3 12.2531 4.32863
      vertex 3.3 12.2531 4.32863
    endloop
  endfacet
  facet normal 4.49762e-19 -0.83149 -0.555539
    outer loop
      vertex 32.3 12.2531 4.32863
      vertex 3.3 12.6564 3.725
      vertex 32.3 12.6564 3.725
    endloop
  endfacet
  facet normal -3.003e-19 -0.980793 0.19505
    outer loop
      vertex 3.3 13.2109 -0.486445
      vertex 32.3 13.3525 0.225579
      vertex 3.3 13.3525 0.225579
    endloop
  endfacet
  facet normal -3.003e-19 -0.980793 0.19505
    outer loop
      vertex 32.3 13.3525 0.225579
      vertex 3.3 13.2109 -0.486445
      vertex 32.3 13.2109 -0.486445
    endloop
  endfacet
  facet normal 2.18895e-19 -0.896868 -0.442298
    outer loop
      vertex 3.3 12.9775 3.07389
      vertex 32.3 12.6564 3.725
      vertex 3.3 12.6564 3.725
    endloop
  endfacet
  facet normal 2.18895e-19 -0.896868 -0.442298
    outer loop
      vertex 32.3 12.6564 3.725
      vertex 3.3 12.9775 3.07389
      vertex 32.3 12.9775 3.07389
    endloop
  endfacet
  facet normal 3.44423e-19 -0.946912 0.321494
    outer loop
      vertex 3.3 12.9775 -1.17389
      vertex 32.3 13.2109 -0.486445
      vertex 3.3 13.2109 -0.486445
    endloop
  endfacet
  facet normal 3.44423e-19 -0.946912 0.321494
    outer loop
      vertex 32.3 13.2109 -0.486445
      vertex 3.3 12.9775 -1.17389
      vertex 32.3 12.9775 -1.17389
    endloop
  endfacet
  facet normal 1.14435e-19 -0.997857 0.0654291
    outer loop
      vertex 3.3 13.3525 0.225579
      vertex 32.3 13.4 0.95
      vertex 3.3 13.4 0.95
    endloop
  endfacet
  facet normal 1.14435e-19 -0.997857 0.0654291
    outer loop
      vertex 32.3 13.4 0.95
      vertex 3.3 13.3525 0.225579
      vertex 32.3 13.3525 0.225579
    endloop
  endfacet
  facet normal -1.01194e-19 -0.997857 -0.0654292
    outer loop
      vertex 3.3 13.4 0.95
      vertex 32.3 13.3525 1.67442
      vertex 3.3 13.3525 1.67442
    endloop
  endfacet
  facet normal -1.01194e-19 -0.997857 -0.0654292
    outer loop
      vertex 32.3 13.3525 1.67442
      vertex 3.3 13.4 0.95
      vertex 32.3 13.4 0.95
    endloop
  endfacet
  facet normal 2.22646e-19 -0.980794 -0.195048
    outer loop
      vertex 3.3 13.3525 1.67442
      vertex 32.3 13.2109 2.38645
      vertex 3.3 13.2109 2.38645
    endloop
  endfacet
  facet normal 2.22646e-19 -0.980794 -0.195048
    outer loop
      vertex 32.3 13.2109 2.38645
      vertex 3.3 13.3525 1.67442
      vertex 32.3 13.3525 1.67442
    endloop
  endfacet
  facet normal -3.14825e-19 0.980794 -0.195048
    outer loop
      vertex 32.3 32.6475 1.67442
      vertex 3.3 32.7891 2.38645
      vertex 32.3 32.7891 2.38645
    endloop
  endfacet
  facet normal -3.14825e-19 0.980794 -0.195048
    outer loop
      vertex 3.3 32.7891 2.38645
      vertex 32.3 32.6475 1.67442
      vertex 3.3 32.6475 1.67442
    endloop
  endfacet
  facet normal 6.12396e-19 0.83149 0.555539
    outer loop
      vertex 32.3 33.7469 -2.42863
      vertex 3.3 33.3436 -1.825
      vertex 32.3 33.3436 -1.825
    endloop
  endfacet
  facet normal 6.12396e-19 0.83149 0.555539
    outer loop
      vertex 3.3 33.3436 -1.825
      vertex 32.3 33.7469 -2.42863
      vertex 3.3 33.7469 -2.42863
    endloop
  endfacet
  facet normal -3.96083e-19 0.751864 -0.659318
    outer loop
      vertex 32.3 33.7469 4.32863
      vertex 20.3 33.9 4.50322
      vertex 32.3 33.9 4.50322
    endloop
  endfacet
  facet normal 0 0.751864 -0.659318
    outer loop
      vertex 3.3 33.7469 4.32863
      vertex 20.3 33.9 4.50322
      vertex 32.3 33.7469 4.32863
    endloop
  endfacet
  facet normal 0 0.751864 -0.659318
    outer loop
      vertex 20.3 33.9 4.50322
      vertex 3.3 33.7469 4.32863
      vertex 6.3 33.9 4.50322
    endloop
  endfacet
  facet normal 0 0.751864 -0.659318
    outer loop
      vertex 6.3 33.9 4.50322
      vertex 3.3 33.7469 4.32863
      vertex 3.3 33.9 4.50322
    endloop
  endfacet
  facet normal -6.52575e-19 0.896868 -0.442298
    outer loop
      vertex 32.3 33.0225 3.07389
      vertex 3.3 33.3436 3.725
      vertex 32.3 33.3436 3.725
    endloop
  endfacet
  facet normal -6.52575e-19 0.896868 -0.442298
    outer loop
      vertex 3.3 33.3436 3.725
      vertex 32.3 33.0225 3.07389
      vertex 3.3 33.0225 3.07389
    endloop
  endfacet
  facet normal -2.67208e-19 0.980793 0.19505
    outer loop
      vertex 32.3 32.7891 -0.486445
      vertex 3.3 32.6475 0.225579
      vertex 32.3 32.6475 0.225579
    endloop
  endfacet
  facet normal -2.67208e-19 0.980793 0.19505
    outer loop
      vertex 3.3 32.6475 0.225579
      vertex 32.3 32.7891 -0.486445
      vertex 3.3 32.7891 -0.486445
    endloop
  endfacet
  facet normal -1.96738e-19 0.946911 -0.321496
    outer loop
      vertex 32.3 32.7891 2.38645
      vertex 3.3 33.0225 3.07389
      vertex 32.3 33.0225 3.07389
    endloop
  endfacet
  facet normal -1.96738e-19 0.946911 -0.321496
    outer loop
      vertex 3.3 33.0225 3.07389
      vertex 32.3 32.7891 2.38645
      vertex 3.3 32.7891 2.38645
    endloop
  endfacet
  facet normal 8.4108e-20 0.896868 0.442298
    outer loop
      vertex 32.3 33.3436 -1.825
      vertex 3.3 33.0225 -1.17389
      vertex 32.3 33.0225 -1.17389
    endloop
  endfacet
  facet normal 8.4108e-20 0.896868 0.442298
    outer loop
      vertex 3.3 33.0225 -1.17389
      vertex 32.3 33.3436 -1.825
      vertex 3.3 33.3436 -1.825
    endloop
  endfacet
  facet normal 3.44643e-20 0.997857 0.0654291
    outer loop
      vertex 32.3 32.6475 0.225579
      vertex 3.3 32.6 0.95
      vertex 32.3 32.6 0.95
    endloop
  endfacet
  facet normal 3.44643e-20 0.997857 0.0654291
    outer loop
      vertex 3.3 32.6 0.95
      vertex 32.3 32.6475 0.225579
      vertex 3.3 32.6475 0.225579
    endloop
  endfacet
  facet normal -3.39782e-19 0.946912 0.321494
    outer loop
      vertex 32.3 33.0225 -1.17389
      vertex 3.3 32.7891 -0.486445
      vertex 32.3 32.7891 -0.486445
    endloop
  endfacet
  facet normal -3.39782e-19 0.946912 0.321494
    outer loop
      vertex 3.3 32.7891 -0.486445
      vertex 32.3 33.0225 -1.17389
      vertex 3.3 33.0225 -1.17389
    endloop
  endfacet
  facet normal -4.76209e-20 0.997857 -0.0654292
    outer loop
      vertex 32.3 32.6 0.95
      vertex 3.3 32.6475 1.67442
      vertex 32.3 32.6475 1.67442
    endloop
  endfacet
  facet normal -4.76209e-20 0.997857 -0.0654292
    outer loop
      vertex 3.3 32.6475 1.67442
      vertex 32.3 32.6 0.95
      vertex 3.3 32.6 0.95
    endloop
  endfacet
  facet normal -3.13916e-19 0.83149 -0.555539
    outer loop
      vertex 32.3 33.3436 3.725
      vertex 3.3 33.7469 4.32863
      vertex 32.3 33.7469 4.32863
    endloop
  endfacet
  facet normal -3.13916e-19 0.83149 -0.555539
    outer loop
      vertex 3.3 33.7469 4.32863
      vertex 32.3 33.3436 3.725
      vertex 3.3 33.3436 3.725
    endloop
  endfacet
  facet normal 1 0 0
    outer loop
      vertex 32.3 33.9 7
      vertex 32.3 33.7469 4.32863
      vertex 32.3 33.9 4.50322
    endloop
  endfacet
  facet normal 1 0 0
    outer loop
      vertex 32.3 33.9 7
      vertex 32.3 33.3436 3.725
      vertex 32.3 33.7469 4.32863
    endloop
  endfacet
  facet normal 1 0 0
    outer loop
      vertex 32.3 33.9 7
      vertex 32.3 33.0225 3.07389
      vertex 32.3 33.3436 3.725
    endloop
  endfacet
  facet normal 1 0 0
    outer loop
      vertex 32.3 12.9775 3.07389
      vertex 32.3 33.0225 3.07389
      vertex 32.3 33.9 7
    endloop
  endfacet
  facet normal 1 0 0
    outer loop
      vertex 32.3 32.6475 1.67442
      vertex 32.3 13.4 0.95
      vertex 32.3 32.6 0.95
    endloop
  endfacet
  facet normal 1 0 0
    outer loop
      vertex 32.3 13.3525 1.67442
      vertex 32.3 32.6475 1.67442
      vertex 32.3 32.7891 2.38645
    endloop
  endfacet
  facet normal 1 0 0
    outer loop
      vertex 32.3 33.0225 3.07389
      vertex 32.3 12.9775 3.07389
      vertex 32.3 32.7891 2.38645
    endloop
  endfacet
  facet normal 1 0 0
    outer loop
      vertex 32.3 32.6475 1.67442
      vertex 32.3 13.3525 1.67442
      vertex 32.3 13.4 0.95
    endloop
  endfacet
  facet normal 1 0 0
    outer loop
      vertex 32.3 32.7891 2.38645
      vertex 32.3 13.2109 2.38645
      vertex 32.3 13.3525 1.67442
    endloop
  endfacet
  facet normal 1 0 0
    outer loop
      vertex 32.3 32.7891 2.38645
      vertex 32.3 12.9775 3.07389
      vertex 32.3 13.2109 2.38645
    endloop
  endfacet
  facet normal 1 -0 0
    outer loop
      vertex 32.3 12.1 7
      vertex 32.3 12.9775 3.07389
      vertex 32.3 33.9 7
    endloop
  endfacet
  facet normal 1 0 0
    outer loop
      vertex 32.3 12.9775 3.07389
      vertex 32.3 12.1 7
      vertex 32.3 12.6564 3.725
    endloop
  endfacet
  facet normal 1 0 0
    outer loop
      vertex 32.3 12.6564 3.725
      vertex 32.3 12.1 7
      vertex 32.3 12.2531 4.32863
    endloop
  endfacet
  facet normal 1 0 0
    outer loop
      vertex 32.3 12.2531 4.32863
      vertex 32.3 12.1 7
      vertex 32.3 12.1 4.50322
    endloop
  endfacet
  facet normal 1 0 0
    outer loop
      vertex 32.3 33.7469 -2.42863
      vertex 32.3 33.9 -5.1
      vertex 32.3 33.9 -2.60322
    endloop
  endfacet
  facet normal 1 0 0
    outer loop
      vertex 32.3 33.3436 -1.825
      vertex 32.3 33.9 -5.1
      vertex 32.3 33.7469 -2.42863
    endloop
  endfacet
  facet normal 1 0 0
    outer loop
      vertex 32.3 33.0225 -1.17389
      vertex 32.3 33.9 -5.1
      vertex 32.3 33.3436 -1.825
    endloop
  endfacet
  facet normal 1 0 0
    outer loop
      vertex 32.3 12.9775 -1.17389
      vertex 32.3 33.0225 -1.17389
      vertex 32.3 32.7891 -0.486445
    endloop
  endfacet
  facet normal 1 -0 0
    outer loop
      vertex 32.3 13.4 0.95
      vertex 32.3 32.6475 0.225579
      vertex 32.3 32.6 0.95
    endloop
  endfacet
  facet normal 1 0 0
    outer loop
      vertex 32.3 13.3525 0.225579
      vertex 32.3 32.6475 0.225579
      vertex 32.3 13.4 0.95
    endloop
  endfacet
  facet normal 1 0 0
    outer loop
      vertex 32.3 32.6475 0.225579
      vertex 32.3 13.3525 0.225579
      vertex 32.3 32.7891 -0.486445
    endloop
  endfacet
  facet normal 1 0 0
    outer loop
      vertex 32.3 13.2109 -0.486445
      vertex 32.3 32.7891 -0.486445
      vertex 32.3 13.3525 0.225579
    endloop
  endfacet
  facet normal 1 0 0
    outer loop
      vertex 32.3 12.9775 -1.17389
      vertex 32.3 32.7891 -0.486445
      vertex 32.3 13.2109 -0.486445
    endloop
  endfacet
  facet normal 1 0 0
    outer loop
      vertex 32.3 33.0225 -1.17389
      vertex 32.3 12.9775 -1.17389
      vertex 32.3 33.9 -5.1
    endloop
  endfacet
  facet normal 1 0 0
    outer loop
      vertex 32.3 12.1 -5.1
      vertex 32.3 12.9775 -1.17389
      vertex 32.3 12.6564 -1.825
    endloop
  endfacet
  facet normal 1 0 0
    outer loop
      vertex 32.3 12.1 -5.1
      vertex 32.3 12.6564 -1.825
      vertex 32.3 12.2531 -2.42863
    endloop
  endfacet
  facet normal 1 0 0
    outer loop
      vertex 32.3 12.1 -5.1
      vertex 32.3 12.2531 -2.42863
      vertex 32.3 12.1 -2.60322
    endloop
  endfacet
  facet normal 1 0 0
    outer loop
      vertex 32.3 12.9775 -1.17389
      vertex 32.3 12.1 -5.1
      vertex 32.3 33.9 -5.1
    endloop
  endfacet
  facet normal -1 0 0
    outer loop
      vertex 3.3 33.9 -5.1
      vertex 3.3 33.7469 -2.42863
      vertex 3.3 33.9 -2.60322
    endloop
  endfacet
  facet normal -1 0 0
    outer loop
      vertex 3.3 33.9 -5.1
      vertex 3.3 33.3436 -1.825
      vertex 3.3 33.7469 -2.42863
    endloop
  endfacet
  facet normal -1 0 0
    outer loop
      vertex 3.3 33.9 -5.1
      vertex 3.3 33.0225 -1.17389
      vertex 3.3 33.3436 -1.825
    endloop
  endfacet
  facet normal -1 0 0
    outer loop
      vertex 3.3 12.9775 -1.17389
      vertex 3.3 33.0225 -1.17389
      vertex 3.3 33.9 -5.1
    endloop
  endfacet
  facet normal -1 0 0
    outer loop
      vertex 3.3 13.4 0.95
      vertex 3.3 32.6 0.95
      vertex 3.3 32.6475 0.225579
    endloop
  endfacet
  facet normal -1 0 0
    outer loop
      vertex 3.3 32.6 0.95
      vertex 3.3 13.4 0.95
      vertex 3.3 31.7 6
    endloop
  endfacet
  facet normal -1 0 0
    outer loop
      vertex 3.3 13.3525 0.225579
      vertex 3.3 32.6475 0.225579
      vertex 3.3 32.7891 -0.486445
    endloop
  endfacet
  facet normal -1 0 0
    outer loop
      vertex 3.3 33.0225 -1.17389
      vertex 3.3 12.9775 -1.17389
      vertex 3.3 32.7891 -0.486445
    endloop
  endfacet
  facet normal -1 0 0
    outer loop
      vertex 3.3 13.3525 1.67442
      vertex 3.3 14.3 6
      vertex 3.3 13.4 0.95
    endloop
  endfacet
  facet normal -1 -0 0
    outer loop
      vertex 3.3 31.7 6
      vertex 3.3 13.4 0.95
      vertex 3.3 14.3 6
    endloop
  endfacet
  facet normal -1 0 0
    outer loop
      vertex 3.3 32.6475 0.225579
      vertex 3.3 13.3525 0.225579
      vertex 3.3 13.4 0.95
    endloop
  endfacet
  facet normal -1 0 0
    outer loop
      vertex 3.3 32.7891 -0.486445
      vertex 3.3 13.2109 -0.486445
      vertex 3.3 13.3525 0.225579
    endloop
  endfacet
  facet normal -1 -0 0
    outer loop
      vertex 3.3 32.7891 -0.486445
      vertex 3.3 12.9775 -1.17389
      vertex 3.3 13.2109 -0.486445
    endloop
  endfacet
  facet normal -1 0 0
    outer loop
      vertex 3.3 12.1 -5.1
      vertex 3.3 12.9775 -1.17389
      vertex 3.3 33.9 -5.1
    endloop
  endfacet
  facet normal -1 0 0
    outer loop
      vertex 3.3 12.9775 -1.17389
      vertex 3.3 12.1 -5.1
      vertex 3.3 12.6564 -1.825
    endloop
  endfacet
  facet normal -1 0 0
    outer loop
      vertex 3.3 12.6564 -1.825
      vertex 3.3 12.1 -5.1
      vertex 3.3 12.2531 -2.42863
    endloop
  endfacet
  facet normal -1 0 0
    outer loop
      vertex 3.3 12.2531 -2.42863
      vertex 3.3 12.1 -5.1
      vertex 3.3 12.1 -2.60322
    endloop
  endfacet
  facet normal -1 0 0
    outer loop
      vertex 3.3 31.7 6
      vertex 3.3 33.9 4.50322
      vertex 3.3 33.7469 4.32863
    endloop
  endfacet
  facet normal -1 0 0
    outer loop
      vertex 3.3 31.7 6
      vertex 3.3 33.7469 4.32863
      vertex 3.3 33.3436 3.725
    endloop
  endfacet
  facet normal -1 0 0
    outer loop
      vertex 3.3 31.7 6
      vertex 3.3 33.3436 3.725
      vertex 3.3 33.0225 3.07389
    endloop
  endfacet
  facet normal -1 0 0
    outer loop
      vertex 3.3 31.7 6
      vertex 3.3 33.0225 3.07389
      vertex 3.3 32.7891 2.38645
    endloop
  endfacet
  facet normal -1 0 0
    outer loop
      vertex 3.3 31.7 6
      vertex 3.3 32.6475 1.67442
      vertex 3.3 32.6 0.95
    endloop
  endfacet
  facet normal -1 0 0
    outer loop
      vertex 3.3 31.7 6
      vertex 3.3 32.7891 2.38645
      vertex 3.3 32.6475 1.67442
    endloop
  endfacet
  facet normal -1 0 0
    outer loop
      vertex 3.3 33.9 4.50322
      vertex 3.3 31.7 6
      vertex 3.3 33.9 7
    endloop
  endfacet
  facet normal -1 -0 0
    outer loop
      vertex 3.3 33.9 7
      vertex 3.3 31.7 6
      vertex 3.3 31.7 7
    endloop
  endfacet
  facet normal -1 0 0
    outer loop
      vertex 3.3 13.2109 2.38645
      vertex 3.3 14.3 6
      vertex 3.3 13.3525 1.67442
    endloop
  endfacet
  facet normal -1 0 0
    outer loop
      vertex 3.3 12.9775 3.07389
      vertex 3.3 14.3 6
      vertex 3.3 13.2109 2.38645
    endloop
  endfacet
  facet normal -1 0 0
    outer loop
      vertex 3.3 12.6564 3.725
      vertex 3.3 14.3 6
      vertex 3.3 12.9775 3.07389
    endloop
  endfacet
  facet normal -1 0 0
    outer loop
      vertex 3.3 12.2531 4.32863
      vertex 3.3 14.3 6
      vertex 3.3 12.6564 3.725
    endloop
  endfacet
  facet normal -1 0 0
    outer loop
      vertex 3.3 12.1 4.50322
      vertex 3.3 14.3 6
      vertex 3.3 12.2531 4.32863
    endloop
  endfacet
  facet normal -1 0 0
    outer loop
      vertex 3.3 12.1 7
      vertex 3.3 14.3 6
      vertex 3.3 12.1 4.50322
    endloop
  endfacet
  facet normal -1 0 0
    outer loop
      vertex 3.3 14.3 6
      vertex 3.3 12.1 7
      vertex 3.3 14.3 7
    endloop
  endfacet
  facet normal -1 0 0
    outer loop
      vertex 31.7 14.3 6
      vertex 31.7 31.7 7
      vertex 31.7 31.7 6
    endloop
  endfacet
  facet normal -1 -0 0
    outer loop
      vertex 31.7 31.7 7
      vertex 31.7 14.3 6
      vertex 31.7 14.3 7
    endloop
  endfacet
  facet normal -0 0 1
    outer loop
      vertex 3.3 31.7 6
      vertex 31.7 14.3 6
      vertex 31.7 31.7 6
    endloop
  endfacet
  facet normal 0 0 1
    outer loop
      vertex 31.7 14.3 6
      vertex 3.3 31.7 6
      vertex 3.3 14.3 6
    endloop
  endfacet
  facet normal 0 -1 0
    outer loop
      vertex 3.3 31.7 6
      vertex 31.7 31.7 7
      vertex 3.3 31.7 7
    endloop
  endfacet
  facet normal 0 -1 -0
    outer loop
      vertex 31.7 31.7 7
      vertex 3.3 31.7 6
      vertex 31.7 31.7 6
    endloop
  endfacet
  facet normal 0 1 -0
    outer loop
      vertex 31.7 14.3 6
      vertex 3.3 14.3 7
      vertex 31.7 14.3 7
    endloop
  endfacet
  facet normal 0 1 0
    outer loop
      vertex 3.3 14.3 7
      vertex 31.7 14.3 6
      vertex 3.3 14.3 6
    endloop
  endfacet
endsolid OpenSCAD_Model
